<?xml version="1.0" encoding="utf-8"?>
<!-- Generator: Adobe Illustrator 25.2.1, SVG Export Plug-In . SVG Version: 6.00 Build 0)  -->
<svg version="1.1" id="Calque_1" xmlns="http://www.w3.org/2000/svg" xmlns:xlink="http://www.w3.org/1999/xlink" x="0px" y="0px"
	 viewBox="0 0 1194 834" style="enable-background:new 0 0 1194 834;" xml:space="preserve">
<style type="text/css">
	.st0{fill:#C5FFFC;}
	.st1{fill:#FFFFFF;}
	.st2{fill:#FF4A4A;}
	.st3{fill:#5FF3EC;}
</style>
<g id="Groupe_67" transform="translate(0 445.616)">
	<g id="Tracé_6" transform="translate(907.356 147.5)">
		<path class="st0" d="M-298.05,224.98c0,0,20.51,0.36,52.77-0.62c32.21-0.97,76.11-3.27,122.96-8.57
			c46.76-5.29,96.44-13.57,140.43-26.51c43.9-12.91,82.15-30.47,106.2-54.36c24.02-23.86,63.5-44.96,109.65-62.17
			C280,55.57,332.65,42.27,383.19,33.94c50.43-8.31,98.78-11.67,136.46-9.01c37.62,2.66,64.64,11.33,72.51,27.11
			s17.44,37.03,27.36,60.03s20.19,47.74,29.47,70.52s17.58,43.56,23.56,58.66c5.98,15.1,9.63,24.51,9.63,24.51L-298.05,224.98z"/>
		<path class="st1" d="M682.9,266.27l-0.73-0.03l-980.25-40.77l0.03-0.99c0.08,0,2.11,0.03,5.82,0.05c3.71,0.02,9.1,0.02,15.91-0.05
			c6.8-0.06,15.02-0.19,24.38-0.44c9.36-0.24,19.85-0.6,31.22-1.11c6.68-0.3,13.32-0.65,19.93-1.03c6.6-0.38,13.16-0.8,19.67-1.26
			c6.51-0.46,12.96-0.96,19.35-1.49c6.39-0.53,12.71-1.11,18.97-1.71c7.81-0.76,15.51-1.58,23.08-2.45
			c7.57-0.87,15.02-1.8,22.32-2.79c7.31-0.98,14.47-2.02,21.49-3.11c7.02-1.09,13.88-2.23,20.59-3.43
			c21.82-3.88,41.95-8.29,60.37-13.22c18.4-4.92,35.1-10.36,50.07-16.3c14.96-5.94,28.19-12.38,39.67-19.31
			c11.48-6.93,21.21-14.36,29.18-22.27c2.82-2.8,5.88-5.59,9.18-8.36c3.3-2.77,6.82-5.53,10.58-8.26c3.75-2.73,7.74-5.44,11.94-8.13
			c4.2-2.68,8.62-5.34,13.26-7.96c4.35-2.46,8.89-4.9,13.6-7.3c4.72-2.4,9.61-4.78,14.68-7.11c5.07-2.34,10.3-4.64,15.7-6.9
			c5.4-2.26,10.96-4.49,16.67-6.67c5.41-2.07,10.95-4.09,16.61-6.07c5.65-1.98,11.42-3.91,17.3-5.79
			c5.87-1.88,11.85-3.71,17.92-5.49c6.07-1.78,12.24-3.5,18.48-5.17c6.02-1.61,12.09-3.16,18.2-4.65
			c6.11-1.49,12.26-2.92,18.44-4.28c6.18-1.36,12.38-2.66,18.6-3.9c6.22-1.23,12.46-2.4,18.71-3.5c6.56-1.15,13.07-2.22,19.54-3.21
			c6.46-0.98,12.87-1.89,19.22-2.7c6.35-0.81,12.63-1.54,18.84-2.18c6.21-0.64,12.34-1.19,18.39-1.66
			c6.14-0.47,12.13-0.85,17.98-1.13c5.85-0.28,11.55-0.47,17.1-0.56c5.54-0.09,10.93-0.08,16.15,0.02c5.22,0.1,10.28,0.3,15.16,0.59
			c5.08,0.3,9.94,0.71,14.57,1.22c4.63,0.51,9.03,1.12,13.2,1.83c4.16,0.71,8.09,1.52,11.78,2.42c3.69,0.91,7.13,1.91,10.32,3.01
			c3.4,1.18,6.51,2.46,9.32,3.85c2.81,1.39,5.33,2.88,7.54,4.48c2.22,1.6,4.13,3.3,5.74,5.1c1.61,1.8,2.91,3.7,3.91,5.7
			c1.8,3.6,3.72,7.56,5.77,11.88c2.05,4.32,4.21,8.99,6.5,14c2.29,5.02,4.69,10.38,7.21,16.08c2.52,5.7,5.15,11.73,7.9,18.09
			c2.19,5.09,4.46,10.39,6.79,15.89c2.33,5.5,4.73,11.2,7.19,17.09c2.46,5.89,4.99,11.97,7.57,18.23c2.58,6.26,5.22,12.7,7.92,19.31
			c4.59,11.25,8.95,22.06,12.91,31.94c3.96,9.88,7.52,18.83,10.51,26.39c2.99,7.56,5.42,13.72,7.1,18.02
			c1.68,4.3,2.63,6.73,2.67,6.82L682.9,266.27z M-274.49,225.46l955.97,39.78c-0.52-1.34-1.78-4.56-3.64-9.29
			c-1.86-4.73-4.31-10.96-7.24-18.33c-2.92-7.37-6.31-15.87-10.03-25.14c-3.72-9.27-7.77-19.29-12.02-29.71
			c-2.7-6.61-5.33-13.05-7.92-19.31c-2.58-6.26-5.11-12.34-7.57-18.23c-2.46-5.89-4.86-11.59-7.19-17.09
			c-2.33-5.5-4.6-10.8-6.79-15.88c-2.74-6.36-5.37-12.39-7.89-18.08c-2.52-5.69-4.92-11.05-7.2-16.06
			c-2.28-5.01-4.45-9.68-6.5-13.99c-2.04-4.31-3.97-8.27-5.76-11.87c-0.97-1.94-2.24-3.78-3.81-5.53c-1.57-1.75-3.44-3.4-5.61-4.96
			c-2.17-1.56-4.64-3.01-7.39-4.37c-2.76-1.36-5.81-2.61-9.15-3.77c-3.17-1.1-6.6-2.09-10.26-3c-3.67-0.9-7.57-1.7-11.72-2.41
			c-4.14-0.7-8.53-1.31-13.13-1.82c-4.61-0.51-9.45-0.91-14.51-1.21c-9.69-0.58-20.11-0.78-31.11-0.6
			c-11.01,0.18-22.6,0.73-34.63,1.64c-12.04,0.91-24.52,2.19-37.3,3.82c-12.78,1.63-25.87,3.62-39.1,5.95
			c-6.24,1.1-12.47,2.26-18.69,3.5c-6.22,1.23-12.41,2.53-18.58,3.89c-6.17,1.36-12.31,2.79-18.42,4.27
			c-6.1,1.49-12.17,3.04-18.18,4.64c-6.24,1.67-12.4,3.39-18.46,5.17c-6.06,1.78-12.03,3.61-17.9,5.48
			c-5.87,1.88-11.63,3.81-17.27,5.78c-5.65,1.97-11.18,3.99-16.58,6.06c-5.7,2.18-11.25,4.39-16.64,6.65
			c-5.39,2.26-10.61,4.56-15.67,6.89c-5.06,2.33-9.94,4.7-14.65,7.1c-4.71,2.4-9.23,4.83-13.57,7.28c-4.62,2.61-9.02,5.26-13.2,7.93
			c-4.19,2.67-8.15,5.37-11.89,8.09c-3.74,2.72-7.25,5.46-10.53,8.22c-3.28,2.76-6.33,5.53-9.13,8.32c-1.13,1.12-2.3,2.24-3.51,3.35
			c-1.21,1.11-2.45,2.21-3.73,3.3c-1.28,1.09-2.6,2.17-3.95,3.24c-1.35,1.07-2.73,2.13-4.15,3.17c-1.37,1.01-2.77,2.01-4.21,3.01
			c-1.44,1-2.92,1.98-4.43,2.96c-1.51,0.98-3.05,1.95-4.63,2.91c-1.57,0.96-3.18,1.91-4.81,2.84c-3.09,1.77-6.32,3.52-9.66,5.24
			c-3.35,1.72-6.82,3.4-10.41,5.05c-3.59,1.65-7.3,3.27-11.12,4.85c-3.82,1.58-7.76,3.13-11.79,4.63
			c-3.73,1.39-7.58,2.76-11.53,4.09c-3.95,1.34-8,2.65-12.16,3.93c-4.15,1.28-8.41,2.53-12.75,3.75c-4.34,1.22-8.78,2.41-13.3,3.56
			c-4.13,1.05-8.36,2.09-12.68,3.1c-4.31,1.01-8.72,1.99-13.2,2.95c-4.48,0.96-9.04,1.89-13.67,2.8c-4.63,0.91-9.33,1.78-14.1,2.63
			c-6.71,1.19-13.58,2.34-20.61,3.43c-7.03,1.09-14.2,2.13-21.51,3.11c-7.31,0.98-14.77,1.92-22.34,2.79
			c-7.58,0.87-15.28,1.69-23.1,2.45c-6.25,0.61-12.58,1.18-18.98,1.71c-6.39,0.53-12.85,1.03-19.37,1.49
			c-6.51,0.46-13.08,0.88-19.69,1.26c-6.61,0.38-13.26,0.73-19.94,1.03c-5.44,0.25-10.68,0.46-15.69,0.64
			c-5.01,0.18-9.79,0.33-14.32,0.45c-4.52,0.12-8.79,0.21-12.77,0.29C-267.43,225.37-271.12,225.42-274.49,225.46z"/>
	</g>
	<g id="Tracé_5" transform="translate(0 0.561)">
		<path class="st2" d="M-237.33,272.95c0,0,31.69-2.08,82.47-3.5c50.67-1.41,120.27-2.16,196.26,0.47
			c75.74,2.63,157.8,8.62,233.87,20.67c75.82,12.01,145.73,30.05,197.65,56.83c51.81,26.72,137.99,32.01,237.78,24.97
			c99.36-7.01,212.08-26.24,317.91-48.68c105.32-22.33,203.86-47.85,275.91-67.74c71.81-19.82,117.48-34.1,117.48-34.1
			L-127.34,586.49l-182.24-306.01L-237.33,272.95z"/>
		<path class="st1" d="M-127.59,587.07l-0.19-0.32l-182.24-306.01l-0.4-0.68l0.79-0.08l72.25-7.54l0.01,0l0.01,0
			c0.08-0.01,2.14-0.14,5.97-0.36c3.83-0.22,9.43-0.52,16.59-0.87c7.16-0.35,15.87-0.74,25.93-1.13
			c10.06-0.39,21.46-0.78,34.01-1.13c7.36-0.21,14.75-0.39,22.15-0.54c7.4-0.16,14.81-0.29,22.22-0.39
			c7.41-0.11,14.82-0.19,22.22-0.25c7.39-0.06,14.77-0.09,22.13-0.1c9.19-0.01,18.35,0.02,27.45,0.09
			c9.1,0.07,18.15,0.18,27.14,0.32c8.98,0.15,17.9,0.33,26.74,0.56c8.83,0.22,17.59,0.49,26.24,0.79
			c22.02,0.76,43.46,1.77,64.27,3.02c20.8,1.25,40.99,2.74,60.53,4.47c19.53,1.73,38.41,3.69,56.61,5.89
			c18.19,2.2,35.7,4.63,52.51,7.29c4.86,0.77,9.67,1.56,14.43,2.37c4.76,0.81,9.47,1.65,14.12,2.5c4.65,0.85,9.24,1.72,13.76,2.61
			c4.52,0.89,8.97,1.79,13.35,2.72c4.61,0.97,9.16,1.97,13.65,2.98c4.49,1.02,8.92,2.06,13.29,3.12c4.36,1.06,8.66,2.14,12.88,3.25
			c4.22,1.1,8.37,2.22,12.43,3.36c4.26,1.19,8.46,2.41,12.6,3.66c4.13,1.24,8.2,2.52,12.18,3.81c3.99,1.29,7.9,2.61,11.73,3.94
			c3.83,1.34,7.58,2.69,11.24,4.06c3.83,1.44,7.58,2.9,11.26,4.4c3.68,1.49,7.28,3.01,10.8,4.56c3.52,1.54,6.95,3.11,10.3,4.7
			c3.35,1.59,6.6,3.2,9.77,4.83c2.29,1.18,4.67,2.33,7.12,3.44c2.46,1.11,4.99,2.19,7.61,3.22c2.61,1.04,5.3,2.04,8.06,3
			c2.76,0.96,5.59,1.88,8.49,2.76c2.81,0.85,5.7,1.67,8.67,2.45c2.97,0.78,6.02,1.53,9.13,2.25c3.12,0.71,6.3,1.39,9.56,2.03
			c3.25,0.64,6.57,1.25,9.95,1.81c3.27,0.55,6.62,1.06,10.04,1.55c3.42,0.48,6.91,0.93,10.47,1.35c3.56,0.42,7.18,0.8,10.86,1.15
			c3.68,0.35,7.42,0.67,11.21,0.95c3.66,0.27,7.4,0.51,11.21,0.72c3.81,0.21,7.68,0.39,11.61,0.54c3.93,0.15,7.93,0.26,11.97,0.35
			c4.05,0.09,8.15,0.14,12.29,0.16c4,0.02,8.06,0.01,12.19-0.02c4.13-0.04,8.32-0.1,12.57-0.2c4.25-0.09,8.55-0.22,12.9-0.37
			c4.35-0.15,8.75-0.33,13.18-0.54c4.27-0.2,8.6-0.43,12.99-0.69c4.39-0.26,8.84-0.54,13.34-0.85c4.5-0.31,9.05-0.65,13.63-1.01
			c4.59-0.36,9.22-0.75,13.88-1.17c8.76-0.78,17.72-1.65,26.87-2.62c9.15-0.97,18.48-2.03,27.98-3.19
			c9.5-1.16,19.16-2.41,28.98-3.75c9.81-1.34,19.78-2.77,29.88-4.29l572.08-134.63l0.25,0.94c-0.04,0.01-1.05,0.33-2.97,0.92
			c-1.92,0.59-4.74,1.46-8.39,2.57c-3.66,1.11-8.15,2.47-13.42,4.04c-5.26,1.57-11.3,3.36-18.03,5.34
			c-6.22,1.82-13.37,3.91-21.35,6.21c-7.99,2.3-16.81,4.82-26.36,7.51c-9.56,2.7-19.85,5.57-30.78,8.58
			c-10.94,3.01-22.51,6.16-34.61,9.4c-13.62,3.65-27.21,7.23-40.74,10.74c-13.54,3.51-27.03,6.95-40.44,10.31
			c-13.42,3.36-26.77,6.64-40.01,9.84c-13.25,3.2-26.4,6.31-39.43,9.33c-16.29,3.78-32.39,7.42-48.29,10.91
			c-15.9,3.49-31.59,6.84-47.05,10.04c-15.46,3.2-30.68,6.24-45.63,9.13c-14.96,2.89-29.66,5.62-44.05,8.18c0,0-0.01,0-0.01,0
			c0,0-0.01,0-0.01,0c0,0-0.01,0-0.01,0c0,0-0.01,0-0.01,0c-6.05,1.08-12.07,2.13-18.06,3.16c-5.98,1.03-11.93,2.03-17.82,3
			c-5.89,0.97-11.74,1.91-17.52,2.82c-5.78,0.91-11.51,1.79-17.16,2.64l-977.22,229.99L-127.59,587.07z M-308.73,280.91
			l181.64,305.01l965.48-227.21c-9.04,1.31-17.97,2.55-26.77,3.72c-8.8,1.16-17.48,2.26-26.01,3.27
			c-8.54,1.01-16.93,1.95-25.17,2.81c-8.24,0.86-16.34,1.64-24.26,2.35c-4.67,0.41-9.3,0.8-13.9,1.17
			c-4.59,0.36-9.14,0.7-13.64,1.01c-4.5,0.31-8.95,0.59-13.35,0.85c-4.39,0.26-8.73,0.49-13,0.69c-4.44,0.21-8.84,0.39-13.2,0.54
			c-4.35,0.15-8.66,0.28-12.91,0.37c-4.25,0.1-8.45,0.16-12.58,0.2c-4.13,0.04-8.21,0.04-12.21,0.02
			c-4.15-0.02-8.26-0.08-12.31-0.16c-4.05-0.09-8.05-0.2-11.99-0.35c-3.94-0.15-7.82-0.33-11.63-0.54
			c-3.81-0.21-7.56-0.45-11.23-0.72c-3.8-0.28-7.55-0.6-11.24-0.95c-3.69-0.35-7.32-0.74-10.88-1.15
			c-3.56-0.42-7.06-0.87-10.49-1.36c-3.43-0.48-6.78-1-10.06-1.55c-3.39-0.57-6.72-1.17-9.98-1.82c-3.26-0.64-6.46-1.32-9.59-2.04
			c-3.13-0.72-6.18-1.47-9.16-2.26c-2.98-0.79-5.88-1.61-8.7-2.46c-2.91-0.88-5.76-1.81-8.54-2.77c-2.78-0.96-5.48-1.97-8.11-3.01
			c-2.63-1.04-5.18-2.12-7.65-3.24c-2.47-1.12-4.86-2.27-7.16-3.46c-3.16-1.63-6.41-3.24-9.74-4.82c-3.34-1.59-6.77-3.15-10.28-4.69
			c-3.51-1.54-7.1-3.06-10.77-4.55c-3.67-1.49-7.42-2.95-11.23-4.39c-3.65-1.37-7.4-2.72-11.22-4.06
			c-3.82-1.33-7.73-2.65-11.71-3.94c-3.98-1.29-8.04-2.56-12.16-3.8c-4.13-1.24-8.32-2.46-12.58-3.65
			c-4.06-1.14-8.2-2.26-12.42-3.36c-4.22-1.1-8.51-2.18-12.87-3.24c-4.36-1.06-8.79-2.1-13.28-3.12c-4.49-1.02-9.04-2.01-13.64-2.98
			c-4.37-0.92-8.82-1.83-13.33-2.71c-4.52-0.89-9.1-1.76-13.74-2.61c-4.65-0.85-9.35-1.68-14.11-2.49
			c-4.76-0.81-9.57-1.6-14.42-2.37c-16.8-2.66-34.3-5.09-52.48-7.29c-18.19-2.2-37.06-4.16-56.58-5.89
			c-19.53-1.73-39.71-3.22-60.5-4.47c-20.81-1.25-42.23-2.26-64.24-3.02c-8.65-0.3-17.4-0.56-26.23-0.79
			c-8.83-0.22-17.75-0.41-26.73-0.56c-8.98-0.15-18.03-0.25-27.13-0.32c-9.1-0.07-18.26-0.1-27.44-0.09
			c-7.35,0.01-14.73,0.04-22.12,0.1c-7.39,0.06-14.8,0.14-22.21,0.25c-7.41,0.11-14.82,0.24-22.22,0.4
			c-7.4,0.16-14.79,0.34-22.15,0.54c-12.45,0.35-23.78,0.74-33.78,1.13c-10.01,0.39-18.69,0.78-25.83,1.12
			c-7.15,0.35-12.76,0.65-16.64,0.87c-3.87,0.22-6.01,0.36-6.2,0.37L-308.73,280.91z M862.15,354.13c4.71-0.73,9.47-1.49,14.26-2.26
			c4.79-0.77,9.62-1.57,14.48-2.38c4.86-0.81,9.75-1.64,14.67-2.49c4.91-0.85,9.86-1.72,14.82-2.6c0,0,0.01,0,0.01,0
			c0,0,0.01,0,0.01,0c0,0,0.01,0,0.01,0c0,0,0.01,0,0.01,0c14.39-2.56,29.08-5.29,44.04-8.18c14.95-2.88,30.16-5.93,45.62-9.12
			c15.45-3.19,31.13-6.54,47.03-10.03c15.89-3.49,31.99-7.13,48.28-10.91c13.02-3.02,26.17-6.13,39.42-9.33
			c13.24-3.2,26.58-6.48,40-9.84c13.41-3.36,26.9-6.79,40.44-10.3c13.53-3.51,27.12-7.09,40.73-10.73
			c12.11-3.24,23.68-6.39,34.61-9.4c10.93-3.01,21.22-5.88,30.78-8.57c9.55-2.69,18.37-5.21,26.36-7.51
			c7.98-2.3,15.13-4.38,21.35-6.2c2.95-0.87,5.77-1.7,8.45-2.49c2.68-0.79,5.22-1.55,7.61-2.26c2.39-0.71,4.63-1.38,6.73-2.01
			c2.09-0.63,4.03-1.21,5.81-1.75L862.15,354.13z"/>
	</g>
	<g id="Tracé_4" transform="translate(61.686)">
		<path class="st3" d="M-309.83,292.18c0,0,24.21-3.4,64.56-6.73c40.28-3.33,96.6-6.58,160.91-6.31
			c64.14,0.27,136.18,4.03,208.22,14.71c71.82,10.65,143.63,28.17,207.65,55.95c63.86,27.72,133.8,37.85,202.67,37.48
			c68.67-0.37,136.28-11.17,195.82-25.37c50.04-12.03,99.25-27.31,147.3-45.74c36.46-13.98,58.13-24.43,58.13-24.43
			s21.69-8.94,56.42-21.22c34.68-12.26,82.32-27.83,134.32-41.15c51.88-13.29,108.07-24.33,160.1-27.61
			c51.91-3.27,99.69,1.17,134.98,18.82c35.23,17.63,55.37,33.26,65.78,46.79s11.08,24.97,7.37,34.21s-11.83,16.31-19.01,21.05
			c-4.24,2.82-8.75,5.22-13.45,7.18L-244.59,662.18L-309.83,292.18z"/>
		<path class="st1" d="M-245.01,662.78l-0.09-0.51l-65.24-370.01l-0.09-0.51l0.52-0.07c0.06-0.01,1.63-0.23,4.58-0.6
			c2.95-0.38,7.28-0.91,12.84-1.54c5.57-0.63,12.37-1.37,20.28-2.15c7.9-0.78,16.91-1.61,26.88-2.44
			c5.85-0.48,11.75-0.94,17.67-1.37c5.92-0.43,11.88-0.83,17.85-1.21c5.97-0.38,11.97-0.73,17.97-1.05c6-0.32,12.01-0.61,18.02-0.88
			c7.51-0.33,15.02-0.62,22.53-0.86c7.5-0.24,15-0.44,22.47-0.59c7.47-0.15,14.92-0.26,22.33-0.32c7.41-0.06,14.79-0.08,22.11-0.04
			c18.64,0.08,37.01,0.45,55.07,1.1c18.04,0.66,35.78,1.6,53.18,2.83c17.39,1.23,34.44,2.75,51.13,4.54
			c16.68,1.8,32.99,3.88,48.91,6.24c4.6,0.68,9.18,1.39,13.74,2.12c4.55,0.73,9.08,1.49,13.58,2.27c4.5,0.78,8.96,1.58,13.38,2.41
			c4.42,0.83,8.8,1.67,13.13,2.54c4.56,0.91,9.09,1.86,13.59,2.83c4.5,0.97,8.97,1.97,13.4,2.99c4.43,1.02,8.82,2.07,13.17,3.14
			c4.34,1.07,8.64,2.17,12.89,3.28c4.45,1.17,8.88,2.37,13.26,3.61c4.39,1.23,8.74,2.5,13.04,3.79c4.31,1.29,8.57,2.61,12.78,3.95
			c4.21,1.34,8.37,2.71,12.47,4.1c4.29,1.45,8.54,2.94,12.75,4.47c4.21,1.52,8.38,3.08,12.5,4.66c4.12,1.58,8.19,3.2,12.21,4.84
			c4.02,1.64,7.98,3.31,11.88,5c3.29,1.43,6.62,2.82,9.99,4.17c3.37,1.35,6.77,2.67,10.21,3.94c3.43,1.27,6.9,2.51,10.39,3.69
			c3.49,1.19,7,2.33,10.53,3.44c3.4,1.06,6.84,2.09,10.32,3.07c3.47,0.99,6.98,1.94,10.52,2.86c3.53,0.91,7.1,1.79,10.68,2.63
			c3.58,0.84,7.18,1.63,10.8,2.39c3.48,0.73,6.99,1.42,10.54,2.08c3.55,0.66,7.12,1.28,10.72,1.87c3.6,0.59,7.23,1.14,10.87,1.66
			c3.64,0.52,7.3,1,10.98,1.44c3.52,0.43,7.08,0.82,10.66,1.18c3.58,0.36,7.2,0.69,10.83,0.99c3.63,0.3,7.29,0.56,10.96,0.8
			c3.67,0.23,7.36,0.43,11.05,0.6c3.53,0.16,7.1,0.29,10.69,0.39c3.59,0.1,7.2,0.17,10.84,0.21c3.63,0.04,7.28,0.05,10.95,0.03
			c3.66-0.02,7.34-0.07,11.02-0.15c3.51-0.08,7.05-0.18,10.61-0.31c3.56-0.13,7.14-0.29,10.74-0.47c3.6-0.18,7.21-0.4,10.84-0.63
			c3.62-0.24,7.26-0.5,10.89-0.79c6.73-0.54,13.53-1.17,20.39-1.89c6.86-0.72,13.78-1.54,20.74-2.45
			c6.96-0.91,13.97-1.91,21.02-2.99c7.04-1.09,14.12-2.26,21.23-3.53c8.42-1.5,16.92-3.13,25.47-4.88
			c8.55-1.75,17.16-3.64,25.8-5.64c8.65-2,17.33-4.13,26.04-6.37c8.71-2.24,17.45-4.6,26.19-7.08c7-1.98,14-4.03,21.01-6.16
			c7-2.12,14-4.32,20.99-6.58c6.99-2.26,13.96-4.59,20.91-6.97c6.95-2.39,13.87-4.84,20.75-7.35c6.12-2.23,11.93-4.41,17.38-6.49
			c5.45-2.09,10.56-4.09,15.27-5.97c4.71-1.88,9.03-3.65,12.93-5.26c3.89-1.62,7.36-3.08,10.37-4.37c3.25-1.4,6.15-2.66,8.67-3.78
			c2.52-1.12,4.65-2.08,6.39-2.87c1.73-0.79,3.06-1.41,3.96-1.83c0.9-0.42,1.37-0.65,1.39-0.66l0.01-0.01l0.01-0.01
			c0.02-0.01,0.58-0.24,1.63-0.66c1.05-0.43,2.61-1.05,4.62-1.85c2.01-0.8,4.48-1.77,7.38-2.89c2.89-1.12,6.21-2.39,9.91-3.79
			c3.41-1.29,7.34-2.76,11.72-4.38c4.38-1.62,9.22-3.38,14.46-5.25c5.24-1.88,10.87-3.87,16.86-5.94
			c5.98-2.07,12.31-4.23,18.92-6.43c7.43-2.48,14.85-4.9,22.23-7.24c7.38-2.35,14.72-4.63,22.02-6.84
			c7.3-2.21,14.55-4.35,21.74-6.41c7.19-2.06,14.32-4.05,21.39-5.97c8.82-2.39,17.55-4.66,26.15-6.8c8.6-2.14,17.08-4.16,25.42-6.05
			c8.34-1.89,16.55-3.65,24.61-5.28c8.06-1.63,15.97-3.13,23.72-4.5c5.26-0.93,10.46-1.8,15.6-2.61c5.14-0.81,10.22-1.56,15.22-2.25
			c5.01-0.69,9.94-1.32,14.79-1.89c4.85-0.57,9.63-1.07,14.31-1.52c5.11-0.48,10.14-0.9,15.09-1.24c4.95-0.34,9.82-0.61,14.61-0.81
			c4.78-0.2,9.47-0.32,14.07-0.37c4.59-0.05,9.09-0.03,13.49,0.06c2.33,0.05,4.64,0.12,6.92,0.21c2.29,0.09,4.55,0.2,6.79,0.33
			c2.24,0.13,4.46,0.28,6.64,0.45c2.18,0.17,4.34,0.36,6.46,0.57c2.2,0.22,4.38,0.46,6.54,0.72c2.16,0.26,4.29,0.55,6.39,0.86
			c2.1,0.31,4.18,0.64,6.23,0.99c2.05,0.35,4.06,0.72,6.04,1.11c2.05,0.41,4.07,0.84,6.07,1.29c2,0.45,3.97,0.93,5.91,1.43
			c1.94,0.5,3.85,1.03,5.73,1.57c1.88,0.55,3.72,1.12,5.53,1.71c1.87,0.61,3.71,1.25,5.53,1.91c1.81,0.66,3.6,1.35,5.35,2.06
			c1.75,0.71,3.47,1.45,5.16,2.21c1.69,0.76,3.34,1.55,4.95,2.35c3.57,1.79,7.03,3.57,10.36,5.36c3.33,1.78,6.55,3.56,9.64,5.34
			c3.09,1.77,6.05,3.54,8.88,5.3c2.83,1.76,5.53,3.51,8.09,5.25c2.37,1.61,4.64,3.22,6.8,4.82c2.16,1.6,4.22,3.21,6.16,4.8
			c1.95,1.59,3.78,3.18,5.5,4.76c1.72,1.58,3.33,3.15,4.83,4.71c1.37,1.43,2.65,2.86,3.84,4.29c1.19,1.43,2.29,2.85,3.3,4.26
			c1.01,1.42,1.92,2.83,2.74,4.23c0.82,1.4,1.54,2.79,2.17,4.17c0.57,1.25,1.06,2.5,1.48,3.75c0.42,1.25,0.75,2.49,1.02,3.72
			c0.26,1.23,0.45,2.46,0.56,3.68c0.11,1.22,0.14,2.43,0.09,3.63c-0.06,1.43-0.22,2.84-0.5,4.25c-0.27,1.4-0.66,2.8-1.15,4.18
			c-0.49,1.38-1.09,2.74-1.8,4.09c-0.71,1.35-1.52,2.68-2.44,3.99c-0.73,1.05-1.53,2.08-2.4,3.1c-0.87,1.02-1.8,2.03-2.79,3.02
			c-0.99,0.99-2.05,1.97-3.18,2.93c-1.12,0.96-2.31,1.91-3.55,2.83c-2.11,1.57-4.23,2.96-6.21,4.16c-1.98,1.2-3.84,2.21-5.43,3.02
			c-1.59,0.81-2.92,1.43-3.86,1.84c-0.94,0.41-1.48,0.63-1.5,0.64l-0.04,0.02l-0.04,0.01L-244.5,662.68L-245.01,662.78z
			 M-309.24,292.61l65.06,368.98l1706.01-332.24c0.14-0.06,0.76-0.31,1.72-0.74c0.96-0.43,2.28-1.05,3.83-1.85
			c1.55-0.8,3.33-1.78,5.23-2.94c1.9-1.16,3.92-2.49,5.93-3.99c1.22-0.91,2.39-1.84,3.49-2.79c1.1-0.94,2.14-1.91,3.12-2.88
			c0.98-0.97,1.89-1.96,2.74-2.96c0.85-1,1.63-2.01,2.35-3.04c0.89-1.27,1.68-2.56,2.36-3.87c0.68-1.31,1.27-2.63,1.74-3.96
			c0.48-1.33,0.85-2.68,1.11-4.04c0.27-1.36,0.43-2.73,0.48-4.1c0.05-1.16,0.02-2.33-0.09-3.51c-0.11-1.18-0.29-2.37-0.54-3.57
			c-0.26-1.2-0.59-2.4-0.99-3.61c-0.41-1.21-0.88-2.42-1.44-3.64c-0.61-1.36-1.33-2.72-2.13-4.1c-0.8-1.38-1.7-2.76-2.69-4.16
			c-0.99-1.39-2.07-2.79-3.25-4.2c-1.17-1.4-2.44-2.81-3.79-4.22c-1.48-1.55-3.08-3.11-4.79-4.67c-1.71-1.57-3.53-3.15-5.47-4.73
			c-1.93-1.58-3.98-3.17-6.12-4.77c-2.15-1.59-4.4-3.19-6.76-4.79c-2.55-1.73-5.24-3.48-8.06-5.23c-2.82-1.75-5.77-3.52-8.85-5.29
			c-3.08-1.77-6.28-3.54-9.61-5.32c-3.33-1.78-6.77-3.56-10.33-5.34c-11.42-5.71-24.44-10.19-39.05-13.43
			c-14.62-3.24-30.82-5.24-48.57-6.01c-17.77-0.76-37.1-0.28-57.97,1.44c-20.89,1.73-43.32,4.7-67.26,8.93
			c-7.74,1.37-15.64,2.87-23.7,4.5c-8.05,1.63-16.25,3.39-24.59,5.28c-8.34,1.89-16.81,3.91-25.4,6.05
			c-8.59,2.14-17.31,4.41-26.12,6.79c-7.06,1.91-14.19,3.9-21.37,5.96c-7.19,2.06-14.44,4.2-21.73,6.41
			c-7.29,2.21-14.64,4.49-22.01,6.84c-7.38,2.35-14.78,4.76-22.21,7.24c-6.61,2.21-12.93,4.36-18.91,6.43
			c-5.98,2.07-11.61,4.06-16.84,5.94c-5.24,1.88-10.07,3.64-14.45,5.25c-4.38,1.62-8.3,3.08-11.71,4.38
			c-3.63,1.37-6.88,2.62-9.73,3.73c-2.85,1.11-5.3,2.07-7.3,2.86c-2.01,0.79-3.57,1.42-4.66,1.86c-1.09,0.44-1.7,0.69-1.8,0.73
			c-0.08,0.04-0.6,0.29-1.53,0.73c-0.93,0.44-2.27,1.06-4.01,1.85c-1.73,0.79-3.85,1.75-6.34,2.85c-2.49,1.1-5.34,2.35-8.54,3.72
			c-3.01,1.29-6.48,2.76-10.37,4.38c-3.9,1.62-8.23,3.38-12.94,5.27c-4.72,1.88-9.82,3.89-15.28,5.98
			c-5.46,2.09-11.27,4.27-17.4,6.5c-6.89,2.51-13.81,4.96-20.76,7.35c-6.95,2.39-13.93,4.72-20.92,6.98
			c-6.99,2.26-14,4.46-21.01,6.59c-7.01,2.13-14.02,4.18-21.03,6.17c-8.76,2.48-17.5,4.84-26.22,7.09
			c-8.72,2.25-17.42,4.37-26.07,6.38c-8.66,2.01-17.27,3.89-25.83,5.64c-8.56,1.76-17.06,3.39-25.5,4.89
			c-7.11,1.27-14.2,2.44-21.25,3.53c-7.05,1.09-14.07,2.09-21.04,3c-6.97,0.91-13.9,1.73-20.77,2.45
			c-6.87,0.73-13.67,1.36-20.41,1.9c-3.64,0.29-7.28,0.56-10.91,0.79c-3.63,0.24-7.25,0.45-10.85,0.63
			c-3.6,0.18-7.19,0.34-10.76,0.47c-3.57,0.13-7.11,0.23-10.63,0.31c-3.69,0.08-7.37,0.13-11.04,0.15
			c-3.67,0.02-7.33,0.01-10.97-0.03c-3.64-0.04-7.26-0.11-10.85-0.21c-3.59-0.1-7.17-0.23-10.7-0.39c-3.7-0.17-7.39-0.37-11.07-0.6
			c-3.68-0.23-7.34-0.5-10.98-0.8c-3.64-0.3-7.26-0.63-10.85-0.99c-3.59-0.36-7.15-0.76-10.68-1.18c-3.68-0.44-7.35-0.93-11-1.45
			c-3.65-0.52-7.28-1.07-10.89-1.66c-3.61-0.59-7.19-1.22-10.75-1.88c-3.55-0.66-7.08-1.35-10.56-2.08
			c-3.63-0.76-7.24-1.56-10.83-2.39c-3.59-0.84-7.16-1.72-10.7-2.63c-3.54-0.92-7.06-1.87-10.54-2.86
			c-3.48-0.99-6.93-2.02-10.34-3.08c-3.54-1.1-7.06-2.25-10.55-3.44c-3.5-1.19-6.97-2.43-10.41-3.7c-3.44-1.28-6.85-2.59-10.23-3.95
			c-3.38-1.36-6.72-2.75-10.01-4.18c-3.89-1.69-7.85-3.35-11.86-4.99c-4.01-1.64-8.08-3.25-12.19-4.83
			c-4.12-1.58-8.28-3.13-12.48-4.65c-4.21-1.52-8.45-3.01-12.73-4.46c-4.1-1.39-8.25-2.76-12.46-4.1
			c-4.21-1.34-8.46-2.66-12.76-3.95c-4.3-1.29-8.65-2.55-13.03-3.78c-4.38-1.23-8.8-2.43-13.24-3.6c-4.24-1.12-8.53-2.21-12.88-3.28
			c-4.34-1.07-8.73-2.12-13.15-3.14c-4.43-1.02-8.89-2.02-13.39-2.99c-4.5-0.97-9.03-1.91-13.58-2.82
			c-4.32-0.87-8.7-1.71-13.11-2.54c-4.42-0.82-8.87-1.63-13.36-2.41c-4.49-0.78-9.02-1.54-13.57-2.27
			c-4.55-0.73-9.13-1.44-13.73-2.12c-15.91-2.36-32.21-4.44-48.87-6.23c-16.68-1.8-33.72-3.31-51.09-4.54
			c-17.39-1.23-35.11-2.17-53.15-2.83c-18.05-0.66-36.4-1.02-55.03-1.1c-7.32-0.03-14.7-0.02-22.1,0.05
			c-7.41,0.06-14.85,0.17-22.32,0.32c-7.47,0.15-14.96,0.35-22.46,0.59c-7.5,0.24-15.01,0.53-22.52,0.86
			c-6.01,0.26-12.01,0.56-18.01,0.88c-6,0.32-11.99,0.67-17.96,1.05c-5.97,0.38-11.92,0.78-17.84,1.21
			c-5.92,0.43-11.81,0.89-17.66,1.37c-9.16,0.76-17.5,1.52-24.93,2.24c-7.43,0.73-13.93,1.42-19.41,2.03
			c-5.48,0.61-9.93,1.14-13.24,1.56C-306.12,292.19-308.3,292.48-309.24,292.61z"/>
	</g>
</g>
</svg>
