<?xml version="1.0" encoding="utf-8"?>
<!-- Generator: Adobe Illustrator 25.2.1, SVG Export Plug-In . SVG Version: 6.00 Build 0)  -->
<svg version="1.1" id="Calque_1" xmlns="http://www.w3.org/2000/svg" xmlns:xlink="http://www.w3.org/1999/xlink" x="0px" y="0px"
	 viewBox="0 0 1194 834" style="enable-background:new 0 0 1194 834;" xml:space="preserve">
<style type="text/css">
	.st0{fill:#C5FFFC;}
	.st1{fill:#FFFFFF;}
	.st2{fill:#FF4A4A;}
	.st3{fill:#5FF3EC;}
</style>
<g id="Groupe_67" transform="translate(0 18.558)">
	<g id="Tracé_6" transform="translate(1392.779 220.773)">
		<path class="st0" d="M-71.29,564.31c0,0,31.1-4.4,79.61-13.66c48.4-9.24,114.07-23.31,183.38-42.66
			c69.09-19.28,141.77-43.81,204.67-74.04c62.71-30.14,115.73-65.96,145.9-108.01c30.11-41.97,84-83.37,148.73-120.39
			c64.52-36.9,139.76-69.43,212.99-93.89c72.98-24.38,143.99-40.75,200.58-45.5c56.44-4.74,98.6,2.08,114.14,24.09
			s34.91,51.9,55.23,84.36s41.59,67.44,60.91,99.68s36.69,61.7,49.23,83.12s20.25,34.77,20.25,34.77L-71.29,564.31z"/>
		<path class="st1" d="M1405.09,392.55l-0.69,0.08L-71.23,564.79l-0.13-0.98c0.03,0,0.8-0.11,2.26-0.33
			c1.46-0.22,3.6-0.54,6.37-0.97c2.77-0.43,6.18-0.96,10.15-1.61c3.98-0.64,8.53-1.39,13.59-2.25c4.68-0.79,10.05-1.72,16.03-2.78
			c5.98-1.06,12.57-2.25,19.69-3.57c7.12-1.32,14.76-2.78,22.86-4.36c8.09-1.58,16.63-3.3,25.53-5.14
			c10.01-2.07,19.95-4.19,29.83-6.37c9.87-2.17,19.67-4.39,29.38-6.66c9.7-2.27,19.32-4.58,28.82-6.93
			c9.5-2.35,18.9-4.74,28.17-7.17c11.58-3.04,22.98-6.13,34.18-9.28c11.19-3.15,22.17-6.36,32.94-9.61
			c10.76-3.25,21.29-6.56,31.59-9.9c10.29-3.34,20.34-6.73,30.13-10.16c31.87-11.15,61.05-22.69,87.51-34.61
			c26.43-11.9,50.17-24.17,71.17-36.79c20.98-12.61,39.25-25.57,54.77-38.86c15.51-13.28,28.27-26.9,38.27-40.84
			c1.79-2.5,3.68-5.01,5.67-7.54c1.98-2.52,4.06-5.06,6.23-7.6c2.17-2.54,4.43-5.09,6.78-7.64c2.35-2.55,4.78-5.11,7.3-7.66
			c2.43-2.47,4.96-4.95,7.57-7.43c2.61-2.49,5.31-4.98,8.08-7.48c2.78-2.5,5.63-4.99,8.57-7.49c2.93-2.5,5.94-4.99,9.02-7.48
			c5.9-4.77,12.09-9.54,18.55-14.3c6.46-4.76,13.2-9.52,20.2-14.27c7-4.74,14.26-9.47,21.77-14.18c7.51-4.71,15.27-9.39,23.26-14.04
			c7.58-4.41,15.35-8.78,23.31-13.12c7.95-4.33,16.09-8.61,24.39-12.85c8.3-4.23,16.77-8.42,25.39-12.54
			c8.62-4.12,17.39-8.19,26.29-12.19c8.58-3.85,17.25-7.63,25.99-11.32c8.74-3.69,17.55-7.29,26.42-10.81
			c8.87-3.51,17.79-6.94,26.76-10.26c8.96-3.32,17.96-6.55,26.99-9.68c9.48-3.28,18.91-6.43,28.28-9.43
			c9.37-3,18.69-5.86,27.93-8.58c9.24-2.72,18.4-5.29,27.47-7.7c9.07-2.42,18.05-4.69,26.92-6.8c9-2.14,17.81-4.11,26.43-5.9
			c8.62-1.79,17.03-3.4,25.24-4.83c8.21-1.43,16.2-2.67,23.98-3.74c7.77-1.06,15.32-1.94,22.62-2.64c7.61-0.72,14.91-1.24,21.9-1.55
			c6.98-0.31,13.66-0.41,20-0.31c6.34,0.1,12.36,0.41,18.04,0.92c5.68,0.51,11.02,1.23,16.02,2.15c5.31,0.98,10.22,2.19,14.71,3.63
			c4.49,1.44,8.57,3.1,12.23,4.99c3.66,1.89,6.9,4,9.71,6.34c2.81,2.33,5.2,4.89,7.16,7.66c3.54,5.02,7.36,10.56,11.45,16.61
			c4.09,6.05,8.44,12.6,13.06,19.65c4.61,7.05,9.49,14.59,14.62,22.61c5.12,8.02,10.5,16.53,16.12,25.5
			c4.5,7.18,9.15,14.66,13.95,22.42c4.8,7.77,9.75,15.82,14.84,24.15c5.09,8.33,10.32,16.93,15.67,25.78
			c5.36,8.86,10.85,17.97,16.45,27.33c9.55,15.93,18.65,31.23,26.93,45.23c8.28,14,15.74,26.69,22.02,37.41
			c6.28,10.72,11.37,19.46,14.92,25.56c3.54,6.1,5.54,9.55,5.62,9.68L1405.09,392.55z M-46.37,560.9l1449.96-169.14
			c-0.9-1.55-3.42-5.91-7.26-12.51c-3.84-6.6-9-15.43-15.16-25.95c-6.17-10.52-13.35-22.72-21.23-36.04
			c-7.88-13.32-16.47-27.76-25.46-42.76c-5.61-9.36-11.09-18.47-16.45-27.33c-5.36-8.86-10.58-17.45-15.67-25.78
			c-5.09-8.33-10.04-16.38-14.83-24.14c-4.8-7.77-9.45-15.24-13.95-22.42c-5.62-8.97-10.99-17.47-16.12-25.49
			c-5.12-8.02-10-15.56-14.61-22.6c-4.61-7.05-8.97-13.6-13.05-19.64c-4.09-6.04-7.9-11.58-11.45-16.6
			c-1.92-2.72-4.27-5.22-7.03-7.52c-2.77-2.29-5.96-4.37-9.57-6.22c-3.61-1.86-7.63-3.5-12.07-4.91c-4.44-1.42-9.28-2.61-14.54-3.58
			c-4.98-0.92-10.3-1.63-15.96-2.14c-5.66-0.51-11.66-0.82-17.98-0.92c-6.32-0.1-12.97,0-19.94,0.31
			c-6.97,0.31-14.25,0.82-21.84,1.55c-14.53,1.38-30.05,3.51-46.34,6.35c-16.31,2.84-33.4,6.38-51.06,10.57
			c-17.68,4.2-35.92,9.05-54.53,14.51c-18.62,5.46-37.61,11.53-56.74,18.16c-9.02,3.12-18.02,6.35-26.97,9.67
			c-8.96,3.32-17.88,6.75-26.74,10.26c-8.86,3.51-17.67,7.11-26.4,10.8c-8.74,3.69-17.4,7.46-25.98,11.31
			c-8.9,4-17.66,8.06-26.27,12.18c-8.61,4.12-17.07,8.3-25.37,12.53c-8.3,4.23-16.43,8.51-24.37,12.84
			c-7.95,4.33-15.72,8.7-23.29,13.1c-7.99,4.65-15.73,9.33-23.23,14.03c-7.5,4.7-14.75,9.43-21.74,14.16
			c-6.99,4.74-13.72,9.49-20.17,14.25c-6.45,4.76-12.63,9.52-18.52,14.28c-6.27,5.07-12.21,10.13-17.82,15.18
			c-5.61,5.05-10.89,10.1-15.82,15.12c-4.93,5.03-9.52,10.03-13.76,15.01c-4.24,4.98-8.12,9.92-11.64,14.83
			c-1.41,1.97-2.89,3.94-4.42,5.91c-1.53,1.97-3.13,3.94-4.78,5.9c-1.65,1.96-3.35,3.92-5.11,5.86c-1.76,1.95-3.57,3.88-5.43,5.8
			c-1.8,1.86-3.66,3.72-5.57,5.57c-1.91,1.86-3.88,3.71-5.9,5.56c-2.02,1.85-4.09,3.69-6.22,5.52c-2.12,1.83-4.29,3.66-6.51,5.47
			c-2.14,1.75-4.33,3.5-6.58,5.24c-2.25,1.75-4.55,3.49-6.89,5.23c-2.35,1.74-4.74,3.47-7.18,5.19c-2.44,1.72-4.93,3.44-7.45,5.14
			c-2.43,1.64-4.92,3.28-7.45,4.92c-2.54,1.64-5.12,3.27-7.75,4.9c-2.63,1.63-5.3,3.25-8.02,4.87c-2.71,1.62-5.47,3.22-8.26,4.82
			c-5.25,3.01-10.69,6-16.28,8.98c-5.6,2.98-11.36,5.94-17.28,8.88c-5.92,2.94-12,5.86-18.22,8.76c-6.22,2.9-12.59,5.76-19.1,8.6
			c-5.95,2.59-12.04,5.18-18.28,7.74c-6.23,2.57-12.61,5.12-19.1,7.65c-6.5,2.53-13.12,5.04-19.86,7.53
			c-6.74,2.49-13.59,4.95-20.55,7.39c-9.8,3.43-19.85,6.82-30.15,10.17c-10.3,3.35-20.84,6.65-31.61,9.91
			c-10.77,3.26-21.76,6.46-32.96,9.62c-11.2,3.15-22.61,6.25-34.2,9.29c-9.28,2.43-18.68,4.82-28.18,7.18
			c-9.51,2.35-19.13,4.67-28.84,6.93c-9.71,2.27-19.51,4.49-29.39,6.66c-9.88,2.17-19.83,4.3-29.84,6.37
			c-8.91,1.84-17.45,3.56-25.55,5.14c-8.1,1.59-15.75,3.04-22.87,4.36c-7.12,1.32-13.71,2.52-19.7,3.58
			c-5.98,1.06-11.35,1.99-16.03,2.78c-0.67,0.11-1.32,0.22-1.97,0.33c-0.65,0.11-1.29,0.22-1.92,0.32
			c-0.63,0.11-1.25,0.21-1.86,0.31C-45.18,560.71-45.78,560.81-46.37,560.9z"/>
	</g>
	<g id="Tracé_5" transform="translate(0 35.604)">
		<path class="st2" d="M3.73,802.91c0,0,48.38-10.95,126.3-25.52c77.65-14.52,184.45-32.6,301.7-47
			c116.66-14.32,243.58-24.97,362.59-24.85c118.43,0.12,229.16,10.9,314.55,39.38c85.12,28.39,216.89,15.67,365.92-19.14
			c148.03-34.58,312.78-90.89,465.95-150.29c152.05-58.96,292.83-121.01,395.25-168.14c101.9-46.9,166.19-79.2,166.19-79.2
			L250.09,1260.02l-356.12-427.79L3.73,802.91z"/>
		<path class="st1" d="M249.94,1260.63l-0.24-0.28l-356.12-427.79l-0.51-0.61l0.77-0.21L3.6,802.42l0.01,0l0.01,0
			c0.12-0.03,3.26-0.74,9.12-2.01c5.85-1.27,14.42-3.11,25.37-5.4c10.95-2.28,24.29-5.02,39.71-8.08
			c15.41-3.06,32.88-6.44,52.12-10.04c11.29-2.11,22.62-4.19,33.98-6.23c11.35-2.04,22.72-4.05,34.1-6.02
			c11.37-1.97,22.75-3.9,34.11-5.79c11.35-1.89,22.69-3.73,34-5.53c14.12-2.25,28.19-4.43,42.2-6.54c14-2.11,27.92-4.14,41.75-6.09
			c13.82-1.96,27.55-3.84,41.16-5.64c13.6-1.8,27.09-3.52,40.43-5.16c33.93-4.16,67.01-7.81,99.19-10.93
			c32.14-3.12,63.38-5.71,93.67-7.79c30.26-2.07,59.57-3.62,87.9-4.64c28.3-1.02,55.61-1.52,81.89-1.5
			c7.59,0.01,15.12,0.06,22.58,0.16c7.45,0.1,14.83,0.24,22.12,0.42c7.29,0.18,14.49,0.41,21.59,0.68c7.1,0.27,14.1,0.59,20.99,0.94
			c7.25,0.38,14.42,0.8,21.51,1.28c7.09,0.48,14.08,1,20.99,1.58c6.9,0.57,13.7,1.2,20.39,1.87c6.69,0.67,13.27,1.39,19.73,2.15
			c6.77,0.8,13.46,1.66,20.04,2.57c6.58,0.91,13.07,1.88,19.45,2.89c6.38,1.02,12.64,2.09,18.79,3.21
			c6.14,1.12,12.17,2.29,18.06,3.51c6.16,1.28,12.22,2.62,18.17,4.01c5.95,1.4,11.79,2.86,17.51,4.37
			c5.72,1.52,11.32,3.09,16.78,4.72c5.47,1.63,10.8,3.31,16,5.04c1.9,0.63,3.83,1.25,5.79,1.85c1.96,0.6,3.96,1.18,5.98,1.74
			c2.02,0.56,4.07,1.1,6.14,1.62c2.07,0.52,4.16,1.02,6.28,1.5c2.08,0.47,4.2,0.92,6.34,1.36c2.15,0.44,4.32,0.85,6.52,1.25
			c2.2,0.4,4.43,0.78,6.68,1.14c2.25,0.36,4.52,0.7,6.81,1.02c4.48,0.63,9.06,1.18,13.76,1.66c4.7,0.48,9.5,0.9,14.4,1.24
			c4.9,0.34,9.9,0.61,14.99,0.81c5.09,0.2,10.27,0.32,15.53,0.37c5.09,0.05,10.29,0.03,15.59-0.05c5.3-0.09,10.7-0.24,16.19-0.46
			c5.49-0.22,11.07-0.51,16.73-0.86c5.66-0.35,11.4-0.77,17.22-1.26c5.61-0.47,11.33-1,17.14-1.6c5.81-0.6,11.72-1.26,17.7-1.98
			c5.99-0.72,12.06-1.51,18.2-2.35c6.14-0.85,12.35-1.75,18.63-2.72c6.05-0.93,12.19-1.92,18.43-2.98
			c6.23-1.05,12.55-2.16,18.95-3.33c6.39-1.17,12.86-2.39,19.4-3.68c6.53-1.28,13.13-2.62,19.78-4.01
			c6.39-1.34,12.88-2.73,19.45-4.18c6.56-1.45,13.21-2.95,19.92-4.51c6.71-1.56,13.49-3.16,20.32-4.82
			c6.83-1.66,13.72-3.37,20.66-5.12c6.65-1.68,13.39-3.42,20.2-5.21c6.81-1.79,13.69-3.63,20.63-5.51
			c6.94-1.89,13.94-3.82,20.99-5.8c7.05-1.98,14.14-4,21.28-6.06c6.82-1.97,13.72-4,20.69-6.07c6.97-2.07,13.99-4.19,21.08-6.35
			c7.08-2.16,14.21-4.36,21.39-6.6c7.17-2.24,14.39-4.52,21.63-6.83l821.57-339.95l0.39,0.87c-0.06,0.03-1.48,0.74-4.18,2.08
			c-2.7,1.34-6.67,3.31-11.83,5.85c-5.16,2.54-11.5,5.64-18.92,9.25c-7.43,3.61-15.95,7.74-25.47,12.31
			c-8.79,4.22-18.9,9.05-30.2,14.41c-11.3,5.36-23.8,11.24-37.34,17.57c-13.55,6.33-28.16,13.1-43.69,20.23
			c-15.53,7.14-31.99,14.63-49.22,22.4c-19.39,8.74-38.75,17.38-58.06,25.89c-19.33,8.52-38.6,16.93-57.79,25.19
			c-19.2,8.28-38.32,16.42-57.31,24.41c-19.01,8-37.89,15.84-56.62,23.53c-23.43,9.61-46.62,18.96-69.54,28.05
			c-22.95,9.1-45.62,17.92-67.98,26.46c-22.38,8.55-44.45,16.81-66.16,24.77c-21.73,7.97-43.11,15.63-64.09,22.98
			c-0.01,0-0.01,0-0.02,0.01c-0.01,0-0.01,0-0.02,0.01c-0.01,0-0.01,0-0.02,0.01c-0.01,0-0.01,0-0.02,0.01
			c-8.82,3.09-17.61,6.13-26.34,9.13c-8.74,2.99-17.42,5.94-26.03,8.83c-8.62,2.89-17.17,5.72-25.64,8.5
			c-8.47,2.77-16.86,5.49-25.14,8.14L250.28,1260.49L249.94,1260.63z M-105.12,832.51l355.37,426.9l1419.5-587.36
			c-6.3,1.99-12.58,3.95-18.82,5.88c-6.24,1.93-12.45,3.83-18.61,5.7c-6.17,1.87-12.29,3.7-18.36,5.5
			c-6.07,1.8-12.09,3.56-18.06,5.29c-7.13,2.06-14.23,4.09-21.28,6.06c-7.05,1.98-14.06,3.91-21,5.8
			c-6.94,1.89-13.83,3.73-20.64,5.52c-6.81,1.79-13.55,3.53-20.21,5.21c-6.94,1.76-13.83,3.46-20.67,5.12
			c-6.84,1.66-13.62,3.27-20.33,4.83c-6.71,1.56-13.36,3.06-19.93,4.51c-6.57,1.45-13.06,2.84-19.45,4.18
			c-6.65,1.39-13.25,2.73-19.79,4.01c-6.54,1.28-13.01,2.51-19.41,3.68c-6.4,1.17-12.72,2.28-18.96,3.34
			c-6.24,1.05-12.39,2.05-18.44,2.98c-6.28,0.97-12.5,1.88-18.65,2.72c-6.15,0.85-12.22,1.63-18.22,2.36
			c-5.99,0.72-11.9,1.39-17.72,1.98c-5.82,0.6-11.54,1.13-17.16,1.6c-5.82,0.49-11.57,0.91-17.24,1.26
			c-5.67,0.35-11.26,0.64-16.75,0.86c-5.5,0.22-10.91,0.37-16.21,0.46c-5.31,0.09-10.51,0.1-15.61,0.05
			c-5.27-0.05-10.46-0.18-15.56-0.37c-5.1-0.2-10.11-0.47-15.02-0.81c-4.91-0.34-9.73-0.75-14.43-1.24
			c-4.71-0.48-9.31-1.04-13.79-1.67c-2.3-0.32-4.58-0.66-6.83-1.02c-2.26-0.36-4.49-0.74-6.7-1.14c-2.21-0.4-4.39-0.82-6.54-1.25
			c-2.15-0.44-4.27-0.89-6.36-1.36c-2.12-0.48-4.22-0.98-6.3-1.5c-2.08-0.52-4.13-1.06-6.16-1.63c-2.03-0.56-4.03-1.14-6-1.74
			c-1.97-0.6-3.91-1.22-5.82-1.85c-5.19-1.73-10.52-3.41-15.98-5.03c-5.46-1.63-11.05-3.2-16.76-4.71
			c-5.71-1.51-11.54-2.97-17.48-4.37c-5.94-1.4-11.99-2.73-18.15-4.01c-5.89-1.22-11.9-2.39-18.04-3.51
			c-6.14-1.12-12.4-2.19-18.77-3.21c-6.37-1.02-12.85-1.98-19.43-2.89c-6.58-0.91-13.26-1.76-20.02-2.56
			c-6.45-0.76-13.03-1.48-19.71-2.15c-6.69-0.67-13.48-1.29-20.38-1.86c-6.9-0.57-13.89-1.1-20.97-1.57
			c-7.08-0.48-14.25-0.9-21.49-1.28c-6.88-0.36-13.88-0.67-20.97-0.94c-7.1-0.27-14.29-0.5-21.58-0.68
			c-7.29-0.18-14.66-0.32-22.11-0.42c-7.45-0.1-14.98-0.15-22.56-0.15c-26.27-0.03-53.57,0.47-81.86,1.5
			c-28.32,1.02-57.62,2.57-87.87,4.64c-30.29,2.07-61.52,4.67-93.64,7.79c-32.17,3.12-65.24,6.76-99.16,10.93
			c-13.34,1.64-26.82,3.36-40.42,5.16c-13.61,1.8-27.33,3.68-41.15,5.64c-13.83,1.96-27.75,3.99-41.74,6.09
			c-14,2.11-28.07,4.29-42.19,6.53c-11.3,1.8-22.64,3.65-33.99,5.53c-11.36,1.89-22.73,3.82-34.1,5.79
			c-11.38,1.97-22.75,3.98-34.1,6.02c-11.35,2.04-22.68,4.12-33.97,6.23c-19.15,3.58-36.55,6.95-51.9,10
			c-15.36,3.05-28.67,5.77-39.61,8.05c-10.95,2.28-19.52,4.12-25.42,5.41c-5.9,1.28-9.11,2.01-9.34,2.06L-105.12,832.51z
			 M1691.85,663.97c7.42-2.4,14.91-4.85,22.46-7.34c7.55-2.49,15.16-5.03,22.82-7.61c7.66-2.58,15.37-5.2,23.11-7.87
			c7.75-2.66,15.53-5.36,23.35-8.1c0.01,0,0.01,0,0.02-0.01c0.01,0,0.01,0,0.02-0.01c0.01,0,0.01-0.01,0.02-0.01
			c0.01,0,0.01,0,0.02-0.01c20.98-7.34,42.35-15.01,64.08-22.97c21.71-7.96,43.77-16.22,66.15-24.76
			c22.35-8.54,45.02-17.36,67.97-26.45c22.92-9.08,46.11-18.44,69.53-28.04c18.73-7.68,37.61-15.53,56.61-23.52
			c18.99-7.99,38.1-16.13,57.3-24.4c19.18-8.27,38.46-16.67,57.78-25.19c19.31-8.51,38.67-17.15,58.06-25.89
			c17.23-7.77,33.68-15.26,49.22-22.4c15.52-7.13,30.13-13.9,43.68-20.23c13.54-6.32,26.04-12.21,37.34-17.57
			c11.3-5.35,21.41-10.18,30.2-14.4c5.32-2.56,10.34-4.97,15.02-7.24c4.68-2.27,9.04-4.38,13.05-6.33
			c4.01-1.95,7.67-3.74,10.98-5.36c3.3-1.62,6.25-3.07,8.81-4.33L1691.85,663.97z"/>
	</g>
	<g id="Tracé_4" transform="translate(97.531 0)">
		<path class="st3" d="M-106.27,863.42c0,0,36.52-11.16,97.93-26.16c61.24-14.95,147.1-33.68,245.99-48.9
			c98.46-15.16,209.74-26.83,322.5-27.85c112.23-1.02,225.95,8.51,330.17,35.64c103.81,27.03,212.36,25.63,316.56,8.42
			c103.72-17.12,203.11-49.89,289.36-85.87c72.31-30.31,142.54-65.35,210.23-104.91c51.26-29.95,81.18-51,81.18-51
			s30.3-18.74,79.3-45.64c48.87-26.83,116.26-61.73,190.62-94.19c74.09-32.35,155.06-62.25,231.63-79.4
			c76.3-17.08,148.28-21.5,204.91-3.04c56.5,18.43,90.14,37.34,108.86,55.36s22.52,35.14,19.29,49.98s-13.49,27.42-22.96,36.29
			c-5.58,5.25-11.65,9.95-18.14,14.02L85.06,1419.04L-106.27,863.42z"/>
		<path class="st1" d="M84.73,1419.69l-0.17-0.49l-191.32-555.63l-0.17-0.49l0.51-0.15c0.09-0.03,2.47-0.75,6.93-2.05
			c4.46-1.3,11.01-3.18,19.44-5.52c8.43-2.34,18.75-5.14,30.75-8.28c12-3.14,25.68-6.62,40.84-10.32c8.9-2.17,17.87-4.32,26.89-6.42
			c9.02-2.11,18.09-4.18,27.2-6.22c9.1-2.04,18.24-4.03,27.4-5.99c9.16-1.96,18.33-3.87,27.52-5.74c11.47-2.34,22.96-4.61,34.44-6.8
			c11.48-2.2,22.95-4.32,34.4-6.37c11.44-2.05,22.86-4.02,34.23-5.92c11.37-1.89,22.69-3.71,33.95-5.44
			c28.63-4.41,56.9-8.3,84.75-11.67c27.82-3.37,55.23-6.21,82.18-8.54c26.92-2.32,53.39-4.12,79.36-5.4
			c25.94-1.27,51.38-2.03,76.28-2.25c7.19-0.07,14.37-0.09,21.5-0.06c7.14,0.02,14.24,0.09,21.29,0.2
			c7.05,0.11,14.06,0.27,21.01,0.46c6.95,0.2,13.83,0.44,20.65,0.73c7.17,0.3,14.32,0.65,21.42,1.05c7.1,0.4,14.16,0.85,21.17,1.35
			c7.01,0.5,13.96,1.04,20.84,1.64c6.88,0.59,13.7,1.23,20.44,1.92c7.07,0.72,14.1,1.5,21.09,2.33c6.98,0.83,13.92,1.72,20.79,2.65
			c6.87,0.94,13.68,1.93,20.42,2.97c6.74,1.04,13.4,2.13,19.99,3.28c6.88,1.19,13.72,2.45,20.5,3.77c6.78,1.32,13.5,2.69,20.16,4.12
			c6.65,1.43,13.24,2.92,19.75,4.47c6.51,1.54,12.94,3.14,19.28,4.79c5.35,1.39,10.76,2.72,16.22,3.98
			c5.45,1.26,10.95,2.45,16.48,3.57c5.53,1.12,11.1,2.17,16.69,3.15c5.59,0.98,11.21,1.89,16.84,2.72
			c5.43,0.8,10.91,1.54,16.43,2.22c5.52,0.68,11.08,1.29,16.67,1.83c5.59,0.55,11.21,1.03,16.86,1.44
			c5.64,0.42,11.31,0.76,16.98,1.05c5.46,0.27,10.96,0.48,16.51,0.63c5.54,0.15,11.12,0.24,16.73,0.27c5.61,0.03,11.24,0,16.89-0.08
			c5.65-0.09,11.32-0.24,17-0.44c5.45-0.2,10.94-0.46,16.46-0.77c5.52-0.31,11.08-0.68,16.66-1.1c5.58-0.42,11.18-0.9,16.8-1.43
			c5.62-0.53,11.25-1.12,16.88-1.76c5.39-0.61,10.82-1.27,16.28-1.99c5.46-0.71,10.95-1.48,16.46-2.3
			c5.51-0.82,11.04-1.68,16.58-2.6c5.54-0.91,11.09-1.88,16.64-2.89c5.29-0.96,10.62-1.97,15.98-3.03
			c5.35-1.06,10.73-2.16,16.13-3.31c5.4-1.15,10.81-2.34,16.23-3.58c5.42-1.24,10.85-2.52,16.28-3.84
			c5.15-1.25,10.34-2.55,15.55-3.9c5.21-1.34,10.44-2.73,15.68-4.15c5.24-1.42,10.5-2.89,15.76-4.39c5.26-1.5,10.52-3.04,15.78-4.61
			c4.97-1.49,9.98-3.02,15-4.58c5.02-1.57,10.06-3.17,15.11-4.81c5.05-1.64,10.11-3.31,15.17-5.02c5.06-1.71,10.12-3.44,15.17-5.21
			c6.45-2.26,12.93-4.58,19.44-6.95c6.51-2.38,13.04-4.82,19.58-7.31c6.54-2.49,13.09-5.04,19.64-7.64
			c6.55-2.6,13.1-5.25,19.64-7.94c5.94-2.45,11.91-4.95,17.89-7.5c5.98-2.55,11.97-5.14,17.97-7.78c5.99-2.64,11.99-5.32,17.98-8.03
			c5.99-2.72,11.97-5.47,17.93-8.26c10.04-4.69,20.07-9.5,30.09-14.42c10.01-4.91,20-9.93,29.95-15.05
			c9.95-5.11,19.85-10.32,29.71-15.62c9.85-5.29,19.64-10.68,29.36-16.14c8.64-4.86,16.83-9.55,24.5-14.03
			c7.67-4.48,14.84-8.74,21.45-12.73c6.61-3.99,12.66-7.7,18.11-11.09c5.45-3.39,10.29-6.44,14.47-9.12
			c4.53-2.9,8.57-5.52,12.07-7.81c3.5-2.3,6.47-4.27,8.87-5.89c2.4-1.62,4.24-2.87,5.49-3.73c1.24-0.86,1.9-1.31,1.92-1.33
			l0.01-0.01l0.01-0.01c0.03-0.02,0.81-0.5,2.28-1.4c1.47-0.9,3.65-2.21,6.47-3.9c2.82-1.69,6.28-3.75,10.34-6.14
			c4.06-2.39,8.71-5.11,13.91-8.12c4.8-2.77,10.31-5.94,16.48-9.43c6.16-3.49,12.97-7.32,20.35-11.41
			c7.38-4.09,15.32-8.45,23.77-13.02c8.44-4.56,17.37-9.33,26.73-14.25c10.51-5.52,21-10.94,31.46-16.25
			c10.45-5.31,20.87-10.51,31.23-15.58c10.36-5.08,20.66-10.03,30.9-14.86c10.23-4.83,20.39-9.53,30.46-14.09
			c12.58-5.7,25.04-11.19,37.34-16.47c12.3-5.27,24.44-10.32,36.42-15.15c11.97-4.82,23.77-9.42,35.38-13.79
			c11.6-4.36,23.01-8.49,34.22-12.38c7.6-2.64,15.13-5.17,22.58-7.61c7.45-2.43,14.82-4.76,22.1-6.98
			c7.28-2.22,14.46-4.33,21.54-6.32c7.08-2,14.05-3.88,20.9-5.65c3.66-0.94,7.3-1.86,10.93-2.74c3.62-0.89,7.22-1.74,10.8-2.57
			c3.57-0.82,7.12-1.62,10.63-2.38c3.51-0.76,6.99-1.49,10.43-2.18c3.58-0.72,7.14-1.41,10.68-2.07c3.54-0.66,7.05-1.28,10.53-1.87
			c3.48-0.59,6.93-1.15,10.35-1.67c3.41-0.52,6.79-1.01,10.13-1.46c3.47-0.47,6.91-0.9,10.33-1.3c3.42-0.4,6.81-0.76,10.16-1.08
			c3.36-0.33,6.68-0.61,9.96-0.86c3.28-0.25,6.53-0.47,9.73-0.64c3.32-0.18,6.61-0.33,9.87-0.43c3.26-0.11,6.49-0.17,9.69-0.2
			c3.2-0.03,6.35-0.01,9.47,0.04c3.12,0.05,6.19,0.14,9.22,0.27c3.14,0.13,6.24,0.31,9.32,0.53c3.07,0.22,6.11,0.48,9.11,0.79
			c3,0.3,5.96,0.65,8.88,1.04c2.92,0.39,5.79,0.82,8.61,1.29c2.92,0.49,5.8,1.02,8.65,1.6c2.85,0.58,5.66,1.2,8.43,1.87
			c2.77,0.67,5.5,1.38,8.18,2.14c2.68,0.76,5.32,1.56,7.9,2.4c5.73,1.87,11.28,3.76,16.66,5.68c5.37,1.92,10.57,3.86,15.57,5.82
			c5,1.96,9.82,3.94,14.44,5.94c4.62,2,9.04,4.01,13.25,6.04c1.99,0.96,3.94,1.92,5.86,2.89c1.91,0.97,3.79,1.95,5.62,2.93
			c1.83,0.98,3.62,1.97,5.36,2.95c1.74,0.99,3.44,1.98,5.09,2.97c1.58,0.95,3.13,1.91,4.64,2.87c1.51,0.96,2.99,1.93,4.42,2.91
			c1.44,0.97,2.83,1.95,4.19,2.93c1.35,0.98,2.67,1.96,3.93,2.94c1.21,0.94,2.39,1.89,3.54,2.84c1.15,0.95,2.26,1.91,3.34,2.87
			c1.08,0.96,2.12,1.92,3.12,2.89c1,0.96,1.97,1.93,2.89,2.9c0.88,0.92,1.73,1.85,2.55,2.78c0.82,0.93,1.61,1.87,2.36,2.81
			c0.75,0.94,1.48,1.88,2.16,2.83c0.69,0.94,1.34,1.89,1.96,2.83c0.59,0.9,1.14,1.8,1.67,2.71c0.53,0.91,1.03,1.82,1.5,2.73
			c0.47,0.91,0.91,1.83,1.32,2.75c0.41,0.92,0.78,1.83,1.13,2.75c0.33,0.87,0.63,1.74,0.9,2.62c0.27,0.88,0.52,1.76,0.74,2.64
			c0.22,0.88,0.41,1.76,0.57,2.65c0.16,0.88,0.3,1.77,0.41,2.65c0.26,2.15,0.36,4.32,0.3,6.49c-0.06,2.17-0.29,4.36-0.67,6.54
			c-0.39,2.19-0.94,4.38-1.65,6.57c-0.71,2.19-1.58,4.38-2.62,6.57c-0.82,1.75-1.75,3.49-2.78,5.23c-1.03,1.74-2.15,3.48-3.38,5.2
			c-1.23,1.73-2.55,3.45-3.97,5.16c-1.42,1.71-2.94,3.41-4.54,5.1c-1.43,1.5-2.87,2.92-4.28,4.25c-1.42,1.33-2.81,2.58-4.15,3.72
			c-1.34,1.15-2.62,2.2-3.81,3.14c-1.19,0.95-2.29,1.79-3.27,2.51c-1.06,0.79-2.04,1.49-2.92,2.1c-0.87,0.61-1.64,1.12-2.28,1.54
			c-0.64,0.42-1.14,0.74-1.49,0.95c-0.35,0.22-0.54,0.33-0.54,0.33l-0.03,0.02l-0.04,0.01l-2496.1,922.9L84.73,1419.69z
			 M-105.62,863.75l190.98,554.63l2495.63-922.66c0.07-0.05,0.31-0.19,0.68-0.42c0.37-0.23,0.87-0.56,1.49-0.97
			c0.62-0.41,1.35-0.91,2.18-1.49c0.83-0.58,1.75-1.24,2.74-1.97c0.97-0.72,2.07-1.56,3.25-2.49c1.18-0.94,2.45-1.98,3.78-3.12
			c1.33-1.14,2.71-2.37,4.12-3.7c1.41-1.32,2.83-2.73,4.25-4.22c1.59-1.67,3.09-3.35,4.49-5.05c1.4-1.69,2.71-3.39,3.92-5.1
			c1.21-1.71,2.32-3.42,3.34-5.14c1.01-1.72,1.93-3.44,2.74-5.16c0.48-1.02,0.93-2.04,1.34-3.07c0.41-1.02,0.79-2.05,1.13-3.07
			c0.34-1.03,0.64-2.05,0.91-3.07c0.27-1.02,0.5-2.04,0.69-3.06c0.21-1.12,0.38-2.23,0.51-3.35c0.13-1.12,0.21-2.24,0.25-3.35
			c0.04-1.12,0.03-2.23-0.01-3.34c-0.05-1.11-0.14-2.22-0.28-3.32c-0.11-0.86-0.24-1.73-0.4-2.59c-0.16-0.86-0.35-1.73-0.56-2.59
			c-0.22-0.86-0.46-1.72-0.72-2.58c-0.27-0.86-0.56-1.71-0.88-2.56c-0.34-0.9-0.71-1.8-1.11-2.7c-0.4-0.9-0.83-1.8-1.29-2.7
			c-0.46-0.9-0.95-1.79-1.47-2.69c-0.52-0.89-1.07-1.78-1.65-2.66c-0.61-0.93-1.25-1.86-1.93-2.79c-0.68-0.93-1.39-1.86-2.14-2.79
			c-0.74-0.93-1.52-1.85-2.33-2.77c-0.81-0.92-1.65-1.84-2.52-2.75c-0.92-0.96-1.87-1.91-2.86-2.87c-0.99-0.96-2.03-1.91-3.09-2.86
			c-1.07-0.95-2.17-1.9-3.31-2.84c-1.14-0.94-2.31-1.88-3.51-2.81c-1.26-0.98-2.57-1.95-3.91-2.92c-1.35-0.97-2.74-1.94-4.16-2.91
			c-1.43-0.97-2.9-1.93-4.4-2.89c-1.5-0.96-3.04-1.91-4.62-2.86c-1.64-0.99-3.33-1.97-5.07-2.96c-1.74-0.98-3.52-1.97-5.35-2.94
			c-1.82-0.98-3.69-1.95-5.6-2.92c-1.91-0.97-3.85-1.93-5.84-2.88c-4.2-2.02-8.61-4.03-13.22-6.03c-4.61-1.99-9.41-3.97-14.41-5.93
			c-5-1.96-10.18-3.89-15.54-5.81c-5.36-1.91-10.91-3.81-16.63-5.67c-18.33-5.98-38.75-9.71-61.22-11.21
			c-22.49-1.5-47.03-0.75-73.59,2.24c-26.59,2.99-55.21,8.24-85.81,15.73c-30.65,7.5-63.3,17.26-97.92,29.28
			c-11.2,3.89-22.6,8.02-34.2,12.38c-11.6,4.36-23.39,8.96-35.36,13.78c-11.97,4.82-24.11,9.88-36.4,15.14
			c-12.3,5.27-24.74,10.76-37.32,16.46c-10.07,4.56-20.22,9.26-30.45,14.08c-10.23,4.83-20.53,9.78-30.89,14.86
			c-10.36,5.08-20.77,10.27-31.22,15.58c-10.45,5.31-20.94,10.73-31.44,16.25c-9.35,4.91-18.28,9.68-26.72,14.25
			c-8.44,4.56-16.38,8.92-23.76,13.01c-7.38,4.09-14.18,7.91-20.34,11.41c-6.16,3.49-11.68,6.66-16.47,9.43
			c-5.12,2.96-9.71,5.64-13.72,8.01c-4.01,2.36-7.45,4.41-10.26,6.1c-2.81,1.69-5,3.01-6.51,3.93c-1.51,0.92-2.35,1.44-2.47,1.51
			c-0.09,0.06-0.79,0.55-2.07,1.43c-1.28,0.88-3.13,2.14-5.54,3.76c-2.4,1.62-5.35,3.58-8.82,5.86c-3.47,2.28-7.46,4.87-11.94,7.73
			c-4.19,2.68-9.03,5.74-14.48,9.13c-5.45,3.39-11.51,7.11-18.12,11.1c-6.61,3.99-13.78,8.25-21.46,12.73
			c-7.68,4.48-15.87,9.18-24.52,14.04c-9.72,5.46-19.52,10.85-29.37,16.15c-9.86,5.3-19.77,10.51-29.72,15.63
			c-9.96,5.12-19.95,10.14-29.97,15.06c-10.02,4.92-20.06,9.73-30.1,14.43c-5.97,2.79-11.95,5.55-17.94,8.26
			c-5.99,2.72-11.99,5.4-17.99,8.04c-6,2.64-11.99,5.24-17.98,7.79c-5.98,2.55-11.95,5.05-17.9,7.5c-6.54,2.7-13.1,5.35-19.65,7.95
			c-6.56,2.6-13.11,5.15-19.65,7.64c-6.55,2.49-13.08,4.93-19.59,7.31c-6.51,2.38-13,4.7-19.45,6.96
			c-5.06,1.77-10.12,3.51-15.18,5.21c-5.06,1.71-10.13,3.38-15.18,5.02c-5.05,1.64-10.1,3.25-15.12,4.81
			c-5.02,1.57-10.03,3.1-15.01,4.59c-5.26,1.57-10.53,3.11-15.8,4.62c-5.26,1.5-10.52,2.97-15.77,4.39
			c-5.25,1.43-10.48,2.81-15.69,4.15c-5.21,1.34-10.4,2.64-15.56,3.9c-5.43,1.32-10.86,2.6-16.29,3.84
			c-5.43,1.24-10.85,2.43-16.25,3.59c-5.4,1.15-10.79,2.26-16.15,3.32c-5.36,1.06-10.69,2.07-15.99,3.03
			c-5.56,1.01-11.11,1.97-16.66,2.89c-5.55,0.92-11.08,1.78-16.59,2.6c-5.52,0.82-11.01,1.58-16.47,2.3
			c-5.47,0.72-10.9,1.38-16.3,1.99c-5.64,0.64-11.28,1.23-16.9,1.76c-5.62,0.53-11.23,1.01-16.82,1.43
			c-5.59,0.42-11.15,0.79-16.68,1.1c-5.53,0.31-11.03,0.57-16.48,0.77c-5.68,0.21-11.36,0.36-17.02,0.45
			c-5.66,0.09-11.3,0.12-16.92,0.08c-5.62-0.03-11.2-0.12-16.75-0.27c-5.55-0.15-11.06-0.36-16.53-0.64
			c-5.69-0.28-11.36-0.63-17.01-1.05c-5.65-0.42-11.28-0.9-16.88-1.44c-5.6-0.55-11.17-1.16-16.7-1.83
			c-5.53-0.68-11.02-1.42-16.45-2.22c-5.64-0.83-11.27-1.74-16.87-2.72c-5.6-0.98-11.18-2.03-16.72-3.16
			c-5.54-1.12-11.05-2.32-16.51-3.58c-5.46-1.26-10.88-2.59-16.24-3.99c-6.33-1.65-12.76-3.25-19.26-4.79
			c-6.5-1.54-13.08-3.03-19.73-4.46c-6.65-1.43-13.37-2.8-20.14-4.12c-6.77-1.31-13.6-2.57-20.48-3.76
			c-6.58-1.14-13.24-2.23-19.97-3.27c-6.74-1.04-13.54-2.03-20.41-2.97c-6.87-0.94-13.8-1.82-20.77-2.65
			c-6.98-0.83-14.01-1.61-21.07-2.33c-6.74-0.69-13.55-1.33-20.43-1.92c-6.88-0.59-13.83-1.14-20.83-1.63
			c-7-0.5-14.06-0.95-21.15-1.35c-7.1-0.4-14.24-0.75-21.41-1.05c-6.81-0.29-13.7-0.53-20.64-0.73c-6.94-0.2-13.94-0.35-20.99-0.46
			c-7.05-0.11-14.15-0.18-21.28-0.2c-7.13-0.02-14.3,0-21.49,0.06c-24.89,0.23-50.32,0.98-76.25,2.25
			c-25.96,1.28-52.41,3.08-79.32,5.4c-26.94,2.32-54.33,5.17-82.14,8.53c-27.84,3.37-56.09,7.26-84.71,11.66
			c-11.25,1.73-22.57,3.55-33.94,5.44c-11.37,1.89-22.78,3.87-34.22,5.91c-11.44,2.05-22.91,4.17-34.38,6.37
			c-11.48,2.2-22.96,4.47-34.43,6.8c-9.18,1.87-18.35,3.79-27.51,5.74c-9.16,1.96-18.3,3.95-27.4,5.99
			c-9.1,2.04-18.17,4.11-27.19,6.22c-9.02,2.11-17.99,4.25-26.88,6.42c-14.2,3.47-27.09,6.74-38.52,9.71
			c-11.44,2.98-21.4,5.67-29.74,7.96c-8.34,2.3-15.05,4.2-19.96,5.62C-101.35,862.46-104.46,863.4-105.62,863.75z"/>
	</g>
</g>
</svg>
