<?xml version="1.0" encoding="utf-8"?>
<!-- Generator: Adobe Illustrator 25.2.1, SVG Export Plug-In . SVG Version: 6.00 Build 0)  -->
<svg version="1.1" id="Calque_1" xmlns="http://www.w3.org/2000/svg" xmlns:xlink="http://www.w3.org/1999/xlink" x="0px" y="0px"
	 viewBox="0 0 1194 834" style="enable-background:new 0 0 1194 834;" xml:space="preserve">
<style type="text/css">
	.st0{fill:#CCF9F7;}
	.st1{fill:#707070;}
	.st2{fill:#32BFB9;}
	.st3{fill:#126B67;}
	.st4{fill:#12392F;}
	.st5{fill:#061411;}
	.st6{fill:#FFFFFF;}
</style>
<g id="Tracé_15" transform="translate(41.774 34.541)">
	<path class="st0" d="M2214.89,264.02c0,0-45.42,1.16-118.46,0.37c-70.18-0.76-163.82-3.31-264.57-10.31
		c-95-6.6-195.31-17.08-289.06-33.73c-88.3-15.68-171.16-36.88-240.21-65.89c-65.8-27.64-131.4-34.48-191.62-29.86
		c-57.56,4.41-110.52,19.32-154.88,36.72c-35.55,14.01-69.82,31.08-102.41,51.03c-23.82,14.6-37.52,25.22-37.52,25.22
		s-5.13,4.76-15.48,13.13c-10.26,8.3-25.54,20.07-45.8,34.09c-19.9,13.77-44.42,29.6-73.39,46.27
		c-28.22,16.24-60.41,33.14-96.33,49.57c-30.85,14.31-64.92,20.26-98.8,17.28c-29.59-2.55-56.42-11.37-78.83-21.8
		c-18.37-8.61-35.82-19.06-52.08-31.19c-6.63-4.86-12.98-10.08-19.02-15.65c-5.96-6.21-12.22-12.11-18.77-17.69
		c-15.74-13.62-32.6-25.91-50.38-36.73c-20.7-12.55-45.03-24.38-71.81-32.02c-25.96-7.41-54.07-10.84-83.29-7.24
		c-25.26,3.04-49.84,10.23-72.77,21.26c-29.85,14.49-56.36,35.05-77.83,60.35c-3.39,3.95-6.55,8.07-9.49,12.36v109.64
		c4.23-11.65,9.33-22.97,15.26-33.85c10.42-19.38,26.43-43.54,48.59-61.89c22.83-18.9,52.57-31.95,90.23-27.27
		c39.51,4.91,88.53,29.43,148.87,88.5c64.81,63.45,125.79,103.18,181.54,126.36c59.17,24.59,111.49,30.13,155.47,25.99
		c37.44-3.39,73.73-14.67,106.49-33.1c25.23-14.31,38.14-27.47,38.14-27.47s11.91-19.68,33.59-46.25
		c22.09-27.09,54.72-61.83,96-90.91c42.77-30.14,95.48-54.65,156.18-58.32c63.78-3.86,137.14,15.26,217.75,75.81
		c85.66,64.34,180.71,113.61,278.12,151.75c104.15,40.78,210.89,68.79,309.8,88.17c89.21,17.35,179.35,29.54,269.97,36.49
		c72.92,5.59,116.81,5.43,116.81,5.43L2214.89,264.02z"/>
	<path class="st1" d="M541.58,557.79c-2.65-0.21-5.31-0.47-7.97-0.75c-2.66-0.29-5.33-0.61-7.99-0.96
		c-2.66-0.36-5.32-0.75-7.98-1.17c-2.65-0.42-5.3-0.88-7.95-1.37c-2.78-0.52-5.57-1.07-8.37-1.66c-2.79-0.59-5.58-1.22-8.38-1.89
		c-2.79-0.67-5.58-1.37-8.36-2.11c-2.78-0.74-5.55-1.51-8.31-2.31c-2.9-0.84-5.8-1.73-8.71-2.66c-2.9-0.93-5.81-1.89-8.71-2.9
		c-2.9-1-5.8-2.05-8.69-3.12c-2.88-1.08-5.76-2.19-8.63-3.34c-2.99-1.2-6-2.44-9-3.73c-3-1.28-6-2.61-9-3.98
		c-2.99-1.36-5.98-2.77-8.96-4.21c-2.97-1.44-5.94-2.91-8.89-4.42c-3.07-1.57-6.16-3.19-9.25-4.86c-3.08-1.66-6.16-3.37-9.23-5.11
		c-3.07-1.74-6.13-3.52-9.19-5.35c-3.05-1.82-6.09-3.67-9.11-5.56c-3.14-1.96-6.29-3.97-9.44-6.03c-3.14-2.05-6.28-4.15-9.42-6.29
		c-3.13-2.13-6.25-4.31-9.37-6.52c-3.1-2.21-6.2-4.45-9.28-6.73c-3.19-2.36-6.39-4.77-9.59-7.24c-3.19-2.45-6.38-4.96-9.56-7.5
		c-3.17-2.54-6.34-5.12-9.5-7.73c-3.15-2.61-6.29-5.26-9.41-7.94c-3.23-2.77-6.46-5.59-9.7-8.47c-3.22-2.86-6.45-5.78-9.66-8.73
		c-3.21-2.95-6.41-5.94-9.6-8.96c-3.18-3.02-6.35-6.07-9.5-9.16c-16.49-16.14-32.46-30.03-47.91-41.72
		c-15.18-11.48-29.87-20.84-44.07-28.13c-13.96-7.17-27.45-12.34-40.47-15.56c-12.82-3.17-25.19-4.45-37.1-3.87
		c-1.5,0.07-2.99,0.18-4.48,0.31c-1.49,0.13-2.97,0.29-4.45,0.49c-1.47,0.19-2.94,0.41-4.39,0.66c-1.45,0.25-2.9,0.52-4.33,0.83
		c-1.37,0.29-2.73,0.61-4.09,0.95c-1.36,0.34-2.71,0.72-4.06,1.11c-1.34,0.4-2.68,0.82-4.01,1.26c-1.33,0.45-2.64,0.92-3.95,1.41
		c-1.24,0.47-2.48,0.97-3.72,1.49c-1.24,0.52-2.47,1.06-3.69,1.63c-1.22,0.57-2.44,1.15-3.65,1.76c-1.21,0.61-2.41,1.24-3.59,1.89
		c-1.13,0.62-2.25,1.26-3.37,1.92c-1.12,0.66-2.24,1.34-3.35,2.05c-1.11,0.7-2.21,1.42-3.31,2.16c-1.09,0.74-2.18,1.5-3.26,2.27
		c-3.71,2.68-7.36,5.59-10.93,8.73c-3.55,3.12-7.04,6.48-10.44,10.04c-3.39,3.55-6.7,7.32-9.93,11.3
		c-3.22,3.96-6.36,8.14-9.41,12.51c-1.2,1.71-2.38,3.46-3.55,5.24c-1.17,1.77-2.32,3.58-3.46,5.4c-1.14,1.83-2.26,3.68-3.36,5.55
		c-1.1,1.87-2.18,3.77-3.24,5.68c-0.85,1.53-1.69,3.07-2.51,4.63c-0.82,1.55-1.63,3.12-2.43,4.69c-0.79,1.57-1.57,3.15-2.34,4.73
		c-0.76,1.58-1.51,3.17-2.24,4.76c-1.24,2.7-2.32,5.18-3.25,7.39c-0.93,2.2-1.7,4.12-2.32,5.71c-0.62,1.59-1.09,2.84-1.4,3.7
		c-0.31,0.86-0.47,1.33-0.48,1.35l-0.43-0.17V329.56v-0.15l0.07-0.11c0.01-0.01,0.22-0.33,0.62-0.91c0.41-0.58,1.01-1.43,1.8-2.52
		c0.8-1.08,1.79-2.39,2.97-3.9c1.18-1.51,2.56-3.21,4.12-5.07c0.92-1.09,1.86-2.19,2.82-3.28c0.96-1.09,1.93-2.18,2.93-3.27
		c0.99-1.09,2-2.18,3.03-3.26c1.03-1.08,2.07-2.16,3.12-3.23c1.32-1.34,2.66-2.67,4.02-3.99c1.36-1.32,2.75-2.63,4.15-3.92
		c1.4-1.3,2.82-2.58,4.26-3.84c1.44-1.27,2.89-2.51,4.36-3.74c3.74-3.14,7.57-6.16,11.49-9.06c3.93-2.91,7.95-5.7,12.05-8.36
		c4.12-2.67,8.31-5.22,12.58-7.63c4.29-2.42,8.66-4.71,13.1-6.85c2.65-1.28,5.32-2.51,8.03-3.69c2.72-1.18,5.46-2.32,8.23-3.4
		c2.78-1.08,5.58-2.12,8.4-3.09c2.83-0.98,5.68-1.91,8.54-2.77c3.16-0.96,6.36-1.85,9.59-2.68c3.24-0.83,6.52-1.6,9.82-2.29
		c3.32-0.7,6.66-1.33,10.03-1.89c3.38-0.56,6.78-1.06,10.2-1.48c0.4-0.05,0.79-0.1,1.18-0.14c0.39-0.05,0.78-0.09,1.17-0.13
		c0.39-0.04,0.78-0.09,1.18-0.13c0.39-0.04,0.79-0.08,1.19-0.12c1.72-0.17,3.46-0.32,5.2-0.44c1.75-0.12,3.5-0.22,5.26-0.3
		c1.76-0.08,3.53-0.13,5.3-0.16c1.77-0.03,3.55-0.03,5.32-0.01c1.7,0.02,3.41,0.06,5.13,0.12c1.72,0.06,3.45,0.15,5.18,0.26
		c1.74,0.11,3.48,0.24,5.22,0.39c1.75,0.15,3.49,0.33,5.23,0.53c3.25,0.37,6.53,0.82,9.83,1.35c3.31,0.53,6.64,1.14,9.97,1.83
		c3.35,0.69,6.72,1.47,10.09,2.32c3.38,0.86,6.78,1.79,10.17,2.81c5.74,1.72,11.51,3.68,17.3,5.86c5.83,2.2,11.68,4.63,17.53,7.3
		c5.9,2.68,11.8,5.6,17.71,8.75c5.94,3.17,11.89,6.58,17.81,10.22c2.34,1.44,4.68,2.91,7.01,4.42c2.34,1.51,4.68,3.06,7,4.64
		c2.33,1.58,4.66,3.2,6.97,4.85c2.32,1.65,4.62,3.33,6.9,5.04c1.83,1.37,3.65,2.76,5.46,4.16c1.81,1.41,3.61,2.83,5.39,4.26
		c1.78,1.44,3.55,2.89,5.3,4.35c1.75,1.46,3.48,2.94,5.19,4.42c2.87,2.49,5.43,4.8,7.66,6.86c2.24,2.07,4.14,3.89,5.7,5.41
		c1.56,1.52,2.76,2.74,3.59,3.59c0.83,0.86,1.29,1.35,1.36,1.42c0.05,0.05,0.36,0.35,0.92,0.85c0.56,0.51,1.36,1.23,2.39,2.14
		c1.03,0.91,2.3,2,3.78,3.24c1.49,1.24,3.19,2.64,5.1,4.16c1.15,0.91,2.31,1.82,3.49,2.73c1.18,0.91,2.38,1.81,3.58,2.71
		c1.21,0.9,2.43,1.8,3.67,2.68c1.24,0.89,2.48,1.77,3.74,2.65c1.57,1.1,3.16,2.18,4.76,3.25c1.6,1.07,3.22,2.13,4.84,3.18
		c1.63,1.05,3.27,2.08,4.91,3.09c1.65,1.02,3.3,2.01,4.96,2.99c4.24,2.5,8.51,4.88,12.81,7.13c4.32,2.26,8.66,4.4,13.03,6.42
		c4.39,2.02,8.79,3.91,13.21,5.66c4.44,1.76,8.9,3.39,13.36,4.88c2.66,0.89,5.32,1.72,7.99,2.51c2.68,0.79,5.36,1.53,8.05,2.22
		c2.69,0.69,5.38,1.33,8.07,1.92c2.69,0.59,5.38,1.12,8.06,1.6c2.95,0.53,5.92,0.99,8.88,1.4c2.97,0.4,5.94,0.74,8.91,1.01
		c2.98,0.27,5.95,0.48,8.92,0.62c2.97,0.14,5.94,0.22,8.89,0.22c3.32,0.01,6.64-0.07,9.95-0.23c3.33-0.16,6.65-0.41,9.97-0.75
		c3.33-0.34,6.64-0.76,9.94-1.27c3.31-0.51,6.61-1.11,9.89-1.79c1.74-0.36,3.48-0.75,5.22-1.17c1.74-0.42,3.49-0.86,5.23-1.32
		c1.74-0.47,3.48-0.96,5.22-1.47c1.74-0.52,3.47-1.06,5.19-1.62c1.79-0.59,3.58-1.2,5.37-1.84c1.79-0.64,3.58-1.32,5.37-2.02
		c1.79-0.7,3.57-1.43,5.35-2.18c1.78-0.76,3.55-1.54,5.32-2.34c8.08-3.7,16.15-7.5,24.18-11.4c8.1-3.93,16.16-7.96,24.18-12.08
		c8.08-4.15,16.11-8.4,24.07-12.73c8.02-4.36,15.98-8.82,23.85-13.35c6.34-3.65,12.62-7.35,18.84-11.1
		c6.26-3.77,12.45-7.58,18.56-11.44c6.15-3.87,12.22-7.79,18.19-11.73c6.01-3.97,11.92-7.96,17.73-11.99
		c5.19-3.6,10.05-7.04,14.57-10.31c4.54-3.28,8.73-6.38,12.56-9.26c3.84-2.89,7.32-5.56,10.43-7.99c3.11-2.43,5.85-4.61,8.19-6.51
		c2.54-2.06,4.78-3.9,6.7-5.51c1.92-1.61,3.53-2.99,4.82-4.11c1.29-1.12,2.27-1.99,2.92-2.57c0.66-0.59,0.99-0.9,1-0.91l0.02-0.02
		l0.02-0.02c0.02-0.01,0.5-0.38,1.4-1.06c0.91-0.68,2.25-1.67,3.99-2.93c1.75-1.26,3.9-2.79,6.44-4.55
		c2.54-1.76,5.47-3.75,8.76-5.92c1.93-1.28,3.9-2.56,5.89-3.84c1.99-1.28,4.01-2.56,6.05-3.84c2.04-1.28,4.11-2.56,6.19-3.83
		c2.09-1.27,4.19-2.54,6.31-3.8c2.65-1.58,5.34-3.15,8.04-4.7c2.71-1.56,5.44-3.1,8.19-4.63c2.75-1.53,5.52-3.05,8.31-4.54
		c2.79-1.5,5.59-2.98,8.4-4.44c7.18-3.73,14.42-7.32,21.7-10.78c7.33-3.47,14.71-6.8,22.12-9.99c7.46-3.2,14.95-6.25,22.47-9.14
		c7.56-2.91,15.15-5.65,22.74-8.23c4.53-1.54,9.08-3.02,13.64-4.44c4.57-1.43,9.16-2.8,13.74-4.1c4.6-1.31,9.2-2.56,13.79-3.74
		c4.61-1.19,9.21-2.31,13.79-3.36c5.06-1.16,10.13-2.25,15.21-3.26c5.09-1.01,10.19-1.95,15.28-2.8c5.11-0.86,10.21-1.63,15.3-2.32
		c5.11-0.69,10.2-1.3,15.26-1.83c3.99-0.41,7.98-0.77,11.97-1.08c4-0.31,8.01-0.57,12.01-0.77c4.01-0.2,8.01-0.36,12-0.45
		c4-0.1,7.98-0.14,11.94-0.13c4.2,0.01,8.4,0.08,12.61,0.22c4.21,0.14,8.43,0.33,12.63,0.59c4.21,0.26,8.41,0.58,12.59,0.96
		c4.19,0.38,8.37,0.83,12.52,1.34c4.38,0.54,8.76,1.15,13.13,1.83c4.38,0.69,8.76,1.44,13.12,2.27c4.38,0.83,8.73,1.73,13.07,2.71
		c4.35,0.98,8.67,2.02,12.96,3.14c4.52,1.18,9.03,2.44,13.52,3.78c4.51,1.35,9.01,2.78,13.49,4.29c4.49,1.52,8.96,3.12,13.4,4.79
		c4.46,1.68,8.88,3.45,13.27,5.29c4.11,1.72,8.3,3.43,12.56,5.13c4.28,1.7,8.63,3.38,13.06,5.04c4.44,1.67,8.95,3.31,13.52,4.94
		c4.59,1.63,9.24,3.24,13.95,4.82c4.52,1.52,9.12,3.02,13.8,4.51c4.69,1.49,9.46,2.97,14.3,4.43c4.85,1.46,9.77,2.91,14.76,4.34
		c5,1.43,10.06,2.84,15.18,4.23c9.57,2.59,19.41,5.12,29.52,7.6c10.18,2.49,20.63,4.91,31.34,7.27c10.79,2.38,21.84,4.69,33.14,6.93
		c11.39,2.26,23.04,4.44,34.93,6.55c20.24,3.59,41.29,6.98,63.14,10.16c22.16,3.23,45.15,6.25,68.97,9.05
		c24.18,2.84,49.23,5.47,75.14,7.86c26.33,2.43,53.57,4.63,81.71,6.57c11.19,0.77,22.52,1.51,34,2.2
		c11.55,0.7,23.24,1.36,35.05,1.98c11.89,0.62,23.9,1.2,36.01,1.73c12.2,0.54,24.5,1.03,36.89,1.48c9.97,0.36,20.01,0.69,30.08,0.99
		c10.13,0.3,20.31,0.57,30.52,0.81c10.26,0.24,20.56,0.45,30.86,0.62c10.36,0.18,20.72,0.32,31.08,0.43
		c17.77,0.19,33.98,0.26,48.33,0.26c14.46,0,27.01-0.07,37.33-0.17c10.38-0.1,18.5-0.22,24.05-0.32c5.57-0.1,8.55-0.17,8.67-0.18
		l1.46-0.04v0.88v394.75v0.79l-1.3,0c-0.1,0-2.74,0.01-7.71-0.06c-4.96-0.07-12.23-0.21-21.59-0.51c-9.31-0.3-20.68-0.74-33.87-1.42
		c-13.09-0.67-27.96-1.57-44.38-2.76c0,0,0,0,0,0l0,0c0,0,0,0-0.01,0c0,0,0,0,0,0c-7.41-0.54-14.86-1.12-22.33-1.73
		c-7.44-0.61-14.91-1.27-22.39-1.96c-7.45-0.69-14.91-1.41-22.36-2.17c-7.43-0.76-14.85-1.55-22.26-2.37
		c-8.92-0.99-17.84-2.04-26.75-3.13c-8.87-1.09-17.71-2.22-26.53-3.4c-8.78-1.18-17.52-2.4-26.22-3.66
		c-8.65-1.26-17.27-2.56-25.82-3.9c-21.02-3.29-41.77-6.84-62.21-10.63c-20.2-3.74-40.11-7.72-59.7-11.92
		c-19.36-4.15-38.41-8.53-57.13-13.11c-18.51-4.53-36.69-9.27-54.53-14.2c-10.35-2.86-20.63-5.8-30.8-8.81
		c-10.11-2.99-20.12-6.05-30.02-9.17c-9.84-3.1-19.56-6.27-29.16-9.49c-9.54-3.2-18.96-6.47-28.24-9.78
		c-10.08-3.6-20.06-7.28-29.92-11.04c-9.8-3.73-19.49-7.54-29.06-11.42c-9.5-3.85-18.88-7.77-28.12-11.76
		c-9.19-3.96-18.24-7.98-27.14-12.05c-9.56-4.38-19.02-8.85-28.35-13.4c-9.27-4.52-18.43-9.13-27.45-13.8
		c-8.96-4.65-17.79-9.37-26.48-14.16c-8.63-4.76-17.12-9.58-25.46-14.46c-4.38-2.56-8.73-5.15-13.06-7.77
		c-4.31-2.61-8.6-5.24-12.85-7.89c-4.24-2.64-8.45-5.3-12.61-7.98c-4.15-2.67-8.26-5.35-12.33-8.04c-4.19-2.78-8.36-5.58-12.5-8.42
		c-4.13-2.82-8.23-5.67-12.29-8.54c-4.05-2.86-8.07-5.74-12.05-8.64c-3.97-2.89-7.89-5.79-11.77-8.71
		c-4.88-3.67-9.77-7.21-14.66-10.62c-4.88-3.4-9.76-6.67-14.63-9.81c-4.86-3.13-9.71-6.12-14.55-8.97
		c-4.82-2.85-9.63-5.56-14.42-8.12c-4.57-2.45-9.15-4.79-13.73-7.02c-4.57-2.22-9.14-4.32-13.7-6.3c-4.55-1.98-9.09-3.84-13.62-5.58
		c-4.51-1.74-9.02-3.36-13.5-4.85c-4.26-1.42-8.54-2.75-12.81-3.97c-4.26-1.22-8.52-2.34-12.78-3.35
		c-4.24-1.01-8.48-1.92-12.71-2.73c-4.21-0.81-8.41-1.51-12.59-2.11c-3.96-0.57-7.93-1.05-11.9-1.44c-3.96-0.39-7.92-0.69-11.87-0.9
		c-3.94-0.21-7.88-0.33-11.8-0.37c-3.91-0.03-7.81,0.02-11.69,0.16c-2.89,0.11-5.79,0.26-8.69,0.46c-2.89,0.2-5.79,0.45-8.67,0.75
		c-2.88,0.3-5.76,0.64-8.63,1.04c-2.86,0.39-5.72,0.83-8.56,1.31c-2.71,0.46-5.43,0.97-8.15,1.52c-2.71,0.55-5.42,1.14-8.13,1.78
		c-2.7,0.63-5.4,1.31-8.09,2.03c-2.68,0.72-5.35,1.47-8.01,2.27c-2.53,0.76-5.07,1.56-7.6,2.39c-2.53,0.84-5.06,1.71-7.59,2.62
		c-2.52,0.91-5.04,1.86-7.54,2.84c-2.5,0.98-4.99,1.99-7.47,3.04c-2.35,0.99-4.71,2.02-7.06,3.09c-2.35,1.06-4.7,2.16-7.04,3.29
		c-2.34,1.13-4.68,2.29-7,3.48c-2.32,1.19-4.64,2.4-6.94,3.65c-7.93,4.29-15.8,8.96-23.61,13.98c-7.75,4.99-15.43,10.35-23.03,16.04
		c-7.55,5.66-15.02,11.66-22.39,17.98c-7.33,6.29-14.57,12.9-21.71,19.82c-2.79,2.71-5.57,5.47-8.33,8.27
		c-2.75,2.8-5.49,5.64-8.2,8.52c-2.71,2.87-5.39,5.79-8.04,8.74c-2.65,2.94-5.27,5.92-7.86,8.92c-2.07,2.4-4.12,4.82-6.15,7.25
		c-2.02,2.43-4.02,4.88-6,7.34c-1.97,2.45-3.92,4.92-5.84,7.39c-1.91,2.47-3.8,4.94-5.66,7.42c-3.15,4.21-5.94,8.08-8.36,11.51
		c-2.41,3.42-4.45,6.41-6.1,8.88c-1.65,2.47-2.9,4.41-3.75,5.75c-0.85,1.34-1.29,2.06-1.31,2.09l-0.03,0.05l-0.04,0.04
		c-0.01,0.01-0.31,0.31-0.88,0.86c-0.57,0.55-1.43,1.34-2.55,2.34c-1.13,1-2.53,2.2-4.19,3.57c-1.67,1.37-3.6,2.9-5.8,4.56
		c-1.29,0.97-2.6,1.94-3.94,2.9c-1.33,0.96-2.69,1.91-4.07,2.85c-1.38,0.94-2.78,1.87-4.19,2.8c-1.41,0.92-2.85,1.83-4.29,2.73
		c-1.81,1.12-3.64,2.23-5.5,3.31c-1.85,1.08-3.73,2.15-5.62,3.19c-1.89,1.04-3.8,2.06-5.72,3.05c-1.92,0.99-3.86,1.96-5.8,2.91
		c-4.94,2.4-9.96,4.64-15.06,6.73c-5.07,2.08-10.21,3.99-15.41,5.75c-5.17,1.75-10.4,3.35-15.68,4.78
		c-5.25,1.43-10.55,2.7-15.89,3.81c-3.16,0.66-6.33,1.26-9.53,1.8c-3.18,0.54-6.38,1.03-9.6,1.47c-3.2,0.43-6.41,0.81-9.63,1.13
		c-3.2,0.32-6.41,0.59-9.62,0.79c-3.52,0.23-7.05,0.39-10.6,0.49c-3.54,0.1-7.09,0.13-10.65,0.1c-3.55-0.03-7.1-0.13-10.65-0.29
		C548.66,558.3,545.12,558.08,541.58,557.79z M85.28,314.98c1.32-0.07,2.66-0.11,4-0.13c1.34-0.02,2.7-0.02,4.05,0.01
		c1.36,0.03,2.73,0.08,4.1,0.15c1.37,0.07,2.75,0.17,4.12,0.29c1.42,0.12,2.86,0.27,4.31,0.45c1.45,0.18,2.9,0.38,4.36,0.6
		c1.46,0.23,2.93,0.48,4.41,0.76c1.48,0.28,2.96,0.58,4.44,0.91c1.53,0.34,3.08,0.71,4.63,1.1c1.56,0.4,3.12,0.82,4.69,1.28
		c1.58,0.45,3.16,0.94,4.74,1.44c1.59,0.51,3.18,1.05,4.78,1.61c1.65,0.58,3.3,1.2,4.97,1.84c1.67,0.65,3.35,1.32,5.04,2.03
		c1.69,0.71,3.39,1.45,5.1,2.22c1.71,0.77,3.42,1.57,5.13,2.4c1.77,0.85,3.55,1.74,5.34,2.67c1.8,0.93,3.6,1.89,5.42,2.88
		c1.82,1,3.64,2.02,5.48,3.08c1.83,1.06,3.67,2.16,5.51,3.28c1.9,1.16,3.81,2.36,5.73,3.59c1.93,1.24,3.87,2.52,5.82,3.83
		c1.95,1.32,3.91,2.67,5.88,4.05c1.97,1.39,3.95,2.81,5.92,4.27c2.04,1.5,4.09,3.04,6.15,4.62c2.07,1.59,4.15,3.22,6.24,4.88
		c2.1,1.67,4.2,3.38,6.31,5.13c2.12,1.75,4.24,3.54,6.36,5.37c2.18,1.88,4.39,3.8,6.6,5.77c2.22,1.98,4.46,4,6.7,6.06
		c2.25,2.07,4.51,4.18,6.78,6.33c2.27,2.16,4.55,4.35,6.83,6.59c3.15,3.08,6.32,6.14,9.5,9.15c3.19,3.02,6.39,6.01,9.6,8.95
		c3.22,2.95,6.44,5.86,9.66,8.72c3.23,2.87,6.47,5.69,9.69,8.46c3.12,2.68,6.26,5.32,9.41,7.93c3.16,2.61,6.33,5.19,9.5,7.72
		c3.18,2.54,6.37,5.04,9.56,7.49c3.2,2.46,6.39,4.87,9.58,7.23c3.08,2.28,6.17,4.52,9.28,6.72c3.11,2.21,6.23,4.38,9.36,6.51
		c3.14,2.14,6.27,4.23,9.41,6.28c3.15,2.05,6.29,4.06,9.43,6.02c3.02,1.88,6.06,3.73,9.1,5.55c3.05,1.82,6.11,3.6,9.18,5.33
		c3.07,1.74,6.15,3.44,9.22,5.1c3.08,1.66,6.16,3.28,9.23,4.85c2.95,1.51,5.91,2.98,8.88,4.41c2.98,1.44,5.96,2.84,8.95,4.2
		c2.99,1.36,5.99,2.69,8.98,3.97c3,1.28,6,2.52,8.99,3.72c2.86,1.14,5.74,2.25,8.61,3.33c2.89,1.08,5.78,2.11,8.67,3.11
		c2.9,1,5.8,1.97,8.7,2.89c2.91,0.93,5.8,1.81,8.69,2.65c2.76,0.8,5.52,1.57,8.29,2.31c2.78,0.74,5.56,1.44,8.34,2.1
		c2.79,0.67,5.58,1.29,8.36,1.88c2.79,0.59,5.58,1.14,8.35,1.66c2.64,0.49,5.28,0.94,7.93,1.36c2.65,0.42,5.31,0.81,7.96,1.16
		c2.66,0.35,5.32,0.67,7.97,0.96c2.66,0.28,5.31,0.53,7.95,0.75c3.52,0.28,7.05,0.5,10.58,0.66c3.54,0.16,7.08,0.25,10.62,0.28
		c3.55,0.03,7.09,0,10.61-0.1c3.54-0.1,7.06-0.26,10.57-0.49c3.2-0.21,6.39-0.48,9.59-0.8c3.2-0.32,6.4-0.7,9.59-1.13
		c3.2-0.43,6.39-0.92,9.56-1.47c3.18-0.55,6.35-1.15,9.49-1.8c5.32-1.11,10.6-2.37,15.83-3.8c5.26-1.43,10.47-3.02,15.62-4.77
		c5.18-1.76,10.3-3.67,15.35-5.74c5.07-2.08,10.07-4.31,14.99-6.7c1.94-0.94,3.87-1.91,5.78-2.9c1.91-0.99,3.82-2.01,5.7-3.04
		c1.89-1.04,3.75-2.1,5.6-3.18c1.85-1.08,3.67-2.18,5.47-3.3c1.44-0.9,2.87-1.8,4.28-2.72c1.41-0.92,2.8-1.85,4.17-2.78
		c1.37-0.94,2.73-1.89,4.05-2.84c1.33-0.95,2.64-1.92,3.92-2.88c2.08-1.57,3.92-3.02,5.52-4.33c1.6-1.31,2.96-2.47,4.08-3.45
		c1.11-0.98,1.98-1.78,2.6-2.36c0.62-0.58,0.99-0.95,1.11-1.07c0.13-0.21,0.65-1.07,1.56-2.48c0.9-1.42,2.19-3.39,3.83-5.85
		c1.65-2.46,3.66-5.4,6.02-8.75c2.36-3.35,5.08-7.1,8.12-11.18c1.86-2.48,3.75-4.96,5.66-7.44c1.92-2.48,3.87-4.95,5.84-7.4
		c1.98-2.46,3.98-4.91,6.01-7.35c2.03-2.44,4.08-4.86,6.15-7.27c2.59-3.01,5.22-5.99,7.87-8.94c2.66-2.95,5.34-5.87,8.05-8.75
		c2.72-2.89,5.46-5.73,8.21-8.54c2.76-2.81,5.55-5.57,8.34-8.29c7.15-6.94,14.41-13.57,21.75-19.87
		c7.39-6.34,14.88-12.36,22.44-18.04c7.62-5.71,15.31-11.08,23.08-16.09c7.82-5.04,15.71-9.73,23.67-14.03
		c2.31-1.25,4.63-2.47,6.96-3.67c2.34-1.19,4.68-2.36,7.03-3.49c2.35-1.13,4.71-2.24,7.07-3.31c2.36-1.07,4.73-2.11,7.09-3.1
		c2.49-1.05,4.99-2.07,7.51-3.06c2.52-0.99,5.04-1.94,7.58-2.85c2.54-0.92,5.08-1.8,7.62-2.64c2.55-0.84,5.09-1.64,7.64-2.41
		c2.67-0.8,5.36-1.56,8.05-2.28c2.7-0.72,5.41-1.4,8.13-2.04c2.72-0.64,5.45-1.24,8.17-1.79c2.73-0.56,5.46-1.07,8.19-1.53
		c2.86-0.49,5.73-0.93,8.6-1.33c2.89-0.4,5.78-0.75,8.68-1.05c2.91-0.3,5.82-0.56,8.73-0.76c2.92-0.21,5.83-0.36,8.74-0.47
		c3.9-0.14,7.82-0.2,11.76-0.17c3.95,0.03,7.9,0.15,11.87,0.36c3.98,0.21,7.96,0.51,11.95,0.9c4,0.39,7.99,0.87,11.98,1.44
		c4.2,0.6,8.42,1.31,12.66,2.11c4.25,0.81,8.51,1.72,12.78,2.74c4.28,1.02,8.57,2.14,12.86,3.37c4.3,1.23,8.6,2.56,12.89,3.99
		c4.5,1.5,9.03,3.13,13.57,4.87c4.55,1.75,9.12,3.62,13.69,5.6c4.59,1.99,9.18,4.1,13.77,6.33c4.61,2.23,9.21,4.58,13.8,7.04
		c4.81,2.58,9.64,5.29,14.48,8.15c4.86,2.86,9.73,5.87,14.61,9c4.9,3.15,9.8,6.43,14.69,9.84c4.91,3.42,9.83,6.97,14.72,10.65
		c27.74,20.83,57.19,40.62,88.37,59.36c31.89,19.16,65.66,37.24,101.37,54.2c36.6,17.38,75.3,33.63,116.18,48.68
		c42.01,15.46,86.4,29.7,133.26,42.63c17.82,4.92,35.98,9.64,54.46,14.15c18.7,4.57,37.72,8.92,57.05,13.06
		c19.57,4.19,39.45,8.15,59.62,11.88c20.42,3.77,41.14,7.3,62.13,10.58c8.54,1.33,17.14,2.63,25.78,3.88
		c8.69,1.26,17.42,2.47,26.18,3.64c8.81,1.18,17.64,2.31,26.49,3.39c8.9,1.09,17.8,2.12,26.71,3.11c7.4,0.82,14.81,1.61,22.22,2.36
		c7.44,0.75,14.89,1.47,22.32,2.16c7.46,0.68,14.92,1.33,22.35,1.94c7.46,0.61,14.9,1.19,22.29,1.72c0,0,0,0,0,0c0,0,0.01,0,0.01,0
		s0,0,0,0l0,0c14.74,1.06,28.23,1.89,40.31,2.53c12.15,0.64,22.85,1.09,31.92,1.41c9.12,0.32,16.6,0.5,22.26,0.61
		c5.68,0.11,9.52,0.13,11.39,0.14V264.95c-2.11,0.05-6.45,0.13-12.83,0.23c-6.36,0.09-14.72,0.2-24.87,0.27
		c-10.1,0.07-21.94,0.11-35.32,0.09c-13.28-0.02-28.04-0.1-44.06-0.28c-10.36-0.12-20.74-0.26-31.11-0.45
		c-10.31-0.18-20.6-0.39-30.88-0.64c-10.21-0.24-20.4-0.52-30.54-0.83c-10.08-0.3-20.12-0.64-30.1-1
		c-12.4-0.45-24.71-0.95-36.91-1.5c-12.12-0.54-24.14-1.12-36.03-1.75c-11.81-0.62-23.51-1.29-35.07-1.99
		c-11.48-0.7-22.83-1.44-34.02-2.22c-28.16-1.96-55.42-4.17-81.77-6.62c-25.93-2.41-51-5.04-75.2-7.9
		c-23.84-2.82-46.84-5.85-69.02-9.09c-21.86-3.2-42.93-6.6-63.18-10.2c-11.9-2.12-23.56-4.31-34.96-6.57
		c-11.31-2.25-22.38-4.57-33.18-6.95c-10.72-2.37-21.18-4.8-31.37-7.3c-10.12-2.48-19.98-5.02-29.55-7.62
		c-5.12-1.39-10.19-2.8-15.2-4.24c-4.99-1.43-9.92-2.88-14.78-4.35c-4.84-1.46-9.62-2.95-14.32-4.45c-4.68-1.49-9.29-3-13.82-4.53
		c-4.72-1.59-9.38-3.2-13.97-4.83c-4.58-1.63-9.1-3.28-13.54-4.95c-4.43-1.67-8.79-3.35-13.08-5.06c-4.27-1.7-8.47-3.41-12.58-5.14
		c-4.36-1.83-8.77-3.59-13.2-5.27c-4.42-1.67-8.87-3.27-13.34-4.78c-4.45-1.51-8.93-2.93-13.42-4.28c-4.48-1.34-8.96-2.6-13.46-3.77
		c-4.27-1.11-8.57-2.16-12.9-3.13c-4.32-0.97-8.65-1.87-13.01-2.7c-4.34-0.83-8.7-1.58-13.06-2.27c-4.35-0.68-8.71-1.29-13.07-1.83
		c-4.13-0.51-8.29-0.96-12.46-1.34c-4.16-0.38-8.34-0.71-12.54-0.97c-4.18-0.26-8.37-0.46-12.57-0.59
		c-4.18-0.14-8.37-0.21-12.55-0.22c-3.95-0.01-7.91,0.03-11.9,0.12c-3.97,0.1-7.95,0.24-11.95,0.45c-3.98,0.2-7.97,0.46-11.96,0.76
		c-3.98,0.31-7.95,0.66-11.93,1.07c-5.05,0.52-10.12,1.12-15.21,1.81c-5.07,0.69-10.15,1.46-15.25,2.31
		c-5.07,0.85-10.15,1.78-15.23,2.78c-5.06,1-10.11,2.08-15.16,3.24c-4.57,1.05-9.16,2.16-13.75,3.35
		c-4.58,1.18-9.17,2.42-13.75,3.73c-4.57,1.3-9.14,2.66-13.7,4.08c-4.55,1.42-9.08,2.89-13.6,4.42c-7.58,2.57-15.15,5.3-22.7,8.2
		c-7.5,2.88-14.98,5.92-22.42,9.11c-7.4,3.17-14.76,6.49-22.07,9.95c-7.27,3.44-14.49,7.03-21.66,10.74
		c-6.34,3.29-12.34,6.54-17.97,9.68c-5.6,3.13-10.83,6.16-15.65,9.03c-4.8,2.86-9.2,5.57-13.16,8.06
		c-3.95,2.48-7.46,4.76-10.49,6.77c-3.2,2.11-6.06,4.05-8.55,5.77c-2.49,1.72-4.61,3.22-6.35,4.47c-1.74,1.25-3.09,2.25-4.04,2.95
		c-0.95,0.7-1.49,1.12-1.59,1.2c-0.1,0.09-0.5,0.46-1.19,1.08c-0.7,0.62-1.7,1.51-3,2.63c-1.3,1.12-2.89,2.48-4.78,4.06
		c-1.88,1.58-4.06,3.37-6.53,5.37c-2.35,1.9-5.09,4.08-8.21,6.52c-3.11,2.43-6.6,5.11-10.45,8c-3.84,2.89-8.04,5.99-12.59,9.27
		c-4.53,3.27-9.4,6.72-14.6,10.32c-5.82,4.03-11.74,8.03-17.76,12c-5.99,3.95-12.06,7.87-18.22,11.74
		c-6.12,3.86-12.33,7.67-18.59,11.44c-6.23,3.75-12.53,7.45-18.87,11.1c-7.88,4.53-15.85,8.99-23.88,13.35
		c-7.97,4.33-16.01,8.58-24.1,12.74c-8.03,4.12-16.1,8.15-24.21,12.08c-8.04,3.9-16.12,7.7-24.21,11.4
		c-1.77,0.81-3.55,1.59-5.34,2.35c-1.79,0.76-3.58,1.49-5.38,2.19c-1.79,0.7-3.59,1.38-5.39,2.02c-1.8,0.65-3.59,1.26-5.39,1.85
		c-1.73,0.57-3.47,1.11-5.21,1.63c-1.74,0.52-3.49,1.01-5.24,1.48c-1.75,0.47-3.5,0.91-5.26,1.32c-1.75,0.42-3.5,0.8-5.25,1.17
		c-3.29,0.68-6.6,1.28-9.93,1.79c-3.32,0.51-6.65,0.93-9.99,1.27c-3.33,0.33-6.67,0.58-10.01,0.74c-3.33,0.16-6.66,0.24-9.99,0.23
		c-2.96-0.01-5.94-0.09-8.92-0.23c-2.98-0.14-5.96-0.35-8.95-0.63c-2.98-0.28-5.96-0.62-8.95-1.02c-2.97-0.4-5.95-0.87-8.91-1.41
		c-2.69-0.48-5.38-1.02-8.09-1.61c-2.69-0.59-5.39-1.23-8.09-1.93c-2.69-0.69-5.38-1.44-8.07-2.23c-2.68-0.79-5.35-1.63-8.02-2.52
		c-4.47-1.49-8.94-3.13-13.39-4.89c-4.43-1.76-8.85-3.66-13.25-5.69c-4.38-2.02-8.73-4.17-13.06-6.44
		c-4.31-2.26-8.59-4.65-12.83-7.16c-1.66-0.98-3.32-1.98-4.97-3c-1.65-1.02-3.29-2.05-4.92-3.1c-1.63-1.05-3.25-2.11-4.85-3.19
		c-1.6-1.07-3.19-2.16-4.77-3.26c-1.26-0.88-2.51-1.76-3.75-2.66c-1.24-0.89-2.46-1.79-3.67-2.69c-1.21-0.9-2.41-1.81-3.59-2.72
		c-1.18-0.91-2.35-1.82-3.49-2.73c-1.95-1.55-3.69-2.98-5.2-4.25c-1.51-1.27-2.79-2.37-3.82-3.29c-1.04-0.91-1.83-1.64-2.37-2.13
		c-0.54-0.5-0.82-0.77-0.83-0.78l-0.01-0.01l-0.01-0.01c-0.02-0.02-0.44-0.47-1.24-1.3c-0.81-0.83-2-2.04-3.55-3.56
		c-1.55-1.52-3.47-3.35-5.72-5.44c-2.25-2.08-4.84-4.42-7.75-6.94c-1.7-1.48-3.43-2.95-5.17-4.41c-1.74-1.46-3.51-2.91-5.29-4.34
		c-1.78-1.43-3.57-2.85-5.38-4.26c-1.8-1.4-3.62-2.79-5.45-4.15c-2.28-1.71-4.58-3.38-6.89-5.03c-2.3-1.64-4.62-3.26-6.95-4.84
		c-2.32-1.58-4.65-3.12-6.99-4.63c-2.33-1.51-4.66-2.98-7-4.41c-5.92-3.63-11.84-7.04-17.78-10.2c-5.89-3.15-11.78-6.06-17.67-8.74
		c-5.84-2.66-11.68-5.09-17.5-7.29c-5.78-2.18-11.54-4.14-17.27-5.86c-3.38-1.02-6.77-1.95-10.14-2.81
		c-3.36-0.85-6.72-1.63-10.06-2.32c-3.33-0.69-6.65-1.3-9.95-1.83c-3.29-0.53-6.56-0.98-9.81-1.35c-1.74-0.2-3.48-0.37-5.22-0.53
		c-1.74-0.15-3.47-0.28-5.2-0.39c-1.73-0.11-3.45-0.19-5.17-0.26c-1.71-0.06-3.42-0.11-5.12-0.13c-1.77-0.02-3.54-0.02-5.31,0.01
		c-1.77,0.03-3.53,0.08-5.29,0.15c-1.76,0.08-3.51,0.17-5.25,0.3c-1.74,0.12-3.47,0.27-5.19,0.43c-0.4,0.04-0.79,0.08-1.18,0.12
		c-0.39,0.04-0.78,0.08-1.17,0.13c-0.39,0.04-0.78,0.09-1.17,0.13c-0.39,0.05-0.78,0.09-1.18,0.14c-3.41,0.42-6.81,0.91-10.18,1.47
		c-3.36,0.56-6.7,1.19-10.01,1.89c-3.3,0.69-6.57,1.46-9.81,2.29c-3.22,0.83-6.42,1.72-9.57,2.67c-2.86,0.86-5.7,1.79-8.53,2.76
		c-2.81,0.97-5.61,2-8.38,3.08c-2.76,1.08-5.5,2.21-8.21,3.39c-2.7,1.18-5.38,2.4-8.02,3.68c-4.43,2.14-8.79,4.41-13.08,6.83
		c-4.26,2.4-8.45,4.94-12.56,7.61c-4.09,2.65-8.1,5.44-12.03,8.34c-3.91,2.89-7.73,5.91-11.47,9.04c-1.46,1.23-2.91,2.47-4.35,3.74
		c-1.43,1.26-2.85,2.54-4.25,3.83c-1.4,1.29-2.78,2.59-4.14,3.91c-1.36,1.31-2.7,2.64-4.02,3.98c-1.05,1.07-2.09,2.14-3.12,3.22
		c-1.02,1.08-2.03,2.16-3.02,3.25c-0.99,1.09-1.96,2.17-2.92,3.26c-0.95,1.09-1.89,2.18-2.81,3.27c-1.43,1.7-2.71,3.27-3.82,4.68
		c-1.11,1.41-2.06,2.65-2.85,3.71c-0.79,1.06-1.41,1.92-1.87,2.57c-0.46,0.65-0.75,1.08-0.87,1.27v108.14
		c0.23-0.63,0.54-1.48,0.95-2.55c0.41-1.07,0.9-2.34,1.49-3.79c0.59-1.45,1.27-3.09,2.03-4.87c0.77-1.79,1.63-3.73,2.58-5.81
		c0.73-1.59,1.48-3.18,2.24-4.77c0.76-1.59,1.55-3.17,2.34-4.74c0.8-1.58,1.61-3.14,2.43-4.7c0.83-1.56,1.66-3.11,2.51-4.64
		c1.06-1.92,2.15-3.82,3.25-5.7c1.1-1.88,2.23-3.74,3.36-5.57c1.14-1.83,2.3-3.64,3.47-5.42c1.17-1.78,2.36-3.53,3.56-5.25
		c3.06-4.39,6.21-8.57,9.43-12.55c3.24-3.99,6.56-7.78,9.96-11.34c3.41-3.58,6.91-6.94,10.47-10.08c3.58-3.15,7.24-6.07,10.96-8.76
		c1.08-0.78,2.17-1.54,3.27-2.28c1.1-0.74,2.21-1.47,3.32-2.17c1.11-0.71,2.23-1.39,3.36-2.06c1.13-0.67,2.25-1.31,3.39-1.93
		c1.19-0.65,2.4-1.29,3.61-1.9c1.21-0.61,2.43-1.2,3.66-1.77c1.23-0.57,2.46-1.12,3.7-1.64c1.24-0.52,2.49-1.02,3.74-1.5
		c1.31-0.5,2.63-0.97,3.96-1.42c1.33-0.45,2.68-0.87,4.02-1.27c1.35-0.4,2.71-0.77,4.07-1.12c1.36-0.35,2.73-0.67,4.1-0.96
		c1.44-0.31,2.88-0.58,4.34-0.83c1.46-0.25,2.93-0.47,4.41-0.66c1.48-0.19,2.97-0.36,4.46-0.49
		C82.27,315.16,83.77,315.05,85.28,314.98z"/>
</g>
<g id="Tracé_14" transform="translate(41.774 60.541)">
	<path class="st2" d="M2214.89,264.02c0,0-45.42,1.16-118.46,0.37c-70.18-0.76-163.82-3.31-264.57-10.31
		c-95-6.6-195.31-17.08-289.06-33.73c-88.3-15.68-171.16-36.88-240.21-65.89c-65.8-27.64-131.4-34.48-191.62-29.86
		c-57.56,4.41-110.52,19.32-154.88,36.72c-35.55,14-69.82,31.08-102.41,51.03c-23.82,14.6-37.52,25.22-37.52,25.22
		s-5.13,4.76-15.48,13.13c-10.26,8.3-25.54,20.07-45.8,34.09c-19.9,13.77-44.42,29.6-73.39,46.27
		c-28.22,16.24-60.41,33.14-96.33,49.57c-30.85,14.31-64.92,20.26-98.8,17.28c-29.59-2.55-56.42-11.37-78.83-21.8
		c-18.37-8.61-35.82-19.06-52.08-31.19c-6.63-4.86-12.98-10.08-19.02-15.66c-5.96-6.21-12.22-12.11-18.77-17.69
		c-15.74-13.62-32.6-25.91-50.38-36.73c-20.7-12.55-45.03-24.38-71.81-32.02c-25.96-7.41-54.07-10.84-83.29-7.24
		c-25.26,3.04-49.84,10.23-72.77,21.26c-29.85,14.49-56.36,35.05-77.83,60.35c-3.39,3.95-6.55,8.07-9.49,12.36v109.64
		c4.23-11.65,9.33-22.97,15.26-33.85c10.42-19.38,26.43-43.54,48.59-61.89c22.83-18.9,52.57-31.95,90.23-27.27
		c39.51,4.91,88.53,29.43,148.87,88.5c64.81,63.45,125.79,103.18,181.54,126.36c59.17,24.59,111.49,30.13,155.47,25.99
		c37.44-3.39,73.73-14.67,106.49-33.1c25.23-14.31,38.14-27.47,38.14-27.47s11.91-19.68,33.59-46.25
		c22.09-27.09,54.72-61.83,96-90.91c42.77-30.14,95.48-54.65,156.18-58.32c63.78-3.86,137.14,15.26,217.75,75.81
		c85.66,64.34,180.71,113.61,278.12,151.75c104.15,40.78,210.89,68.79,309.8,88.17c89.21,17.35,179.35,29.54,269.97,36.49
		c72.92,5.59,116.81,5.43,116.81,5.43L2214.89,264.02z"/>
	<path class="st1" d="M541.58,557.79c-2.65-0.21-5.31-0.47-7.97-0.75c-2.66-0.29-5.33-0.61-7.99-0.96
		c-2.66-0.36-5.32-0.75-7.98-1.17c-2.65-0.42-5.3-0.88-7.95-1.37c-2.78-0.52-5.57-1.07-8.37-1.66c-2.79-0.59-5.58-1.22-8.38-1.89
		c-2.79-0.67-5.58-1.37-8.36-2.11c-2.78-0.74-5.55-1.51-8.31-2.31c-2.9-0.84-5.8-1.73-8.71-2.66c-2.9-0.93-5.81-1.89-8.71-2.9
		c-2.9-1-5.8-2.05-8.69-3.12c-2.88-1.08-5.76-2.19-8.63-3.34c-2.99-1.2-6-2.44-9-3.73c-3-1.28-6-2.61-9-3.98
		c-2.99-1.36-5.98-2.77-8.96-4.21c-2.97-1.44-5.94-2.91-8.89-4.42c-3.07-1.57-6.16-3.19-9.25-4.86c-3.08-1.66-6.16-3.37-9.23-5.11
		c-3.07-1.74-6.13-3.52-9.19-5.35c-3.05-1.82-6.09-3.67-9.11-5.56c-3.14-1.96-6.29-3.97-9.44-6.03c-3.14-2.05-6.28-4.15-9.42-6.29
		c-3.13-2.13-6.25-4.31-9.37-6.52c-3.1-2.21-6.2-4.45-9.28-6.73c-3.19-2.36-6.39-4.77-9.59-7.24c-3.19-2.45-6.38-4.96-9.56-7.5
		c-3.17-2.54-6.34-5.12-9.5-7.73c-3.15-2.61-6.29-5.26-9.41-7.94c-3.23-2.77-6.46-5.59-9.7-8.47c-3.22-2.86-6.45-5.78-9.66-8.73
		c-3.21-2.95-6.41-5.94-9.6-8.96c-3.18-3.02-6.35-6.07-9.5-9.16c-16.49-16.14-32.46-30.03-47.91-41.72
		c-15.18-11.48-29.87-20.84-44.07-28.13c-13.96-7.17-27.45-12.34-40.47-15.56c-12.82-3.17-25.19-4.45-37.1-3.87
		c-1.5,0.07-2.99,0.18-4.48,0.31c-1.49,0.13-2.97,0.29-4.45,0.49c-1.47,0.19-2.94,0.41-4.39,0.66c-1.45,0.25-2.9,0.52-4.33,0.83
		c-1.37,0.29-2.73,0.61-4.09,0.95c-1.36,0.34-2.71,0.72-4.06,1.11c-1.34,0.4-2.68,0.82-4.01,1.26c-1.33,0.45-2.64,0.92-3.95,1.41
		c-1.24,0.47-2.48,0.97-3.72,1.49c-1.24,0.52-2.47,1.06-3.69,1.63c-1.22,0.57-2.44,1.15-3.65,1.76c-1.21,0.61-2.41,1.24-3.59,1.89
		c-1.13,0.62-2.25,1.26-3.37,1.92c-1.12,0.66-2.24,1.34-3.35,2.05c-1.11,0.7-2.21,1.42-3.31,2.16c-1.09,0.74-2.18,1.5-3.26,2.27
		c-3.71,2.68-7.36,5.59-10.93,8.73c-3.55,3.12-7.04,6.48-10.44,10.04c-3.39,3.55-6.7,7.32-9.93,11.3
		c-3.22,3.96-6.36,8.14-9.41,12.51c-1.2,1.71-2.38,3.46-3.55,5.24c-1.17,1.77-2.32,3.58-3.46,5.4c-1.14,1.83-2.26,3.68-3.36,5.55
		c-1.1,1.87-2.18,3.77-3.24,5.68c-0.85,1.53-1.69,3.07-2.51,4.63c-0.82,1.55-1.63,3.12-2.43,4.69c-0.79,1.57-1.57,3.15-2.34,4.73
		c-0.76,1.58-1.51,3.17-2.24,4.76c-1.24,2.7-2.32,5.18-3.25,7.39c-0.93,2.2-1.7,4.12-2.32,5.71c-0.62,1.59-1.09,2.84-1.4,3.7
		c-0.31,0.86-0.47,1.33-0.48,1.35l-0.43-0.17V329.56v-0.15l0.07-0.11c0.01-0.01,0.22-0.33,0.62-0.91c0.41-0.58,1.01-1.43,1.8-2.52
		c0.8-1.08,1.79-2.39,2.97-3.9c1.18-1.51,2.56-3.21,4.12-5.07c0.92-1.09,1.86-2.19,2.82-3.28c0.96-1.09,1.93-2.18,2.93-3.27
		c0.99-1.09,2-2.18,3.03-3.26c1.03-1.08,2.07-2.16,3.12-3.23c1.32-1.34,2.66-2.67,4.02-3.99c1.36-1.32,2.75-2.63,4.15-3.92
		c1.4-1.3,2.82-2.58,4.26-3.84c1.44-1.27,2.89-2.51,4.36-3.74c3.74-3.14,7.57-6.16,11.49-9.06c3.93-2.91,7.95-5.7,12.05-8.36
		c4.12-2.67,8.31-5.22,12.58-7.63c4.29-2.42,8.66-4.71,13.1-6.85c2.65-1.28,5.32-2.51,8.03-3.69c2.72-1.18,5.46-2.32,8.23-3.4
		c2.78-1.08,5.58-2.12,8.4-3.09c2.83-0.98,5.68-1.91,8.54-2.77c3.16-0.96,6.36-1.85,9.59-2.68c3.24-0.83,6.52-1.6,9.82-2.29
		c3.32-0.7,6.66-1.33,10.03-1.89c3.38-0.56,6.78-1.06,10.2-1.48c0.4-0.05,0.79-0.1,1.18-0.14c0.39-0.05,0.78-0.09,1.17-0.13
		c0.39-0.04,0.78-0.09,1.18-0.13c0.39-0.04,0.79-0.08,1.19-0.12c1.72-0.17,3.46-0.32,5.2-0.44c1.75-0.12,3.5-0.22,5.26-0.3
		c1.76-0.08,3.53-0.13,5.3-0.16c1.77-0.03,3.55-0.03,5.32-0.01c1.7,0.02,3.41,0.06,5.13,0.12c1.72,0.06,3.45,0.15,5.18,0.26
		c1.74,0.11,3.48,0.24,5.22,0.39c1.75,0.15,3.49,0.33,5.23,0.53c3.25,0.37,6.53,0.82,9.83,1.35c3.31,0.53,6.64,1.14,9.97,1.83
		c3.35,0.69,6.72,1.47,10.09,2.32c3.38,0.86,6.78,1.79,10.17,2.81c5.74,1.72,11.51,3.68,17.3,5.86c5.83,2.2,11.68,4.63,17.53,7.3
		c5.9,2.68,11.8,5.6,17.71,8.75c5.94,3.17,11.89,6.58,17.81,10.22c2.34,1.44,4.68,2.91,7.01,4.42c2.34,1.51,4.68,3.06,7,4.64
		c2.33,1.58,4.66,3.2,6.97,4.85c2.32,1.65,4.62,3.33,6.9,5.04c1.83,1.37,3.65,2.76,5.46,4.16c1.81,1.41,3.61,2.83,5.39,4.26
		c1.78,1.44,3.55,2.89,5.3,4.35c1.75,1.46,3.48,2.94,5.19,4.42c2.87,2.49,5.43,4.8,7.66,6.86c2.24,2.07,4.14,3.89,5.7,5.41
		c1.56,1.52,2.76,2.74,3.59,3.59c0.83,0.86,1.29,1.35,1.36,1.42c0.05,0.05,0.36,0.35,0.92,0.85c0.56,0.51,1.36,1.23,2.39,2.14
		c1.03,0.91,2.3,2,3.78,3.24c1.49,1.24,3.19,2.64,5.1,4.16c1.15,0.91,2.31,1.82,3.49,2.73c1.18,0.91,2.38,1.81,3.58,2.71
		c1.21,0.9,2.43,1.8,3.67,2.68c1.24,0.89,2.48,1.77,3.74,2.65c1.57,1.1,3.16,2.18,4.76,3.25c1.6,1.07,3.22,2.13,4.84,3.18
		c1.63,1.05,3.27,2.08,4.91,3.09c1.65,1.02,3.3,2.01,4.96,2.99c4.24,2.5,8.51,4.88,12.81,7.13c4.32,2.26,8.66,4.4,13.03,6.42
		c4.39,2.02,8.79,3.91,13.21,5.66c4.44,1.76,8.9,3.39,13.36,4.88c2.66,0.89,5.32,1.72,7.99,2.51c2.68,0.79,5.36,1.53,8.05,2.22
		c2.69,0.69,5.38,1.33,8.07,1.92c2.69,0.59,5.38,1.12,8.06,1.6c2.95,0.53,5.92,0.99,8.88,1.4c2.97,0.4,5.94,0.74,8.91,1.01
		c2.98,0.27,5.95,0.48,8.92,0.62c2.97,0.14,5.94,0.22,8.89,0.22c3.32,0.01,6.64-0.07,9.95-0.23c3.33-0.16,6.65-0.41,9.97-0.75
		c3.33-0.34,6.64-0.76,9.94-1.27c3.31-0.51,6.61-1.11,9.89-1.79c1.74-0.36,3.48-0.75,5.22-1.17c1.74-0.41,3.49-0.86,5.23-1.32
		c1.74-0.47,3.48-0.96,5.22-1.47c1.74-0.52,3.47-1.06,5.19-1.62c1.79-0.59,3.58-1.2,5.37-1.84c1.79-0.64,3.58-1.32,5.37-2.02
		c1.79-0.7,3.57-1.43,5.35-2.18c1.78-0.76,3.55-1.54,5.32-2.34c8.08-3.7,16.15-7.5,24.18-11.4c8.1-3.93,16.16-7.96,24.18-12.08
		c8.08-4.15,16.11-8.4,24.07-12.73c8.02-4.36,15.98-8.82,23.85-13.35c6.34-3.65,12.62-7.35,18.84-11.1
		c6.26-3.77,12.45-7.58,18.56-11.44c6.15-3.87,12.22-7.79,18.19-11.73c6.01-3.97,11.92-7.96,17.73-11.99
		c5.19-3.6,10.05-7.04,14.57-10.31c4.54-3.28,8.73-6.38,12.56-9.26c3.84-2.89,7.32-5.56,10.43-7.99c3.11-2.43,5.85-4.61,8.19-6.51
		c2.54-2.06,4.78-3.9,6.7-5.51c1.92-1.61,3.53-2.99,4.82-4.11c1.29-1.12,2.27-1.99,2.92-2.57c0.66-0.59,0.99-0.9,1-0.91l0.02-0.02
		l0.02-0.02c0.02-0.01,0.5-0.38,1.4-1.06c0.91-0.68,2.25-1.67,3.99-2.93c1.75-1.26,3.9-2.79,6.44-4.55
		c2.54-1.76,5.47-3.75,8.76-5.92c1.93-1.28,3.9-2.56,5.89-3.84c1.99-1.28,4.01-2.56,6.05-3.84c2.04-1.28,4.11-2.56,6.19-3.83
		c2.09-1.27,4.19-2.54,6.31-3.8c2.65-1.58,5.34-3.15,8.04-4.7c2.71-1.56,5.44-3.1,8.19-4.63c2.75-1.53,5.52-3.05,8.31-4.54
		c2.79-1.5,5.59-2.98,8.4-4.44c7.18-3.73,14.42-7.32,21.7-10.78c7.33-3.47,14.71-6.8,22.12-9.99c7.46-3.2,14.95-6.25,22.47-9.14
		c7.56-2.91,15.15-5.65,22.74-8.23c4.53-1.54,9.08-3.02,13.64-4.44c4.57-1.43,9.16-2.8,13.74-4.1c4.6-1.31,9.2-2.56,13.79-3.74
		c4.61-1.19,9.21-2.31,13.79-3.36c5.06-1.16,10.13-2.25,15.21-3.26c5.09-1.01,10.19-1.95,15.28-2.8c5.11-0.86,10.21-1.63,15.3-2.32
		c5.11-0.69,10.2-1.3,15.26-1.82c3.99-0.41,7.98-0.77,11.97-1.08c4-0.31,8.01-0.57,12.01-0.77c4.01-0.2,8.01-0.36,12-0.45
		c4-0.1,7.98-0.14,11.94-0.13c4.2,0.01,8.4,0.08,12.61,0.22c4.21,0.13,8.43,0.33,12.63,0.59c4.21,0.26,8.41,0.58,12.59,0.96
		c4.19,0.38,8.37,0.83,12.52,1.34c4.38,0.54,8.76,1.15,13.13,1.83c4.38,0.68,8.76,1.44,13.12,2.27c4.38,0.83,8.73,1.73,13.07,2.71
		c4.35,0.98,8.67,2.02,12.96,3.14c4.52,1.18,9.03,2.44,13.52,3.78c4.51,1.35,9.01,2.78,13.49,4.29c4.49,1.52,8.96,3.12,13.4,4.79
		c4.46,1.68,8.88,3.45,13.27,5.29c4.11,1.72,8.3,3.43,12.56,5.13c4.28,1.7,8.63,3.38,13.06,5.04c4.44,1.67,8.95,3.31,13.52,4.94
		c4.59,1.63,9.24,3.24,13.95,4.82c4.52,1.52,9.12,3.02,13.8,4.51c4.69,1.49,9.46,2.97,14.3,4.43c4.85,1.46,9.77,2.91,14.76,4.34
		c5,1.43,10.06,2.84,15.18,4.23c9.57,2.59,19.41,5.12,29.52,7.6c10.18,2.49,20.63,4.91,31.34,7.27c10.79,2.38,21.84,4.69,33.14,6.93
		c11.39,2.26,23.04,4.44,34.93,6.55c20.24,3.59,41.29,6.98,63.14,10.16c22.16,3.23,45.15,6.25,68.97,9.05
		c24.18,2.84,49.23,5.47,75.14,7.86c26.33,2.43,53.57,4.63,81.71,6.57c11.19,0.77,22.52,1.51,34,2.2
		c11.55,0.7,23.24,1.36,35.05,1.98c11.89,0.62,23.9,1.2,36.01,1.73c12.2,0.54,24.5,1.03,36.89,1.48c9.97,0.36,20.01,0.69,30.08,0.99
		c10.13,0.3,20.31,0.57,30.52,0.81c10.26,0.24,20.56,0.45,30.86,0.62c10.36,0.18,20.72,0.32,31.08,0.43
		c17.77,0.19,33.98,0.26,48.33,0.26c14.46,0,27.01-0.07,37.33-0.17c10.38-0.1,18.5-0.22,24.05-0.32c5.57-0.1,8.55-0.17,8.67-0.18
		l1.46-0.04v0.88v394.75v0.79l-1.3,0.01c-0.1,0-2.74,0.01-7.71-0.06c-4.96-0.07-12.23-0.21-21.59-0.51
		c-9.31-0.3-20.68-0.74-33.87-1.42c-13.09-0.67-27.96-1.57-44.38-2.76c0,0,0,0,0,0l0,0c0,0,0,0-0.01,0c0,0,0,0,0,0
		c-7.41-0.54-14.86-1.12-22.33-1.73c-7.44-0.61-14.91-1.27-22.39-1.96c-7.45-0.69-14.91-1.41-22.36-2.17
		c-7.43-0.76-14.85-1.55-22.26-2.37c-8.92-0.99-17.84-2.04-26.75-3.13c-8.87-1.09-17.71-2.22-26.53-3.4
		c-8.78-1.18-17.52-2.4-26.22-3.66c-8.65-1.26-17.27-2.56-25.82-3.9c-21.02-3.29-41.77-6.84-62.21-10.63
		c-20.2-3.74-40.11-7.72-59.7-11.92c-19.36-4.15-38.41-8.53-57.13-13.11c-18.51-4.53-36.69-9.27-54.53-14.2
		c-10.35-2.86-20.63-5.8-30.8-8.81c-10.11-2.99-20.12-6.05-30.02-9.17c-9.84-3.1-19.56-6.27-29.16-9.49
		c-9.54-3.2-18.96-6.47-28.24-9.78c-10.08-3.6-20.06-7.28-29.92-11.04c-9.8-3.73-19.49-7.54-29.06-11.42
		c-9.5-3.85-18.88-7.77-28.12-11.76c-9.19-3.96-18.24-7.98-27.14-12.05c-9.56-4.38-19.02-8.84-28.35-13.4
		c-9.27-4.52-18.43-9.13-27.45-13.8c-8.96-4.65-17.79-9.37-26.48-14.16c-8.63-4.76-17.12-9.58-25.46-14.46
		c-4.38-2.56-8.73-5.15-13.06-7.77c-4.31-2.61-8.6-5.24-12.85-7.89c-4.24-2.64-8.45-5.3-12.61-7.98c-4.15-2.67-8.26-5.35-12.33-8.04
		c-4.19-2.78-8.36-5.58-12.5-8.42c-4.13-2.82-8.23-5.67-12.29-8.54c-4.05-2.86-8.07-5.74-12.05-8.64
		c-3.97-2.89-7.89-5.79-11.77-8.71c-4.88-3.67-9.77-7.21-14.66-10.62c-4.88-3.4-9.76-6.67-14.63-9.81
		c-4.86-3.13-9.71-6.12-14.55-8.97c-4.82-2.85-9.63-5.56-14.42-8.12c-4.57-2.45-9.15-4.79-13.73-7.02c-4.57-2.22-9.14-4.32-13.7-6.3
		c-4.55-1.98-9.09-3.84-13.62-5.58c-4.51-1.74-9.02-3.36-13.5-4.85c-4.26-1.42-8.54-2.75-12.81-3.97
		c-4.26-1.22-8.52-2.34-12.78-3.35c-4.24-1.01-8.48-1.92-12.71-2.73c-4.21-0.81-8.41-1.51-12.59-2.11
		c-3.96-0.57-7.93-1.05-11.9-1.44c-3.96-0.39-7.92-0.69-11.87-0.9c-3.94-0.21-7.88-0.33-11.8-0.37c-3.91-0.03-7.81,0.02-11.69,0.16
		c-2.89,0.11-5.79,0.26-8.69,0.46c-2.89,0.2-5.79,0.45-8.67,0.75c-2.88,0.3-5.76,0.64-8.63,1.04c-2.86,0.39-5.72,0.83-8.56,1.31
		c-2.71,0.46-5.43,0.97-8.15,1.52c-2.71,0.55-5.42,1.14-8.13,1.78c-2.7,0.63-5.4,1.31-8.09,2.03c-2.68,0.72-5.35,1.47-8.01,2.27
		c-2.53,0.76-5.07,1.56-7.6,2.39c-2.53,0.84-5.06,1.71-7.59,2.62c-2.52,0.91-5.04,1.86-7.54,2.84c-2.5,0.98-4.99,1.99-7.47,3.04
		c-2.35,0.99-4.71,2.02-7.06,3.09c-2.35,1.06-4.7,2.16-7.04,3.29c-2.34,1.13-4.68,2.29-7,3.48c-2.32,1.19-4.64,2.4-6.94,3.65
		c-7.93,4.29-15.8,8.96-23.61,13.98c-7.75,4.99-15.43,10.35-23.03,16.04c-7.55,5.66-15.02,11.66-22.39,17.98
		c-7.33,6.29-14.57,12.9-21.71,19.82c-2.79,2.71-5.57,5.47-8.33,8.27c-2.75,2.8-5.49,5.64-8.2,8.52c-2.71,2.87-5.39,5.79-8.04,8.74
		c-2.65,2.94-5.27,5.92-7.86,8.92c-2.07,2.4-4.12,4.82-6.15,7.25c-2.02,2.43-4.02,4.88-6,7.34c-1.97,2.45-3.92,4.92-5.84,7.39
		c-1.91,2.47-3.8,4.94-5.66,7.42c-3.15,4.21-5.94,8.08-8.36,11.51c-2.41,3.42-4.45,6.41-6.1,8.88c-1.65,2.47-2.9,4.41-3.75,5.75
		c-0.85,1.34-1.29,2.06-1.31,2.09l-0.03,0.05l-0.04,0.04c-0.01,0.01-0.31,0.31-0.88,0.86c-0.57,0.55-1.43,1.34-2.55,2.34
		c-1.13,1-2.53,2.2-4.19,3.57c-1.67,1.37-3.6,2.9-5.8,4.56c-1.29,0.97-2.6,1.94-3.94,2.9c-1.33,0.96-2.69,1.91-4.07,2.85
		c-1.38,0.94-2.78,1.87-4.19,2.8c-1.41,0.92-2.85,1.83-4.29,2.73c-1.81,1.12-3.64,2.23-5.5,3.31c-1.85,1.08-3.73,2.15-5.62,3.19
		c-1.89,1.04-3.8,2.06-5.72,3.05c-1.92,0.99-3.86,1.96-5.8,2.91c-4.94,2.4-9.96,4.64-15.06,6.73c-5.07,2.08-10.21,3.99-15.41,5.75
		c-5.17,1.75-10.4,3.35-15.68,4.78c-5.25,1.43-10.55,2.7-15.89,3.81c-3.16,0.66-6.33,1.26-9.53,1.8c-3.18,0.54-6.38,1.03-9.6,1.47
		c-3.2,0.43-6.41,0.81-9.63,1.13c-3.2,0.32-6.41,0.59-9.62,0.79c-3.52,0.23-7.05,0.39-10.6,0.49c-3.54,0.1-7.09,0.13-10.65,0.1
		c-3.55-0.03-7.1-0.13-10.65-0.29C548.66,558.3,545.12,558.08,541.58,557.79z M85.28,314.98c1.32-0.07,2.66-0.11,4-0.13
		c1.34-0.02,2.7-0.02,4.05,0.01c1.36,0.03,2.73,0.08,4.1,0.15c1.37,0.07,2.75,0.17,4.12,0.29c1.42,0.12,2.86,0.27,4.31,0.45
		c1.45,0.18,2.9,0.38,4.36,0.6c1.46,0.23,2.93,0.48,4.41,0.76c1.48,0.28,2.96,0.58,4.44,0.91c1.53,0.34,3.08,0.71,4.63,1.1
		c1.56,0.4,3.12,0.82,4.69,1.28c1.58,0.45,3.16,0.94,4.74,1.44c1.59,0.51,3.18,1.05,4.78,1.61c1.65,0.58,3.3,1.2,4.97,1.84
		c1.67,0.65,3.35,1.32,5.04,2.03c1.69,0.71,3.39,1.45,5.1,2.22c1.71,0.77,3.42,1.57,5.13,2.4c1.77,0.85,3.55,1.74,5.34,2.67
		c1.8,0.93,3.6,1.89,5.42,2.88c1.82,1,3.64,2.02,5.48,3.08c1.83,1.06,3.67,2.16,5.51,3.28c1.9,1.16,3.81,2.36,5.73,3.59
		c1.93,1.24,3.87,2.52,5.82,3.83c1.95,1.32,3.91,2.67,5.88,4.05c1.97,1.39,3.95,2.81,5.92,4.27c2.04,1.5,4.09,3.04,6.15,4.62
		c2.07,1.59,4.15,3.22,6.24,4.88c2.1,1.67,4.2,3.38,6.31,5.13c2.12,1.75,4.24,3.54,6.36,5.37c2.18,1.88,4.39,3.8,6.6,5.77
		c2.22,1.98,4.46,4,6.7,6.06c2.25,2.07,4.51,4.18,6.78,6.33c2.27,2.16,4.55,4.35,6.83,6.59c3.15,3.08,6.32,6.14,9.5,9.15
		c3.19,3.02,6.39,6.01,9.6,8.95c3.22,2.95,6.44,5.86,9.66,8.72c3.23,2.87,6.47,5.69,9.69,8.46c3.12,2.68,6.26,5.32,9.41,7.93
		c3.16,2.61,6.33,5.19,9.5,7.72c3.18,2.54,6.37,5.04,9.56,7.49c3.2,2.46,6.39,4.87,9.58,7.23c3.08,2.28,6.17,4.52,9.28,6.72
		c3.11,2.21,6.23,4.38,9.36,6.51c3.14,2.14,6.27,4.23,9.41,6.28c3.15,2.05,6.29,4.06,9.43,6.02c3.02,1.88,6.06,3.73,9.1,5.55
		c3.05,1.82,6.11,3.6,9.18,5.33c3.07,1.74,6.15,3.44,9.22,5.1c3.08,1.66,6.16,3.28,9.23,4.85c2.95,1.51,5.91,2.98,8.88,4.41
		c2.98,1.44,5.96,2.84,8.95,4.2c2.99,1.36,5.99,2.69,8.98,3.97c3,1.28,6,2.52,8.99,3.72c2.86,1.14,5.74,2.25,8.61,3.33
		c2.89,1.08,5.78,2.11,8.67,3.11c2.9,1,5.8,1.97,8.7,2.89c2.91,0.93,5.8,1.81,8.69,2.65c2.76,0.8,5.52,1.57,8.29,2.31
		c2.78,0.74,5.56,1.44,8.34,2.1c2.79,0.67,5.58,1.29,8.36,1.88c2.79,0.59,5.58,1.14,8.35,1.66c2.64,0.49,5.28,0.94,7.93,1.36
		c2.65,0.42,5.31,0.81,7.96,1.16c2.66,0.35,5.32,0.67,7.97,0.96c2.66,0.28,5.31,0.53,7.95,0.75c3.52,0.28,7.05,0.5,10.58,0.66
		c3.54,0.16,7.08,0.25,10.62,0.28c3.55,0.03,7.09,0,10.61-0.1c3.54-0.1,7.06-0.26,10.57-0.49c3.2-0.21,6.39-0.48,9.59-0.8
		c3.2-0.32,6.4-0.7,9.59-1.13c3.2-0.43,6.39-0.92,9.56-1.47c3.18-0.55,6.35-1.15,9.49-1.8c5.32-1.11,10.6-2.37,15.83-3.8
		c5.26-1.43,10.47-3.02,15.62-4.77c5.18-1.76,10.3-3.67,15.35-5.74c5.07-2.08,10.07-4.31,14.99-6.7c1.94-0.94,3.87-1.91,5.78-2.9
		c1.91-0.99,3.82-2.01,5.7-3.04c1.89-1.04,3.75-2.1,5.6-3.18c1.85-1.08,3.67-2.18,5.47-3.3c1.44-0.9,2.87-1.8,4.28-2.72
		c1.41-0.92,2.8-1.85,4.17-2.78c1.37-0.94,2.73-1.89,4.05-2.84c1.33-0.96,2.64-1.92,3.92-2.88c2.08-1.57,3.92-3.02,5.52-4.33
		c1.6-1.31,2.96-2.47,4.08-3.45c1.11-0.98,1.98-1.78,2.6-2.36c0.62-0.58,0.99-0.95,1.11-1.07c0.13-0.21,0.65-1.07,1.56-2.48
		c0.9-1.42,2.19-3.39,3.83-5.85c1.65-2.46,3.66-5.4,6.02-8.75c2.36-3.35,5.08-7.1,8.12-11.18c1.86-2.48,3.75-4.96,5.66-7.44
		c1.92-2.48,3.87-4.95,5.84-7.4c1.98-2.46,3.98-4.91,6.01-7.35c2.03-2.44,4.08-4.86,6.15-7.27c2.59-3.01,5.22-5.99,7.87-8.94
		c2.66-2.95,5.34-5.87,8.05-8.75c2.72-2.89,5.46-5.73,8.21-8.54c2.76-2.81,5.55-5.57,8.34-8.29c7.15-6.94,14.41-13.57,21.75-19.87
		c7.39-6.34,14.88-12.36,22.44-18.04c7.62-5.71,15.31-11.08,23.08-16.09c7.82-5.04,15.71-9.73,23.67-14.03
		c2.31-1.25,4.63-2.47,6.96-3.67c2.34-1.2,4.68-2.36,7.03-3.49c2.35-1.13,4.71-2.24,7.07-3.31c2.36-1.07,4.73-2.11,7.09-3.1
		c2.49-1.05,4.99-2.07,7.51-3.06c2.52-0.99,5.04-1.94,7.58-2.85c2.54-0.92,5.08-1.8,7.62-2.64c2.55-0.84,5.09-1.64,7.64-2.41
		c2.67-0.8,5.36-1.56,8.05-2.28c2.7-0.72,5.41-1.4,8.13-2.04c2.72-0.64,5.45-1.24,8.17-1.79c2.73-0.56,5.46-1.07,8.19-1.53
		c2.86-0.49,5.73-0.93,8.6-1.33c2.89-0.4,5.78-0.75,8.68-1.05c2.91-0.3,5.82-0.56,8.73-0.76c2.92-0.21,5.83-0.36,8.74-0.47
		c3.9-0.14,7.82-0.2,11.76-0.17c3.95,0.03,7.9,0.15,11.87,0.36c3.98,0.21,7.96,0.51,11.95,0.9c4,0.39,7.99,0.87,11.98,1.44
		c4.2,0.6,8.42,1.31,12.66,2.11c4.25,0.81,8.51,1.72,12.78,2.74c4.28,1.02,8.57,2.14,12.86,3.37c4.3,1.23,8.6,2.56,12.89,3.99
		c4.5,1.5,9.03,3.13,13.57,4.87c4.55,1.75,9.12,3.62,13.69,5.6c4.59,1.99,9.18,4.1,13.77,6.33c4.61,2.23,9.21,4.58,13.8,7.04
		c4.81,2.58,9.64,5.29,14.48,8.15c4.86,2.86,9.73,5.87,14.61,9c4.9,3.15,9.8,6.43,14.69,9.84c4.91,3.42,9.83,6.97,14.72,10.65
		c27.74,20.83,57.19,40.62,88.37,59.36c31.89,19.16,65.66,37.24,101.37,54.2c36.6,17.38,75.3,33.63,116.18,48.68
		c42.01,15.46,86.4,29.7,133.26,42.63c17.82,4.92,35.98,9.64,54.46,14.15c18.7,4.57,37.72,8.92,57.05,13.06
		c19.57,4.19,39.45,8.15,59.62,11.88c20.42,3.77,41.14,7.3,62.13,10.58c8.54,1.33,17.14,2.63,25.78,3.88
		c8.69,1.26,17.42,2.47,26.18,3.64c8.81,1.18,17.64,2.31,26.49,3.39c8.9,1.09,17.8,2.12,26.71,3.11c7.4,0.82,14.81,1.61,22.22,2.36
		c7.44,0.75,14.89,1.47,22.32,2.16c7.46,0.68,14.92,1.33,22.35,1.94c7.46,0.61,14.9,1.19,22.29,1.72c0,0,0,0,0,0c0,0,0.01,0,0.01,0
		s0,0,0,0l0,0c14.74,1.06,28.23,1.89,40.31,2.53c12.15,0.64,22.85,1.09,31.92,1.41c9.12,0.32,16.6,0.5,22.26,0.61
		c5.68,0.11,9.52,0.13,11.39,0.14V264.95c-2.11,0.05-6.45,0.13-12.83,0.23c-6.36,0.09-14.72,0.2-24.87,0.27
		c-10.1,0.07-21.94,0.11-35.32,0.09c-13.28-0.02-28.04-0.1-44.06-0.28c-10.36-0.12-20.74-0.26-31.11-0.45
		c-10.31-0.18-20.6-0.39-30.88-0.64c-10.21-0.24-20.4-0.52-30.54-0.83c-10.08-0.3-20.12-0.64-30.1-1
		c-12.4-0.45-24.71-0.95-36.91-1.5c-12.12-0.54-24.14-1.12-36.03-1.75c-11.81-0.62-23.51-1.29-35.07-1.99
		c-11.48-0.7-22.83-1.44-34.02-2.22c-28.16-1.96-55.42-4.17-81.77-6.62c-25.93-2.41-51-5.04-75.2-7.9
		c-23.84-2.82-46.84-5.85-69.02-9.09c-21.86-3.2-42.93-6.6-63.18-10.2c-11.9-2.12-23.56-4.31-34.96-6.57
		c-11.31-2.25-22.38-4.57-33.18-6.95c-10.72-2.37-21.18-4.8-31.37-7.3c-10.12-2.48-19.98-5.02-29.55-7.62
		c-5.12-1.39-10.19-2.8-15.2-4.24c-4.99-1.43-9.92-2.88-14.78-4.35c-4.84-1.46-9.62-2.95-14.32-4.45c-4.68-1.49-9.29-3-13.82-4.53
		c-4.72-1.59-9.38-3.2-13.97-4.83c-4.58-1.63-9.1-3.28-13.54-4.95c-4.43-1.67-8.79-3.35-13.08-5.06c-4.27-1.7-8.47-3.41-12.58-5.14
		c-4.36-1.83-8.77-3.59-13.2-5.27c-4.42-1.67-8.87-3.27-13.34-4.78c-4.45-1.51-8.93-2.93-13.42-4.28c-4.48-1.34-8.96-2.6-13.46-3.77
		c-4.27-1.11-8.57-2.16-12.9-3.13c-4.32-0.97-8.65-1.87-13.01-2.7c-4.34-0.83-8.7-1.58-13.06-2.27c-4.35-0.68-8.71-1.29-13.07-1.83
		c-4.13-0.51-8.29-0.96-12.46-1.34c-4.16-0.38-8.34-0.71-12.54-0.97c-4.18-0.26-8.37-0.46-12.57-0.59
		c-4.18-0.14-8.37-0.21-12.55-0.22c-3.95-0.01-7.91,0.03-11.9,0.12c-3.97,0.1-7.95,0.24-11.95,0.45c-3.98,0.2-7.97,0.46-11.96,0.76
		c-3.98,0.3-7.95,0.66-11.93,1.07c-5.05,0.52-10.12,1.12-15.21,1.81c-5.07,0.69-10.15,1.46-15.25,2.31
		c-5.07,0.85-10.15,1.78-15.23,2.78c-5.06,1-10.11,2.08-15.16,3.24c-4.57,1.05-9.16,2.16-13.75,3.35
		c-4.58,1.18-9.17,2.42-13.75,3.73c-4.57,1.3-9.14,2.66-13.7,4.09c-4.55,1.42-9.08,2.89-13.6,4.42c-7.58,2.57-15.15,5.3-22.7,8.2
		c-7.5,2.88-14.98,5.92-22.42,9.11c-7.4,3.17-14.76,6.49-22.07,9.95c-7.27,3.44-14.49,7.03-21.66,10.74
		c-6.34,3.29-12.34,6.54-17.97,9.68c-5.6,3.13-10.83,6.16-15.65,9.03c-4.8,2.86-9.2,5.57-13.16,8.06
		c-3.95,2.48-7.46,4.76-10.49,6.77c-3.2,2.11-6.06,4.05-8.55,5.77c-2.49,1.72-4.61,3.22-6.35,4.47c-1.74,1.25-3.09,2.25-4.04,2.95
		c-0.95,0.7-1.49,1.12-1.59,1.2c-0.1,0.09-0.5,0.46-1.19,1.08c-0.7,0.62-1.7,1.51-3,2.63c-1.3,1.12-2.89,2.48-4.78,4.06
		c-1.88,1.58-4.06,3.37-6.53,5.37c-2.35,1.9-5.09,4.08-8.21,6.52c-3.11,2.43-6.6,5.11-10.45,8c-3.84,2.89-8.04,5.99-12.59,9.27
		c-4.53,3.27-9.4,6.72-14.6,10.32c-5.82,4.03-11.74,8.03-17.76,12c-5.99,3.95-12.06,7.87-18.22,11.74
		c-6.12,3.86-12.33,7.67-18.59,11.44c-6.23,3.75-12.53,7.45-18.87,11.1c-7.88,4.53-15.85,8.99-23.88,13.35
		c-7.97,4.33-16.01,8.58-24.1,12.74c-8.03,4.12-16.1,8.15-24.21,12.08c-8.04,3.9-16.12,7.7-24.21,11.4
		c-1.77,0.81-3.55,1.59-5.34,2.35c-1.79,0.76-3.58,1.49-5.38,2.19c-1.79,0.7-3.59,1.38-5.39,2.02c-1.8,0.65-3.59,1.26-5.39,1.85
		c-1.73,0.57-3.47,1.11-5.21,1.63c-1.74,0.52-3.49,1.01-5.24,1.48c-1.75,0.47-3.5,0.91-5.26,1.32c-1.75,0.42-3.5,0.8-5.25,1.17
		c-3.29,0.68-6.6,1.28-9.93,1.79c-3.32,0.51-6.65,0.93-9.99,1.27c-3.33,0.33-6.67,0.58-10.01,0.74c-3.33,0.16-6.66,0.24-9.99,0.23
		c-2.96-0.01-5.94-0.09-8.92-0.23c-2.98-0.14-5.96-0.35-8.95-0.63c-2.98-0.28-5.96-0.62-8.95-1.02c-2.97-0.4-5.95-0.87-8.91-1.41
		c-2.69-0.48-5.38-1.02-8.09-1.61c-2.69-0.59-5.39-1.23-8.09-1.93c-2.69-0.69-5.38-1.44-8.07-2.23c-2.68-0.79-5.35-1.63-8.02-2.52
		c-4.47-1.49-8.94-3.13-13.39-4.89c-4.43-1.76-8.85-3.66-13.25-5.69c-4.38-2.02-8.73-4.17-13.06-6.44
		c-4.31-2.26-8.59-4.65-12.83-7.16c-1.66-0.98-3.32-1.98-4.97-3c-1.65-1.02-3.29-2.05-4.92-3.1c-1.63-1.05-3.25-2.11-4.85-3.19
		c-1.6-1.07-3.19-2.16-4.77-3.26c-1.26-0.88-2.51-1.76-3.75-2.66c-1.24-0.89-2.46-1.79-3.67-2.69c-1.21-0.9-2.41-1.81-3.59-2.72
		c-1.18-0.91-2.35-1.82-3.49-2.73c-1.95-1.55-3.69-2.98-5.2-4.25c-1.51-1.27-2.79-2.37-3.82-3.29c-1.04-0.91-1.83-1.64-2.37-2.13
		c-0.54-0.5-0.82-0.77-0.83-0.78l-0.01-0.01l-0.01-0.01c-0.02-0.02-0.44-0.47-1.24-1.3c-0.81-0.83-2-2.04-3.55-3.56
		c-1.55-1.52-3.47-3.35-5.72-5.44c-2.25-2.08-4.84-4.42-7.75-6.94c-1.7-1.48-3.43-2.95-5.17-4.41c-1.74-1.46-3.51-2.91-5.29-4.34
		c-1.78-1.43-3.57-2.85-5.38-4.26c-1.8-1.4-3.62-2.79-5.45-4.15c-2.28-1.71-4.58-3.38-6.89-5.03c-2.3-1.64-4.62-3.26-6.95-4.84
		c-2.32-1.58-4.65-3.12-6.99-4.63c-2.33-1.51-4.66-2.98-7-4.41c-5.92-3.63-11.84-7.04-17.78-10.2c-5.89-3.15-11.78-6.06-17.67-8.74
		c-5.84-2.66-11.68-5.09-17.5-7.29c-5.78-2.18-11.54-4.14-17.27-5.86c-3.38-1.02-6.77-1.95-10.14-2.81
		c-3.36-0.85-6.72-1.63-10.06-2.32c-3.33-0.69-6.65-1.3-9.95-1.83c-3.29-0.53-6.56-0.98-9.81-1.35c-1.74-0.2-3.48-0.37-5.22-0.53
		c-1.74-0.15-3.47-0.28-5.2-0.39c-1.73-0.11-3.45-0.19-5.17-0.26c-1.71-0.06-3.42-0.11-5.12-0.13c-1.77-0.02-3.54-0.02-5.31,0.01
		c-1.77,0.03-3.53,0.08-5.29,0.15c-1.76,0.08-3.51,0.17-5.25,0.3c-1.74,0.12-3.47,0.27-5.19,0.43c-0.4,0.04-0.79,0.08-1.18,0.12
		c-0.39,0.04-0.78,0.08-1.17,0.13c-0.39,0.04-0.78,0.09-1.17,0.13c-0.39,0.05-0.78,0.09-1.18,0.14c-3.41,0.42-6.81,0.91-10.18,1.47
		c-3.36,0.56-6.7,1.19-10.01,1.89c-3.3,0.69-6.57,1.46-9.81,2.29c-3.22,0.83-6.42,1.72-9.57,2.67c-2.86,0.86-5.7,1.79-8.53,2.76
		c-2.81,0.97-5.61,2-8.38,3.08c-2.76,1.08-5.5,2.21-8.21,3.39c-2.7,1.18-5.38,2.4-8.02,3.68c-4.43,2.14-8.79,4.41-13.08,6.83
		c-4.26,2.4-8.45,4.94-12.56,7.61c-4.09,2.65-8.1,5.44-12.03,8.34c-3.91,2.89-7.73,5.91-11.47,9.04c-1.46,1.23-2.91,2.47-4.35,3.74
		c-1.43,1.26-2.85,2.54-4.25,3.83c-1.4,1.29-2.78,2.59-4.14,3.91c-1.36,1.31-2.7,2.64-4.02,3.98c-1.05,1.07-2.09,2.14-3.12,3.22
		c-1.02,1.08-2.03,2.16-3.02,3.25c-0.99,1.09-1.96,2.17-2.92,3.26c-0.95,1.09-1.89,2.18-2.81,3.27c-1.43,1.7-2.71,3.27-3.82,4.68
		c-1.11,1.41-2.06,2.65-2.85,3.71c-0.79,1.06-1.41,1.92-1.87,2.57c-0.46,0.65-0.75,1.08-0.87,1.27v108.14
		c0.23-0.63,0.54-1.48,0.95-2.55c0.41-1.06,0.9-2.34,1.49-3.79c0.59-1.45,1.27-3.09,2.03-4.87c0.77-1.79,1.63-3.73,2.58-5.81
		c0.73-1.59,1.48-3.18,2.24-4.77c0.76-1.59,1.55-3.17,2.34-4.74c0.8-1.58,1.61-3.14,2.43-4.7c0.83-1.56,1.66-3.11,2.51-4.64
		c1.06-1.92,2.15-3.82,3.25-5.7c1.1-1.88,2.23-3.74,3.36-5.57c1.14-1.83,2.3-3.64,3.47-5.42c1.17-1.78,2.36-3.53,3.56-5.25
		c3.06-4.39,6.21-8.57,9.43-12.55c3.24-3.99,6.56-7.78,9.96-11.34c3.41-3.58,6.91-6.94,10.47-10.08c3.58-3.15,7.24-6.07,10.96-8.76
		c1.08-0.78,2.17-1.54,3.27-2.28c1.1-0.74,2.21-1.47,3.32-2.17c1.11-0.71,2.23-1.39,3.36-2.06c1.13-0.67,2.25-1.31,3.39-1.93
		c1.19-0.65,2.4-1.29,3.61-1.9c1.21-0.61,2.43-1.2,3.66-1.77c1.23-0.57,2.46-1.12,3.7-1.64c1.24-0.52,2.49-1.02,3.74-1.5
		c1.31-0.5,2.63-0.97,3.96-1.42c1.33-0.45,2.68-0.87,4.02-1.27c1.35-0.4,2.71-0.77,4.07-1.12c1.36-0.35,2.73-0.67,4.1-0.96
		c1.44-0.31,2.88-0.58,4.34-0.83c1.46-0.25,2.93-0.47,4.41-0.66c1.48-0.19,2.97-0.36,4.46-0.49
		C82.27,315.16,83.77,315.05,85.28,314.98z"/>
</g>
<g id="Tracé_13" transform="translate(41.774 77.541)">
	<path class="st3" d="M2214.89,264.02c0,0-45.42,1.16-118.46,0.37c-70.18-0.76-163.82-3.31-264.57-10.31
		c-95-6.6-195.31-17.08-289.06-33.73c-88.3-15.68-171.16-36.88-240.21-65.89c-65.8-27.64-131.4-34.48-191.62-29.86
		c-57.56,4.41-110.52,19.32-154.88,36.72c-35.55,14-69.82,31.08-102.41,51.03c-23.82,14.6-37.52,25.22-37.52,25.22
		s-5.13,4.76-15.48,13.13c-10.26,8.3-25.54,20.07-45.8,34.09c-19.9,13.77-44.42,29.6-73.39,46.27
		c-28.22,16.24-60.41,33.14-96.33,49.57c-30.85,14.31-64.92,20.26-98.8,17.28c-29.59-2.55-56.42-11.37-78.83-21.8
		c-18.37-8.61-35.82-19.06-52.08-31.19c-6.63-4.86-12.98-10.08-19.02-15.66c-5.96-6.21-12.22-12.11-18.77-17.69
		c-15.74-13.62-32.6-25.91-50.38-36.73c-20.7-12.55-45.03-24.38-71.81-32.02c-25.96-7.41-54.07-10.84-83.29-7.24
		c-25.26,3.04-49.84,10.23-72.77,21.26c-29.85,14.49-56.36,35.05-77.83,60.35c-3.39,3.95-6.55,8.07-9.49,12.36v109.64
		c4.23-11.65,9.33-22.97,15.26-33.85c10.42-19.38,26.43-43.54,48.59-61.89c22.83-18.9,52.57-31.95,90.23-27.27
		c39.51,4.91,88.53,29.43,148.87,88.5c64.81,63.45,125.79,103.18,181.54,126.36c59.17,24.59,111.49,30.13,155.47,25.99
		c37.44-3.39,73.73-14.67,106.49-33.1c25.23-14.31,38.14-27.47,38.14-27.47s11.91-19.68,33.59-46.25
		c22.09-27.09,54.72-61.83,96-90.91c42.77-30.14,95.48-54.65,156.18-58.32c63.78-3.86,137.14,15.26,217.75,75.81
		c85.66,64.34,180.71,113.61,278.12,151.75c104.15,40.78,210.89,68.79,309.8,88.17c89.21,17.35,179.35,29.54,269.97,36.49
		c72.92,5.59,116.81,5.43,116.81,5.43L2214.89,264.02z"/>
	<path class="st1" d="M541.58,557.79c-2.65-0.21-5.31-0.47-7.97-0.75c-2.66-0.29-5.33-0.61-7.99-0.96
		c-2.66-0.36-5.32-0.75-7.98-1.17c-2.65-0.42-5.3-0.88-7.95-1.37c-2.78-0.52-5.57-1.07-8.37-1.66c-2.79-0.59-5.58-1.22-8.38-1.89
		c-2.79-0.67-5.58-1.37-8.36-2.11c-2.78-0.74-5.55-1.51-8.31-2.31c-2.9-0.84-5.8-1.73-8.71-2.66c-2.9-0.93-5.81-1.89-8.71-2.9
		c-2.9-1-5.8-2.05-8.69-3.12c-2.88-1.08-5.76-2.19-8.63-3.34c-2.99-1.2-6-2.44-9-3.73c-3-1.28-6-2.61-9-3.98
		c-2.99-1.36-5.98-2.77-8.96-4.21c-2.97-1.44-5.94-2.91-8.89-4.42c-3.07-1.57-6.16-3.19-9.25-4.86c-3.08-1.66-6.16-3.37-9.23-5.11
		c-3.07-1.74-6.13-3.52-9.19-5.35c-3.05-1.82-6.09-3.67-9.11-5.56c-3.14-1.96-6.29-3.97-9.44-6.03c-3.14-2.05-6.28-4.15-9.42-6.29
		c-3.13-2.13-6.25-4.31-9.37-6.52c-3.1-2.21-6.2-4.45-9.28-6.73c-3.19-2.36-6.39-4.77-9.59-7.24c-3.19-2.45-6.38-4.96-9.56-7.5
		c-3.17-2.54-6.34-5.12-9.5-7.73c-3.15-2.61-6.29-5.26-9.41-7.94c-3.23-2.77-6.46-5.59-9.7-8.47c-3.22-2.86-6.45-5.78-9.66-8.73
		c-3.21-2.95-6.41-5.94-9.6-8.96c-3.18-3.02-6.35-6.07-9.5-9.16c-16.49-16.14-32.46-30.03-47.91-41.72
		c-15.18-11.48-29.87-20.84-44.07-28.13c-13.96-7.17-27.45-12.34-40.47-15.56c-12.82-3.17-25.19-4.45-37.1-3.87
		c-1.5,0.07-2.99,0.18-4.48,0.31c-1.49,0.13-2.97,0.29-4.45,0.49c-1.47,0.19-2.94,0.41-4.39,0.66c-1.45,0.25-2.9,0.52-4.33,0.83
		c-1.37,0.29-2.73,0.61-4.09,0.95c-1.36,0.34-2.71,0.72-4.06,1.11c-1.34,0.4-2.68,0.82-4.01,1.26c-1.33,0.45-2.64,0.92-3.95,1.41
		c-1.24,0.47-2.48,0.97-3.72,1.49c-1.24,0.52-2.47,1.06-3.69,1.63c-1.22,0.57-2.44,1.15-3.65,1.76c-1.21,0.61-2.41,1.24-3.59,1.89
		c-1.13,0.62-2.25,1.26-3.37,1.92c-1.12,0.66-2.24,1.34-3.35,2.05c-1.11,0.7-2.21,1.42-3.31,2.16c-1.09,0.74-2.18,1.5-3.26,2.27
		c-3.71,2.68-7.36,5.59-10.93,8.73c-3.55,3.12-7.04,6.48-10.44,10.04c-3.39,3.55-6.7,7.32-9.93,11.3
		c-3.22,3.96-6.36,8.14-9.41,12.51c-1.2,1.71-2.38,3.46-3.55,5.24c-1.17,1.77-2.32,3.58-3.46,5.4c-1.14,1.83-2.26,3.68-3.36,5.55
		c-1.1,1.87-2.18,3.77-3.24,5.68c-0.85,1.53-1.69,3.07-2.51,4.63c-0.82,1.55-1.63,3.12-2.43,4.69c-0.79,1.57-1.57,3.15-2.34,4.73
		c-0.76,1.58-1.51,3.17-2.24,4.76c-1.24,2.7-2.32,5.18-3.25,7.39c-0.93,2.2-1.7,4.12-2.32,5.71c-0.62,1.59-1.09,2.84-1.4,3.7
		c-0.31,0.86-0.47,1.33-0.48,1.35l-0.43-0.17V329.56v-0.15l0.07-0.11c0.01-0.01,0.22-0.33,0.62-0.91c0.41-0.58,1.01-1.43,1.8-2.52
		c0.8-1.08,1.79-2.39,2.97-3.9c1.18-1.51,2.56-3.21,4.12-5.07c0.92-1.09,1.86-2.19,2.82-3.28c0.96-1.09,1.93-2.18,2.93-3.27
		c0.99-1.09,2-2.18,3.03-3.26c1.03-1.08,2.07-2.16,3.12-3.23c1.32-1.34,2.66-2.67,4.02-3.99c1.36-1.32,2.75-2.63,4.15-3.92
		c1.4-1.3,2.82-2.58,4.26-3.84c1.44-1.27,2.89-2.51,4.36-3.74c3.74-3.14,7.57-6.16,11.49-9.06c3.93-2.91,7.95-5.7,12.05-8.36
		c4.12-2.67,8.31-5.22,12.58-7.63c4.29-2.42,8.66-4.71,13.1-6.85c2.65-1.28,5.32-2.51,8.03-3.69c2.72-1.18,5.46-2.32,8.23-3.4
		c2.78-1.08,5.58-2.12,8.4-3.09c2.83-0.98,5.68-1.91,8.54-2.77c3.16-0.96,6.36-1.85,9.59-2.68c3.24-0.83,6.52-1.6,9.82-2.29
		c3.32-0.7,6.66-1.33,10.03-1.89c3.38-0.56,6.78-1.06,10.2-1.48c0.4-0.05,0.79-0.1,1.18-0.14c0.39-0.05,0.78-0.09,1.17-0.13
		c0.39-0.04,0.78-0.09,1.18-0.13c0.39-0.04,0.79-0.08,1.19-0.12c1.72-0.17,3.46-0.32,5.2-0.44c1.75-0.12,3.5-0.22,5.26-0.3
		c1.76-0.08,3.53-0.13,5.3-0.16c1.77-0.03,3.55-0.03,5.32-0.01c1.7,0.02,3.41,0.06,5.13,0.12c1.72,0.06,3.45,0.15,5.18,0.26
		c1.74,0.11,3.48,0.24,5.22,0.39c1.75,0.15,3.49,0.33,5.23,0.53c3.25,0.37,6.53,0.82,9.83,1.35c3.31,0.53,6.64,1.14,9.97,1.83
		c3.35,0.69,6.72,1.47,10.09,2.32c3.38,0.86,6.78,1.79,10.17,2.81c5.74,1.72,11.51,3.68,17.3,5.86c5.83,2.2,11.68,4.63,17.53,7.3
		c5.9,2.68,11.8,5.6,17.71,8.75c5.94,3.17,11.89,6.58,17.81,10.22c2.34,1.44,4.68,2.91,7.01,4.42c2.34,1.51,4.68,3.06,7,4.64
		c2.33,1.58,4.66,3.2,6.97,4.85c2.32,1.65,4.62,3.33,6.9,5.04c1.83,1.37,3.65,2.76,5.46,4.16c1.81,1.41,3.61,2.83,5.39,4.26
		c1.78,1.44,3.55,2.89,5.3,4.35c1.75,1.46,3.48,2.94,5.19,4.42c2.87,2.49,5.43,4.8,7.66,6.86c2.24,2.07,4.14,3.89,5.7,5.41
		c1.56,1.52,2.76,2.74,3.59,3.59c0.83,0.86,1.29,1.35,1.36,1.42c0.05,0.05,0.36,0.35,0.92,0.85c0.56,0.51,1.36,1.23,2.39,2.14
		c1.03,0.91,2.3,2,3.78,3.24c1.49,1.24,3.19,2.64,5.1,4.16c1.15,0.91,2.31,1.82,3.49,2.73c1.18,0.91,2.38,1.81,3.58,2.71
		c1.21,0.9,2.43,1.8,3.67,2.68c1.24,0.89,2.48,1.77,3.74,2.65c1.57,1.1,3.16,2.18,4.76,3.25c1.6,1.07,3.22,2.13,4.84,3.18
		c1.63,1.05,3.27,2.08,4.91,3.09c1.65,1.02,3.3,2.01,4.96,2.99c4.24,2.5,8.51,4.88,12.81,7.13c4.32,2.26,8.66,4.4,13.03,6.42
		c4.39,2.02,8.79,3.91,13.21,5.66c4.44,1.76,8.9,3.39,13.36,4.88c2.66,0.89,5.32,1.72,7.99,2.51c2.68,0.79,5.36,1.53,8.05,2.22
		c2.69,0.69,5.38,1.33,8.07,1.92c2.69,0.59,5.38,1.12,8.06,1.6c2.95,0.53,5.92,0.99,8.88,1.4c2.97,0.4,5.94,0.74,8.91,1.01
		c2.98,0.27,5.95,0.48,8.92,0.62c2.97,0.14,5.94,0.22,8.89,0.22c3.32,0.01,6.64-0.07,9.95-0.23c3.33-0.16,6.65-0.41,9.97-0.75
		c3.33-0.34,6.64-0.76,9.94-1.27c3.31-0.51,6.61-1.11,9.89-1.79c1.74-0.36,3.48-0.75,5.22-1.17c1.74-0.41,3.49-0.86,5.23-1.32
		c1.74-0.47,3.48-0.96,5.22-1.47c1.74-0.52,3.47-1.06,5.19-1.62c1.79-0.59,3.58-1.2,5.37-1.84c1.79-0.64,3.58-1.32,5.37-2.02
		c1.79-0.7,3.57-1.43,5.35-2.18c1.78-0.76,3.55-1.54,5.32-2.34c8.08-3.7,16.15-7.5,24.18-11.4c8.1-3.93,16.16-7.96,24.18-12.08
		c8.08-4.15,16.11-8.4,24.07-12.73c8.02-4.36,15.98-8.82,23.85-13.35c6.34-3.65,12.62-7.35,18.84-11.1
		c6.26-3.77,12.45-7.58,18.56-11.44c6.15-3.87,12.22-7.79,18.19-11.73c6.01-3.97,11.92-7.96,17.73-11.99
		c5.19-3.6,10.05-7.04,14.57-10.31c4.54-3.28,8.73-6.38,12.56-9.26c3.84-2.89,7.32-5.56,10.43-7.99c3.11-2.43,5.85-4.61,8.19-6.51
		c2.54-2.06,4.78-3.9,6.7-5.51c1.92-1.61,3.53-2.99,4.82-4.11c1.29-1.12,2.27-1.99,2.92-2.57c0.66-0.59,0.99-0.9,1-0.91l0.02-0.02
		l0.02-0.02c0.02-0.01,0.5-0.38,1.4-1.06c0.91-0.68,2.25-1.67,3.99-2.93c1.75-1.26,3.9-2.79,6.44-4.55
		c2.54-1.76,5.47-3.75,8.76-5.92c1.93-1.28,3.9-2.56,5.89-3.84c1.99-1.28,4.01-2.56,6.05-3.84c2.04-1.28,4.11-2.56,6.19-3.83
		c2.09-1.27,4.19-2.54,6.31-3.8c2.65-1.58,5.34-3.15,8.04-4.7c2.71-1.56,5.44-3.1,8.19-4.63c2.75-1.53,5.52-3.05,8.31-4.54
		c2.79-1.5,5.59-2.98,8.4-4.44c7.18-3.73,14.42-7.32,21.7-10.78c7.33-3.47,14.71-6.8,22.12-9.99c7.46-3.2,14.95-6.25,22.47-9.14
		c7.56-2.91,15.15-5.65,22.74-8.23c4.53-1.54,9.08-3.02,13.64-4.44c4.57-1.43,9.16-2.8,13.74-4.1c4.6-1.31,9.2-2.56,13.79-3.74
		c4.61-1.19,9.21-2.31,13.79-3.36c5.06-1.16,10.13-2.25,15.21-3.26c5.09-1.01,10.19-1.95,15.28-2.8c5.11-0.86,10.21-1.63,15.3-2.32
		c5.11-0.69,10.2-1.3,15.26-1.82c3.99-0.41,7.98-0.77,11.97-1.08c4-0.31,8.01-0.57,12.01-0.77c4.01-0.2,8.01-0.36,12-0.45
		c4-0.1,7.98-0.14,11.94-0.13c4.2,0.01,8.4,0.08,12.61,0.22c4.21,0.13,8.43,0.33,12.63,0.59c4.21,0.26,8.41,0.58,12.59,0.96
		c4.19,0.38,8.37,0.83,12.52,1.34c4.38,0.54,8.76,1.15,13.13,1.83c4.38,0.68,8.76,1.44,13.12,2.27c4.38,0.83,8.73,1.73,13.07,2.71
		c4.35,0.98,8.67,2.02,12.96,3.14c4.52,1.18,9.03,2.44,13.52,3.78c4.51,1.35,9.01,2.78,13.49,4.29c4.49,1.52,8.96,3.12,13.4,4.79
		c4.46,1.68,8.88,3.45,13.27,5.29c4.11,1.72,8.3,3.43,12.56,5.13c4.28,1.7,8.63,3.38,13.06,5.04c4.44,1.67,8.95,3.31,13.52,4.94
		c4.59,1.63,9.24,3.24,13.95,4.82c4.52,1.52,9.12,3.02,13.8,4.51c4.69,1.49,9.46,2.97,14.3,4.43c4.85,1.46,9.77,2.91,14.76,4.34
		c5,1.43,10.06,2.84,15.18,4.23c9.57,2.59,19.41,5.12,29.52,7.6c10.18,2.49,20.63,4.91,31.34,7.27c10.79,2.38,21.84,4.69,33.14,6.93
		c11.39,2.26,23.04,4.44,34.93,6.55c20.24,3.59,41.29,6.98,63.14,10.16c22.16,3.23,45.15,6.25,68.97,9.05
		c24.18,2.84,49.23,5.47,75.14,7.86c26.33,2.43,53.57,4.63,81.71,6.57c11.19,0.77,22.52,1.51,34,2.2
		c11.55,0.7,23.24,1.36,35.05,1.98c11.89,0.62,23.9,1.2,36.01,1.73c12.2,0.54,24.5,1.03,36.89,1.48c9.97,0.36,20.01,0.69,30.08,0.99
		c10.13,0.3,20.31,0.57,30.52,0.81c10.26,0.24,20.56,0.45,30.86,0.62c10.36,0.18,20.72,0.32,31.08,0.43
		c17.77,0.19,33.98,0.26,48.33,0.26c14.46,0,27.01-0.07,37.33-0.17c10.38-0.1,18.5-0.22,24.05-0.32c5.57-0.1,8.55-0.17,8.67-0.18
		l1.46-0.04v0.88v394.75v0.79l-1.3,0.01c-0.1,0-2.74,0.01-7.71-0.06c-4.96-0.07-12.23-0.21-21.59-0.51
		c-9.31-0.3-20.68-0.74-33.87-1.42c-13.09-0.67-27.96-1.57-44.38-2.76c0,0,0,0,0,0l0,0c0,0,0,0-0.01,0c0,0,0,0,0,0
		c-7.41-0.54-14.86-1.12-22.33-1.73c-7.44-0.61-14.91-1.27-22.39-1.96c-7.45-0.69-14.91-1.41-22.36-2.17
		c-7.43-0.76-14.85-1.55-22.26-2.37c-8.92-0.99-17.84-2.04-26.75-3.13c-8.87-1.09-17.71-2.22-26.53-3.4
		c-8.78-1.18-17.52-2.4-26.22-3.66c-8.65-1.26-17.27-2.56-25.82-3.9c-21.02-3.29-41.77-6.84-62.21-10.63
		c-20.2-3.74-40.11-7.72-59.7-11.92c-19.36-4.15-38.41-8.53-57.13-13.11c-18.51-4.53-36.69-9.27-54.53-14.2
		c-10.35-2.86-20.63-5.8-30.8-8.81c-10.11-2.99-20.12-6.05-30.02-9.17c-9.84-3.1-19.56-6.27-29.16-9.49
		c-9.54-3.2-18.96-6.47-28.24-9.78c-10.08-3.6-20.06-7.28-29.92-11.04c-9.8-3.73-19.49-7.54-29.06-11.42
		c-9.5-3.85-18.88-7.77-28.12-11.76c-9.19-3.96-18.24-7.98-27.14-12.05c-9.56-4.38-19.02-8.84-28.35-13.4
		c-9.27-4.52-18.43-9.13-27.45-13.8c-8.96-4.65-17.79-9.37-26.48-14.16c-8.63-4.76-17.12-9.58-25.46-14.46
		c-4.38-2.56-8.73-5.15-13.06-7.77c-4.31-2.61-8.6-5.24-12.85-7.89c-4.24-2.64-8.45-5.3-12.61-7.98c-4.15-2.67-8.26-5.35-12.33-8.04
		c-4.19-2.78-8.36-5.58-12.5-8.42c-4.13-2.82-8.23-5.67-12.29-8.54c-4.05-2.86-8.07-5.74-12.05-8.64
		c-3.97-2.89-7.89-5.79-11.77-8.71c-4.88-3.67-9.77-7.21-14.66-10.62c-4.88-3.4-9.76-6.67-14.63-9.81
		c-4.86-3.13-9.71-6.12-14.55-8.97c-4.82-2.85-9.63-5.56-14.42-8.12c-4.57-2.45-9.15-4.79-13.73-7.02c-4.57-2.22-9.14-4.32-13.7-6.3
		c-4.55-1.98-9.09-3.84-13.62-5.58c-4.51-1.74-9.02-3.36-13.5-4.85c-4.26-1.42-8.54-2.75-12.81-3.97
		c-4.26-1.22-8.52-2.34-12.78-3.35c-4.24-1.01-8.48-1.92-12.71-2.73c-4.21-0.81-8.41-1.51-12.59-2.11
		c-3.96-0.57-7.93-1.05-11.9-1.44c-3.96-0.39-7.92-0.69-11.87-0.9c-3.94-0.21-7.88-0.33-11.8-0.37c-3.91-0.03-7.81,0.02-11.69,0.16
		c-2.89,0.11-5.79,0.26-8.69,0.46c-2.89,0.2-5.79,0.45-8.67,0.75c-2.88,0.3-5.76,0.64-8.63,1.04c-2.86,0.39-5.72,0.83-8.56,1.31
		c-2.71,0.46-5.43,0.97-8.15,1.52c-2.71,0.55-5.42,1.14-8.13,1.78c-2.7,0.63-5.4,1.31-8.09,2.03c-2.68,0.72-5.35,1.47-8.01,2.27
		c-2.53,0.76-5.07,1.56-7.6,2.39c-2.53,0.84-5.06,1.71-7.59,2.62c-2.52,0.91-5.04,1.86-7.54,2.84c-2.5,0.98-4.99,1.99-7.47,3.04
		c-2.35,0.99-4.71,2.02-7.06,3.09c-2.35,1.06-4.7,2.16-7.04,3.29c-2.34,1.13-4.68,2.29-7,3.48c-2.32,1.19-4.64,2.4-6.94,3.65
		c-7.93,4.29-15.8,8.96-23.61,13.98c-7.75,4.99-15.43,10.35-23.03,16.04c-7.55,5.66-15.02,11.66-22.39,17.98
		c-7.33,6.29-14.57,12.9-21.71,19.82c-2.79,2.71-5.57,5.47-8.33,8.27c-2.75,2.8-5.49,5.64-8.2,8.52c-2.71,2.87-5.39,5.79-8.04,8.74
		c-2.65,2.94-5.27,5.92-7.86,8.92c-2.07,2.4-4.12,4.82-6.15,7.25c-2.02,2.43-4.02,4.88-6,7.34c-1.97,2.45-3.92,4.92-5.84,7.39
		c-1.91,2.47-3.8,4.94-5.66,7.42c-3.15,4.21-5.94,8.08-8.36,11.51c-2.41,3.42-4.45,6.41-6.1,8.88c-1.65,2.47-2.9,4.41-3.75,5.75
		c-0.85,1.34-1.29,2.06-1.31,2.09l-0.03,0.05l-0.04,0.04c-0.01,0.01-0.31,0.31-0.88,0.86c-0.57,0.55-1.43,1.34-2.55,2.34
		c-1.13,1-2.53,2.2-4.19,3.57c-1.67,1.37-3.6,2.9-5.8,4.56c-1.29,0.97-2.6,1.94-3.94,2.9c-1.33,0.96-2.69,1.91-4.07,2.85
		c-1.38,0.94-2.78,1.87-4.19,2.8c-1.41,0.92-2.85,1.83-4.29,2.73c-1.81,1.12-3.64,2.23-5.5,3.31c-1.85,1.08-3.73,2.15-5.62,3.19
		c-1.89,1.04-3.8,2.06-5.72,3.05c-1.92,0.99-3.86,1.96-5.8,2.91c-4.94,2.4-9.96,4.64-15.06,6.73c-5.07,2.08-10.21,3.99-15.41,5.75
		c-5.17,1.75-10.4,3.35-15.68,4.78c-5.25,1.43-10.55,2.7-15.89,3.81c-3.16,0.66-6.33,1.26-9.53,1.8c-3.18,0.54-6.38,1.03-9.6,1.47
		c-3.2,0.43-6.41,0.81-9.63,1.13c-3.2,0.32-6.41,0.59-9.62,0.79c-3.52,0.23-7.05,0.39-10.6,0.49c-3.54,0.1-7.09,0.13-10.65,0.1
		c-3.55-0.03-7.1-0.13-10.65-0.29C548.66,558.3,545.12,558.08,541.58,557.79z M85.28,314.98c1.32-0.07,2.66-0.11,4-0.13
		c1.34-0.02,2.7-0.02,4.05,0.01c1.36,0.03,2.73,0.08,4.1,0.15c1.37,0.07,2.75,0.17,4.12,0.29c1.42,0.12,2.86,0.27,4.31,0.45
		c1.45,0.18,2.9,0.38,4.36,0.6c1.46,0.23,2.93,0.48,4.41,0.76c1.48,0.28,2.96,0.58,4.44,0.91c1.53,0.34,3.08,0.71,4.63,1.1
		c1.56,0.4,3.12,0.82,4.69,1.28c1.58,0.45,3.16,0.94,4.74,1.44c1.59,0.51,3.18,1.05,4.78,1.61c1.65,0.58,3.3,1.2,4.97,1.84
		c1.67,0.65,3.35,1.32,5.04,2.03c1.69,0.71,3.39,1.45,5.1,2.22c1.71,0.77,3.42,1.57,5.13,2.4c1.77,0.85,3.55,1.74,5.34,2.67
		c1.8,0.93,3.6,1.89,5.42,2.88c1.82,1,3.64,2.02,5.48,3.08c1.83,1.06,3.67,2.16,5.51,3.28c1.9,1.16,3.81,2.36,5.73,3.59
		c1.93,1.24,3.87,2.52,5.82,3.83c1.95,1.32,3.91,2.67,5.88,4.05c1.97,1.39,3.95,2.81,5.92,4.27c2.04,1.5,4.09,3.04,6.15,4.62
		c2.07,1.59,4.15,3.22,6.24,4.88c2.1,1.67,4.2,3.38,6.31,5.13c2.12,1.75,4.24,3.54,6.36,5.37c2.18,1.88,4.39,3.8,6.6,5.77
		c2.22,1.98,4.46,4,6.7,6.06c2.25,2.07,4.51,4.18,6.78,6.33c2.27,2.16,4.55,4.35,6.83,6.59c3.15,3.08,6.32,6.14,9.5,9.15
		c3.19,3.02,6.39,6.01,9.6,8.95c3.22,2.95,6.44,5.86,9.66,8.72c3.23,2.87,6.47,5.69,9.69,8.46c3.12,2.68,6.26,5.32,9.41,7.93
		c3.16,2.61,6.33,5.19,9.5,7.72c3.18,2.54,6.37,5.04,9.56,7.49c3.2,2.46,6.39,4.87,9.58,7.23c3.08,2.28,6.17,4.52,9.28,6.72
		c3.11,2.21,6.23,4.38,9.36,6.51c3.14,2.14,6.27,4.23,9.41,6.28c3.15,2.05,6.29,4.06,9.43,6.02c3.02,1.88,6.06,3.73,9.1,5.55
		c3.05,1.82,6.11,3.6,9.18,5.33c3.07,1.74,6.15,3.44,9.22,5.1c3.08,1.66,6.16,3.28,9.23,4.85c2.95,1.51,5.91,2.98,8.88,4.41
		c2.98,1.44,5.96,2.84,8.95,4.2c2.99,1.36,5.99,2.69,8.98,3.97c3,1.28,6,2.52,8.99,3.72c2.86,1.14,5.74,2.25,8.61,3.33
		c2.89,1.08,5.78,2.11,8.67,3.11c2.9,1,5.8,1.97,8.7,2.89c2.91,0.93,5.8,1.81,8.69,2.65c2.76,0.8,5.52,1.57,8.29,2.31
		c2.78,0.74,5.56,1.44,8.34,2.1c2.79,0.67,5.58,1.29,8.36,1.88c2.79,0.59,5.58,1.14,8.35,1.66c2.64,0.49,5.28,0.94,7.93,1.36
		c2.65,0.42,5.31,0.81,7.96,1.16c2.66,0.35,5.32,0.67,7.97,0.96c2.66,0.28,5.31,0.53,7.95,0.75c3.52,0.28,7.05,0.5,10.58,0.66
		c3.54,0.16,7.08,0.25,10.62,0.28c3.55,0.03,7.09,0,10.61-0.1c3.54-0.1,7.06-0.26,10.57-0.49c3.2-0.21,6.39-0.48,9.59-0.8
		c3.2-0.32,6.4-0.7,9.59-1.13c3.2-0.43,6.39-0.92,9.56-1.47c3.18-0.55,6.35-1.15,9.49-1.8c5.32-1.11,10.6-2.37,15.83-3.8
		c5.26-1.43,10.47-3.02,15.62-4.77c5.18-1.76,10.3-3.67,15.35-5.74c5.07-2.08,10.07-4.31,14.99-6.7c1.94-0.94,3.87-1.91,5.78-2.9
		c1.91-0.99,3.82-2.01,5.7-3.04c1.89-1.04,3.75-2.1,5.6-3.18c1.85-1.08,3.67-2.18,5.47-3.3c1.44-0.9,2.87-1.8,4.28-2.72
		c1.41-0.92,2.8-1.85,4.17-2.78c1.37-0.94,2.73-1.89,4.05-2.84c1.33-0.96,2.64-1.92,3.92-2.88c2.08-1.57,3.92-3.02,5.52-4.33
		c1.6-1.31,2.96-2.47,4.08-3.45c1.11-0.98,1.98-1.78,2.6-2.36c0.62-0.58,0.99-0.95,1.11-1.07c0.13-0.21,0.65-1.07,1.56-2.48
		c0.9-1.42,2.19-3.39,3.83-5.85c1.65-2.46,3.66-5.4,6.02-8.75c2.36-3.35,5.08-7.1,8.12-11.18c1.86-2.48,3.75-4.96,5.66-7.44
		c1.92-2.48,3.87-4.95,5.84-7.4c1.98-2.46,3.98-4.91,6.01-7.35c2.03-2.44,4.08-4.86,6.15-7.27c2.59-3.01,5.22-5.99,7.87-8.94
		c2.66-2.95,5.34-5.87,8.05-8.75c2.72-2.89,5.46-5.73,8.21-8.54c2.76-2.81,5.55-5.57,8.34-8.29c7.15-6.94,14.41-13.57,21.75-19.87
		c7.39-6.34,14.88-12.36,22.44-18.04c7.62-5.71,15.31-11.08,23.08-16.09c7.82-5.04,15.71-9.73,23.67-14.03
		c2.31-1.25,4.63-2.47,6.96-3.67c2.34-1.2,4.68-2.36,7.03-3.49c2.35-1.13,4.71-2.24,7.07-3.31c2.36-1.07,4.73-2.11,7.09-3.1
		c2.49-1.05,4.99-2.07,7.51-3.06c2.52-0.99,5.04-1.94,7.58-2.85c2.54-0.92,5.08-1.8,7.62-2.64c2.55-0.84,5.09-1.64,7.64-2.41
		c2.67-0.8,5.36-1.56,8.05-2.28c2.7-0.72,5.41-1.4,8.13-2.04c2.72-0.64,5.45-1.24,8.17-1.79c2.73-0.56,5.46-1.07,8.19-1.53
		c2.86-0.49,5.73-0.93,8.6-1.33c2.89-0.4,5.78-0.75,8.68-1.05c2.91-0.3,5.82-0.56,8.73-0.76c2.92-0.21,5.83-0.36,8.74-0.47
		c3.9-0.14,7.82-0.2,11.76-0.17c3.95,0.03,7.9,0.15,11.87,0.36c3.98,0.21,7.96,0.51,11.95,0.9c4,0.39,7.99,0.87,11.98,1.44
		c4.2,0.6,8.42,1.31,12.66,2.11c4.25,0.81,8.51,1.72,12.78,2.74c4.28,1.02,8.57,2.14,12.86,3.37c4.3,1.23,8.6,2.56,12.89,3.99
		c4.5,1.5,9.03,3.13,13.57,4.87c4.55,1.75,9.12,3.62,13.69,5.6c4.59,1.99,9.18,4.1,13.77,6.33c4.61,2.23,9.21,4.58,13.8,7.04
		c4.81,2.58,9.64,5.29,14.48,8.15c4.86,2.86,9.73,5.87,14.61,9c4.9,3.15,9.8,6.43,14.69,9.84c4.91,3.42,9.83,6.97,14.72,10.65
		c27.74,20.83,57.19,40.62,88.37,59.36c31.89,19.16,65.66,37.24,101.37,54.2c36.6,17.38,75.3,33.63,116.18,48.68
		c42.01,15.46,86.4,29.7,133.26,42.63c17.82,4.92,35.98,9.64,54.46,14.15c18.7,4.57,37.72,8.92,57.05,13.06
		c19.57,4.19,39.45,8.15,59.62,11.88c20.42,3.77,41.14,7.3,62.13,10.58c8.54,1.33,17.14,2.63,25.78,3.88
		c8.69,1.26,17.42,2.47,26.18,3.64c8.81,1.18,17.64,2.31,26.49,3.39c8.9,1.09,17.8,2.12,26.71,3.11c7.4,0.82,14.81,1.61,22.22,2.36
		c7.44,0.75,14.89,1.47,22.32,2.16c7.46,0.68,14.92,1.33,22.35,1.94c7.46,0.61,14.9,1.19,22.29,1.72c0,0,0,0,0,0c0,0,0.01,0,0.01,0
		s0,0,0,0l0,0c14.74,1.06,28.23,1.89,40.31,2.53c12.15,0.64,22.85,1.09,31.92,1.41c9.12,0.32,16.6,0.5,22.26,0.61
		c5.68,0.11,9.52,0.13,11.39,0.14V264.95c-2.11,0.05-6.45,0.13-12.83,0.23c-6.36,0.09-14.72,0.2-24.87,0.27
		c-10.1,0.07-21.94,0.11-35.32,0.09c-13.28-0.02-28.04-0.1-44.06-0.28c-10.36-0.12-20.74-0.26-31.11-0.45
		c-10.31-0.18-20.6-0.39-30.88-0.64c-10.21-0.24-20.4-0.52-30.54-0.83c-10.08-0.3-20.12-0.64-30.1-1
		c-12.4-0.45-24.71-0.95-36.91-1.5c-12.12-0.54-24.14-1.12-36.03-1.75c-11.81-0.62-23.51-1.29-35.07-1.99
		c-11.48-0.7-22.83-1.44-34.02-2.22c-28.16-1.96-55.42-4.17-81.77-6.62c-25.93-2.41-51-5.04-75.2-7.9
		c-23.84-2.82-46.84-5.85-69.02-9.09c-21.86-3.2-42.93-6.6-63.18-10.2c-11.9-2.12-23.56-4.31-34.96-6.57
		c-11.31-2.25-22.38-4.57-33.18-6.95c-10.72-2.37-21.18-4.8-31.37-7.3c-10.12-2.48-19.98-5.02-29.55-7.62
		c-5.12-1.39-10.19-2.8-15.2-4.24c-4.99-1.43-9.92-2.88-14.78-4.35c-4.84-1.46-9.62-2.95-14.32-4.45c-4.68-1.49-9.29-3-13.82-4.53
		c-4.72-1.59-9.38-3.2-13.97-4.83c-4.58-1.63-9.1-3.28-13.54-4.95c-4.43-1.67-8.79-3.35-13.08-5.06c-4.27-1.7-8.47-3.41-12.58-5.14
		c-4.36-1.83-8.77-3.59-13.2-5.27c-4.42-1.67-8.87-3.27-13.34-4.78c-4.45-1.51-8.93-2.93-13.42-4.28c-4.48-1.34-8.96-2.6-13.46-3.77
		c-4.27-1.11-8.57-2.16-12.9-3.13c-4.32-0.97-8.65-1.87-13.01-2.7c-4.34-0.83-8.7-1.58-13.06-2.27c-4.35-0.68-8.71-1.29-13.07-1.83
		c-4.13-0.51-8.29-0.96-12.46-1.34c-4.16-0.38-8.34-0.71-12.54-0.97c-4.18-0.26-8.37-0.46-12.57-0.59
		c-4.18-0.14-8.37-0.21-12.55-0.22c-3.95-0.01-7.91,0.03-11.9,0.12c-3.97,0.1-7.95,0.24-11.95,0.45c-3.98,0.2-7.97,0.46-11.96,0.76
		c-3.98,0.3-7.95,0.66-11.93,1.07c-5.05,0.52-10.12,1.12-15.21,1.81c-5.07,0.69-10.15,1.46-15.25,2.31
		c-5.07,0.85-10.15,1.78-15.23,2.78c-5.06,1-10.11,2.08-15.16,3.24c-4.57,1.05-9.16,2.16-13.75,3.35
		c-4.58,1.18-9.17,2.42-13.75,3.73c-4.57,1.3-9.14,2.66-13.7,4.09c-4.55,1.42-9.08,2.89-13.6,4.42c-7.58,2.57-15.15,5.3-22.7,8.2
		c-7.5,2.88-14.98,5.92-22.42,9.11c-7.4,3.17-14.76,6.49-22.07,9.95c-7.27,3.44-14.49,7.03-21.66,10.74
		c-6.34,3.29-12.34,6.54-17.97,9.68c-5.6,3.13-10.83,6.16-15.65,9.03c-4.8,2.86-9.2,5.57-13.16,8.06
		c-3.95,2.48-7.46,4.76-10.49,6.77c-3.2,2.11-6.06,4.05-8.55,5.77c-2.49,1.72-4.61,3.22-6.35,4.47c-1.74,1.25-3.09,2.25-4.04,2.95
		c-0.95,0.7-1.49,1.12-1.59,1.2c-0.1,0.09-0.5,0.46-1.19,1.08c-0.7,0.62-1.7,1.51-3,2.63c-1.3,1.12-2.89,2.48-4.78,4.06
		c-1.88,1.58-4.06,3.37-6.53,5.37c-2.35,1.9-5.09,4.08-8.21,6.52c-3.11,2.43-6.6,5.11-10.45,8c-3.84,2.89-8.04,5.99-12.59,9.27
		c-4.53,3.27-9.4,6.72-14.6,10.32c-5.82,4.03-11.74,8.03-17.76,12c-5.99,3.95-12.06,7.87-18.22,11.74
		c-6.12,3.86-12.33,7.67-18.59,11.44c-6.23,3.75-12.53,7.45-18.87,11.1c-7.88,4.53-15.85,8.99-23.88,13.35
		c-7.97,4.33-16.01,8.58-24.1,12.74c-8.03,4.12-16.1,8.15-24.21,12.08c-8.04,3.9-16.12,7.7-24.21,11.4
		c-1.77,0.81-3.55,1.59-5.34,2.35c-1.79,0.76-3.58,1.49-5.38,2.19c-1.79,0.7-3.59,1.38-5.39,2.02c-1.8,0.65-3.59,1.26-5.39,1.85
		c-1.73,0.57-3.47,1.11-5.21,1.63c-1.74,0.52-3.49,1.01-5.24,1.48c-1.75,0.47-3.5,0.91-5.26,1.32c-1.75,0.42-3.5,0.8-5.25,1.17
		c-3.29,0.68-6.6,1.28-9.93,1.79c-3.32,0.51-6.65,0.93-9.99,1.27c-3.33,0.33-6.67,0.58-10.01,0.74c-3.33,0.16-6.66,0.24-9.99,0.23
		c-2.96-0.01-5.94-0.09-8.92-0.23c-2.98-0.14-5.96-0.35-8.95-0.63c-2.98-0.28-5.96-0.62-8.95-1.02c-2.97-0.4-5.95-0.87-8.91-1.41
		c-2.69-0.48-5.38-1.02-8.09-1.61c-2.69-0.59-5.39-1.23-8.09-1.93c-2.69-0.69-5.38-1.44-8.07-2.23c-2.68-0.79-5.35-1.63-8.02-2.52
		c-4.47-1.49-8.94-3.13-13.39-4.89c-4.43-1.76-8.85-3.66-13.25-5.69c-4.38-2.02-8.73-4.17-13.06-6.44
		c-4.31-2.26-8.59-4.65-12.83-7.16c-1.66-0.98-3.32-1.98-4.97-3c-1.65-1.02-3.29-2.05-4.92-3.1c-1.63-1.05-3.25-2.11-4.85-3.19
		c-1.6-1.07-3.19-2.16-4.77-3.26c-1.26-0.88-2.51-1.76-3.75-2.66c-1.24-0.89-2.46-1.79-3.67-2.69c-1.21-0.9-2.41-1.81-3.59-2.72
		c-1.18-0.91-2.35-1.82-3.49-2.73c-1.95-1.55-3.69-2.98-5.2-4.25c-1.51-1.27-2.79-2.37-3.82-3.29c-1.04-0.91-1.83-1.64-2.37-2.13
		c-0.54-0.5-0.82-0.77-0.83-0.78l-0.01-0.01l-0.01-0.01c-0.02-0.02-0.44-0.47-1.24-1.3c-0.81-0.83-2-2.04-3.55-3.56
		c-1.55-1.52-3.47-3.35-5.72-5.44c-2.25-2.08-4.84-4.42-7.75-6.94c-1.7-1.48-3.43-2.95-5.17-4.41c-1.74-1.46-3.51-2.91-5.29-4.34
		c-1.78-1.43-3.57-2.85-5.38-4.26c-1.8-1.4-3.62-2.79-5.45-4.15c-2.28-1.71-4.58-3.38-6.89-5.03c-2.3-1.64-4.62-3.26-6.95-4.84
		c-2.32-1.58-4.65-3.12-6.99-4.63c-2.33-1.51-4.66-2.98-7-4.41c-5.92-3.63-11.84-7.04-17.78-10.2c-5.89-3.15-11.78-6.06-17.67-8.74
		c-5.84-2.66-11.68-5.09-17.5-7.29c-5.78-2.18-11.54-4.14-17.27-5.86c-3.38-1.02-6.77-1.95-10.14-2.81
		c-3.36-0.85-6.72-1.63-10.06-2.32c-3.33-0.69-6.65-1.3-9.95-1.83c-3.29-0.53-6.56-0.98-9.81-1.35c-1.74-0.2-3.48-0.37-5.22-0.53
		c-1.74-0.15-3.47-0.28-5.2-0.39c-1.73-0.11-3.45-0.19-5.17-0.26c-1.71-0.06-3.42-0.11-5.12-0.13c-1.77-0.02-3.54-0.02-5.31,0.01
		c-1.77,0.03-3.53,0.08-5.29,0.15c-1.76,0.08-3.51,0.17-5.25,0.3c-1.74,0.12-3.47,0.27-5.19,0.43c-0.4,0.04-0.79,0.08-1.18,0.12
		c-0.39,0.04-0.78,0.08-1.17,0.13c-0.39,0.04-0.78,0.09-1.17,0.13c-0.39,0.05-0.78,0.09-1.18,0.14c-3.41,0.42-6.81,0.91-10.18,1.47
		c-3.36,0.56-6.7,1.19-10.01,1.89c-3.3,0.69-6.57,1.46-9.81,2.29c-3.22,0.83-6.42,1.72-9.57,2.67c-2.86,0.86-5.7,1.79-8.53,2.76
		c-2.81,0.97-5.61,2-8.38,3.08c-2.76,1.08-5.5,2.21-8.21,3.39c-2.7,1.18-5.38,2.4-8.02,3.68c-4.43,2.14-8.79,4.41-13.08,6.83
		c-4.26,2.4-8.45,4.94-12.56,7.61c-4.09,2.65-8.1,5.44-12.03,8.34c-3.91,2.89-7.73,5.91-11.47,9.04c-1.46,1.23-2.91,2.47-4.35,3.74
		c-1.43,1.26-2.85,2.54-4.25,3.83c-1.4,1.29-2.78,2.59-4.14,3.91c-1.36,1.31-2.7,2.64-4.02,3.98c-1.05,1.07-2.09,2.14-3.12,3.22
		c-1.02,1.08-2.03,2.16-3.02,3.25c-0.99,1.09-1.96,2.17-2.92,3.26c-0.95,1.09-1.89,2.18-2.81,3.27c-1.43,1.7-2.71,3.27-3.82,4.68
		c-1.11,1.41-2.06,2.65-2.85,3.71c-0.79,1.06-1.41,1.92-1.87,2.57c-0.46,0.65-0.75,1.08-0.87,1.27v108.14
		c0.23-0.63,0.54-1.48,0.95-2.55c0.41-1.06,0.9-2.34,1.49-3.79c0.59-1.45,1.27-3.09,2.03-4.87c0.77-1.79,1.63-3.73,2.58-5.81
		c0.73-1.59,1.48-3.18,2.24-4.77c0.76-1.59,1.55-3.17,2.34-4.74c0.8-1.58,1.61-3.14,2.43-4.7c0.83-1.56,1.66-3.11,2.51-4.64
		c1.06-1.92,2.15-3.82,3.25-5.7c1.1-1.88,2.23-3.74,3.36-5.57c1.14-1.83,2.3-3.64,3.47-5.42c1.17-1.78,2.36-3.53,3.56-5.25
		c3.06-4.39,6.21-8.57,9.43-12.55c3.24-3.99,6.56-7.78,9.96-11.34c3.41-3.58,6.91-6.94,10.47-10.08c3.58-3.15,7.24-6.07,10.96-8.76
		c1.08-0.78,2.17-1.54,3.27-2.28c1.1-0.74,2.21-1.47,3.32-2.17c1.11-0.71,2.23-1.39,3.36-2.06c1.13-0.67,2.25-1.31,3.39-1.93
		c1.19-0.65,2.4-1.29,3.61-1.9c1.21-0.61,2.43-1.2,3.66-1.77c1.23-0.57,2.46-1.12,3.7-1.64c1.24-0.52,2.49-1.02,3.74-1.5
		c1.31-0.5,2.63-0.97,3.96-1.42c1.33-0.45,2.68-0.87,4.02-1.27c1.35-0.4,2.71-0.77,4.07-1.12c1.36-0.35,2.73-0.67,4.1-0.96
		c1.44-0.31,2.88-0.58,4.34-0.83c1.46-0.25,2.93-0.47,4.41-0.66c1.48-0.19,2.97-0.36,4.46-0.49
		C82.27,315.16,83.77,315.05,85.28,314.98z"/>
</g>
<path id="Tracé_16" class="st4" d="M2256.67,358.8c0,0-45.42,1.53-118.46,1.61c-70.18,0.08-163.82-1.19-264.57-6.37
	c-95-4.88-195.31-13.18-289.06-27.06c-88.31-13.07-171.16-31.15-240.21-56.37c-65.8-24.03-131.4-29.43-191.62-24.65
	c-57.56,4.57-110.52,18.48-154.88,34.54c-35.34,12.82-69.59,28.46-102.42,46.77c-23.82,13.33-37.52,22.97-37.52,22.97
	s-5.13,4.33-15.48,11.93c-10.26,7.54-25.54,18.23-45.8,31c-19.9,12.54-44.42,26.97-73.39,42.2c-28.22,14.84-60.42,30.31-96.33,45.4
	c-31.18,13.19-65.03,18.85-98.8,16.53c-29.59-1.96-56.42-9.57-78.83-18.66c-18.2-7.41-35.64-16.57-52.08-27.35
	c-6.59-4.25-12.94-8.86-19.02-13.81c-5.99-5.52-12.26-10.73-18.77-15.63c-15.89-12.12-32.74-22.93-50.38-32.32
	c-22.69-12.23-46.82-21.59-71.81-27.88c-25.96-6.35-54.07-9.12-83.29-5.58c-25.11,2.95-49.63,9.63-72.77,19.81
	C63.7,383.62,47.2,393.37,32,404.94c-10.26,7.78-19.84,16.42-28.65,25.82c-3.37,3.55-6.54,7.27-9.49,11.17v98.13
	c4.26-10.55,9.37-20.73,15.26-30.46c10.42-17.46,26.43-39.26,48.59-55.92c22.83-17.16,52.57-29.16,90.23-25.39
	c39.51,3.96,88.53,25.38,148.88,77.6C361.62,561.96,422.6,596.87,478.35,617c59.17,21.37,111.49,25.76,155.47,21.58
	c45.91-4.37,81.82-17.99,106.49-30.78c25.23-13.08,38.14-24.99,38.14-24.99s11.91-17.74,33.59-41.75
	c22.09-24.48,54.72-55.92,96-82.4c42.77-27.44,95.48-49.95,156.18-53.89c63.78-4.14,137.14,12.17,217.75,65.49
	c85.66,56.65,180.71,99.72,278.12,132.8c104.15,35.37,210.89,59.29,309.8,75.55c89.41,14.59,179.52,24.51,269.96,29.73
	c72.92,4.21,116.81,3.59,116.81,3.59L2256.67,358.8z"/>
<path id="Tracé_17" class="st5" d="M2239.67,424.8c0,0-45.42,1.53-118.46,1.61c-70.18,0.08-163.82-1.19-264.57-6.37
	c-95-4.88-195.31-13.18-289.06-27.06c-88.31-13.07-171.16-31.15-240.21-56.37c-65.8-24.03-131.4-29.43-191.62-24.65
	c-57.56,4.57-110.52,18.48-154.88,34.54c-35.34,12.82-69.59,28.46-102.41,46.77c-23.82,13.33-37.52,22.97-37.52,22.97
	s-5.13,4.33-15.49,11.93c-10.26,7.54-25.54,18.23-45.8,31c-19.9,12.54-44.42,26.97-73.39,42.2c-28.22,14.84-60.42,30.31-96.33,45.4
	c-31.18,13.19-65.03,18.85-98.8,16.53c-29.59-1.96-56.42-9.57-78.83-18.66c-18.2-7.41-35.64-16.57-52.08-27.35
	c-6.59-4.25-12.94-8.86-19.02-13.81c-5.99-5.52-12.26-10.73-18.77-15.63c-15.89-12.12-32.74-22.93-50.38-32.32
	c-22.69-12.23-46.82-21.59-71.81-27.88c-25.96-6.35-54.07-9.12-83.29-5.58c-25.11,2.95-49.63,9.63-72.77,19.81
	C46.7,449.62,30.2,459.37,15,470.94c-10.26,7.78-19.84,16.42-28.64,25.82c-3.37,3.55-6.54,7.27-9.5,11.17v98.13
	c4.26-10.54,9.37-20.73,15.26-30.46c10.42-17.46,26.43-39.26,48.59-55.92c22.83-17.16,52.57-29.16,90.23-25.38
	c39.51,3.96,88.53,25.38,148.88,77.6C344.62,627.96,405.6,662.87,461.35,683c59.17,21.37,111.49,25.76,155.47,21.58
	c45.91-4.37,81.82-17.99,106.49-30.78c25.23-13.08,38.14-24.99,38.14-24.99s11.91-17.74,33.59-41.75
	c22.09-24.48,54.72-55.92,96-82.4c42.77-27.44,95.48-49.95,156.18-53.89c63.78-4.14,137.14,12.17,217.75,65.49
	c85.66,56.65,180.71,99.72,278.12,132.8c104.15,35.37,210.89,59.29,309.8,75.55c89.41,14.59,179.52,24.51,269.96,29.73
	c72.92,4.21,116.81,3.59,116.81,3.59L2239.67,424.8z"/>
<path id="Tracé_18" class="st6" d="M2214.67,475.8c0,0-45.42,1.53-118.46,1.61c-70.18,0.08-163.82-1.19-264.57-6.37
	c-95-4.88-195.31-13.18-289.06-27.06c-88.31-13.07-171.16-31.15-240.21-56.37c-65.8-24.03-131.4-29.43-191.62-24.65
	c-57.56,4.57-110.52,18.48-154.88,34.54c-35.34,12.82-69.59,28.46-102.41,46.77c-23.82,13.33-37.52,22.97-37.52,22.97
	s-5.13,4.33-15.49,11.93c-10.26,7.54-25.54,18.23-45.8,31c-19.9,12.54-44.42,26.97-73.39,42.2c-28.22,14.84-60.42,30.31-96.33,45.4
	c-31.18,13.19-65.03,18.85-98.8,16.53c-29.59-1.96-56.42-9.57-78.83-18.66c-18.2-7.41-35.64-16.57-52.08-27.35
	c-6.59-4.25-12.94-8.86-19.02-13.81c-5.99-5.52-12.26-10.73-18.77-15.63c-15.89-12.12-32.74-22.93-50.38-32.32
	c-22.69-12.23-46.82-21.59-71.81-27.88c-25.96-6.35-54.07-9.12-83.29-5.58c-25.11,2.95-49.63,9.63-72.77,19.81
	C21.7,500.62,5.2,510.37-10,521.94c-10.26,7.78-19.84,16.42-28.64,25.82c-3.37,3.55-6.54,7.27-9.5,11.17v98.13
	c4.26-10.55,9.37-20.73,15.26-30.46c10.42-17.46,26.43-39.26,48.59-55.92c22.83-17.16,52.57-29.16,90.23-25.39
	c39.52,3.96,88.53,25.38,148.88,77.6C319.62,678.96,380.6,713.87,436.35,734c59.17,21.37,111.49,25.76,155.47,21.58
	c45.91-4.37,81.82-17.99,106.49-30.78c25.23-13.08,38.14-24.99,38.14-24.99s11.91-17.74,33.59-41.75
	c22.09-24.48,54.72-55.92,96-82.4c42.77-27.44,95.48-49.95,156.18-53.89c63.78-4.14,137.14,12.17,217.75,65.49
	c85.66,56.65,180.71,99.72,278.12,132.8c104.15,35.37,210.89,59.29,309.8,75.55c89.41,14.59,179.52,24.51,269.96,29.73
	c72.92,4.21,116.81,3.59,116.81,3.59L2214.67,475.8z"/>
</svg>
