<?xml version="1.0" encoding="utf-8"?>
<!-- Generator: Adobe Illustrator 25.2.1, SVG Export Plug-In . SVG Version: 6.00 Build 0)  -->
<svg version="1.1" id="Calque_1" xmlns="http://www.w3.org/2000/svg" xmlns:xlink="http://www.w3.org/1999/xlink" x="0px" y="0px"
	 viewBox="0 0 1194 834" style="enable-background:new 0 0 1194 834;" xml:space="preserve">
<style type="text/css">
	.st0{fill:#FF6B6B;}
	.st1{fill:#FFFFFF;}
	.st2{fill:#FFD2D2;}
	.st3{fill:#FF8787;}
</style>
<g id="Groupe_67" transform="translate(0 580.356)">
	<g id="Tracé_6" transform="translate(604.639 151.433)">
		<path class="st0" d="M-156.97,63.87c0,0,17.17,3.33,44.4,7.29c27.2,3.95,64.42,8.53,104.58,11.04c40.09,2.5,83.1,2.95,122.02-1.35
			c38.86-4.28,73.65-13.29,97.45-29.69C235.25,34.79,271.64,23,313.07,15.44c41.36-7.55,87.72-10.88,131.58-10.36
			c43.78,0.51,85.09,4.86,116.5,12.67c31.37,7.8,52.9,19.05,57.2,33.42s9.22,33.57,14.17,54.29s9.94,42.95,14.39,63.38
			s8.36,39.06,11.16,52.59s4.49,21.94,4.49,21.94L-156.97,63.87z"/>
		<path class="st1" d="M663.19,244.01l-0.73-0.16L-157.08,64.36l0.2-0.98c0.07,0.01,1.76,0.34,4.88,0.9
			c3.11,0.56,7.64,1.36,13.36,2.31c5.72,0.95,12.64,2.06,20.53,3.24c7.89,1.18,16.76,2.44,26.39,3.69
			c5.65,0.73,11.29,1.43,16.89,2.09c5.6,0.66,11.18,1.28,16.71,1.86c5.54,0.58,11.03,1.12,16.48,1.62
			c5.45,0.5,10.85,0.96,16.19,1.38c6.68,0.52,13.27,0.98,19.76,1.37c6.49,0.39,12.89,0.72,19.18,0.98
			c6.29,0.26,12.47,0.45,18.53,0.58c6.06,0.13,12,0.19,17.82,0.19c18.92-0.01,36.5-0.72,52.72-2.1c16.21-1.38,31.06-3.45,44.53-6.2
			c13.46-2.74,25.55-6.16,36.24-10.25c10.69-4.09,19.98-8.85,27.86-14.28c2.79-1.92,5.79-3.8,8.98-5.63
			c3.19-1.83,6.57-3.61,10.14-5.34c3.57-1.73,7.33-3.4,11.26-5.02c3.94-1.62,8.06-3.19,12.35-4.69c4.03-1.41,8.21-2.78,12.55-4.09
			c4.33-1.31,8.81-2.57,13.43-3.77c4.62-1.2,9.37-2.35,14.26-3.45c4.88-1.09,9.9-2.13,15.04-3.1c4.87-0.93,9.84-1.8,14.9-2.61
			c5.06-0.82,10.21-1.58,15.44-2.28c5.23-0.7,10.54-1.35,15.92-1.94c5.38-0.59,10.84-1.12,16.35-1.59
			c5.31-0.45,10.67-0.85,16.04-1.19c5.37-0.34,10.77-0.62,16.18-0.85c5.41-0.23,10.84-0.39,16.27-0.5
			c5.43-0.11,10.87-0.16,16.3-0.16c5.7,0.01,11.36,0.08,16.96,0.21c5.6,0.13,11.14,0.33,16.62,0.59c5.48,0.26,10.89,0.58,16.22,0.96
			c5.33,0.38,10.59,0.83,15.77,1.34c5.25,0.51,10.37,1.09,15.35,1.72c4.98,0.63,9.82,1.32,14.51,2.07
			c4.69,0.75,9.24,1.55,13.63,2.41c4.39,0.86,8.63,1.77,12.71,2.74c4.25,1.01,8.29,2.07,12.13,3.18c3.84,1.11,7.46,2.27,10.88,3.48
			c3.41,1.21,6.61,2.47,9.59,3.78c2.98,1.31,5.74,2.66,8.27,4.05c2.7,1.49,5.14,3.03,7.32,4.61c2.17,1.58,4.08,3.21,5.71,4.88
			c1.64,1.67,3,3.38,4.1,5.13c1.09,1.75,1.91,3.54,2.46,5.36c0.98,3.28,2.02,6.88,3.1,10.8c1.08,3.92,2.22,8.15,3.4,12.68
			c1.18,4.54,2.42,9.38,3.7,14.52c1.28,5.14,2.6,10.58,3.97,16.31c1.1,4.58,2.22,9.35,3.37,14.3c1.15,4.95,2.33,10.07,3.53,15.37
			c1.2,5.29,2.43,10.76,3.68,16.38c1.25,5.62,2.52,11.41,3.81,17.34c2.2,10.1,4.27,19.79,6.15,28.64
			c1.87,8.86,3.55,16.88,4.95,23.65c1.4,6.77,2.53,12.29,3.31,16.14c0.78,3.85,1.22,6.02,1.24,6.11L663.19,244.01z M-134.34,68.32
			l796.29,174.41c-0.26-1.29-0.85-4.23-1.72-8.49c-0.87-4.26-2.02-9.85-3.39-16.43c-1.37-6.58-2.95-14.16-4.7-22.41
			c-1.75-8.25-3.66-17.18-5.68-26.45c-1.29-5.93-2.56-11.71-3.81-17.33c-1.25-5.62-2.48-11.08-3.68-16.38
			c-1.2-5.29-2.38-10.42-3.53-15.37c-1.15-4.95-2.27-9.72-3.37-14.3c-1.37-5.73-2.69-11.16-3.97-16.3
			c-1.28-5.14-2.51-9.98-3.69-14.51c-1.18-4.53-2.32-8.76-3.4-12.67c-1.08-3.91-2.12-7.51-3.1-10.78c-0.53-1.76-1.32-3.49-2.39-5.18
			c-1.07-1.69-2.4-3.35-3.99-4.97c-1.6-1.62-3.46-3.2-5.58-4.74c-2.12-1.54-4.51-3.04-7.16-4.5c-2.52-1.39-5.26-2.73-8.22-4.02
			c-2.96-1.3-6.14-2.55-9.53-3.75c-3.39-1.2-7-2.36-10.81-3.46c-3.81-1.1-7.84-2.16-12.06-3.16c-8.09-1.92-16.86-3.63-26.17-5.11
			c-9.32-1.48-19.18-2.74-29.47-3.75c-10.3-1.02-21.01-1.79-32.04-2.32c-11.03-0.53-22.36-0.8-33.87-0.81
			c-5.43-0.01-10.85,0.05-16.28,0.16c-5.43,0.11-10.84,0.28-16.25,0.5c-5.4,0.23-10.8,0.51-16.16,0.85
			c-5.37,0.34-10.71,0.74-16.02,1.19c-5.51,0.47-10.95,1-16.33,1.59c-5.38,0.59-10.68,1.23-15.9,1.94
			c-5.22,0.7-10.36,1.46-15.41,2.28c-5.05,0.81-10.01,1.68-14.87,2.61c-5.13,0.97-10.13,2.01-15,3.1
			c-4.87,1.09-9.62,2.24-14.22,3.44c-4.61,1.2-9.07,2.46-13.39,3.76c-4.32,1.31-8.49,2.67-12.51,4.08
			c-4.28,1.5-8.37,3.06-12.29,4.67c-3.92,1.61-7.66,3.28-11.21,5c-3.55,1.72-6.91,3.49-10.08,5.31c-3.17,1.82-6.14,3.69-8.92,5.6
			c-1.12,0.77-2.27,1.53-3.45,2.28c-1.18,0.75-2.39,1.48-3.64,2.21c-1.24,0.72-2.51,1.43-3.81,2.12c-1.3,0.69-2.62,1.37-3.96,2.04
			c-1.3,0.64-2.63,1.27-4,1.89c-1.36,0.62-2.75,1.23-4.17,1.82c-1.42,0.6-2.86,1.18-4.33,1.75c-1.47,0.57-2.96,1.12-4.47,1.66
			c-2.87,1.02-5.84,2.01-8.92,2.94c-3.07,0.94-6.25,1.83-9.52,2.68c-3.27,0.85-6.63,1.65-10.08,2.41
			c-3.45,0.76-6.99,1.46-10.61,2.12c-3.35,0.61-6.78,1.18-10.31,1.71c-3.52,0.53-7.13,1.03-10.82,1.48
			c-3.69,0.46-7.45,0.87-11.29,1.25c-3.84,0.38-7.75,0.71-11.72,1c-3.63,0.27-7.34,0.51-11.12,0.71c-3.78,0.2-7.63,0.37-11.54,0.51
			c-3.91,0.14-7.88,0.24-11.91,0.31c-4.03,0.07-8.11,0.11-12.25,0.11c-5.82,0-11.77-0.06-17.84-0.19
			c-6.07-0.13-12.26-0.32-18.55-0.58c-6.3-0.26-12.7-0.59-19.2-0.98c-6.5-0.39-13.1-0.85-19.78-1.37
			c-5.35-0.42-10.75-0.88-16.2-1.38c-5.45-0.5-10.95-1.04-16.49-1.62c-5.54-0.58-11.12-1.2-16.73-1.86
			c-5.61-0.66-11.25-1.36-16.9-2.09c-4.22-0.55-8.3-1.1-12.21-1.64c-3.91-0.54-7.66-1.08-11.23-1.61
			c-3.57-0.53-6.95-1.04-10.13-1.53C-128.6,69.24-131.58,68.77-134.34,68.32z"/>
	</g>
	<g id="Tracé_5">
		<path class="st2" d="M-101.46,8.77c0,0,23.92,2.9,62.02,9.14c38.04,6.23,90.16,15.78,146.65,29.08
			c56.35,13.27,117.04,30.27,172.47,51.45c55.3,21.13,105.41,46.42,140.87,76.34c35.4,29.88,99.52,47,175.6,55.88
			c75.82,8.85,163.44,9.48,246.37,6.42c82.63-3.05,160.65-9.77,217.91-15.72c57.11-5.93,93.68-11.1,93.68-11.1L-60.63,284.98
			l-95.71-280.5L-101.46,8.77z"/>
		<path class="st1" d="M-60.99,285.51l-0.12-0.37l-95.71-280.5l-0.25-0.73l0.77,0.06l54.88,4.29l0.01,0l0.01,0
			c0.06,0.01,1.61,0.2,4.5,0.57c2.89,0.38,7.11,0.94,12.49,1.7c5.39,0.76,11.94,1.7,19.51,2.85c7.56,1.14,16.13,2.48,25.54,4.03
			c5.53,0.9,11.07,1.83,16.62,2.79c5.55,0.95,11.1,1.92,16.65,2.92c5.55,0.99,11.1,2.01,16.63,3.04c5.53,1.03,11.05,2.08,16.55,3.15
			c6.87,1.34,13.71,2.7,20.51,4.09c6.8,1.39,13.55,2.8,20.25,4.24c6.7,1.44,13.35,2.89,19.93,4.37c6.58,1.48,13.09,2.98,19.53,4.49
			c16.38,3.86,32.29,7.83,47.72,11.92c15.41,4.09,30.34,8.28,44.75,12.58c14.4,4.3,28.3,8.7,41.65,13.2
			c13.35,4.5,26.16,9.09,38.42,13.77c3.54,1.35,7.05,2.72,10.51,4.09c3.46,1.37,6.89,2.76,10.26,4.15c3.38,1.39,6.7,2.79,9.98,4.19
			c3.27,1.4,6.5,2.81,9.66,4.22c3.33,1.48,6.62,2.98,9.85,4.49c3.24,1.51,6.43,3.03,9.57,4.55c3.14,1.52,6.22,3.06,9.24,4.6
			c3.02,1.54,5.99,3.08,8.89,4.62c3.04,1.62,6.04,3.25,8.98,4.9c2.94,1.64,5.82,3.3,8.65,4.96c2.83,1.66,5.59,3.33,8.29,5.01
			c2.7,1.68,5.34,3.36,7.91,5.04c2.69,1.76,5.31,3.53,7.88,5.32c2.57,1.78,5.07,3.58,7.51,5.39c2.44,1.8,4.82,3.62,7.12,5.43
			c2.31,1.82,4.54,3.64,6.7,5.47c1.56,1.32,3.19,2.62,4.89,3.91c1.7,1.29,3.46,2.55,5.29,3.8c1.83,1.25,3.71,2.47,5.66,3.68
			c1.95,1.2,3.95,2.39,6.01,3.54c2,1.12,4.06,2.23,6.19,3.32c2.13,1.09,4.32,2.16,6.56,3.22c2.25,1.05,4.55,2.09,6.91,3.1
			c2.36,1.01,4.77,2.01,7.24,2.97c2.38,0.94,4.83,1.86,7.34,2.77c2.51,0.91,5.07,1.8,7.69,2.67c2.62,0.87,5.29,1.73,8.01,2.56
			c2.72,0.83,5.49,1.65,8.31,2.44c2.72,0.77,5.5,1.52,8.34,2.25c2.83,0.74,5.72,1.46,8.66,2.16c2.94,0.7,5.93,1.39,8.96,2.06
			c3.03,0.67,6.11,1.32,9.23,1.95c5.9,1.19,11.99,2.33,18.27,3.4c6.28,1.08,12.74,2.09,19.38,3.05c6.64,0.95,13.45,1.85,20.42,2.68
			c6.97,0.83,14.11,1.6,21.39,2.3c6.7,0.65,13.57,1.24,20.6,1.79c7.02,0.54,14.2,1.04,21.51,1.48c7.31,0.44,14.77,0.83,22.35,1.16
			c7.58,0.33,15.28,0.62,23.11,0.85l450.89-27.73l0.1,0.98c-0.12,0.02-3.36,0.47-9.28,1.25c-5.92,0.78-14.54,1.89-25.44,3.22
			c-10.9,1.33-24.08,2.87-39.13,4.52c-15.06,1.65-31.99,3.41-50.38,5.16c-10.81,1.03-21.58,2.01-32.3,2.94
			c-10.73,0.93-21.4,1.8-32.01,2.62c-10.61,0.82-21.15,1.58-31.6,2.29c-10.46,0.71-20.82,1.36-31.08,1.96
			c-12.83,0.74-25.49,1.4-37.98,1.96c-12.49,0.56-24.8,1.03-36.9,1.41c-12.11,0.38-24.02,0.67-35.7,0.86
			c-11.69,0.2-23.15,0.3-34.36,0.31c0,0,0,0-0.01,0c0,0-0.01,0-0.01,0c0,0-0.01,0-0.01,0c0,0,0,0-0.01,0
			c-4.71,0-9.4-0.01-14.05-0.04c-4.65-0.03-9.27-0.08-13.85-0.14c-4.58-0.06-9.11-0.14-13.6-0.24c-4.49-0.1-8.92-0.21-13.29-0.33
			L-60.6,285.49L-60.99,285.51z M-155.61,5.05l95.33,279.4l752.87-46.3c-6.85-0.25-13.6-0.53-20.24-0.86
			c-6.65-0.33-13.19-0.7-19.63-1.11c-6.43-0.41-12.76-0.86-18.96-1.36c-6.2-0.49-12.28-1.03-18.23-1.6
			c-7.29-0.7-14.43-1.47-21.41-2.3c-6.98-0.83-13.8-1.72-20.45-2.68c-6.65-0.96-13.12-1.97-19.41-3.05
			c-6.29-1.08-12.39-2.21-18.3-3.41c-3.12-0.63-6.21-1.28-9.25-1.95c-3.04-0.67-6.03-1.36-8.98-2.06c-2.95-0.7-5.84-1.43-8.68-2.16
			c-2.84-0.74-5.63-1.49-8.35-2.26c-2.82-0.8-5.6-1.61-8.33-2.45c-2.73-0.84-5.41-1.69-8.04-2.57c-2.63-0.87-5.2-1.77-7.71-2.68
			c-2.51-0.91-4.97-1.84-7.36-2.78c-2.47-0.97-4.9-1.97-7.27-2.99c-2.37-1.02-4.69-2.06-6.94-3.12c-2.26-1.06-4.46-2.14-6.59-3.23
			c-2.14-1.1-4.21-2.21-6.22-3.34c-2.08-1.17-4.09-2.36-6.05-3.57c-1.96-1.21-3.86-2.45-5.7-3.7c-1.84-1.26-3.61-2.53-5.32-3.83
			c-1.71-1.3-3.35-2.61-4.93-3.94c-8.07-6.81-17.08-13.52-27.01-20.12c-9.93-6.6-20.78-13.09-32.52-19.46
			c-11.75-6.37-24.4-12.62-37.94-18.73c-13.54-6.12-27.97-12.1-43.26-17.94c-12.24-4.68-25.05-9.27-38.39-13.76
			c-13.35-4.49-27.23-8.89-41.62-13.19c-14.4-4.3-29.32-8.49-44.72-12.57c-15.41-4.08-31.32-8.06-47.68-11.91
			c-6.43-1.52-12.95-3.01-19.52-4.49c-6.58-1.48-13.22-2.94-19.92-4.37c-6.7-1.44-13.45-2.85-20.25-4.24
			c-6.8-1.39-13.63-2.75-20.5-4.09c-5.5-1.07-11.01-2.12-16.54-3.15C4.83,26.12-0.71,25.1-6.26,24.11
			c-5.55-0.99-11.1-1.97-16.65-2.92c-5.55-0.95-11.09-1.88-16.61-2.78c-9.32-1.53-17.81-2.85-25.32-3.99
			c-7.51-1.14-14.03-2.08-19.4-2.83c-5.38-0.76-9.61-1.32-12.54-1.7c-2.93-0.38-4.56-0.58-4.73-0.6L-155.61,5.05z M714.63,237.79
			c3.51,0.08,7.05,0.15,10.62,0.2c3.57,0.06,7.16,0.11,10.78,0.14c3.62,0.04,7.26,0.07,10.92,0.08c3.66,0.02,7.34,0.02,11.04,0.02
			c0,0,0,0,0.01,0c0,0,0.01,0,0.01,0c0,0,0.01,0,0.01,0c0,0,0,0,0.01,0c11.21-0.01,22.66-0.11,34.34-0.31
			c11.68-0.19,23.58-0.48,35.68-0.86c12.1-0.38,24.4-0.85,36.89-1.41c12.48-0.56,25.14-1.21,37.96-1.96
			c10.26-0.59,20.62-1.25,31.07-1.95c10.45-0.71,20.98-1.47,31.59-2.29c10.6-0.82,21.27-1.69,32-2.62
			c10.72-0.93,21.49-1.9,32.29-2.93c12.76-1.22,24.82-2.44,36.03-3.62c11.21-1.18,21.58-2.33,30.98-3.41
			c9.39-1.08,17.81-2.08,25.11-2.97c7.3-0.89,13.48-1.68,18.42-2.32L714.63,237.79z"/>
	</g>
	<g id="Tracé_4" transform="translate(49.541 18.255)">
		<path class="st3" d="M-156.56,4.44c0,0,18.59,0.71,49.27,3.84c30.64,3.13,73.33,8.66,121.57,18.28
			c48.14,9.6,101.8,23.28,154.57,42.71c52.65,19.39,104.42,44.5,148.98,77.03c44.48,32.47,95.92,51.21,147.98,61.07
			c51.95,9.84,104.52,10.83,151.48,7.79c39.58-2.64,78.92-8.11,117.72-16.36c29.52-6.27,47.36-11.79,47.36-11.79
			s17.65-4.25,45.66-9.37c27.97-5.11,66.25-11.07,107.57-14.5c41.23-3.43,85.48-4.35,125.53,0.61
			c39.98,4.95,75.81,15.74,100.34,35.74c24.5,19.98,37.77,36.04,43.89,48.91c6.12,12.87,5.1,22.54,1.02,29.72
			s-11.22,11.89-17.34,14.79c-3.59,1.72-7.36,3.06-11.23,4l-1334.37,23.91V4.44z"/>
		<path class="st1" d="M-157.08,321.34v-0.51V4.44V3.92l0.53,0.02c0.05,0,1.25,0.05,3.52,0.17c2.26,0.12,5.57,0.31,9.83,0.6
			c4.26,0.29,9.45,0.67,15.48,1.18c6.03,0.51,12.89,1.13,20.47,1.91c4.45,0.45,8.93,0.94,13.43,1.44c4.5,0.51,9.02,1.04,13.55,1.6
			c4.53,0.56,9.07,1.15,13.62,1.76c4.54,0.61,9.09,1.25,13.64,1.9c5.68,0.82,11.36,1.68,17.02,2.58c5.66,0.9,11.31,1.83,16.94,2.8
			c5.63,0.97,11.23,1.97,16.81,3c5.57,1.03,11.11,2.1,16.61,3.2c13.99,2.79,27.74,5.79,41.22,8.97c13.47,3.19,26.68,6.57,39.6,10.14
			c12.91,3.57,25.54,7.33,37.85,11.27c12.31,3.94,24.31,8.06,35.97,12.35c6.93,2.55,13.75,5.17,20.47,7.86
			c6.72,2.68,13.32,5.43,19.8,8.24c6.48,2.81,12.84,5.68,19.07,8.6c6.23,2.92,12.32,5.9,18.27,8.93c3.2,1.63,6.37,3.28,9.51,4.95
			c3.14,1.67,6.25,3.36,9.33,5.07c3.07,1.71,6.11,3.43,9.11,5.16c3,1.74,5.95,3.49,8.86,5.25c3.04,1.84,6.05,3.71,9.02,5.59
			c2.97,1.89,5.91,3.79,8.81,5.72c2.9,1.92,5.75,3.87,8.57,5.82c2.81,1.96,5.58,3.93,8.29,5.91c2.29,1.67,4.62,3.32,6.98,4.94
			c2.36,1.62,4.75,3.21,7.17,4.78c2.42,1.56,4.87,3.1,7.34,4.6c2.47,1.5,4.97,2.97,7.48,4.41c2.42,1.38,4.88,2.74,7.37,4.08
			c2.49,1.33,5.01,2.64,7.55,3.92c2.54,1.28,5.11,2.53,7.7,3.76c2.59,1.22,5.2,2.42,7.83,3.58c2.53,1.12,5.09,2.21,7.68,3.28
			c2.59,1.07,5.2,2.12,7.84,3.14c2.64,1.02,5.3,2.02,7.98,2.98c2.68,0.97,5.38,1.91,8.09,2.82c2.6,0.87,5.23,1.73,7.89,2.56
			c2.66,0.83,5.34,1.64,8.04,2.42c2.7,0.78,5.43,1.54,8.17,2.28c2.74,0.73,5.5,1.44,8.26,2.13c9.86,2.43,20,4.57,30.39,6.4
			c10.39,1.83,21.02,3.35,31.9,4.57c10.87,1.22,21.97,2.13,33.28,2.74c11.31,0.61,22.83,0.91,34.55,0.9
			c6.57,0,13.22-0.11,19.92-0.31c6.7-0.2,13.47-0.49,20.28-0.88c6.81-0.39,13.67-0.88,20.56-1.46c6.89-0.58,13.82-1.26,20.78-2.03
			c5.56-0.62,11.14-1.29,16.73-2.03c5.59-0.74,11.19-1.53,16.78-2.38c5.59-0.85,11.19-1.76,16.77-2.72
			c5.58-0.96,11.15-1.98,16.7-3.06c4.94-0.96,9.63-1.91,14.05-2.85c4.41-0.93,8.55-1.85,12.38-2.72c3.83-0.87,7.34-1.71,10.51-2.48
			c3.17-0.77,6-1.48,8.45-2.12c2.65-0.68,5.02-1.31,7.08-1.87c2.06-0.56,3.81-1.05,5.23-1.45c1.42-0.4,2.51-0.72,3.25-0.94
			c0.74-0.22,1.13-0.34,1.14-0.34l0.02,0l0.02,0c0.07-0.02,1.88-0.45,5.18-1.19c3.31-0.74,8.12-1.8,14.19-3.05
			c6.07-1.26,13.41-2.72,21.77-4.28c8.36-1.56,17.75-3.22,27.94-4.87c5.98-0.97,11.93-1.89,17.86-2.76
			c5.92-0.87,11.81-1.69,17.65-2.46c5.84-0.77,11.64-1.48,17.38-2.14c5.74-0.66,11.43-1.27,17.06-1.82
			c7.03-0.69,13.96-1.3,20.79-1.81c6.83-0.52,13.55-0.95,20.15-1.3c6.6-0.35,13.08-0.6,19.43-0.78c6.35-0.17,12.57-0.26,18.65-0.25
			c4.13,0,8.2,0.05,12.23,0.13c4.02,0.08,7.99,0.21,11.89,0.37c3.9,0.16,7.75,0.37,11.52,0.61c3.77,0.24,7.48,0.53,11.1,0.85
			c3.95,0.35,7.84,0.75,11.66,1.2c3.82,0.45,7.57,0.94,11.24,1.49c3.67,0.54,7.26,1.13,10.77,1.77c3.51,0.64,6.93,1.32,10.27,2.05
			c3.6,0.79,7.12,1.63,10.56,2.53c3.43,0.9,6.78,1.86,10.04,2.87c3.25,1.01,6.42,2.07,9.48,3.19c3.06,1.12,6.03,2.29,8.89,3.51
			c1.51,0.64,2.99,1.3,4.46,1.98c1.46,0.68,2.9,1.37,4.32,2.08c1.42,0.71,2.8,1.43,4.16,2.17c1.36,0.74,2.69,1.49,3.99,2.25
			c1.35,0.79,2.67,1.59,3.96,2.42c1.3,0.82,2.57,1.67,3.81,2.52c1.24,0.86,2.46,1.73,3.64,2.62c1.19,0.89,2.34,1.79,3.46,2.7
			c2.53,2.06,4.97,4.11,7.31,6.13c2.34,2.02,4.59,4.03,6.74,6c2.15,1.98,4.2,3.93,6.15,5.86c1.95,1.93,3.79,3.82,5.53,5.69
			c1.61,1.72,3.13,3.43,4.57,5.12c1.44,1.69,2.8,3.36,4.07,5.01c1.27,1.65,2.46,3.27,3.56,4.87c1.1,1.6,2.11,3.18,3.03,4.72
			c0.84,1.42,1.62,2.82,2.32,4.2c0.7,1.39,1.34,2.75,1.89,4.1c0.56,1.35,1.05,2.68,1.46,3.98c0.41,1.31,0.75,2.59,1.02,3.85
			c0.24,1.14,0.42,2.27,0.54,3.38c0.12,1.11,0.18,2.21,0.19,3.28c0,1.08-0.05,2.14-0.17,3.18c-0.12,1.04-0.29,2.06-0.53,3.06
			c-0.27,1.15-0.62,2.27-1.04,3.37c-0.43,1.1-0.93,2.17-1.51,3.22s-1.24,2.07-1.97,3.06c-0.73,0.99-1.54,1.95-2.42,2.89
			c-0.7,0.74-1.45,1.47-2.25,2.17c-0.8,0.7-1.64,1.39-2.53,2.05c-0.89,0.66-1.82,1.3-2.8,1.92c-0.97,0.62-1.99,1.22-3.05,1.79
			c-1.8,0.97-3.57,1.8-5.21,2.48c-1.64,0.69-3.16,1.24-4.46,1.67c-1.3,0.43-2.37,0.74-3.12,0.94c-0.75,0.2-1.19,0.3-1.2,0.3
			l-0.05,0.01l-0.05,0l-1334.37,23.92L-157.08,321.34z M-156.05,4.97v315.34l1333.8-23.88c0.15-0.03,0.66-0.15,1.44-0.37
			c0.78-0.22,1.85-0.53,3.1-0.96c1.25-0.42,2.7-0.96,4.26-1.62c1.56-0.66,3.23-1.44,4.92-2.36c1.03-0.56,2.03-1.14,2.98-1.75
			c0.95-0.6,1.86-1.23,2.73-1.88c0.87-0.65,1.69-1.31,2.47-2c0.78-0.69,1.51-1.39,2.19-2.11c0.85-0.9,1.63-1.83,2.34-2.78
			c0.71-0.96,1.34-1.94,1.9-2.95c0.56-1.01,1.05-2.04,1.45-3.1c0.41-1.06,0.74-2.14,1-3.24c0.48-2.05,0.7-4.18,0.66-6.39
			c-0.04-2.21-0.33-4.5-0.89-6.86c-0.55-2.36-1.36-4.8-2.43-7.31c-1.07-2.51-2.39-5.09-3.97-7.74c-0.91-1.53-1.92-3.09-3.01-4.68
			c-1.09-1.59-2.27-3.2-3.53-4.83c-1.26-1.63-2.61-3.29-4.04-4.96c-1.43-1.68-2.94-3.37-4.54-5.08c-1.73-1.86-3.57-3.75-5.51-5.66
			c-1.94-1.92-3.98-3.86-6.12-5.83c-2.14-1.97-4.38-3.97-6.72-5.98c-2.34-2.02-4.76-4.05-7.29-6.11
			c-7.93-6.47-17.26-12.14-27.95-17.01c-10.7-4.87-22.77-8.94-36.19-12.21c-13.43-3.27-28.21-5.73-44.33-7.37
			c-16.13-1.65-33.59-2.48-52.37-2.49c-6.07,0-12.29,0.08-18.63,0.25c-6.34,0.17-12.82,0.43-19.41,0.78
			c-6.59,0.35-13.31,0.78-20.12,1.29c-6.82,0.52-13.75,1.12-20.77,1.81c-5.62,0.55-11.3,1.16-17.04,1.82
			c-5.74,0.66-11.53,1.37-17.37,2.14c-5.84,0.77-11.72,1.58-17.63,2.45c-5.92,0.87-11.87,1.79-17.84,2.76
			c-10.08,1.64-19.39,3.28-27.69,4.83c-8.3,1.55-15.59,3-21.65,4.25c-6.06,1.25-10.88,2.31-14.23,3.06
			c-3.36,0.75-5.24,1.2-5.43,1.25c-0.09,0.03-0.53,0.16-1.3,0.39c-0.77,0.23-1.88,0.55-3.3,0.96c-1.42,0.4-3.15,0.89-5.18,1.44
			c-2.03,0.55-4.34,1.17-6.94,1.83c-2.45,0.63-5.28,1.35-8.46,2.12c-3.17,0.77-6.69,1.61-10.52,2.48
			c-3.83,0.87-7.97,1.79-12.39,2.73c-4.42,0.94-9.12,1.89-14.06,2.85c-5.56,1.08-11.14,2.1-16.72,3.06
			c-5.59,0.97-11.19,1.88-16.79,2.73c-5.6,0.85-11.21,1.65-16.8,2.39c-5.6,0.74-11.18,1.41-16.75,2.03
			c-6.96,0.77-13.9,1.45-20.8,2.03c-6.91,0.58-13.77,1.07-20.59,1.46c-6.82,0.39-13.59,0.69-20.31,0.89
			c-6.72,0.2-13.37,0.3-19.95,0.31c-5.55,0-11.07-0.06-16.55-0.2c-5.48-0.13-10.93-0.34-16.32-0.61c-5.4-0.27-10.74-0.62-16.03-1.03
			c-5.29-0.41-10.52-0.89-15.69-1.44c-5.73-0.61-11.4-1.3-17.02-2.08c-5.62-0.78-11.18-1.64-16.67-2.59
			c-5.49-0.95-10.92-1.98-16.27-3.1c-5.35-1.12-10.62-2.31-15.8-3.59c-2.77-0.68-5.54-1.4-8.28-2.13c-2.75-0.74-5.48-1.5-8.19-2.28
			c-2.71-0.79-5.4-1.6-8.06-2.43c-2.66-0.83-5.3-1.69-7.91-2.56c-2.72-0.91-5.43-1.86-8.11-2.83c-2.69-0.97-5.36-1.97-8-2.99
			c-2.65-1.02-5.27-2.07-7.86-3.15c-2.6-1.07-5.16-2.17-7.7-3.29c-2.64-1.17-5.26-2.36-7.85-3.59c-2.6-1.23-5.18-2.48-7.73-3.77
			c-2.55-1.29-5.08-2.6-7.57-3.94c-2.5-1.34-4.96-2.7-7.39-4.09c-2.52-1.44-5.03-2.91-7.51-4.42c-2.48-1.51-4.93-3.05-7.36-4.62
			c-2.43-1.57-4.83-3.17-7.19-4.79c-2.37-1.63-4.7-3.28-7-4.96c-2.71-1.98-5.47-3.94-8.27-5.9c-2.81-1.95-5.66-3.89-8.55-5.81
			c-2.89-1.92-5.82-3.82-8.79-5.71c-2.97-1.88-5.97-3.74-9-5.58c-2.9-1.76-5.85-3.5-8.84-5.24c-2.99-1.73-6.02-3.45-9.09-5.16
			c-3.07-1.7-6.17-3.39-9.31-5.06c-3.14-1.67-6.3-3.31-9.5-4.94c-5.94-3.02-12.03-6-18.25-8.92c-6.22-2.92-12.57-5.78-19.04-8.59
			c-6.47-2.81-13.07-5.55-19.78-8.23c-6.71-2.68-13.53-5.3-20.44-7.84c-11.65-4.29-23.64-8.41-35.94-12.34
			c-12.3-3.94-24.91-7.69-37.81-11.25c-12.91-3.57-26.1-6.95-39.56-10.13c-13.47-3.19-27.2-6.18-41.18-8.96
			c-5.5-1.1-11.03-2.16-16.6-3.19c-5.57-1.03-11.17-2.03-16.79-3c-5.62-0.97-11.27-1.9-16.93-2.79c-5.66-0.9-11.33-1.76-17.01-2.58
			c-4.54-0.66-9.09-1.29-13.63-1.9c-4.54-0.61-9.08-1.2-13.61-1.76c-4.53-0.56-9.04-1.09-13.54-1.6c-4.5-0.51-8.97-0.99-13.42-1.44
			c-6.87-0.7-13.14-1.28-18.74-1.76c-5.6-0.48-10.53-0.85-14.69-1.15c-4.17-0.29-7.58-0.5-10.15-0.65
			C-153.5,5.09-155.24,5.01-156.05,4.97z"/>
	</g>
</g>
</svg>
