<?xml version="1.0" encoding="utf-8"?>
<!-- Generator: Adobe Illustrator 25.2.1, SVG Export Plug-In . SVG Version: 6.00 Build 0)  -->
<svg version="1.1" id="Calque_1" xmlns="http://www.w3.org/2000/svg" xmlns:xlink="http://www.w3.org/1999/xlink" x="0px" y="0px"
	 viewBox="0 0 1194 834" style="enable-background:new 0 0 1194 834;" xml:space="preserve">
<style type="text/css">
	.st0{fill:#FE9C9C;}
	.st1{fill:#FFFFFF;}
	.st2{fill:#FF4A4A;}
	.st3{fill:#FF6B6B;}
</style>
<g id="Groupe_67" transform="translate(0 388.351)">
	<g id="Tracé_6" transform="translate(470.998 151.299)">
		<path class="st0" d="M-57.39,214.42c0,0,17.26,3.34,44.66,7.31c27.36,3.96,64.79,8.55,105.19,11.07
			c40.32,2.51,83.58,2.96,122.73-1.35c39.08-4.3,74.08-13.33,98.01-29.77c23.91-16.43,60.5-28.25,102.17-35.83
			c41.6-7.57,88.22-10.91,132.34-10.39c44.03,0.52,85.58,4.87,117.17,12.7c31.55,7.82,53.2,19.11,57.53,33.52
			c4.33,14.41,9.27,33.66,14.25,54.44s10,43.07,14.48,63.56c4.48,20.49,8.41,39.18,11.23,52.74c2.82,13.56,4.51,22,4.51,22
			L-57.39,214.42z"/>
		<path class="st1" d="M767.5,395.06l-0.73-0.16l-824.28-180l0.2-0.98c0.07,0.01,1.77,0.34,4.9,0.91c3.13,0.56,7.68,1.36,13.44,2.32
			c5.76,0.95,12.71,2.06,20.65,3.25c7.94,1.18,16.86,2.44,26.54,3.7c5.68,0.74,11.35,1.44,16.99,2.1
			c5.64,0.66,11.24,1.28,16.81,1.86c5.57,0.58,11.1,1.12,16.58,1.62c5.48,0.5,10.91,0.96,16.28,1.38
			c6.71,0.52,13.34,0.98,19.87,1.37c6.53,0.39,12.96,0.72,19.29,0.98c6.32,0.26,12.54,0.46,18.64,0.58
			c6.1,0.13,12.07,0.19,17.92,0.19c19.03-0.01,36.71-0.72,53.03-2.11c16.3-1.39,31.24-3.46,44.79-6.21
			c13.54-2.75,25.7-6.18,36.45-10.28c10.75-4.1,20.1-8.88,28.02-14.32c2.81-1.93,5.82-3.81,9.03-5.65c3.21-1.83,6.61-3.62,10.2-5.35
			c3.59-1.73,7.37-3.41,11.33-5.04c3.96-1.63,8.1-3.19,12.42-4.71c4.05-1.42,8.26-2.79,12.62-4.1c4.36-1.31,8.86-2.58,13.5-3.78
			c4.64-1.21,9.43-2.36,14.34-3.46c4.91-1.1,9.96-2.13,15.12-3.11c4.9-0.93,9.89-1.8,14.98-2.62c5.09-0.82,10.27-1.58,15.53-2.29
			c5.26-0.71,10.6-1.35,16.01-1.94c5.41-0.59,10.9-1.12,16.45-1.59c5.35-0.46,10.73-0.85,16.13-1.2c5.4-0.34,10.83-0.63,16.28-0.85
			c5.44-0.23,10.9-0.39,16.36-0.51c5.46-0.11,10.93-0.16,16.39-0.16c5.74,0.01,11.42,0.08,17.06,0.21
			c5.63,0.13,11.2,0.33,16.71,0.59c5.51,0.26,10.95,0.58,16.31,0.97c5.36,0.38,10.65,0.83,15.86,1.34
			c5.28,0.52,10.43,1.09,15.43,1.72c5.01,0.63,9.88,1.32,14.6,2.07c4.72,0.75,9.29,1.55,13.71,2.41c4.42,0.86,8.68,1.78,12.78,2.75
			c4.27,1.01,8.34,2.07,12.2,3.19c3.86,1.11,7.51,2.28,10.94,3.49c3.43,1.21,6.65,2.48,9.65,3.79c3,1.31,5.77,2.67,8.32,4.07
			c2.72,1.49,5.17,3.04,7.36,4.62c2.19,1.59,4.1,3.22,5.75,4.89c1.65,1.67,3.02,3.39,4.12,5.14c1.1,1.75,1.93,3.55,2.47,5.38
			c0.99,3.29,2.03,6.9,3.12,10.83c1.09,3.93,2.23,8.17,3.42,12.72c1.19,4.55,2.43,9.41,3.72,14.56c1.29,5.16,2.62,10.61,4,16.36
			c1.1,4.6,2.23,9.38,3.39,14.34c1.16,4.96,2.34,10.1,3.55,15.41c1.21,5.31,2.44,10.79,3.7,16.43c1.26,5.64,2.53,11.44,3.83,17.39
			c2.21,10.13,4.3,19.84,6.18,28.73c1.89,8.88,3.57,16.93,4.98,23.72c1.41,6.79,2.55,12.33,3.33,16.18
			c0.79,3.86,1.23,6.04,1.24,6.12L767.5,395.06z M-34.64,218.87l800.89,174.91c-0.26-1.3-0.86-4.24-1.73-8.52
			c-0.88-4.27-2.03-9.87-3.41-16.47c-1.38-6.6-2.97-14.2-4.73-22.48c-1.76-8.28-3.69-17.23-5.72-26.53
			c-1.3-5.95-2.58-11.75-3.84-17.38c-1.26-5.64-2.49-11.12-3.7-16.42c-1.21-5.31-2.39-10.45-3.55-15.41
			c-1.16-4.96-2.29-9.74-3.39-14.34c-1.38-5.74-2.71-11.19-3.99-16.34c-1.29-5.15-2.52-10-3.72-14.55
			c-1.19-4.55-2.33-8.78-3.42-12.71c-1.09-3.92-2.13-7.53-3.12-10.81c-0.53-1.76-1.33-3.5-2.4-5.19c-1.07-1.7-2.41-3.36-4.02-4.98
			c-1.61-1.62-3.48-3.21-5.61-4.76c-2.14-1.55-4.54-3.05-7.2-4.51c-2.53-1.39-5.29-2.74-8.26-4.04c-2.98-1.3-6.17-2.55-9.59-3.76
			c-3.41-1.21-7.04-2.36-10.88-3.47c-3.84-1.11-7.88-2.17-12.13-3.17c-8.14-1.93-16.96-3.64-26.32-5.12
			c-9.37-1.49-19.29-2.74-29.64-3.76c-10.35-1.02-21.14-1.8-32.22-2.33c-11.09-0.53-22.49-0.81-34.06-0.82
			c-5.46-0.01-10.92,0.05-16.37,0.16c-5.46,0.11-10.91,0.28-16.34,0.51c-5.44,0.23-10.86,0.51-16.26,0.85
			c-5.4,0.34-10.77,0.74-16.11,1.19c-5.54,0.47-11.02,1-16.42,1.59c-5.4,0.59-10.74,1.24-15.99,1.94c-5.25,0.7-10.42,1.47-15.5,2.28
			c-5.08,0.82-10.07,1.69-14.96,2.62c-5.16,0.98-10.19,2.01-15.09,3.11c-4.9,1.09-9.67,2.24-14.3,3.45
			c-4.63,1.2-9.12,2.46-13.47,3.77c-4.34,1.31-8.54,2.68-12.58,4.09c-4.3,1.5-8.42,3.07-12.36,4.68c-3.94,1.62-7.7,3.29-11.27,5.01
			c-3.57,1.72-6.95,3.5-10.14,5.32c-3.19,1.82-6.18,3.7-8.97,5.61c-1.12,0.77-2.28,1.53-3.47,2.28c-1.19,0.75-2.41,1.49-3.66,2.21
			c-1.25,0.72-2.52,1.43-3.83,2.13c-1.3,0.7-2.63,1.38-3.99,2.04c-1.31,0.64-2.65,1.28-4.02,1.9c-1.37,0.62-2.77,1.23-4.19,1.83
			c-1.42,0.6-2.88,1.18-4.35,1.75c-1.48,0.57-2.98,1.13-4.5,1.67c-2.89,1.03-5.88,2.01-8.97,2.95c-3.09,0.94-6.28,1.84-9.57,2.69
			c-3.29,0.85-6.67,1.66-10.14,2.41c-3.47,0.76-7.03,1.47-10.68,2.13c-3.37,0.61-6.82,1.18-10.37,1.72
			c-3.54,0.53-7.17,1.03-10.88,1.49c-3.71,0.46-7.49,0.87-11.35,1.25c-3.86,0.38-7.79,0.71-11.79,1.01
			c-3.65,0.27-7.39,0.51-11.19,0.71c-3.8,0.2-7.67,0.37-11.61,0.51c-3.93,0.14-7.93,0.24-11.98,0.31
			c-4.05,0.07-8.16,0.11-12.32,0.11c-5.85,0-11.84-0.06-17.94-0.19c-6.1-0.13-12.33-0.32-18.66-0.59
			c-6.33-0.26-12.77-0.59-19.31-0.98c-6.54-0.39-13.17-0.85-19.9-1.37c-5.38-0.42-10.81-0.88-16.3-1.38
			c-5.48-0.5-11.02-1.04-16.59-1.63c-5.57-0.58-11.19-1.2-16.83-1.86c-5.64-0.66-11.31-1.36-17-2.1c-4.25-0.55-8.34-1.1-12.28-1.65
			c-3.93-0.55-7.7-1.09-11.29-1.61c-3.59-0.53-6.99-1.04-10.19-1.54C-28.86,219.8-31.86,219.32-34.64,218.87z"/>
	</g>
	<g id="Tracé_5">
		<path class="st2" d="M-7.47,159.12c0,0,21.5,2.89,55.75,9.11c34.2,6.21,81.07,15.75,131.88,29.04
			c50.7,13.26,105.32,30.26,155.22,51.44c49.8,21.14,94.92,46.45,126.86,76.4c31.9,29.92,89.67,47.07,158.25,55.96
			c68.37,8.87,147.4,9.51,222.23,6.45c74.59-3.05,145.04-9.79,196.76-15.74c51.6-5.95,84.65-11.13,84.65-11.13L29.23,435.37
			l-86.02-280.52L-7.47,159.12z"/>
		<path class="st1" d="M28.86,435.91l-0.12-0.39L-57.28,155l-0.22-0.72l0.75,0.07l49.32,4.26l0.01,0l0.01,0
			c0.05,0.01,1.45,0.2,4.04,0.57c2.59,0.38,6.39,0.94,11.23,1.69c4.84,0.75,10.74,1.7,17.54,2.84c6.8,1.14,14.5,2.48,22.96,4.02
			c4.97,0.9,9.95,1.83,14.94,2.78c4.99,0.95,9.98,1.92,14.98,2.91c4.99,0.99,9.98,2,14.96,3.04c4.98,1.03,9.94,2.08,14.89,3.15
			c6.18,1.33,12.33,2.7,18.45,4.08c6.11,1.39,12.19,2.8,18.22,4.23c6.03,1.43,12.01,2.89,17.93,4.37
			c5.92,1.48,11.78,2.97,17.57,4.49c14.74,3.85,29.06,7.83,42.93,11.91c13.87,4.08,27.3,8.28,40.27,12.58
			c12.96,4.3,25.47,8.7,37.49,13.2c12.02,4.5,23.55,9.09,34.59,13.77c3.19,1.35,6.35,2.72,9.47,4.1c3.12,1.38,6.2,2.76,9.24,4.15
			c3.04,1.39,6.04,2.79,8.99,4.2c2.95,1.4,5.85,2.81,8.7,4.22c3,1.49,5.96,2.98,8.87,4.49c2.92,1.51,5.79,3.03,8.61,4.55
			c2.82,1.53,5.6,3.06,8.33,4.6c2.72,1.54,5.39,3.08,8.01,4.63c2.74,1.62,5.44,3.26,8.09,4.9c2.65,1.65,5.25,3.3,7.79,4.97
			c2.54,1.66,5.04,3.34,7.47,5.01c2.43,1.68,4.81,3.36,7.12,5.04c2.42,1.76,4.79,3.54,7.1,5.32c2.31,1.79,4.57,3.59,6.77,5.39
			c2.2,1.81,4.34,3.62,6.42,5.44c2.08,1.82,4.09,3.65,6.04,5.47c1.41,1.32,2.88,2.62,4.41,3.91c1.53,1.29,3.12,2.55,4.76,3.8
			c1.64,1.25,3.34,2.48,5.1,3.68c1.75,1.21,3.56,2.39,5.41,3.55c1.8,1.12,3.66,2.23,5.58,3.32c1.92,1.09,3.89,2.16,5.91,3.22
			c2.02,1.05,4.1,2.09,6.23,3.1c2.12,1.01,4.3,2.01,6.52,2.98c2.15,0.94,4.35,1.86,6.61,2.77c2.26,0.91,4.57,1.8,6.93,2.67
			c2.36,0.87,4.77,1.73,7.22,2.56c2.45,0.84,4.95,1.65,7.48,2.45c2.45,0.77,4.95,1.52,7.51,2.26c2.55,0.74,5.16,1.46,7.81,2.16
			c2.65,0.7,5.34,1.39,8.07,2.06c2.73,0.67,5.51,1.32,8.32,1.95c10.22,2.3,21.06,4.37,32.49,6.22c11.42,1.85,23.44,3.47,36.02,4.87
			c12.58,1.4,25.72,2.57,39.41,3.51c13.68,0.94,27.91,1.65,42.65,2.13l407.08-27.78l0.11,0.98c-0.11,0.02-3.03,0.47-8.39,1.26
			c-5.36,0.78-13.14,1.9-22.99,3.22c-9.85,1.33-21.76,2.88-35.36,4.53c-13.61,1.65-28.9,3.42-45.51,5.17
			c-9.76,1.03-19.49,2.01-29.18,2.94c-9.69,0.93-19.33,1.8-28.9,2.62c-9.58,0.82-19.1,1.59-28.53,2.3
			c-9.44,0.71-18.8,1.36-28.06,1.96c-11.58,0.74-23.01,1.4-34.28,1.96c-11.27,0.56-22.38,1.03-33.31,1.41
			c-10.93,0.38-21.67,0.67-32.21,0.86c-10.54,0.19-20.88,0.3-31,0.3c0,0-0.01,0-0.01,0c0,0-0.01,0-0.01,0c0,0,0,0-0.01,0
			c0,0-0.01,0-0.01,0c-4.25,0-8.48-0.01-12.67-0.04c-4.2-0.03-8.36-0.08-12.49-0.14c-4.13-0.06-8.22-0.14-12.26-0.24
			c-4.05-0.1-8.04-0.21-11.99-0.34L29.26,435.88L28.86,435.91z M-56.08,155.43L29.6,434.84l677.86-46.25
			c-6.17-0.25-12.26-0.53-18.26-0.86c-6-0.33-11.9-0.7-17.7-1.11c-5.8-0.41-11.5-0.87-17.1-1.36c-5.59-0.49-11.07-1.03-16.44-1.6
			c-6.58-0.7-13.02-1.47-19.31-2.31c-6.29-0.83-12.44-1.73-18.44-2.69c-5.99-0.96-11.83-1.98-17.5-3.06
			c-5.67-1.08-11.17-2.22-16.5-3.41c-2.82-0.63-5.6-1.29-8.33-1.96c-2.74-0.67-5.44-1.36-8.1-2.07c-2.66-0.71-5.27-1.43-7.83-2.17
			c-2.56-0.74-5.07-1.49-7.53-2.26c-2.55-0.8-5.05-1.62-7.51-2.45c-2.46-0.84-4.88-1.7-7.24-2.57c-2.37-0.88-4.69-1.77-6.95-2.68
			c-2.27-0.91-4.48-1.84-6.64-2.78c-2.23-0.98-4.41-1.97-6.55-2.99c-2.14-1.02-4.22-2.06-6.26-3.12c-2.03-1.06-4.02-2.14-5.94-3.24
			c-1.93-1.1-3.8-2.21-5.61-3.34c-1.87-1.17-3.69-2.36-5.46-3.57c-1.77-1.21-3.48-2.45-5.14-3.71c-1.66-1.26-3.26-2.54-4.8-3.83
			c-1.54-1.3-3.02-2.61-4.44-3.94c-7.27-6.82-15.38-13.54-24.32-20.14c-8.94-6.61-18.71-13.1-29.29-19.47
			c-10.58-6.37-21.97-12.63-34.16-18.74c-12.19-6.12-25.18-12.11-38.94-17.95c-11.02-4.68-22.55-9.27-34.55-13.76
			c-12.01-4.49-24.5-8.89-37.46-13.19c-12.96-4.3-26.38-8.49-40.24-12.57c-13.87-4.08-28.17-8.05-42.9-11.9
			c-5.79-1.51-11.64-3.01-17.56-4.49c-5.92-1.48-11.89-2.93-17.91-4.37c-6.02-1.43-12.1-2.84-18.21-4.23
			c-6.11-1.39-12.26-2.75-18.44-4.08c-4.94-1.07-9.9-2.12-14.88-3.15c-4.97-1.03-9.96-2.04-14.95-3.03
			c-4.99-0.99-9.98-1.96-14.97-2.91c-4.99-0.95-9.97-1.88-14.93-2.78c-8.38-1.52-16.01-2.85-22.75-3.98
			c-6.75-1.13-12.61-2.07-17.44-2.83c-4.83-0.75-8.64-1.32-11.28-1.7c-2.64-0.38-4.1-0.58-4.26-0.6L-56.08,155.43z M727.34,388.23
			c3.16,0.08,6.36,0.15,9.57,0.21c3.22,0.06,6.46,0.11,9.72,0.15c3.26,0.04,6.55,0.07,9.85,0.08c3.3,0.02,6.63,0.03,9.96,0.02
			c0,0,0,0,0.01,0c0,0,0,0,0.01,0c0,0,0,0,0.01,0c0,0,0,0,0.01,0c10.11-0.01,20.45-0.11,30.98-0.3c10.53-0.19,21.27-0.48,32.2-0.86
			c10.92-0.38,22.02-0.85,33.29-1.41c11.26-0.56,22.69-1.22,34.27-1.96c9.26-0.59,18.61-1.25,28.05-1.96
			c9.43-0.71,18.95-1.47,28.52-2.29c9.57-0.82,19.21-1.69,28.9-2.62c9.68-0.93,19.41-1.91,29.16-2.94
			c11.52-1.22,22.41-2.44,32.54-3.63c10.13-1.19,19.5-2.34,27.98-3.41c8.48-1.08,16.09-2.08,22.68-2.98
			c6.59-0.9,12.18-1.68,16.64-2.33L727.34,388.23z"/>
	</g>
	<g id="Tracé_4" transform="translate(49.518 18.258)">
		<path class="st3" d="M-56.99,154.81c0,0,16.78,0.71,44.5,3.83c36.9,4.18,73.56,10.27,109.83,18.25
			c43.51,9.59,92.02,23.26,139.73,42.69c47.61,19.39,94.44,44.51,134.77,77.07c40.25,32.5,86.81,51.26,133.94,61.14
			c47.04,9.85,94.66,10.85,137.2,7.81c35.93-2.65,71.6-8.13,106.67-16.38c26.76-6.28,42.93-11.81,42.93-11.81s16-4.26,41.4-9.38
			c32.24-6.56,64.81-11.41,97.56-14.54c37.41-3.44,77.56-4.36,113.91,0.6c36.3,4.96,68.82,15.78,91.09,35.83
			c22.25,20.03,34.3,36.14,39.85,49.05s4.63,22.6,0.93,29.81s-10.19,11.92-15.75,14.83c-3.24,1.72-6.66,3.06-10.2,4.02L-56.99,471.2
			V154.81z"/>
		<path class="st1" d="M-57.5,471.71v-0.52V154.81v-0.53l0.53,0.02c0.04,0,1.13,0.05,3.18,0.17c2.04,0.12,5.03,0.31,8.88,0.59
			c3.84,0.29,8.54,0.67,13.99,1.17c5.45,0.5,11.64,1.13,18.49,1.9c4.02,0.45,8.07,0.93,12.13,1.44c4.06,0.51,8.15,1.04,12.24,1.6
			c4.09,0.56,8.2,1.14,12.3,1.75c4.11,0.61,8.22,1.24,12.32,1.9c5.13,0.82,10.26,1.68,15.38,2.58c5.12,0.9,10.22,1.83,15.31,2.79
			c5.09,0.97,10.15,1.97,15.19,3c5.04,1.03,10.04,2.1,15.01,3.19c12.65,2.79,25.07,5.78,37.26,8.97
			c12.18,3.18,24.12,6.56,35.8,10.13c11.67,3.57,23.09,7.32,34.22,11.26c11.13,3.94,21.98,8.06,32.53,12.35
			c6.26,2.55,12.44,5.17,18.51,7.86c6.07,2.69,12.05,5.44,17.91,8.25c5.86,2.81,11.62,5.68,17.25,8.61
			c5.63,2.92,11.15,5.9,16.53,8.94c2.89,1.63,5.76,3.28,8.61,4.95c2.84,1.67,5.66,3.36,8.44,5.07c2.78,1.71,5.53,3.43,8.24,5.17
			c2.71,1.74,5.38,3.49,8.01,5.25c2.75,1.84,5.47,3.71,8.16,5.6c2.69,1.89,5.35,3.8,7.97,5.72c2.62,1.93,5.21,3.87,7.75,5.83
			c2.54,1.96,5.05,3.93,7.5,5.91c2.07,1.67,4.18,3.32,6.31,4.94c2.13,1.62,4.3,3.22,6.49,4.78c2.19,1.57,4.4,3.1,6.64,4.6
			c2.24,1.5,4.49,2.97,6.77,4.41c2.19,1.38,4.42,2.74,6.67,4.08c2.25,1.34,4.53,2.65,6.83,3.93c2.3,1.28,4.63,2.54,6.97,3.76
			c2.34,1.22,4.71,2.42,7.09,3.58c2.29,1.12,4.6,2.21,6.95,3.29c2.34,1.07,4.71,2.12,7.1,3.14c2.39,1.02,4.8,2.02,7.22,2.99
			c2.43,0.97,4.87,1.91,7.32,2.82c2.35,0.87,4.74,1.73,7.14,2.56c2.4,0.83,4.83,1.64,7.28,2.42c2.45,0.78,4.91,1.55,7.39,2.28
			c2.48,0.74,4.97,1.45,7.48,2.13c8.93,2.44,18.1,4.57,27.51,6.41c9.4,1.83,19.03,3.36,28.88,4.58c9.84,1.22,19.89,2.14,30.14,2.75
			c10.24,0.61,20.68,0.91,31.29,0.9c5.95,0,11.97-0.11,18.04-0.3c6.07-0.2,12.2-0.49,18.37-0.88c6.17-0.39,12.38-0.88,18.63-1.46
			c6.24-0.58,12.52-1.26,18.82-2.03c5.04-0.62,10.09-1.29,15.16-2.03c5.06-0.74,10.14-1.53,15.21-2.38
			c5.07-0.85,10.14-1.76,15.2-2.73c5.06-0.97,10.11-1.99,15.14-3.06c4.48-0.96,8.73-1.91,12.73-2.85c4-0.94,7.75-1.85,11.22-2.73
			c3.47-0.87,6.65-1.71,9.53-2.48c2.87-0.77,5.43-1.49,7.65-2.12c2.41-0.69,4.55-1.32,6.42-1.88c1.87-0.56,3.45-1.05,4.74-1.46
			c1.29-0.4,2.28-0.73,2.95-0.94c0.67-0.22,1.02-0.34,1.04-0.34l0.02-0.01l0.02,0c0.06-0.02,1.7-0.45,4.7-1.2
			c3-0.74,7.36-1.8,12.87-3.06c5.51-1.26,12.16-2.73,19.75-4.29c7.58-1.56,16.1-3.23,25.34-4.89c5.42-0.97,10.82-1.9,16.19-2.77
			c5.37-0.87,10.71-1.69,16.01-2.46c5.3-0.77,10.56-1.48,15.77-2.15c5.21-0.66,10.37-1.27,15.47-1.83
			c6.38-0.69,12.67-1.3,18.87-1.82c6.19-0.52,12.29-0.95,18.28-1.3c5.99-0.35,11.87-0.61,17.64-0.78
			c5.76-0.17,11.41-0.26,16.93-0.25c3.74,0,7.45,0.04,11.1,0.13c3.65,0.08,7.25,0.21,10.79,0.37c3.54,0.16,7.03,0.37,10.46,0.61
			c3.42,0.24,6.79,0.53,10.08,0.85c3.59,0.35,7.12,0.75,10.59,1.2c3.47,0.45,6.87,0.95,10.2,1.49c3.33,0.54,6.59,1.14,9.78,1.78
			c3.19,0.64,6.3,1.32,9.33,2.05c3.27,0.79,6.47,1.63,9.59,2.54c3.12,0.9,6.16,1.86,9.11,2.87c2.96,1.01,5.83,2.08,8.61,3.2
			c2.78,1.12,5.48,2.29,8.08,3.52c1.37,0.64,2.72,1.31,4.05,1.99c1.33,0.68,2.64,1.37,3.92,2.08c1.29,0.71,2.55,1.43,3.78,2.17
			c1.23,0.74,2.45,1.49,3.63,2.26c1.22,0.79,2.42,1.6,3.6,2.43c1.18,0.83,2.33,1.67,3.46,2.53c1.13,0.86,2.23,1.74,3.31,2.63
			c1.08,0.89,2.12,1.8,3.14,2.71c2.35,2.11,4.61,4.2,6.77,6.28c2.17,2.07,4.25,4.12,6.23,6.14c1.99,2.02,3.88,4.02,5.67,5.99
			c1.79,1.97,3.49,3.91,5.09,5.81c1.47,1.76,2.87,3.5,4.18,5.22c1.32,1.72,2.56,3.42,3.71,5.1c1.16,1.68,2.23,3.33,3.23,4.96
			c0.99,1.63,1.91,3.23,2.73,4.8c1.44,2.74,2.63,5.41,3.58,8.01c0.95,2.6,1.65,5.12,2.11,7.57c0.46,2.45,0.67,4.82,0.63,7.1
			c-0.04,2.29-0.32,4.5-0.85,6.62c-0.28,1.1-0.62,2.19-1.03,3.24c-0.41,1.06-0.89,2.09-1.43,3.1c-0.54,1.01-1.15,1.99-1.83,2.95
			c-0.67,0.96-1.41,1.88-2.22,2.78c-0.64,0.72-1.32,1.42-2.04,2.09c-0.72,0.68-1.48,1.34-2.28,1.98c-0.8,0.64-1.64,1.26-2.51,1.86
			c-0.87,0.6-1.78,1.17-2.73,1.73c-1.61,0.94-3.18,1.74-4.64,2.4c-1.46,0.67-2.8,1.2-3.95,1.62c-1.15,0.42-2.09,0.72-2.76,0.91
			c-0.66,0.2-1.05,0.29-1.06,0.29l-0.05,0.01l-0.05,0L-56.98,471.7L-57.5,471.71z M-56.48,155.35v315.34l1207.8-23.57
			c0.14-0.04,0.6-0.15,1.29-0.37c0.7-0.21,1.63-0.52,2.73-0.93c1.1-0.41,2.38-0.93,3.75-1.56c1.37-0.63,2.84-1.38,4.34-2.26
			c0.92-0.54,1.81-1.1,2.66-1.69c0.85-0.58,1.67-1.19,2.44-1.81c0.78-0.62,1.52-1.27,2.22-1.93c0.7-0.66,1.36-1.34,1.99-2.04
			c0.77-0.87,1.49-1.76,2.14-2.69c0.65-0.92,1.24-1.87,1.76-2.84c0.53-0.97,0.99-1.97,1.38-2.99c0.4-1.02,0.73-2.06,0.99-3.13
			c0.51-2.06,0.79-4.21,0.82-6.43c0.03-2.23-0.18-4.54-0.63-6.93c-0.45-2.39-1.14-4.85-2.07-7.39c-0.93-2.54-2.1-5.15-3.51-7.84
			c-0.82-1.56-1.72-3.14-2.71-4.76c-0.98-1.61-2.05-3.25-3.2-4.91c-1.15-1.66-2.38-3.35-3.68-5.05c-1.31-1.71-2.69-3.43-4.15-5.18
			c-1.59-1.9-3.28-3.83-5.06-5.79c-1.79-1.96-3.67-3.95-5.65-5.96c-1.98-2.01-4.05-4.05-6.21-6.12c-2.16-2.06-4.41-4.15-6.75-6.25
			c-7.2-6.48-15.66-12.17-25.37-17.05c-9.71-4.88-20.67-8.96-32.85-12.24c-12.19-3.27-25.6-5.74-40.23-7.39
			c-14.63-1.65-30.48-2.48-47.52-2.49c-5.51,0-11.15,0.08-16.9,0.25c-5.76,0.17-11.63,0.43-17.61,0.78
			c-5.98,0.35-12.07,0.78-18.25,1.3c-6.19,0.52-12.47,1.13-18.84,1.82c-5.1,0.55-10.25,1.16-15.46,1.82
			c-5.2,0.66-10.46,1.38-15.75,2.15c-5.29,0.77-10.63,1.59-15.99,2.46c-5.37,0.87-10.76,1.79-16.18,2.77
			c-9.14,1.64-17.57,3.29-25.08,4.83c-7.52,1.55-14.13,3-19.62,4.26c-5.49,1.26-9.86,2.31-12.91,3.07
			c-3.05,0.75-4.76,1.21-4.95,1.26c-0.09,0.03-0.49,0.17-1.2,0.4c-0.7,0.23-1.71,0.55-3,0.96c-1.29,0.4-2.86,0.89-4.69,1.44
			c-1.83,0.55-3.93,1.16-6.27,1.83c-2.22,0.63-4.79,1.35-7.67,2.12c-2.88,0.78-6.07,1.61-9.54,2.49c-3.47,0.88-7.23,1.79-11.23,2.73
			c-4.01,0.94-8.27,1.9-12.75,2.85c-5.04,1.08-10.09,2.1-15.16,3.07c-5.07,0.97-10.14,1.88-15.22,2.73
			c-5.08,0.85-10.16,1.65-15.23,2.39c-5.07,0.74-10.14,1.42-15.18,2.04c-6.31,0.77-12.6,1.45-18.85,2.04
			c-6.26,0.58-12.48,1.07-18.66,1.46c-6.18,0.39-12.32,0.69-18.4,0.89c-6.08,0.2-12.11,0.3-18.08,0.31c-5.03,0-10.03-0.06-14.99-0.2
			c-4.97-0.14-9.9-0.34-14.79-0.61c-4.89-0.27-9.73-0.62-14.52-1.03c-4.79-0.41-9.53-0.89-14.21-1.44
			c-5.19-0.61-10.33-1.3-15.42-2.08c-5.09-0.78-10.13-1.65-15.1-2.6c-4.98-0.95-9.89-1.99-14.73-3.1c-4.84-1.12-9.62-2.32-14.31-3.6
			c-2.51-0.69-5.01-1.4-7.5-2.14c-2.49-0.74-4.96-1.5-7.41-2.29c-2.45-0.79-4.89-1.6-7.3-2.43c-2.41-0.83-4.8-1.69-7.16-2.57
			c-2.46-0.91-4.91-1.86-7.35-2.83c-2.43-0.97-4.85-1.97-7.24-3c-2.4-1.03-4.77-2.08-7.12-3.15c-2.35-1.08-4.67-2.17-6.97-3.3
			c-2.39-1.17-4.76-2.37-7.11-3.59c-2.35-1.23-4.69-2.49-6.99-3.77c-2.31-1.29-4.6-2.6-6.86-3.94c-2.26-1.34-4.49-2.71-6.69-4.09
			c-2.28-1.44-4.55-2.92-6.79-4.43c-2.24-1.51-4.47-3.05-6.66-4.62c-2.2-1.57-4.37-3.17-6.51-4.8c-2.14-1.63-4.25-3.28-6.33-4.96
			c-9.18-7.41-18.9-14.59-29.12-21.52c-10.23-6.93-20.98-13.62-32.22-20.05c-11.25-6.43-22.99-12.61-35.21-18.51
			c-12.23-5.91-24.93-11.55-38.09-16.91c-10.54-4.29-21.38-8.41-32.49-12.34c-11.12-3.93-22.52-7.69-34.18-11.25
			c-11.67-3.56-23.59-6.94-35.76-10.12c-12.17-3.18-24.58-6.17-37.22-8.95c-4.97-1.09-9.97-2.16-15-3.19
			c-5.03-1.03-10.09-2.03-15.17-2.99c-5.08-0.96-10.18-1.9-15.3-2.79c-5.11-0.89-10.24-1.75-15.36-2.57
			c-4.1-0.66-8.21-1.29-12.31-1.9c-4.1-0.61-8.2-1.19-12.29-1.75c-4.09-0.56-8.17-1.09-12.23-1.6c-4.06-0.51-8.1-0.99-12.12-1.44
			c-6.17-0.69-11.8-1.27-16.84-1.74c-5.04-0.47-9.47-0.85-13.22-1.14c-3.76-0.29-6.84-0.5-9.18-0.65
			C-54.12,155.47-55.71,155.38-56.48,155.35z"/>
	</g>
</g>
</svg>
