<svg id="Calque_1" data-name="Calque 1" xmlns="http://www.w3.org/2000/svg" viewBox="0 0 1777.16 2415.16"><defs><style>.cls-1{fill:#ff8f8f;}.cls-2{fill:#707070;}.cls-3{fill:#ff6b6b;}.cls-4{fill:#21d6cd;}.cls-5{fill:#71d2cd;}.cls-6{fill:#1ba19a;}</style></defs><g id="Groupe_55" data-name="Groupe 55"><g id="Ellipse_14" data-name="Ellipse 14"><path class="cls-1" d="M295.12,261.07A702.55,702.55,0,0,1,557,311.84C639.69,345,716.52,393.5,783.89,454.51A824.52,824.52,0,0,1,957.65,678.27a864.73,864.73,0,0,1,93.83,295.83c14.36,111.26,7.14,220.58-19.06,322.94-27,105.3-73.86,202.73-137.48,286.54-65.05,85.69-147.06,156.44-241.87,206.1A684.24,684.24,0,0,1,334,1868.07c-115,0-224.44-28.09-322.9-78.39-97.21-49.66-182.64-120.41-251.83-206.1A850.29,850.29,0,0,1-392.1,1297.05,868.45,868.45,0,0,1-426.77,974.1c8.71-107.86,36.83-207.58,79.53-295.83,41.61-86,97.3-161.59,162.94-223.76,64.42-61,138.91-109.55,220-142.68A684,684,0,0,1,295.12,261.07Z" transform="translate(718.42 547.09)"/><path class="cls-2" d="M333.93,1866.6q10.63,0,21.3-.33t21.29-1q10.64-.64,21.21-1.62t21-2.26q10.32-1.28,20.62-2.87t20.57-3.49q10.25-1.9,20.42-4.12t20.21-4.71q9.9-2.48,19.78-5.26T540,1835.1q9.79-3.09,19.48-6.45t19.2-7q9.42-3.59,18.78-7.49t18.61-8.07q9.24-4.17,18.36-8.61t18.06-9.12q8.85-4.63,17.62-9.56t17.4-10.09q8.64-5.17,17.12-10.59t16.77-11q8.22-5.6,16.34-11.45t16.07-11.94q7.95-6.08,15.74-12.38t15.36-12.79q7.53-6.45,14.93-13.15t14.62-13.6q7.23-6.88,14.26-14t13.85-14.33q6.78-7.22,13.42-14.67t13.07-15.06q6.45-7.62,12.68-15.4T894,1582.61q6-7.89,11.82-16t11.44-16.34q5.63-8.25,11-16.63t10.56-16.85q5.16-8.47,10.14-17.15t9.73-17.44q4.75-8.78,9.29-17.66t8.82-17.83q4.29-9,8.39-18.12t8-18.36q3.85-9.23,7.5-18.53t7-18.63q3.4-9.4,6.6-18.92t6.14-19.1q3-9.58,5.68-19.23t5.18-19.27q2.49-9.72,4.76-19.55t4.28-19.68q2-9.87,3.81-19.76t3.33-19.75q1.54-10,2.87-20t2.4-20.12q1.08-10.07,1.92-20.14t1.43-20.08q.62-10.14,1-20.35t.49-20.4q.12-10.2,0-20.38t-.47-20.29q-.35-10.24-1-20.54t-1.44-20.55q-.84-10.25-1.92-20.49t-2.38-20.35q-1.31-10.12-2.85-20.24t-3.31-20.14q-1.77-10-3.75-20T1036.31,894q-2.18-9.63-4.55-19.26t-5-19.14q-2.6-9.51-5.39-18.94T1015.61,818q-2.94-9.15-6.1-18.25t-6.5-18.09q-3.35-9-6.88-17.88t-7.23-17.61q-3.64-8.62-7.51-17.19t-7.88-17q-4-8.44-8.23-16.78t-8.54-16.49q-4.29-8.09-8.79-16.1t-9.13-15.89q-4.65-7.89-9.45-15.64t-9.72-15.34q-4.89-7.53-10-15T899.42,586q-5.2-7.29-10.55-14.47t-10.79-14.15q-5.42-6.95-11-13.8T855.78,530q-5.71-6.7-11.54-13.26t-11.75-12.93q-5.91-6.36-12-12.6t-12.22-12.33q-6.16-6.09-12.44-12t-12.62-11.68q-6.35-5.73-12.82-11.36t-13-11.07q-6.58-5.46-13.25-10.75t-13.39-10.4q-6.74-5.11-13.6-10.08t-13.8-9.78q-6.95-4.81-14-9.45t-14.08-9.07q-7.1-4.46-14.31-8.77T646.5,356q-7.28-4.12-14.62-8.09t-14.7-7.72q-7.42-3.78-14.94-7.41t-15.09-7.07q-7.57-3.45-15.21-6.71t-15.26-6.32q-7.71-3.09-15.51-6t-15.64-5.65q-7.85-2.73-15.73-5.27T494,290.92q-8-2.37-16-4.55t-16.14-4.17q-8.1-2-16.21-3.78T429.44,275q-8.2-1.6-16.49-3t-16.59-2.63q-8.31-1.22-16.64-2.24t-16.63-1.83q-8.43-.82-16.91-1.44t-17-1q-8.52-.42-17-.62t-17-.21q-8.49,0-17,.21t-17,.62q-8.5.41-16.95,1t-16.85,1.44q-8.26.81-16.54,1.83t-16.53,2.24Q186,270.6,177.82,272t-16.35,3q-8,1.59-16.05,3.38t-16,3.78q-8,2-15.94,4.17t-15.8,4.55q-7.77,2.34-15.53,4.87t-15.48,5.27q-7.71,2.73-15.37,5.65t-15.21,6q-7.5,3.06-15,6.32T6.22,325.74q-7.42,3.45-14.76,7.07t-14.57,7.41q-7.18,3.76-14.33,7.72T-51.67,356q-7.08,4.14-14.08,8.45t-13.87,8.77q-6.85,4.44-13.65,9.07t-13.51,9.45q-6.72,4.8-13.33,9.78t-13.12,10.08q-6.48,5.12-12.88,10.4t-12.73,10.75q-6.32,5.46-12.52,11.07t-12.27,11.36q-6.06,5.76-12.05,11.68t-11.86,12q-5.86,6.09-11.62,12.33t-11.35,12.6q-5.61,6.38-11.13,12.93T-252.54,530q-5.39,6.72-10.64,13.55t-10.34,13.8q-5.12,7-10.11,14.15T-293.48,586q-4.84,7.32-9.55,14.74t-9.23,15q-4.56,7.59-9,15.34t-8.69,15.64q-4.26,7.89-8.36,15.89t-8,16.1q-3.94,8.16-7.74,16.49T-361.47,712q-3.63,8.46-7.06,17t-6.68,17.19q-3.29,8.73-6.38,17.61t-6,17.88q-2.91,9-5.63,18.09T-398.44,818q-2.55,9.27-4.88,18.69t-4.47,18.94q-2.15,9.54-4.06,19.14T-415.47,894q-1.72,9.81-3.22,19.73t-2.79,20q-1.29,10-2.34,20.14t-1.87,20.24q-.81,10.14-1.4,20.35t-.92,20.49q-.36,10.27-.46,20.55t0,20.54q.14,10.13.51,20.29t1,20.38q.62,10.2,1.47,20.4t1.95,20.35q1.1,10,2.41,20.08t2.89,20.14q1.57,10.08,3.37,20.12t3.84,20q2,9.87,4.28,19.75t4.77,19.76q2.51,9.87,5.24,19.68t5.69,19.55q2.94,9.65,6.12,19.27t6.61,19.23q3.42,9.59,7.07,19.1t7.51,18.92q3.84,9.33,7.92,18.63t8.4,18.53q4.32,9.24,8.85,18.36t9.27,18.12q4.72,8.94,9.68,17.83t10.14,17.66q5.19,8.79,10.58,17.44t11,17.15q5.56,8.48,11.37,16.85t11.82,16.63q6,8.25,12.23,16.34t12.6,16q6.39,7.91,13,15.69t13.43,15.4q6.81,7.62,13.8,15.06t14.13,14.67q7.17,7.24,14.54,14.33t14.93,14q7.58,6.91,15.28,13.6t15.58,13.15q7.89,6.49,16,12.79t16.34,12.38q8.27,6.09,16.65,11.94t16.89,11.45q8.57,5.63,17.3,11t17.63,10.59q8.9,5.17,17.89,10.09t18.09,9.56q9.17,4.7,18.5,9.12t18.78,8.61q9.45,4.18,19,8.07T87,1821.64q9.7,3.64,19.55,7t19.78,6.45q9.95,3.08,20,5.86t20,5.26q10.17,2.51,20.44,4.71t20.62,4.12q10.35,1.9,20.74,3.49t20.76,2.87q10.53,1.29,21.15,2.26t21.29,1.62q10.67.64,21.34,1t21.31.33m0,1.47c-115,0-224.44-28.09-322.89-78.39-97.22-49.66-182.64-120.41-251.83-206.1a850.2,850.2,0,0,1-151.33-286.53A868.44,868.44,0,0,1-426.77,974.1c8.71-107.86,36.83-207.58,79.53-295.83,41.61-86,97.29-161.59,162.94-223.76,64.42-61,138.91-109.55,220-142.67a683.77,683.77,0,0,1,259.43-50.77A702.46,702.46,0,0,1,557,311.84C639.69,345,716.52,393.5,783.89,454.51A824.48,824.48,0,0,1,957.65,678.27a864.59,864.59,0,0,1,93.83,295.83c14.36,111.26,7.14,220.58-19.06,322.95-27,105.29-73.86,202.72-137.48,286.53-65.05,85.69-147.05,156.44-241.87,206.1A684.18,684.18,0,0,1,334,1868.07Z" transform="translate(718.42 547.09)"/></g><g id="Ellipse_13" data-name="Ellipse 13"><path class="cls-3" d="M316.28-547.09a692.28,692.28,0,0,1,228.38,38.6A677.87,677.87,0,0,1,741.58-400.44c59.24,46.89,110.15,103.75,149.07,168.22,39.8,65.93,67.26,140.15,78.17,220.1C980,70,972.72,150.32,949.29,225.22c-24,76.73-64.8,147.45-119.57,208.07C773.92,495.05,704,545.9,623.55,581.5c-81.35,36-172.73,56.06-269.9,56.06A690.67,690.67,0,0,1,80.21,581.5C-2.51,545.9-75.62,495.05-135.32,433.29-193.9,372.67-239.17,302-268,225.22a556.68,556.68,0,0,1-34.5-237.34,544.89,544.89,0,0,1,64.29-220.1C-203.37-296.7-156-353.55-99.77-400.44a625.93,625.93,0,0,1,190.11-108C160.08-533.41,236.26-547.09,316.28-547.09Z" transform="translate(718.42 547.09)"/><path class="cls-2" d="M353.61,636.51q9,0,18-.24t18-.7q9-.45,17.92-1.15c6-.47,11.89-1,17.78-1.62s11.63-1.29,17.43-2,11.6-1.59,17.38-2.49,11.54-1.89,17.27-2.94,11.42-2.18,17.08-3.37,11.17-2.43,16.73-3.76,11.11-2.72,16.63-4.19,11-3,16.48-4.61,10.88-3.28,16.25-5,10.62-3.51,15.9-5.36,10.54-3.79,15.76-5.78,10.41-4,15.56-6.16,10.25-4.3,15.31-6.53,10-4.5,14.95-6.85,9.88-4.76,14.77-7.24,9.73-5,14.53-7.59,9.55-5.23,14.25-7.92,9.29-5.42,13.89-8.22,9.16-5.66,13.67-8.57,9-5.88,13.41-8.9,8.78-6.08,13.08-9.19,8.53-6.24,12.74-9.45,8.37-6.47,12.48-9.78S769,490.17,773,486.77s8-6.84,11.84-10.32,7.7-7,11.49-10.57,7.52-7.2,11.2-10.86,7.31-7.37,10.88-11.11,7.07-7.52,10.51-11.33,6.82-7.65,10.16-11.55,6.62-7.84,9.85-11.82,6.39-8,9.5-12,6.14-8.1,9.11-12.19,5.9-8.24,8.77-12.42,5.68-8.4,8.43-12.64,5.44-8.52,8.06-12.81,5.17-8.61,7.66-12.94,4.93-8.74,7.32-13.16,4.69-8.87,7-13.34,4.44-9,6.56-13.48,4.18-9,6.16-13.56,3.93-9.15,5.81-13.78,3.68-9.26,5.42-13.92,3.42-9.33,5-14,3.15-9.38,4.62-14.07,2.9-9.5,4.25-14.28,2.64-9.58,3.86-14.39,2.37-9.63,3.45-14.46,2.09-9.64,3-14.46,1.84-9.76,2.66-14.68,1.57-9.82,2.25-14.75,1.3-9.85,1.85-14.78,1-9.84,1.43-14.75.76-10,1-15,.48-10,.62-15,.21-10,.21-15-.06-10-.19-14.95-.35-10.09-.62-15.15-.62-10.11-1-15.17S970.28,8,969.73,2.93s-1.16-10-1.84-15-1.43-10-2.25-15S963.94-37,963-42s-2-9.89-3-14.8-2.2-9.78-3.4-14.63-2.42-9.54-3.73-14.3-2.68-9.5-4.11-14.22-2.91-9.41-4.46-14.08-3.15-9.3-4.81-13.91-3.33-9.07-5.09-13.58-3.57-9-5.44-13.48-3.79-8.92-5.77-13.34-4-8.79-6.08-13.13-4.17-8.58-6.34-12.84-4.38-8.49-6.66-12.71-4.59-8.39-7-12.55-4.79-8.26-7.25-12.33S884.94-240,882.39-244s-5.13-8-7.77-11.91-5.32-7.85-8-11.72-5.49-7.71-8.3-11.51-5.62-7.51-8.51-11.23S844-297.74,841-301.4s-6-7.28-9-10.87-6.13-7.13-9.25-10.64-6.25-6.94-9.45-10.38-6.43-6.83-9.7-10.2-6.59-6.7-9.93-10-6.71-6.54-10.12-9.74-6.82-6.36-10.3-9.5-7-6.23-10.54-9.3-7.12-6.09-10.73-9.07S744.68-397,741-399.91s-7.35-5.75-11.08-8.58-7.5-5.62-11.29-8.37S711-422.32,707.19-425s-7.7-5.28-11.59-7.86-7.82-5.12-11.78-7.63-8-5-12-7.4-8.06-4.81-12.12-7.15-8.13-4.63-12.22-6.88-8.24-4.46-12.42-6.64-8.36-4.31-12.58-6.4-8.45-4.14-12.7-6.14-8.52-4-12.79-5.86-8.63-3.79-13-5.62-8.73-3.62-13.13-5.36-8.81-3.45-13.23-5.1-8.86-3.24-13.29-4.79-9-3.09-13.51-4.57-9.07-2.9-13.63-4.28-9.13-2.72-13.71-4-9.16-2.52-13.74-3.71-9.29-2.35-14-3.45S466.46-530,461.75-531s-9.42-2-14.13-2.88-9.44-1.76-14.15-2.57-9.57-1.58-14.38-2.3-9.64-1.39-14.48-2-9.67-1.18-14.51-1.7-9.68-1-14.51-1.39-9.82-.78-14.76-1.1-9.88-.57-14.83-.78-9.91-.37-14.86-.48-9.9-.15-14.84-.15-9.88,0-14.82.15-9.89.27-14.83.48-9.87.47-14.78.78-9.82.68-14.69,1.1-9.61.88-14.42,1.39-9.61,1.09-14.41,1.7-9.58,1.29-14.35,2-9.51,1.48-14.23,2.3-9.33,1.66-14,2.57S176.47-532,171.83-531s-9.27,2.07-13.88,3.17-9.19,2.26-13.75,3.45-9,2.43-13.5,3.71-9,2.62-13.46,4-8.93,2.81-13.36,4.28-8.84,3-13.21,4.57-8.67,3.15-13,4.79-8.63,3.35-12.91,5.1-8.56,3.53-12.8,5.36-8.46,3.71-12.63,5.62-8.3,3.86-12.42,5.86-8.23,4-12.32,6.14-8.15,4.22-12.18,6.4-8,4.39-12,6.64-7.88,4.54-11.79,6.88-7.8,4.72-11.67,7.15-7.7,4.9-11.5,7.4-7.57,5.05-11.3,7.63-7.42,5.2-11.1,7.86-7.33,5.38-10.95,8.13-7.21,5.54-10.76,8.37-7.07,5.69-10.54,8.58-6.92,5.84-10.33,8.82-6.81,6-10.17,9.07-6.67,6.17-9.95,9.3-6.51,6.31-9.7,9.5-6.37,6.45-9.5,9.74-6.24,6.63-9.3,10-6.09,6.77-9.06,10.2-5.91,6.9-8.79,10.38-5.76,7.06-8.59,10.64-5.61,7.22-8.35,10.87-5.44,7.36-8.08,11.07-5.25,7.47-7.8,11.23-5.09,7.64-7.57,11.51-4.92,7.78-7.31,11.72-4.74,7.92-7,11.91-4.53,8-6.71,12.05-4.36,8.19-6.46,12.33-4.17,8.34-6.18,12.55-4,8.45-5.86,12.71-3.74,8.54-5.52,12.84-3.56,8.72-5.25,13.13-3.35,8.87-4.94,13.34-3.12,9-4.59,13.48-2.88,9.05-4.23,13.58-2.68,9.24-3.93,13.91-2.44,9.37-3.57,14.08-2.21,9.47-3.21,14.22-1.95,9.53-2.83,14.3-1.72,9.73-2.48,14.63-1.47,9.85-2.1,14.8-1.2,9.93-1.71,14.91-.93,10-1.3,15-.66,10-.89,15.05-.4,10.08-.49,15.13-.12,10.12-.08,15.17.16,10.12.34,15.15.43,10,.75,14.95.7,10,1.16,15,1,10,1.57,15,1.25,10,2,15,1.5,9.83,2.36,14.75,1.79,9.86,2.78,14.78,2.06,9.85,3.18,14.75,2.33,9.81,3.59,14.68,2.56,9.64,3.95,14.46,2.84,9.65,4.37,14.46,3.11,9.61,4.76,14.39,3.37,9.55,5.15,14.28,3.6,9.39,5.51,14.07,3.87,9.36,5.91,14,4.14,9.31,6.3,13.92,4.39,9.22,6.68,13.78,4.61,9.06,7,13.56,4.88,9,7.42,13.48,5.13,8.92,7.79,13.34,5.38,8.81,8.15,13.16,5.58,8.64,8.47,12.94,5.85,8.57,8.87,12.81,6.1,8.46,9.23,12.64,6.32,8.32,9.55,12.42,6.53,8.15,9.88,12.19,6.78,8.05,10.26,12,7,7.92,10.59,11.82,7.22,7.75,10.9,11.55,7.42,7.59,11.22,11.33,7.67,7.45,11.58,11.11,7.88,7.29,11.88,10.86,8.07,7.1,12.16,10.57,8.27,6.92,12.49,10.32,8.5,6.76,12.82,10.07,8.69,6.57,13.09,9.78S-40.48,513-36,516.07s9.06,6.18,13.66,9.19,9.27,6,14,8.9,9.44,5.77,14.21,8.57,9.58,5.54,14.41,8.22S30,556.28,35,558.87s10,5.12,15,7.59,10.12,4.89,15.22,7.24,10.24,4.63,15.39,6.85,10.44,4.41,15.72,6.53,10.6,4.17,16,6.16S123,597.16,128.41,599s10.81,3.64,16.24,5.36,11,3.4,16.57,5S172.37,612.53,178,614s11.25,2.87,16.89,4.19,11.31,2.58,17,3.76,11.5,2.32,17.29,3.37,11.62,2,17.45,2.94,11.69,1.74,17.54,2.49,11.71,1.44,17.56,2,11.9,1.15,17.88,1.62,12,.85,18,1.15,12,.55,18,.7,12,.24,18,.24m0,1A690.74,690.74,0,0,1,80.21,581.5C-2.51,545.9-75.62,495.05-135.32,433.28-193.9,372.67-239.17,302-268,225.22a556.65,556.65,0,0,1-34.5-237.34,545.09,545.09,0,0,1,64.29-220.1C-203.37-296.7-156-353.55-99.77-400.44a625.79,625.79,0,0,1,190.11-108c69.74-24.92,145.92-38.6,225.94-38.6a691.92,691.92,0,0,1,228.38,38.6A677.57,677.57,0,0,1,741.58-400.44c59.24,46.89,110.15,103.74,149.07,168.22,39.8,65.93,67.26,140.15,78.17,220.1C980,70,972.72,150.32,949.29,225.22c-24,76.73-64.8,147.45-119.56,208.06C773.92,495.05,704,545.9,623.55,581.5,542.2,617.49,450.82,637.56,353.65,637.56Z" transform="translate(718.42 547.09)"/></g><g id="Ellipse_11" data-name="Ellipse 11"><path class="cls-4" d="M297.24-530.63A691.12,691.12,0,0,1,526.17-491.8,676.51,676.51,0,0,1,723.34-383.09c59.26,47.18,110.15,104.38,149,169.26A578.86,578.86,0,0,1,950.06,7.69a550.87,550.87,0,0,1-20.33,238.93c-24.32,77.25-65.49,148.46-120.63,209.5-56.2,62.2-126.51,113.41-207.39,149.27C520,641.64,428.17,661.85,330.64,661.85A689.65,689.65,0,0,1,56.42,605.39c-82.89-35.86-156.07-87.07-215.75-149.27-58.57-61-103.73-132.25-132.38-209.51A561.13,561.13,0,0,1-325.42,7.69,551.47,551.47,0,0,1-260.1-213.83c35.21-64.87,82.89-122.08,139.51-169.26A630.19,630.19,0,0,1,70.49-491.8C140.52-516.86,217-530.63,297.24-530.63Z" transform="translate(718.42 547.09)"/><path class="cls-2" d="M330.61,660.79q9,0,18.07-.23t18.05-.71q9-.47,18-1.16t17.85-1.63q8.76-.91,17.51-2.06t17.45-2.52q8.7-1.37,17.33-3T472,646.13q8.42-1.78,16.8-3.79t16.71-4.22q8.31-2.22,16.55-4.64t16.33-5.05q8-2.59,16-5.4t15.84-5.81q7.86-3,15.64-6.21t15.38-6.58q7.54-3.34,15-6.9t14.84-7.29q7.36-3.74,14.61-7.64t14.33-8q7-4,14-8.27t13.74-8.63q6.81-4.4,13.48-9t13.17-9.26q6.45-4.66,12.81-9.52t12.56-9.85Q746,515.13,752,510t11.91-10.39q5.85-5.25,11.57-10.65T786.78,478q5.57-5.53,11-11.2t10.59-11.4q5.19-5.75,10.23-11.63t9.92-11.9q4.88-6,9.57-12.11t9.19-12.28q4.5-6.18,8.84-12.5t8.5-12.73q4.15-6.4,8.12-12.9t7.73-13q3.78-6.57,7.38-13.25t7-13.43q3.4-6.75,6.63-13.57t6.22-13.66q3-6.89,5.87-13.87t5.49-14q2.64-7,5.09-14.11t4.67-14.17q2.25-7.14,4.31-14.38T937,217.38q1.86-7.26,3.51-14.55t3.09-14.56q1.46-7.35,2.72-14.77t2.3-14.85q1.07-7.44,1.9-14.88T952,128.91q.65-7.5,1.08-15.06t.67-15.11q.24-7.55.26-15.1t-.15-15q-.18-7.61-.57-15.25c-.26-5.08-.59-10.18-1-15.27s-.86-10.16-1.4-15.23-1.13-10.12-1.8-15.15-1.41-10.06-2.21-15.08-1.67-10-2.61-15-1.93-10-3-14.89S939.13-47.14,938-52s-2.4-9.6-3.7-14.39-2.66-9.56-4.08-14.31-2.89-9.47-4.43-14.18-3.13-9.36-4.78-14-3.31-9.13-5.06-13.67-3.55-9.07-5.42-13.57-3.78-9-5.75-13.42-4-8.85-6.06-13.22-4.15-8.62-6.31-12.91-4.38-8.55-6.64-12.8-4.59-8.44-7-12.62-4.78-8.31-7.23-12.42-4.92-8.1-7.46-12.12-5.12-8-7.76-12-5.31-7.9-8-11.8S842.8-257.18,840-261s-5.62-7.55-8.5-11.3-5.81-7.45-8.78-11.14-6-7.33-9-10.94-6.13-7.17-9.25-10.7-6.24-7-9.44-10.45-6.43-6.87-9.7-10.26-6.58-6.74-9.93-10-6.71-6.58-10.11-9.8S758.43-352,755-355.2s-7-6.27-10.54-9.36-7.13-6.12-10.74-9.13-7.24-6-10.89-8.87-7.36-5.79-11.09-8.63-7.5-5.65-11.3-8.42-7.62-5.49-11.47-8.18-7.71-5.32-11.6-7.91-7.83-5.15-11.79-7.68-8-5-12-7.44-8.06-4.84-12.13-7.2-8.14-4.65-12.23-6.91-8.26-4.5-12.43-6.69-8.38-4.33-12.6-6.44-8.47-4.16-12.73-6.17-8.52-4-12.8-5.89-8.65-3.82-13-5.66-8.75-3.64-13.16-5.4-8.82-3.46-13.25-5.12-8.87-3.27-13.32-4.83-9-3.1-13.53-4.59-9.08-2.92-13.65-4.31-9.15-2.74-13.74-4-9.18-2.54-13.77-3.73-9.31-2.36-14-3.47-9.39-2.18-14.1-3.19-9.44-2-14.17-2.9-9.45-1.77-14.18-2.58-9.59-1.6-14.42-2.32-9.66-1.4-14.51-2-9.7-1.19-14.55-1.71-9.7-1-14.55-1.4-9.85-.79-14.79-1.1-9.91-.58-14.88-.79-9.93-.37-14.9-.48-9.93-.16-14.88-.16-9.91,0-14.87.16-9.92.27-14.87.48-9.9.47-14.83.79-9.85.68-14.74,1.1-9.64.88-14.47,1.4-9.64,1.09-14.45,1.71-9.62,1.3-14.4,2-9.55,1.49-14.29,2.32-9.36,1.67-14,2.58-9.34,1.88-14,2.9-9.3,2.07-13.93,3.19-9.23,2.27-13.8,3.47-9,2.44-13.56,3.73-9,2.64-13.51,4-9,2.83-13.42,4.31-8.87,3-13.27,4.59-8.7,3.17-13,4.83-8.67,3.37-13,5.12-8.6,3.56-12.85,5.4-8.5,3.73-12.7,5.66-8.33,3.87-12.47,5.89-8.27,4.07-12.38,6.17-8.19,4.25-12.24,6.44-8.07,4.42-12,6.69-7.92,4.56-11.85,6.91-7.85,4.76-11.73,7.2-7.74,4.92-11.56,7.44-7.62,5.09-11.37,7.68-7.46,5.23-11.16,7.91-7.37,5.41-11,8.18-7.25,5.58-10.83,8.42-7.11,5.72-10.6,8.63-7,5.87-10.4,8.87-6.85,6.05-10.23,9.13-6.71,6.21-10,9.36-6.56,6.34-9.77,9.56-6.41,6.49-9.57,9.8-6.28,6.66-9.36,10-6.13,6.81-9.13,10.26-5.95,6.94-8.86,10.45-5.8,7.1-8.64,10.7-5.66,7.26-8.42,10.94-5.49,7.4-8.16,11.14-5.29,7.52-7.86,11.3-5.13,7.68-7.64,11.58-5,7.83-7.38,11.8-4.78,8-7.09,12-4.57,8.07-6.77,12.12-4.41,8.25-6.53,12.42-4.22,8.39-6.24,12.62-4,8.51-5.93,12.8-3.79,8.59-5.59,12.91-3.6,8.78-5.32,13.22-3.39,8.92-5,13.42-3.16,9-4.66,13.57-2.92,9.1-4.29,13.67-2.72,9.3-4,14-2.48,9.43-3.64,14.18-2.24,9.53-3.27,14.31-2,9.59-2.89,14.39-1.76,9.79-2.55,14.73-1.5,9.91-2.16,14.89-1.24,10-1.77,15-1,10.05-1.36,15.08-.7,10.08-.95,15.15S-325.88,33-326,38.07s-.16,10.19-.13,15.27.11,10.18.28,15.25.39,10,.69,15,.67,10.07,1.11,15.1.94,10.08,1.52,15.11,1.21,10.06,1.92,15.06,1.48,9.9,2.32,14.86,1.75,9.92,2.73,14.88,2,9.91,3.14,14.85,2.3,9.87,3.54,14.77,2.54,9.71,3.91,14.56,2.82,9.71,4.33,14.55,3.08,9.68,4.72,14.49,3.35,9.62,5.12,14.38,3.58,9.45,5.47,14.17,3.85,9.42,5.88,14.11,4.12,9.37,6.27,14,4.37,9.28,6.65,13.87,4.59,9.12,7,13.66,4.86,9.07,7.39,13.57,5.12,9,7.77,13.43,5.36,8.87,8.12,13.25,5.57,8.71,8.46,13,5.84,8.63,8.85,12.9,6.08,8.52,9.21,12.73,6.31,8.38,9.54,12.5,6.52,8.22,9.87,12.28,6.78,8.11,10.25,12.11,7,8,10.59,11.9,7.21,7.8,10.89,11.63,7.42,7.64,11.22,11.4,7.66,7.51,11.57,11.2,7.88,7.34,11.89,10.93,8.07,7.15,12.16,10.65,8.28,7,12.5,10.39,8.5,6.81,12.82,10.14,8.7,6.62,13.11,9.85,8.86,6.41,13.34,9.52,9.07,6.22,13.69,9.26,9.27,6,14,9,9.45,5.81,14.23,8.63,9.6,5.58,14.43,8.27,9.8,5.38,14.77,8,10,5.15,15,7.64,10.14,4.93,15.26,7.29,10.25,4.67,15.41,6.9,10.46,4.45,15.75,6.58,10.63,4.2,16,6.21,10.75,3.94,16.16,5.81,10.84,3.67,16.27,5.4,11.05,3.43,16.62,5.05,11.18,3.16,16.81,4.64,11.28,2.89,16.94,4.22,11.34,2.6,17,3.79,11.54,2.33,17.35,3.39,11.65,2.05,17.51,3S235,654.24,240.83,655s11.74,1.45,17.61,2.06,11.94,1.16,17.95,1.63,12,.85,18.05,1.16,12.07.55,18.1.71,12.06.23,18.07.23m0,1.06A689.62,689.62,0,0,1,56.42,605.39c-82.89-35.86-156.08-87.07-215.75-149.27-58.57-61-103.73-132.25-132.38-209.51A561.08,561.08,0,0,1-325.42,7.69,551.57,551.57,0,0,1-260.1-213.83c35.21-64.88,82.89-122.08,139.51-169.26A630.17,630.17,0,0,1,70.49-491.8c70-25.06,146.49-38.83,226.75-38.83A691.2,691.2,0,0,1,526.17-491.8,676.49,676.49,0,0,1,723.34-383.09c59.26,47.18,110.15,104.38,149,169.26A578.82,578.82,0,0,1,950.06,7.69a550.69,550.69,0,0,1-20.33,238.92c-24.32,77.26-65.49,148.47-120.63,209.51-56.2,62.2-126.51,113.41-207.39,149.27C520,641.64,428.17,661.85,330.64,661.85Z" transform="translate(718.42 547.09)"/></g><g id="Ellipse_12" data-name="Ellipse 12"><path class="cls-5" d="M266.23,225.64a700.19,700.19,0,0,1,260.18,50.2c82.06,32.75,158.22,80.74,224.9,141.05A809.56,809.56,0,0,1,922.92,638a846.57,846.57,0,0,1,91.73,292.24c13.7,109.87,6,217.8-20.61,318.85-27.32,103.92-74.41,200.06-138,282.75-65,84.52-146.83,154.31-241.23,203.29a685.61,685.61,0,0,1-317.25,77.3c-114.2,0-222.75-27.7-320.3-77.3-96.33-49-180.88-118.77-249.25-203.29A833,833,0,0,1-421.2,1249.12a851,851,0,0,1-33.19-318.85c9.07-106.53,37.41-205,80.2-292.24,41.7-85,97.37-159.69,162.89-221.14C-147,356.58-72.73,308.59,8,275.84A684.92,684.92,0,0,1,266.23,225.64Z" transform="translate(718.42 547.09)"/><path class="cls-2" d="M297.5,1811q10.56,0,21.15-.32t21.15-1q10.56-.63,21.06-1.6t20.91-2.23q10.25-1.25,20.49-2.82t20.44-3.45q10.19-1.87,20.3-4t20.09-4.65q9.86-2.45,19.67-5.19t19.55-5.78q9.74-3,19.37-6.36t19.11-6.91q9.36-3.54,18.68-7.38t18.51-8q9.19-4.11,18.28-8.49t18-9q8.82-4.56,17.55-9.42t17.33-10q8.6-5.1,17-10.44t16.71-10.9q8.19-5.52,16.28-11.29t16-11.77q7.94-6,15.7-12.22t15.31-12.61q7.52-6.37,14.9-13t14.59-13.41q7.2-6.81,14.23-13.8t13.82-14.14q6.78-7.12,13.41-14.47t13.06-14.86q6.43-7.51,12.67-15.2t12.23-15.47q6-7.79,11.83-15.78T878.36,1499q5.63-8.13,11-16.4T900,1466q5.17-8.37,10.17-16.92t9.75-17.21q4.77-8.65,9.32-17.43t8.84-17.59q4.32-8.86,8.44-17.88t8-18.12q3.88-9.09,7.54-18.28t7.07-18.39q3.43-9.27,6.66-18.67t6.2-18.86q3-9.45,5.74-19t5.25-19q2.52-9.59,4.82-19.29t4.36-19.44q2.07-9.72,3.89-19.5t3.4-19.5q1.61-9.84,3-19.76t2.49-19.86q1.13-9.93,2-19.88t1.53-19.83q.66-10,1.07-20.1t.59-20.14q.16-10.07.11-20.12t-.36-20q-.3-10.11-.85-20.28t-1.33-20.3q-.78-10.12-1.8-20.23t-2.26-20.1q-1.25-10-2.73-20t-3.18-19.89q-1.7-9.9-3.63-19.72t-4-19.49q-2.1-9.52-4.42-19t-4.85-18.9q-2.54-9.4-5.26-18.71t-5.65-18.47c-1.91-6-3.91-12-6-18s-4.18-11.95-6.37-17.88-4.44-11.81-6.75-17.66-4.67-11.65-7.09-17.4-4.85-11.35-7.38-17-5.1-11.23-7.74-16.8-5.34-11.1-8.1-16.58-5.55-10.92-8.4-16.3-5.71-10.63-8.66-15.9-5.94-10.51-9-15.71-6.15-10.34-9.31-15.45-6.35-10.16-9.59-15.16-6.48-9.89-9.81-14.79-6.71-9.75-10.14-14.57-6.9-9.58-10.41-14.3-7.07-9.37-10.66-14-7.2-9.13-10.87-13.64-7.4-9-11.16-13.39-7.57-8.79-11.41-13.11-7.72-8.58-11.62-12.78-7.84-8.35-11.83-12.46-8-8.17-12.09-12.19-8.17-8-12.31-11.88-8.29-7.76-12.48-11.55-8.41-7.53-12.69-11.23-8.58-7.34-12.92-10.94-8.72-7.14-13.12-10.63-8.82-6.91-13.26-10.28-8.94-6.69-13.47-10-9.09-6.5-13.68-9.67-9.21-6.28-13.85-9.33-9.28-6-13.95-9-9.42-5.84-14.18-8.68-9.55-5.62-14.36-8.35-9.65-5.39-14.5-8-9.71-5.15-14.58-7.63-9.85-4.94-14.82-7.33-10-4.71-15-7-10.05-4.48-15.09-6.63-10.09-4.23-15.15-6.25-10.23-4-15.39-5.93-10.33-3.78-15.53-5.58-10.4-3.54-15.61-5.22-10.44-3.28-15.66-4.82-10.58-3.05-15.91-4.49-10.67-2.81-16-4.12-10.73-2.56-16.1-3.74-10.74-2.3-16.11-3.35-10.9-2.06-16.38-3-11-1.8-16.49-2.61-11-1.54-16.54-2.21-11-1.27-16.52-1.8-11.19-1-16.82-1.43-11.25-.75-16.9-1-11.29-.48-16.93-.62-11.28-.2-16.91-.2-11.26.06-16.9.2-11.28.34-16.91.62-11.25.61-16.86,1-11.19.88-16.75,1.43-11,1.13-16.46,1.8-11,1.41-16.45,2.21-10.94,1.68-16.38,2.61-10.87,1.93-16.27,3-10.65,2.17-16,3.35-10.64,2.43-16,3.74-10.6,2.68-15.87,4.12S75,253.59,69.74,255.15,59.42,258.3,54.28,260s-10.3,3.42-15.42,5.22-10.23,3.66-15.31,5.58-10.13,3.9-15.15,5.93-10,4.11-14.9,6.25-9.91,4.36-14.83,6.63-9.83,4.61-14.7,7-9.72,4.83-14.52,7.33-9.54,5-14.29,7.63-9.48,5.28-14.18,8-9.39,5.52-14,8.35-9.26,5.74-13.84,8.68-9.09,5.92-13.6,9-9,6.17-13.47,9.33-8.91,6.4-13.3,9.67-8.77,6.6-13.08,10-8.6,6.79-12.86,10.28-8.49,7-12.69,10.63-8.37,7.25-12.5,10.94-8.21,7.45-12.24,11.23-8.05,7.64-12,11.55S-230.59,437-234.5,441s-7.78,8.09-11.61,12.19-7.61,8.27-11.33,12.46-7.45,8.46-11.12,12.78-7.3,8.69-10.89,13.11-7.14,8.89-10.63,13.39S-297,514-300.42,518.58s-6.78,9.27-10.1,14-6.62,9.49-9.85,14.3-6.43,9.68-9.56,14.57-6.22,9.83-9.24,14.79-6,10.06-9,15.16-5.85,10.26-8.7,15.45-5.65,10.44-8.38,15.71-5.42,10.58-8,15.9-5.23,10.82-7.76,16.3-5,11-7.44,16.58-4.79,11.17-7.08,16.8-4.54,11.31-6.71,17-4.33,11.55-6.41,17.4-4.09,11.74-6.05,17.66-3.84,11.9-5.66,17.88-3.58,12-5.26,18-3.34,12.27-4.91,18.47-3.09,12.44-4.52,18.71-2.81,12.58-4.11,18.9-2.52,12.68-3.67,19-2.26,13-3.28,19.49-2,13.12-2.85,19.72-1.68,13.25-2.4,19.89-1.37,13.32-1.94,20-1.06,13.38-1.47,20.1-.75,13.48-1,20.23-.43,13.54-.53,20.3-.11,13.54-.05,20.28.21,13.34.43,20,.53,13.41.91,20.12.84,13.44,1.38,20.14,1.16,13.42,1.86,20.1,1.46,13.21,2.31,19.83,1.79,13.26,2.8,19.88,2.1,13.25,3.27,19.86,2.41,13.2,3.74,19.76,2.7,13,4.17,19.5,3,13,4.66,19.5,3.34,13,5.12,19.44,3.65,12.9,5.59,19.29,3.92,12.69,6,19,4.25,12.67,6.49,19,4.56,12.61,6.94,18.86,4.86,12.49,7.39,18.67,5.12,12.28,7.8,18.39,5.44,12.22,8.27,18.28,5.74,12.12,8.72,18.12,6,12,9.14,17.88,6.28,11.76,9.54,17.59,6.6,11.66,10,17.43,6.89,11.53,10.44,17.21,7.16,11.34,10.83,16.92,7.41,11.12,11.23,16.63,7.71,11,11.67,16.4,8,10.81,12.08,16.13,8.25,10.59,12.45,15.78,8.49,10.36,12.84,15.47,8.79,10.19,13.27,15.2,9.05,10,13.65,14.86,9.27,9.72,14,14.47,9.52,9.48,14.38,14.14,9.79,9.26,14.77,13.8,10,9,15.12,13.41,10.23,8.72,15.41,13,10.48,8.47,15.81,12.61,10.74,8.22,16.18,12.22,11,7.93,16.48,11.77,11.12,7.61,16.73,11.29,11.37,7.34,17.14,10.9,11.59,7,17.46,10.44,11.78,6.73,17.72,10,11.93,6.38,17.92,9.42,12.17,6.08,18.33,9,12.37,5.75,18.62,8.49,12.52,5.4,18.82,8,12.64,5,19,7.38,12.87,4.7,19.38,6.91,13.05,4.34,19.61,6.36,13.17,4,19.79,5.78,13.24,3.56,19.87,5.19,13.48,3.2,20.27,4.65,13.62,2.8,20.46,4,13.71,2.4,20.57,3.45,13.74,2,20.61,2.82,14,1.6,21,2.23,14.08,1.18,21.13,1.6,14.13.75,21.19,1,14.12.32,21.16.32m0,1.45c-114.2,0-222.75-27.7-320.3-77.29-96.33-49-180.88-118.77-249.25-203.29A833,833,0,0,1-421.2,1249.12a851.07,851.07,0,0,1-33.19-318.85c9.07-106.53,37.41-205,80.2-292.24,41.71-85,97.37-159.69,162.89-221.14C-147,356.58-72.73,308.59,8,275.84a685,685,0,0,1,258.19-50.2,700.22,700.22,0,0,1,260.18,50.2c82.06,32.75,158.22,80.74,224.9,141.05A809.56,809.56,0,0,1,922.92,638a846.4,846.4,0,0,1,91.73,292.24c13.7,109.87,6,217.8-20.61,318.85-27.32,103.92-74.41,200.06-138,282.75-65,84.52-146.83,154.31-241.23,203.29A685.64,685.64,0,0,1,297.53,1812.45Z" transform="translate(718.42 547.09)"/></g><g id="Ellipse_10" data-name="Ellipse 10"><path class="cls-6" d="M-37.57-377.18c82.48,0,161,14.54,232.9,41A641.3,641.3,0,0,1,391.48-221.25,611.38,611.38,0,0,1,534.68-42.06a597.39,597.39,0,0,1,66.94,235,613.94,613.94,0,0,1-35.1,254c-29.68,82.26-76.43,158.14-137,223.23a692.79,692.79,0,0,1-507,219.67c-100.83,0-195.6-21.6-279.89-60.33A630.51,630.51,0,0,1-570.69,670.14,603,603,0,0,1-693.64,446.91c-23.89-80.24-31.06-166.21-19.08-254a630.27,630.27,0,0,1,81.77-235,670.33,670.33,0,0,1,154.5-179.19A694.71,694.71,0,0,1-37.57-377.18Z" transform="translate(718.42 547.09)"/><path class="cls-2" d="M-77.49,888.68q9.33,0,18.69-.25c6.23-.17,12.48-.42,18.71-.75s12.46-.75,18.67-1.25,12.4-1.08,18.56-1.74,12.14-1.39,18.22-2.2,12.14-1.72,18.2-2.69,12.09-2,18.1-3.17,12-2.34,18-3.62,11.74-2.62,17.6-4,11.71-2.93,17.53-4.51,11.63-3.24,17.4-5,11.5-3.53,17.19-5.39,11.25-3.78,16.85-5.77,11.17-4.07,16.72-6.22,11.06-4.35,16.54-6.63,10.92-4.62,16.31-7,10.65-4.84,15.95-7.37,10.56-5.12,15.79-7.78,10.42-5.38,15.56-8.17,10.25-5.62,15.29-8.52,10-5.82,14.94-8.84,9.86-6.08,14.73-9.21,9.7-6.33,14.48-9.57,9.49-6.54,14.16-9.88,9.24-6.71,13.81-10.17,9.09-7,13.57-10.51,8.9-7.17,13.27-10.82,8.69-7.36,12.94-11.1,8.43-7.51,12.59-11.35,8.25-7.73,12.3-11.67,8.05-7.92,12-11.94,7.81-8.07,11.62-12.16S436.29,661.16,440,657s7.36-8.41,11-12.68,7.13-8.58,10.61-12.92,6.87-8.7,10.21-13.09,6.64-8.84,9.88-13.33,6.41-9,9.53-13.56,6.18-9.14,9.16-13.75,5.91-9.24,8.76-13.89,5.66-9.37,8.41-14.11,5.42-9.52,8-14.32,5.17-9.61,7.65-14.45,4.9-9.68,7.24-14.54,4.65-9.82,6.88-14.77,4.39-9.93,6.49-14.93,4.13-10,6.09-15,3.85-10.05,5.67-15.08,3.59-10.17,5.29-15.3,3.34-10.26,4.9-15.42,3.06-10.32,4.49-15.49,2.77-10.32,4-15.49,2.51-10.45,3.67-15.71,2.24-10.52,3.26-15.8,2-10.54,2.84-15.82,1.68-10.53,2.41-15.79,1.41-10.66,2-16,1.12-10.7,1.58-16.06.85-10.71,1.16-16.06.56-10.67.74-16,.28-10.79.31-16.21,0-10.81-.12-16.22-.29-10.79-.54-16.18-.58-10.74-1-16.08-.85-10.68-1.38-16-1.13-10.64-1.8-15.93-1.41-10.57-2.21-15.81-1.67-10.46-2.6-15.64-1.91-10.19-3-15.27-2.17-10.14-3.35-15.18-2.42-10-3.73-15-2.67-9.93-4.09-14.84-2.88-9.68-4.41-14.5-3.12-9.61-4.77-14.39-3.36-9.51-5.13-14.22-3.58-9.38-5.46-14S555,2.91,553-1.64,549-10.7,547-15.2s-4.22-8.95-6.41-13.38-4.42-8.81-6.7-13.15-4.58-8.59-7-12.85-4.8-8.49-7.28-12.69-5-8.36-7.57-12.5S506.86-88,504.21-92s-5.33-8-8.07-12-5.54-7.9-8.37-11.8-5.72-7.76-8.64-11.58-5.88-7.6-8.88-11.33-6-7.4-9.09-11.06S455-157,451.79-160.62s-6.37-7.13-9.61-10.64-6.52-7-9.82-10.37-6.64-6.77-10-10.11-6.82-6.64-10.28-9.9-7-6.48-10.5-9.66-7.09-6.3-10.68-9.38-7.21-6.12-10.88-9.13-7.37-6-11.11-8.91-7.51-5.81-11.3-8.64S350-253,346.12-255.73s-7.74-5.45-11.66-8.12-7.89-5.29-11.87-7.87-8-5.12-12-7.6-8.09-4.93-12.16-7.31-8.22-4.76-12.38-7.07-8.35-4.58-12.57-6.81-8.45-4.4-12.7-6.53-8.53-4.2-12.81-6.22-8.65-4-13-6-8.77-3.85-13.19-5.7-8.86-3.66-13.32-5.41-8.92-3.46-13.39-5.11-9.06-3.27-13.63-4.84-9.16-3.09-13.77-4.56-9.23-2.89-13.87-4.26-9.28-2.68-13.93-3.94-9.42-2.49-14.17-3.67-9.52-2.3-14.3-3.37-9.58-2.09-14.38-3-9.61-1.88-14.42-2.74-9.76-1.68-14.67-2.44-9.85-1.48-14.79-2.13-9.9-1.26-14.85-1.81-9.92-1-14.87-1.48-10.07-.83-15.14-1.16-10.14-.62-15.23-.84-10.19-.39-15.29-.5-10.19-.17-15.28-.17-10.19.05-15.29.17-10.21.28-15.32.5-10.2.5-15.29.84-10.16.72-15.21,1.16-10,.93-15,1.48-10,1.15-15,1.81-10,1.36-14.93,2.13-9.9,1.58-14.83,2.44-9.72,1.77-14.58,2.74-9.73,2-14.58,3-9.69,2.2-14.51,3.37-9.63,2.4-14.41,3.67-9.45,2.58-14.17,3.94-9.44,2.79-14.14,4.26-9.4,3-14.06,4.56-9.32,3.18-13.94,4.84-9.15,3.35-13.71,5.11-9.12,3.55-13.65,5.41-9.06,3.75-13.56,5.7-9,3.94-13.41,6-8.81,4.1-13.2,6.22-8.76,4.31-13.11,6.53-8.69,4.5-13,6.81-8.58,4.67-12.82,7.07-8.43,4.82-12.62,7.31-8.37,5-12.52,7.6-8.28,5.21-12.37,7.87-8.15,5.38-12.17,8.12-8,5.53-12,8.37-7.92,5.72-11.85,8.64-7.81,5.9-11.67,8.91-7.68,6.05-11.46,9.13-7.54,6.21-11.27,9.38-7.43,6.4-11.1,9.66-7.31,6.57-10.91,9.9-7.15,6.71-10.66,10.11-7,6.87-10.48,10.37-6.89,7.06-10.28,10.64-6.75,7.21-10,10.86-6.58,7.35-9.79,11.06-6.44,7.51-9.6,11.33-6.29,7.69-9.37,11.58-6.12,7.84-9.11,11.8-5.94,7.95-8.83,12-5.78,8.14-8.61,12.26-5.62,8.3-8.36,12.5-5.44,8.44-8.08,12.69-5.23,8.55-7.76,12.85-5.07,8.73-7.54,13.15-4.88,8.89-7.24,13.38-4.68,9-6.94,13.56-4.46,9.11-6.6,13.69-4.28,9.31-6.34,14-4.07,9.46-6,14.22-3.85,9.58-5.69,14.39-3.61,9.66-5.32,14.5-3.41,9.86-5,14.84-3.19,10-4.68,15-2.94,10.11-4.31,15.18-2.68,10.18-3.92,15.27-2.46,10.4-3.59,15.64-2.2,10.52-3.21,15.81-1.93,10.61-2.8,15.93-1.67,10.67-2.4,16-1.38,10.71-2,16.08-1.12,10.79-1.57,16.18-.83,10.82-1.14,16.22-.55,10.82-.71,16.21-.25,10.65-.27,16,0,10.71.14,16.06.32,10.71.58,16.06.59,10.69,1,16,.87,10.52,1.41,15.79,1.15,10.55,1.84,15.82,1.44,10.55,2.26,15.8,1.72,10.5,2.68,15.71,2,10.33,3.08,15.49,2.27,10.34,3.5,15.49,2.55,10.3,3.93,15.42,2.82,10.23,4.33,15.3,3.07,10.06,4.72,15.08,3.36,10,5.14,15,3.63,10,5.55,14.93,3.9,9.88,6,14.77,4.14,9.71,6.32,14.54,4.42,9.66,6.74,14.45,4.69,9.58,7.14,14.32,5,9.45,7.51,14.11,5.19,9.28,7.88,13.89,5.47,9.19,8.3,13.75,5.72,9.08,8.67,13.56,6,8.94,9,13.33,6.19,8.76,9.39,13.09,6.47,8.65,9.79,12.92,6.72,8.5,10.16,12.68,7,8.33,10.49,12.42,7.17,8.14,10.85,12.16,7.43,8,11.23,11.94,7.66,7.83,11.57,11.67,7.87,7.63,11.87,11.35,8.1,7.44,12.23,11.1,8.34,7.26,12.59,10.82,8.56,7.07,12.91,10.51,8.74,6.85,13.17,10.17,9,6.64,13.54,9.88,9.2,6.43,13.87,9.57,9.39,6.2,14.15,9.21,9.56,6,14.38,8.84,9.78,5.74,14.75,8.52,10,5.51,15,8.17,10.17,5.26,15.3,7.78,10.3,5,15.49,7.37,10.53,4.75,15.86,7,10.71,4.49,16.12,6.63,10.87,4.22,16.34,6.22,11,3.92,16.48,5.77,11.19,3.66,16.85,5.39,11.36,3.38,17.08,5,11.48,3.08,17.25,4.51,11.55,2.78,17.34,4,11.78,2.49,17.72,3.62S-194,878.82-188,879.8s12,1.87,18,2.69,12,1.55,18.08,2.2,12.27,1.24,18.45,1.74,12.38.91,18.59,1.25,12.44.58,18.67.75,12.45.25,18.67.25m0,1.13c-100.83,0-195.59-21.6-279.89-60.33A630.39,630.39,0,0,1-570.69,670.14,603.14,603.14,0,0,1-693.64,446.91c-23.89-80.24-31.06-166.21-19.08-254a630.36,630.36,0,0,1,81.77-235,670.26,670.26,0,0,1,154.5-179.19A695.39,695.39,0,0,1-273.06-336.16a694.73,694.73,0,0,1,235.49-41c82.48,0,161,14.54,232.91,41A641.44,641.44,0,0,1,391.49-221.25,611.61,611.61,0,0,1,534.68-42.06a597.19,597.19,0,0,1,66.94,235,613.84,613.84,0,0,1-35.1,254c-29.68,82.26-76.43,158.14-137,223.23A688.86,688.86,0,0,1,206.17,829.48,694.57,694.57,0,0,1-77.53,889.81Z" transform="translate(718.42 547.09)"/></g></g></svg>