<?xml version="1.0" encoding="utf-8"?>
<!-- Generator: Adobe Illustrator 25.2.1, SVG Export Plug-In . SVG Version: 6.00 Build 0)  -->
<svg version="1.1" id="Calque_1" xmlns="http://www.w3.org/2000/svg" xmlns:xlink="http://www.w3.org/1999/xlink" x="0px" y="0px"
	 viewBox="0 0 1194 834" style="enable-background:new 0 0 1194 834;" xml:space="preserve">
<style type="text/css">
	.st0{fill:#FF8F8F;}
	.st1{fill:#707070;}
	.st2{fill:#FF6B6B;}
	.st3{fill:#21D6CD;}
	.st4{fill:#71D2CD;}
	.st5{fill:#1BA19A;}
</style>
<g id="Groupe_55">
	<g id="Ellipse_14" transform="translate(20.532 556.609)">
		<path class="st0" d="M387.65-313.18c86.99,0,172.36,15.29,254.09,43.57c84.14,29.12,166.73,72.82,244.63,129.53
			c82.36,59.96,161.55,136,232.93,226.98c77.45,98.72,147.56,217.42,203.17,355.24c62.25,154.5,100.59,317.57,113.72,483.62
			c14.67,185.83-2.59,372.93-53.9,547.01c-56.63,192.14-153.01,362.84-286.89,489.82c-142.5,135.16-319.89,213.7-519.6,213.7
			s-388.97-78.54-551.9-213.7c-153.08-126.98-275.27-297.68-360.94-489.82c-77.62-174.09-123.17-361.19-136.58-547.01
			c-12-166.27,1.85-329.99,40.62-483.62c34.78-137.81,86.95-256.52,149.48-355.24C-225.9-4.08-158.2-80.12-84.91-140.08
			c69.32-56.71,145.31-100.41,225.05-129.53C219.45-298.55,303.23-313.3,387.65-313.18z"/>
		<path class="st1" d="M575.47,2172.12c12.31,0,24.61-0.31,36.9-0.92c12.28-0.62,24.53-1.54,36.74-2.77
			c12.2-1.23,24.34-2.76,36.41-4.58c12.06-1.83,24.03-3.96,35.9-6.38c11.69-2.39,23.34-5.07,34.94-8.06
			c11.58-2.98,23.11-6.25,34.55-9.8c11.42-3.55,22.77-7.38,34-11.49c11.21-4.1,22.32-8.47,33.3-13.11
			c10.81-4.57,21.56-9.42,32.23-14.55c10.64-5.11,21.19-10.49,31.64-16.13c10.42-5.62,20.73-11.5,30.92-17.62
			c10.16-6.1,20.18-12.45,30.06-19.02c9.74-6.48,19.39-13.22,28.93-20.2c9.51-6.96,18.92-14.15,28.19-21.57
			c9.25-7.4,18.37-15.01,27.34-22.83c8.94-7.79,17.74-15.79,26.38-23.97c8.52-8.08,16.94-16.38,25.23-24.89
			c8.26-8.48,16.39-17.16,24.39-26.04c7.96-8.83,15.78-17.85,23.45-27.04c7.64-9.15,15.12-18.45,22.43-27.91
			c7.23-9.34,14.34-18.88,21.31-28.6c6.94-9.67,13.75-19.51,20.4-29.5c6.63-9.94,13.11-20.03,19.43-30.24
			c6.29-10.16,12.42-20.45,18.39-30.85c5.91-10.29,11.68-20.74,17.32-31.33c5.61-10.53,11.07-21.21,16.39-31.99
			c5.29-10.73,10.43-21.57,15.41-32.49c4.96-10.87,9.76-21.83,14.39-32.85c4.6-10.94,9.06-22,13.39-33.17
			c4.3-11.11,8.46-22.32,12.47-33.61c3.99-11.22,7.83-22.53,11.52-33.89c3.67-11.29,7.19-22.64,10.55-34.02
			c3.34-11.31,6.55-22.73,9.62-34.21c3.05-11.42,5.96-22.91,8.73-34.45c2.75-11.47,5.36-22.99,7.83-34.54
			c2.45-11.47,4.76-22.97,6.93-34.48c2.16-11.46,4.18-23,6.07-34.58c1.88-11.51,3.62-23.06,5.24-34.64
			c1.6-11.5,3.07-23.03,4.41-34.57c1.33-11.46,2.52-22.91,3.58-34.36c1.06-11.42,1.99-22.89,2.79-34.39
			c0.8-11.42,1.47-22.86,2.02-34.31c0.54-11.37,0.97-22.74,1.26-34.1c0.3-11.28,0.47-22.54,0.52-33.77
			c0.05-11.23-0.01-22.49-0.2-33.75c-0.18-11.19-0.49-22.38-0.9-33.56c-0.41-11.1-0.94-22.19-1.58-33.25
			c-0.64-10.98-1.38-21.93-2.24-32.82c-0.86-10.92-1.83-21.85-2.91-32.78c-1.07-10.85-2.26-21.69-3.54-32.5
			c-1.28-10.74-2.66-21.45-4.15-32.11c-1.47-10.59-3.05-21.14-4.71-31.62c-1.68-10.53-3.46-21.05-5.34-31.56
			c-1.87-10.43-3.84-20.85-5.91-31.22c-2.05-10.3-4.2-20.57-6.44-30.78c-2.22-10.14-4.53-20.23-6.93-30.24
			c-2.41-10.08-4.92-20.14-7.52-30.18c-2.59-9.97-5.27-19.9-8.03-29.79c-2.75-9.82-5.58-19.6-8.49-29.32
			c-2.89-9.65-5.86-19.24-8.91-28.75c-3.07-9.59-6.23-19.15-9.48-28.68c-3.23-9.47-6.54-18.9-9.93-28.27
			c-3.37-9.31-6.81-18.58-10.32-27.78c-3.49-9.14-7.05-18.21-10.67-27.2c-3.6-8.93-7.28-17.82-11.03-26.66
			c-3.72-8.78-7.52-17.5-11.37-26.15c-3.83-8.6-7.72-17.12-11.67-25.57c-3.92-8.39-7.9-16.7-11.92-24.92
			c-3.94-8.05-7.95-16.05-12.02-24.01c-4.04-7.9-8.15-15.75-12.31-23.54c-4.13-7.74-8.32-15.41-12.55-23
			c-4.2-7.55-8.45-15.02-12.74-22.41c-4.21-7.25-8.48-14.45-12.8-21.6c-4.3-7.11-8.65-14.17-13.04-21.17
			c-4.37-6.96-8.79-13.85-13.24-20.67c-4.43-6.78-8.89-13.49-13.38-20.12c-4.42-6.52-8.89-12.99-13.41-19.42
			c-4.5-6.39-9.04-12.73-13.62-19c-4.56-6.24-9.15-12.43-13.77-18.54c-4.6-6.08-9.23-12.09-13.88-18.03
			c-4.59-5.85-9.22-11.66-13.89-17.41c-4.65-5.73-9.34-11.4-14.07-17.02c-4.7-5.59-9.43-11.12-14.19-16.58
			c-4.73-5.44-9.49-10.81-14.26-16.1c-4.72-5.23-9.48-10.42-14.27-15.56c-4.77-5.12-9.58-10.18-14.42-15.19
			c-4.81-4.98-9.65-9.91-14.51-14.77c-4.84-4.84-9.69-9.62-14.56-14.32c-4.82-4.66-9.68-9.28-14.57-13.84
			c-4.87-4.55-9.77-9.04-14.69-13.48c-4.9-4.42-9.82-8.79-14.76-13.09c-4.92-4.28-9.85-8.51-14.78-12.66
			c-4.9-4.13-9.84-8.21-14.81-12.24c-4.95-4.02-9.92-7.98-14.9-11.89c-4.97-3.89-9.96-7.73-14.95-11.51
			c-4.98-3.76-9.97-7.46-14.95-11.1c-4.97-3.62-9.97-7.2-15-10.72c-5.01-3.51-10.04-6.98-15.08-10.38
			c-5.03-3.4-10.07-6.74-15.11-10.01c-5.03-3.27-10.06-6.48-15.1-9.62c-5.03-3.14-10.09-6.24-15.16-9.28
			c-5.06-3.03-10.14-6.02-15.23-8.95c-5.07-2.92-10.16-5.78-15.24-8.59c-5.07-2.8-10.15-5.53-15.22-8.21
			c-5.08-2.68-10.18-5.31-15.3-7.89c-5.11-2.57-10.23-5.1-15.36-7.56c-5.12-2.46-10.24-4.87-15.37-7.21
			c-5.11-2.34-10.22-4.63-15.33-6.85c-5.13-2.23-10.28-4.42-15.44-6.55c-5.15-2.13-10.32-4.2-15.49-6.22
			c-5.16-2.01-10.33-3.97-15.49-5.87c-5.15-1.9-10.3-3.74-15.44-5.52c-5.18-1.79-10.37-3.53-15.58-5.22
			c-5.2-1.69-10.41-3.32-15.62-4.89c-5.21-1.57-10.42-3.09-15.62-4.55c-5.2-1.46-10.39-2.86-15.57-4.2
			c-5.23-1.35-10.48-2.66-15.74-3.9c-5.25-1.25-10.52-2.44-15.78-3.57c-5.26-1.13-10.52-2.21-15.77-3.23
			c-5.25-1.02-10.49-1.98-15.72-2.89c-5.29-0.91-10.6-1.77-15.92-2.58c-5.31-0.8-10.64-1.55-15.96-2.24
			c-5.32-0.69-10.64-1.32-15.96-1.9c-5.31-0.58-10.62-1.09-15.91-1.55c-5.36-0.47-10.75-0.87-16.14-1.22
			c-5.39-0.35-10.79-0.64-16.19-0.88c-5.4-0.23-10.8-0.41-16.19-0.53c-5.39-0.12-10.77-0.18-16.14-0.18
			c-5.37,0-10.74,0.06-16.11,0.18c-5.37,0.12-10.75,0.29-16.11,0.53c-5.36,0.23-10.72,0.53-16.06,0.88
			c-5.34,0.35-10.66,0.76-15.95,1.22c-5.22,0.46-10.45,0.98-15.67,1.55c-5.23,0.58-10.46,1.21-15.67,1.9
			c-5.22,0.69-10.43,1.44-15.63,2.24c-5.2,0.8-10.38,1.66-15.53,2.58c-5.09,0.9-10.19,1.87-15.28,2.89
			c-5.1,1.02-10.2,2.1-15.28,3.23c-5.09,1.14-10.18,2.33-15.24,3.57c-5.07,1.25-10.12,2.55-15.15,3.9
			c-4.98,1.34-9.96,2.74-14.93,4.2c-4.98,1.46-9.96,2.98-14.93,4.55c-4.98,1.58-9.94,3.21-14.89,4.89
			c-4.95,1.69-9.89,3.43-14.79,5.22c-4.87,1.78-9.74,3.62-14.61,5.52c-4.87,1.9-9.74,3.86-14.6,5.87
			c-4.87,2.02-9.72,4.09-14.55,6.22c-4.84,2.13-9.66,4.31-14.45,6.55c-4.77,2.22-9.53,4.5-14.29,6.85
			c-4.77,2.35-9.53,4.75-14.28,7.21c-4.76,2.47-9.5,4.99-14.22,7.56c-4.73,2.58-9.44,5.21-14.11,7.89
			c-4.66,2.67-9.33,5.41-13.97,8.21c-4.66,2.8-9.31,5.67-13.95,8.59c-4.65,2.93-9.27,5.91-13.87,8.95
			c-4.61,3.04-9.2,6.14-13.76,9.28c-4.56,3.14-9.11,6.35-13.64,9.62c-4.55,3.28-9.08,6.62-13.6,10.01
			c-4.53,3.41-9.03,6.87-13.51,10.38c-4.49,3.52-8.95,7.1-13.38,10.72c-4.44,3.63-8.87,7.34-13.28,11.1
			c-4.43,3.78-8.83,7.61-13.21,11.51c-4.4,3.91-8.77,7.87-13.11,11.89c-4.35,4.03-8.68,8.11-12.96,12.24
			c-4.31,4.15-8.6,8.37-12.87,12.66c-4.29,4.3-8.55,8.67-12.78,13.09c-4.25,4.44-8.47,8.94-12.65,13.48
			c-4.2,4.57-8.36,9.18-12.48,13.84c-4.15,4.7-8.29,9.48-12.39,14.32c-4.12,4.86-8.22,9.79-12.28,14.77
			c-4.08,5.01-8.12,10.07-12.12,15.19c-4.02,5.14-7.99,10.33-11.92,15.56c-3.97,5.29-7.92,10.66-11.83,16.1
			c-3.93,5.46-7.83,10.99-11.68,16.58c-3.87,5.62-7.71,11.29-11.49,17.02c-3.8,5.76-7.56,11.56-11.26,17.41
			c-3.76,5.93-7.48,11.95-11.16,18.03c-3.7,6.11-7.36,12.3-10.97,18.54c-3.63,6.28-7.22,12.61-10.75,19
			c-3.55,6.42-7.04,12.9-10.48,19.42c-3.49,6.63-6.94,13.34-10.34,20.12c-3.42,6.82-6.79,13.71-10.11,20.67
			c-3.34,7-6.62,14.06-9.84,21.17c-3.24,7.15-6.42,14.36-9.53,21.6c-3.17,7.38-6.29,14.86-9.36,22.41c-3.08,7.59-6.11,15.27-9.07,23
			c-2.98,7.78-5.9,15.63-8.75,23.54c-2.87,7.95-5.67,15.96-8.39,24.01c-2.78,8.22-5.5,16.53-8.15,24.92
			c-2.67,8.45-5.27,16.97-7.8,25.57c-2.55,8.65-5.02,17.37-7.42,26.15c-2.41,8.83-4.75,17.72-7,26.66
			c-2.26,8.99-4.45,18.06-6.56,27.2c-2.12,9.2-4.17,18.46-6.12,27.78c-1.97,9.38-3.86,18.81-5.65,28.27
			c-1.81,9.53-3.52,19.1-5.14,28.68c-1.61,9.51-3.13,19.1-4.56,28.75c-1.44,9.72-2.8,19.49-4.06,29.32
			c-1.27,9.89-2.45,19.83-3.53,29.79c-1.09,10.04-2.08,20.1-2.96,30.18c-0.88,10.01-1.67,20.1-2.36,30.24
			c-0.69,10.21-1.29,20.48-1.79,30.78c-0.5,10.38-0.9,20.79-1.19,31.22c-0.3,10.51-0.49,21.03-0.57,31.56
			c-0.08,10.48-0.06,21.03,0.06,31.62c0.13,10.66,0.36,21.38,0.71,32.11c0.35,10.81,0.8,21.65,1.37,32.5
			c0.57,10.93,1.25,21.86,2.05,32.78c0.79,10.89,1.7,21.84,2.72,32.82c1.03,11.06,2.18,22.14,3.44,33.25
			c1.27,11.18,2.66,22.37,4.17,33.56c1.52,11.26,3.15,22.52,4.9,33.75c1.75,11.23,3.63,22.49,5.63,33.77
			c2.01,11.36,4.16,22.73,6.42,34.1c2.28,11.45,4.68,22.89,7.21,34.31c2.54,11.5,5.21,22.96,7.99,34.39
			c2.79,11.44,5.72,22.9,8.77,34.36c3.08,11.53,6.29,23.06,9.63,34.57c3.36,11.58,6.86,23.14,10.47,34.64
			c3.64,11.58,7.41,23.12,11.3,34.58c3.9,11.51,7.95,23.01,12.14,34.48c4.21,11.55,8.57,23.07,13.05,34.54
			c4.51,11.54,9.16,23.03,13.94,34.45c4.8,11.49,9.74,22.9,14.79,34.21c5.08,11.38,10.32,22.73,15.69,34.02
			c5.41,11.36,10.96,22.66,16.64,33.89c5.72,11.29,11.57,22.5,17.55,33.61c6.01,11.17,12.15,22.24,18.4,33.17
			c6.3,11.03,12.76,21.98,19.36,32.85c6.64,10.93,13.41,21.77,20.32,32.49c6.95,10.79,14.03,21.46,21.22,31.99
			c7.24,10.59,14.59,21.04,22.05,31.33c7.54,10.39,15.23,20.68,23.05,30.85c7.87,10.22,15.87,20.3,24,30.24
			c8.17,9.99,16.46,19.83,24.86,29.5c8.44,9.71,16.99,19.25,25.63,28.6c8.74,9.45,17.63,18.76,26.65,27.91
			c9.06,9.19,18.24,18.21,27.54,27.04c9.34,8.87,18.78,17.56,28.33,26.04c9.58,8.51,19.25,16.82,29,24.89
			c9.87,8.18,19.88,16.18,30,23.97c10.16,7.82,20.43,15.44,30.79,22.83c10.4,7.42,20.89,14.62,31.46,21.57
			c10.6,6.98,21.27,13.72,31.98,20.2c10.87,6.57,21.86,12.92,32.94,19.02c11.11,6.12,22.31,12,33.58,17.62
			c11.3,5.64,22.67,11.02,34.08,16.13c11.44,5.12,22.92,9.98,34.43,14.55c11.68,4.64,23.45,9.01,35.28,13.11
			c11.86,4.11,23.78,7.94,35.74,11.49c11.98,3.56,24,6.83,36.03,9.8c12.05,2.98,24.11,5.67,36.16,8.06
			c12.24,2.42,24.53,4.55,36.87,6.38c12.34,1.83,24.72,3.36,37.1,4.58c12.39,1.23,24.78,2.15,37.16,2.77
			C550.81,2171.81,563.16,2172.12,575.47,2172.12 M575.78,2176.3c-199.72,0-388.97-78.54-551.9-213.7
			c-153.07-126.98-275.26-297.68-360.93-489.82c-77.62-174.09-123.17-361.19-136.58-547.02c-12-166.27,1.84-329.99,40.62-483.62
			c34.78-137.81,86.95-256.52,149.48-355.24C-225.9-4.08-158.2-80.12-84.91-140.08c69.33-56.72,145.31-100.41,225.05-129.53
			c77.45-28.28,160.51-43.57,247.5-43.57s172.36,15.29,254.09,43.57c84.14,29.12,166.73,72.81,244.63,129.53
			c82.36,59.96,161.55,136,232.93,226.98c77.45,98.72,147.56,217.42,203.17,355.24c62,153.63,100.59,317.35,113.72,483.62
			c14.67,185.83-2.59,372.93-53.9,547.02c-56.63,192.14-153.01,362.84-286.89,489.82C952.88,2097.75,775.5,2176.3,575.78,2176.3z"/>
	</g>
	<g id="Ellipse_13" transform="translate(611.354 0)">
		<path class="st2" d="M-213.82-313.18c60.37,0,120.52,7.33,179.12,21.84c57.54,14.19,113.1,35.44,165.42,63.26
			c53.27,28.48,102.37,63.88,144.06,105.24c44.03,43.68,80.44,94.63,104.79,151.72c26.1,61.19,35.97,123.7,29.98,184.53
			c-6.41,65.01-30.87,127.51-72.37,183.16c-43.86,58.81-105.93,108.9-183.43,144.91c-80.11,37.22-174.4,58.34-277.53,58.34
			s-201.58-21.12-289.03-58.34c-84.61-36.01-156.56-86.1-212.01-144.91c-52.48-55.65-89.27-118.15-108.49-183.16
			c-17.99-60.83-20.45-123.34-6.41-184.53c13.1-57.09,39.45-108.04,74.87-151.72c33.54-41.36,75.65-76.76,123.3-105.24
			c45.85-27.4,97.57-48.83,152.94-63.26C-334.38-305.48-275.6-313.18-213.82-313.18z"/>
		<path class="st1" d="M-123.9,598.71c6.36,0,12.72-0.08,19.07-0.25c6.35-0.16,12.7-0.41,19.03-0.74c6.32-0.33,12.63-0.74,18.9-1.23
			c6.27-0.49,12.51-1.06,18.7-1.71c6.1-0.64,12.19-1.36,18.26-2.16c6.07-0.8,12.12-1.68,18.14-2.63c6.01-0.95,12-1.99,17.94-3.09
			c5.94-1.11,11.83-2.29,17.67-3.54c5.76-1.24,11.5-2.55,17.2-3.94c5.7-1.39,11.37-2.85,17.01-4.38c5.62-1.53,11.21-3.13,16.74-4.8
			c5.52-1.67,11-3.4,16.41-5.21c5.34-1.78,10.66-3.63,15.93-5.55c5.27-1.92,10.49-3.91,15.67-5.96c5.17-2.05,10.29-4.16,15.35-6.34
			c5.05-2.17,10.05-4.4,14.97-6.69c4.87-2.26,9.7-4.59,14.49-6.98c4.77-2.39,9.5-4.84,14.17-7.35c4.66-2.5,9.27-5.06,13.81-7.68
			c4.53-2.61,9-5.27,13.39-7.97c4.35-2.68,8.66-5.42,12.91-8.22c4.24-2.79,8.43-5.64,12.55-8.54c4.11-2.89,8.17-5.83,12.15-8.81
			c3.97-2.98,7.88-5.99,11.71-9.05c3.8-3.03,7.55-6.12,11.24-9.26c3.68-3.13,7.3-6.31,10.85-9.53c3.54-3.21,7.02-6.46,10.43-9.75
			c3.4-3.28,6.72-6.59,9.97-9.93c3.23-3.32,6.4-6.69,9.51-10.1c3.1-3.4,6.13-6.84,9.1-10.32c2.96-3.46,5.85-6.96,8.66-10.49
			c2.81-3.51,5.54-7.05,8.2-10.61c2.65-3.55,5.24-7.14,7.76-10.76c2.51-3.61,4.96-7.25,7.34-10.92c2.37-3.66,4.67-7.34,6.9-11.04
			c2.22-3.69,4.37-7.4,6.43-11.12c2.07-3.72,4.07-7.47,6.01-11.24c1.93-3.76,3.79-7.55,5.58-11.36c1.79-3.79,3.5-7.6,5.14-11.43
			c1.64-3.81,3.2-7.63,4.7-11.45c1.49-3.83,2.92-7.69,4.28-11.56c1.35-3.86,2.64-7.74,3.86-11.63c1.21-3.88,2.36-7.77,3.43-11.66
			c1.07-3.88,2.07-7.76,3-11.65c0.93-3.89,1.8-7.81,2.6-11.74c0.8-3.91,1.52-7.84,2.18-11.77c0.66-3.92,1.25-7.84,1.77-11.76
			c0.52-3.91,0.97-7.81,1.36-11.71c0.39-3.92,0.71-7.85,0.97-11.79c0.25-3.92,0.44-7.86,0.57-11.79c0.12-3.92,0.18-7.83,0.17-11.74
			c-0.01-3.89-0.08-7.78-0.21-11.66c-0.14-3.9-0.34-7.82-0.6-11.73c-0.26-3.9-0.59-7.8-0.99-11.7c-0.39-3.88-0.84-7.76-1.36-11.63
			c-0.51-3.85-1.08-7.69-1.72-11.52c-0.64-3.86-1.34-7.72-2.1-11.58c-0.76-3.85-1.58-7.69-2.47-11.53
			c-0.88-3.82-1.82-7.63-2.82-11.43c-0.99-3.78-2.04-7.55-3.15-11.3c-1.12-3.79-2.3-7.57-3.54-11.36
			c-1.24-3.77-2.53-7.53-3.88-11.28c-1.35-3.74-2.75-7.46-4.21-11.17c-1.45-3.69-2.96-7.37-4.51-11.02
			c-1.55-3.64-3.15-7.26-4.81-10.88c-1.65-3.6-3.36-7.18-5.11-10.75c-1.75-3.55-3.55-7.08-5.39-10.58
			c-1.84-3.49-3.72-6.95-5.64-10.38c-1.89-3.37-3.83-6.73-5.82-10.07c-1.98-3.33-4.01-6.65-6.09-9.94
			c-2.07-3.28-4.18-6.54-6.33-9.78c-2.14-3.22-4.32-6.42-6.54-9.58c-2.18-3.11-4.41-6.21-6.68-9.3c-2.26-3.07-4.57-6.13-6.92-9.16
			c-2.34-3.02-4.71-6.03-7.13-9c-2.4-2.96-4.84-5.9-7.31-8.81c-2.43-2.86-4.91-5.72-7.42-8.55c-2.51-2.82-5.05-5.63-7.63-8.41
			c-2.57-2.77-5.17-5.53-7.81-8.25c-2.62-2.72-5.28-5.41-7.96-8.07c-2.65-2.63-5.33-5.24-8.05-7.83c-2.71-2.58-5.46-5.15-8.24-7.69
			c-2.77-2.53-5.57-5.05-8.39-7.53c-2.81-2.48-5.65-4.93-8.51-7.35c-2.83-2.39-5.7-4.77-8.6-7.13c-2.89-2.35-5.81-4.68-8.76-6.99
			c-2.94-2.3-5.9-4.58-8.89-6.83c-2.98-2.24-5.97-4.46-8.99-6.65c-2.99-2.17-6.01-4.32-9.06-6.45c-3.04-2.13-6.11-4.23-9.2-6.31
			c-3.08-2.07-6.19-4.13-9.31-6.15c-3.11-2.02-6.24-4.01-9.39-5.97c-3.13-1.95-6.28-3.88-9.46-5.79c-3.17-1.91-6.37-3.79-9.59-5.65
			c-3.21-1.85-6.43-3.68-9.67-5.49c-3.23-1.8-6.48-3.57-9.73-5.31c-3.25-1.74-6.52-3.45-9.81-5.14c-3.29-1.69-6.59-3.36-9.92-5
			c-3.32-1.64-6.65-3.25-9.99-4.83c-3.33-1.58-6.68-3.13-10.03-4.66c-3.35-1.52-6.72-3.03-10.12-4.51
			c-3.38-1.48-6.79-2.93-10.2-4.35c-3.41-1.42-6.83-2.82-10.26-4.19c-3.42-1.37-6.85-2.71-10.28-4.02c-3.44-1.31-6.9-2.6-10.38-3.87
			c-3.47-1.26-6.96-2.5-10.46-3.72c-3.49-1.21-6.99-2.4-10.5-3.55c-3.5-1.16-7.01-2.28-10.51-3.38c-3.52-1.1-7.07-2.18-10.62-3.24
			c-3.55-1.05-7.12-2.08-10.69-3.08c-3.57-1-7.14-1.97-10.72-2.92c-3.57-0.94-7.15-1.86-10.72-2.74c-3.6-0.89-7.21-1.76-10.84-2.6
			c-3.62-0.84-7.26-1.65-10.9-2.44c-3.64-0.79-7.28-1.54-10.92-2.28c-3.64-0.73-7.28-1.43-10.91-2.1
			c-3.67-0.68-7.35-1.33-11.05-1.96c-3.69-0.62-7.39-1.22-11.1-1.79c-3.7-0.57-7.41-1.11-11.11-1.62c-3.7-0.51-7.4-1-11.09-1.45
			c-3.74-0.46-7.49-0.89-11.25-1.3c-3.76-0.4-7.52-0.78-11.29-1.13c-3.77-0.35-7.53-0.67-11.3-0.96c-3.76-0.29-7.52-0.55-11.27-0.78
			c-3.8-0.23-7.62-0.44-11.45-0.62c-3.82-0.18-7.65-0.32-11.49-0.44c-3.83-0.12-7.66-0.21-11.49-0.27
			c-3.83-0.06-7.65-0.09-11.46-0.09c-3.81,0-7.63,0.03-11.44,0.09c-3.82,0.06-7.63,0.15-11.44,0.27c-3.81,0.12-7.61,0.27-11.4,0.44
			c-3.79,0.18-7.57,0.38-11.32,0.62c-3.7,0.23-7.41,0.49-11.12,0.78c-3.71,0.29-7.41,0.61-11.11,0.96
			c-3.7,0.35-7.39,0.72-11.07,1.13c-3.68,0.4-7.35,0.84-10.99,1.3c-3.6,0.45-7.2,0.94-10.8,1.45c-3.6,0.51-7.2,1.05-10.79,1.62
			c-3.59,0.57-7.18,1.17-10.74,1.79c-3.57,0.63-7.13,1.28-10.66,1.96c-3.5,0.67-7,1.37-10.49,2.1c-3.5,0.73-6.99,1.49-10.47,2.28
			c-3.49,0.79-6.96,1.6-10.42,2.44c-3.46,0.84-6.91,1.71-10.33,2.6c-3.4,0.89-6.79,1.8-10.17,2.74c-3.39,0.94-6.77,1.92-10.14,2.92
			c-3.37,1-6.74,2.03-10.08,3.08c-3.35,1.05-6.68,2.13-9.98,3.24c-3.29,1.1-6.57,2.22-9.84,3.38c-3.28,1.16-6.55,2.34-9.8,3.55
			c-3.26,1.21-6.5,2.45-9.73,3.72c-3.23,1.27-6.44,2.56-9.62,3.87c-3.17,1.31-6.34,2.65-9.49,4.02c-3.16,1.37-6.31,2.77-9.43,4.19
			c-3.13,1.43-6.25,2.88-9.35,4.35c-3.1,1.48-6.18,2.98-9.23,4.51c-3.05,1.52-6.09,3.08-9.11,4.66c-3.03,1.58-6.04,3.2-9.03,4.83
			c-3,1.64-5.98,3.31-8.93,5c-2.96,1.69-5.89,3.41-8.8,5.14c-2.91,1.74-5.81,3.51-8.68,5.31c-2.88,1.8-5.75,3.63-8.59,5.49
			c-2.85,1.86-5.67,3.74-8.47,5.65c-2.8,1.91-5.58,3.84-8.32,5.79c-2.76,1.96-5.49,3.95-8.21,5.97c-2.72,2.02-5.42,4.07-8.1,6.15
			c-2.68,2.08-5.34,4.19-7.96,6.31c-2.63,2.13-5.23,4.28-7.79,6.45c-2.58,2.19-5.14,4.4-7.67,6.65c-2.54,2.25-5.06,4.53-7.54,6.83
			c-2.49,2.31-4.95,4.64-7.38,6.99c-2.43,2.36-4.83,4.74-7.19,7.13c-2.38,2.42-4.74,4.87-7.06,7.35c-2.33,2.48-4.64,5-6.9,7.53
			c-2.28,2.54-4.52,5.11-6.72,7.69c-2.21,2.59-4.38,5.2-6.51,7.83c-2.16,2.66-4.28,5.35-6.37,8.07c-2.1,2.73-4.16,5.48-6.18,8.25
			c-2.03,2.78-4.02,5.59-5.97,8.41c-1.96,2.83-3.87,5.69-5.73,8.55c-1.89,2.91-3.75,5.85-5.57,8.81c-1.82,2.98-3.61,5.98-5.35,9
			c-1.75,3.03-3.45,6.09-5.11,9.16c-1.66,3.08-3.28,6.19-4.85,9.3c-1.59,3.17-3.14,6.36-4.65,9.58c-1.51,3.23-2.98,6.5-4.4,9.78
			c-1.42,3.29-2.8,6.61-4.13,9.94c-1.33,3.34-2.61,6.7-3.83,10.07c-1.25,3.43-2.45,6.9-3.59,10.38c-1.15,3.5-2.25,7.03-3.3,10.58
			c-1.05,3.56-2.05,7.15-2.99,10.75c-0.95,3.61-1.84,7.24-2.67,10.88c-0.84,3.65-1.62,7.32-2.34,11.02c-0.73,3.71-1.39,7.43-2,11.17
			c-0.61,3.75-1.17,7.51-1.66,11.28c-0.49,3.78-0.93,7.57-1.3,11.36c-0.37,3.75-0.67,7.52-0.92,11.3c-0.25,3.8-0.44,7.61-0.56,11.43
			c-0.13,3.84-0.19,7.68-0.2,11.53c0,3.86,0.06,7.73,0.18,11.58c0.12,3.82,0.31,7.67,0.56,11.52c0.25,3.87,0.56,7.75,0.94,11.63
			c0.38,3.9,0.82,7.8,1.32,11.7c0.51,3.92,1.08,7.83,1.71,11.73c0.63,3.88,1.33,7.76,2.09,11.66c0.76,3.91,1.6,7.83,2.49,11.74
			c0.9,3.93,1.86,7.86,2.89,11.79c1.03,3.94,2.13,7.87,3.29,11.79c1.15,3.9,2.38,7.8,3.67,11.71c1.3,3.92,2.66,7.84,4.09,11.76
			c1.44,3.93,2.94,7.86,4.51,11.77c1.57,3.93,3.21,7.84,4.91,11.74c1.69,3.88,3.46,7.77,5.3,11.65c1.84,3.89,3.75,7.78,5.73,11.66
			c1.99,3.89,4.04,7.77,6.15,11.63c2.12,3.88,4.31,7.73,6.56,11.56c2.25,3.83,4.57,7.65,6.95,11.45c2.4,3.82,4.87,7.63,7.4,11.43
			c2.54,3.81,5.15,7.6,7.82,11.36c2.68,3.78,5.42,7.53,8.22,11.24c2.8,3.72,5.68,7.43,8.63,11.12c2.96,3.7,5.98,7.39,9.07,11.04
			c3.1,3.67,6.27,7.31,9.49,10.92c3.24,3.62,6.53,7.21,9.88,10.76c3.36,3.56,6.79,7.1,10.29,10.61c3.51,3.53,7.09,7.02,10.73,10.49
			c3.65,3.48,7.37,6.92,11.14,10.32c3.78,3.41,7.62,6.78,11.5,10.1c3.91,3.34,7.88,6.65,11.93,9.93c4.05,3.29,8.17,6.54,12.35,9.75
			c4.19,3.22,8.43,6.4,12.73,9.53c4.31,3.14,8.67,6.23,13.06,9.26c4.43,3.06,8.93,6.08,13.5,9.05c4.57,2.98,9.21,5.92,13.89,8.81
			c4.7,2.9,9.45,5.75,14.24,8.54c4.8,2.8,9.65,5.54,14.53,8.22c4.93,2.71,9.92,5.37,14.96,7.97c5.06,2.61,10.17,5.17,15.32,7.68
			c5.17,2.51,10.38,4.96,15.62,7.35c5.26,2.39,10.55,4.72,15.86,6.98c5.38,2.29,10.81,4.52,16.29,6.69
			c5.49,2.17,11.03,4.29,16.6,6.34c5.58,2.05,11.2,4.04,16.85,5.96c5.65,1.92,11.33,3.77,17.03,5.55c5.77,1.8,11.58,3.54,17.44,5.21
			c5.86,1.67,11.76,3.27,17.69,4.8c5.93,1.53,11.9,2.99,17.87,4.38c5.98,1.39,11.98,2.7,17.98,3.94c6.09,1.25,12.21,2.43,18.36,3.54
			c6.16,1.11,12.35,2.14,18.55,3.09c6.21,0.96,12.43,1.83,18.66,2.63c6.23,0.8,12.46,1.52,18.69,2.16
			c6.32,0.65,12.67,1.22,19.03,1.71c6.37,0.49,12.75,0.9,19.14,1.23c6.39,0.33,12.79,0.57,19.17,0.74
			C-136.64,598.63-130.26,598.71-123.9,598.71 M-123.79,599.82c-103.13,0-201.59-21.12-289.03-58.35
			c-84.61-36.01-156.56-86.1-212.01-144.91c-52.48-55.65-89.27-118.15-108.49-183.16c-17.99-60.83-20.45-123.34-6.41-184.53
			c13.09-57.09,39.45-108.04,74.87-151.72c33.54-41.36,75.65-76.76,123.3-105.24c45.85-27.4,97.57-48.83,152.94-63.26
			c54.25-14.14,113.03-21.84,174.81-21.84s122.08,7.7,179.12,21.84c58.22,14.43,114.16,35.86,165.42,63.26
			c53.27,28.48,102.37,63.88,144.06,105.24c44.03,43.68,80.43,94.63,104.79,151.72c26.1,61.19,35.97,123.7,29.98,184.53
			c-6.4,65.01-30.87,127.51-72.37,183.16c-43.86,58.81-105.93,108.9-183.43,144.91C73.63,578.7-20.67,599.82-123.79,599.82z"/>
	</g>
	<g id="Ellipse_11" transform="translate(579.987 9.266)">
		<path class="st3" d="M-196.69-313.18c60.72-0.01,121.21,7.43,180.12,22.14c57.79,14.38,113.56,35.94,166,64.16
			c53.41,28.9,102.58,64.83,144.25,106.82C337.7-75.7,374-23.92,398.13,34.13c25.87,62.25,35.36,125.89,28.86,187.86
			c-6.95,66.27-32.13,130.01-74.48,186.8c-44.78,60.05-107.93,111.23-186.6,148.04c-81.34,38.06-176.9,59.66-281.2,59.66
			s-203.65-21.61-291.65-59.66c-85.11-36.81-157.23-87.99-212.53-148.04c-52.3-56.8-88.64-120.54-107.2-186.8
			c-17.35-61.96-19-125.61-4.04-187.86c13.96-58.05,41.19-109.82,77.45-154.19c34.32-41.99,77.19-77.92,125.54-106.82
			c46.51-27.79,98.84-49.52,154.77-64.16C-318.16-305.38-258.89-313.18-196.69-313.18z"/>
		<path class="st1" d="M-115.39,615.35c6.43,0,12.86-0.08,19.29-0.25c6.43-0.17,12.85-0.42,19.25-0.76
			c6.4-0.33,12.78-0.75,19.13-1.25c6.35-0.5,12.66-1.08,18.93-1.75c6.17-0.65,12.34-1.39,18.49-2.21
			c6.15-0.82,12.27-1.72,18.37-2.69c6.09-0.98,12.15-2.03,18.17-3.16c6.01-1.13,11.98-2.34,17.9-3.62
			c5.83-1.26,11.65-2.61,17.44-4.03c5.78-1.42,11.53-2.91,17.24-4.48c5.7-1.57,11.36-3.2,16.97-4.91c5.6-1.71,11.15-3.48,16.64-5.32
			c5.42-1.82,10.81-3.71,16.16-5.68c5.34-1.96,10.65-3.99,15.9-6.09c5.25-2.1,10.44-4.26,15.58-6.48c5.13-2.22,10.2-4.5,15.2-6.84
			c4.94-2.31,9.85-4.69,14.71-7.14c4.85-2.44,9.65-4.95,14.39-7.51c4.73-2.56,9.41-5.18,14.03-7.85c4.6-2.66,9.14-5.38,13.6-8.15
			c4.42-2.74,8.8-5.54,13.12-8.4c4.31-2.85,8.57-5.76,12.76-8.72c4.18-2.95,8.31-5.96,12.36-9.01c4.04-3.04,8.01-6.12,11.91-9.25
			c3.87-3.1,7.68-6.26,11.43-9.46c3.74-3.2,7.43-6.44,11.04-9.73c3.61-3.28,7.15-6.6,10.62-9.96c3.46-3.35,6.85-6.73,10.15-10.14
			c3.29-3.39,6.52-6.83,9.69-10.32c3.16-3.47,6.25-6.99,9.28-10.54c3.02-3.54,5.96-7.11,8.84-10.71c2.86-3.59,5.66-7.2,8.37-10.84
			c2.7-3.62,5.35-7.29,7.92-10.98c2.57-3.68,5.07-7.4,7.5-11.15c2.42-3.73,4.77-7.49,7.05-11.27c2.27-3.76,4.47-7.55,6.59-11.34
			c2.12-3.79,4.17-7.62,6.15-11.47c1.98-3.84,3.89-7.7,5.72-11.59c1.83-3.87,3.59-7.76,5.28-11.66c1.68-3.89,3.29-7.78,4.83-11.68
			c1.54-3.91,3.01-7.84,4.41-11.79c1.4-3.94,2.73-7.89,3.98-11.86c1.25-3.95,2.44-7.92,3.55-11.89c1.11-3.95,2.15-7.91,3.12-11.87
			c0.97-3.97,1.87-7.96,2.71-11.97c0.83-3.99,1.6-7.99,2.29-12c0.69-3.99,1.32-7.99,1.88-11.99c0.56-3.98,1.04-7.96,1.46-11.93
			c0.42-3.99,0.77-8,1.06-12.01c0.29-4,0.51-8,0.66-12.01c0.15-3.99,0.24-7.98,0.26-11.96c0.02-3.97-0.02-7.93-0.13-11.87
			c-0.11-3.98-0.28-7.96-0.52-11.95c-0.24-3.97-0.54-7.95-0.91-11.92c-0.36-3.95-0.79-7.9-1.28-11.84
			c-0.49-3.92-1.04-7.83-1.65-11.72c-0.61-3.93-1.29-7.86-2.04-11.79c-0.74-3.91-1.54-7.83-2.4-11.73
			c-0.86-3.89-1.78-7.77-2.76-11.63c-0.97-3.85-2-7.68-3.09-11.5c-1.1-3.85-2.26-7.71-3.48-11.56c-1.22-3.83-2.5-7.66-3.83-11.48
			c-1.33-3.8-2.72-7.59-4.16-11.36c-1.44-3.75-2.93-7.49-4.47-11.21c-1.53-3.7-3.13-7.39-4.77-11.06c-1.64-3.66-3.33-7.3-5.08-10.93
			c-1.74-3.61-3.52-7.2-5.35-10.76c-1.82-3.55-3.7-7.07-5.61-10.56c-1.88-3.42-3.81-6.84-5.79-10.24c-1.97-3.39-3.99-6.76-6.06-10.1
			c-2.06-3.34-4.16-6.65-6.3-9.94c-2.13-3.27-4.31-6.52-6.52-9.74c-2.17-3.16-4.4-6.31-6.66-9.45c-2.26-3.12-4.56-6.23-6.9-9.31
			c-2.33-3.07-4.7-6.12-7.11-9.15c-2.4-3.01-4.83-6-7.29-8.95c-2.43-2.91-4.9-5.81-7.41-8.69c-2.5-2.87-5.04-5.72-7.62-8.55
			c-2.57-2.82-5.17-5.61-7.8-8.38c-2.62-2.76-5.28-5.49-7.96-8.19c-2.65-2.67-5.33-5.32-8.05-7.95c-2.71-2.62-5.46-5.23-8.24-7.81
			c-2.77-2.57-5.57-5.12-8.39-7.65c-2.82-2.51-5.66-5-8.52-7.46c-2.83-2.43-5.7-4.85-8.6-7.24c-2.89-2.39-5.82-4.75-8.77-7.1
			c-2.94-2.34-5.91-4.65-8.9-6.93c-2.98-2.28-5.98-4.53-9-6.75c-2.99-2.2-6.02-4.39-9.08-6.55c-3.05-2.16-6.12-4.29-9.22-6.41
			c-3.09-2.11-6.2-4.19-9.33-6.24c-3.12-2.05-6.26-4.07-9.4-6.06c-3.13-1.98-6.3-3.94-9.48-5.88c-3.18-1.93-6.38-3.84-9.61-5.73
			c-3.21-1.88-6.45-3.74-9.7-5.57c-3.24-1.82-6.49-3.62-9.75-5.38c-3.25-1.76-6.53-3.5-9.84-5.22c-3.29-1.71-6.61-3.4-9.94-5.07
			c-3.32-1.66-6.67-3.3-10.02-4.9c-3.34-1.6-6.7-3.18-10.06-4.72c-3.36-1.55-6.74-3.07-10.15-4.57c-3.4-1.5-6.81-2.97-10.24-4.42
			c-3.42-1.44-6.85-2.86-10.29-4.25c-3.43-1.39-6.88-2.75-10.32-4.07c-3.45-1.33-6.93-2.64-10.42-3.93
			c-3.49-1.28-6.99-2.54-10.5-3.77c-3.51-1.23-7.02-2.43-10.54-3.6c-3.51-1.17-7.03-2.31-10.55-3.43c-3.54-1.12-7.1-2.21-10.67-3.28
			c-3.57-1.07-7.15-2.11-10.73-3.12c-3.58-1.01-7.17-2-10.77-2.96c-3.59-0.96-7.18-1.88-10.76-2.78c-3.61-0.9-7.25-1.78-10.89-2.64
			c-3.64-0.85-7.29-1.68-10.95-2.48c-3.65-0.8-7.31-1.57-10.97-2.31c-3.66-0.74-7.31-1.45-10.96-2.13
			c-3.69-0.69-7.39-1.35-11.1-1.98c-3.71-0.63-7.43-1.24-11.15-1.82c-3.72-0.58-7.45-1.13-11.17-1.65
			c-3.72-0.52-7.44-1.01-11.15-1.47c-3.76-0.47-7.53-0.9-11.31-1.31c-3.78-0.41-7.57-0.79-11.36-1.14
			c-3.79-0.35-7.58-0.68-11.37-0.97c-3.79-0.29-7.57-0.56-11.34-0.79c-3.83-0.24-7.67-0.45-11.52-0.62
			c-3.85-0.18-7.7-0.33-11.56-0.45c-3.86-0.12-7.71-0.21-11.57-0.27c-3.85-0.06-7.7-0.09-11.54-0.09c-3.84,0-7.68,0.03-11.52,0.09
			c-3.84,0.06-7.68,0.15-11.52,0.27c-3.84,0.12-7.67,0.27-11.48,0.45c-3.82,0.18-7.62,0.39-11.41,0.62
			c-3.73,0.23-7.47,0.5-11.2,0.79c-3.74,0.29-7.47,0.62-11.2,0.97c-3.73,0.35-7.45,0.73-11.16,1.14c-3.71,0.41-7.4,0.85-11.08,1.31
			c-3.63,0.46-7.26,0.95-10.89,1.47c-3.63,0.52-7.26,1.07-10.88,1.65c-3.62,0.58-7.24,1.18-10.84,1.82
			c-3.6,0.63-7.19,1.3-10.76,1.98c-3.53,0.68-7.06,1.39-10.59,2.13c-3.53,0.74-7.05,1.51-10.57,2.31c-3.52,0.8-7.03,1.62-10.52,2.48
			c-3.5,0.85-6.97,1.73-10.43,2.64c-3.43,0.9-6.86,1.83-10.28,2.78c-3.42,0.96-6.84,1.94-10.25,2.96
			c-3.41,1.01-6.81,2.06-10.19,3.12c-3.38,1.07-6.75,2.16-10.09,3.28c-3.32,1.11-6.64,2.26-9.95,3.43c-3.31,1.17-6.62,2.38-9.91,3.6
			c-3.3,1.23-6.58,2.49-9.84,3.77c-3.27,1.28-6.51,2.59-9.73,3.93c-3.21,1.33-6.41,2.69-9.61,4.07c-3.2,1.39-6.38,2.81-9.55,4.25
			c-3.17,1.45-6.33,2.92-9.46,4.42c-3.14,1.5-6.26,3.02-9.35,4.57c-3.09,1.55-6.17,3.12-9.23,4.72c-3.07,1.61-6.12,3.24-9.16,4.9
			c-3.04,1.66-6.06,3.36-9.06,5.07c-3,1.72-5.98,3.46-8.92,5.22c-2.95,1.77-5.89,3.56-8.81,5.38c-2.93,1.83-5.84,3.68-8.72,5.57
			c-2.89,1.89-5.76,3.8-8.6,5.73c-2.85,1.94-5.67,3.9-8.45,5.88c-2.8,1.99-5.58,4.01-8.34,6.06c-2.77,2.05-5.51,4.14-8.23,6.24
			c-2.73,2.11-5.43,4.25-8.1,6.41c-2.68,2.16-5.32,4.35-7.93,6.55c-2.63,2.22-5.23,4.47-7.81,6.75c-2.59,2.28-5.15,4.6-7.68,6.93
			c-2.54,2.34-5.05,4.71-7.52,7.1c-2.48,2.39-4.93,4.81-7.33,7.24c-2.43,2.46-4.84,4.94-7.21,7.46c-2.38,2.52-4.74,5.07-7.05,7.65
			c-2.33,2.58-4.62,5.19-6.87,7.81c-2.26,2.63-4.48,5.28-6.66,7.95c-2.21,2.7-4.38,5.43-6.52,8.19c-2.15,2.77-4.26,5.56-6.33,8.38
			c-2.08,2.83-4.12,5.68-6.12,8.55c-2.01,2.88-3.97,5.78-5.89,8.69c-1.95,2.95-3.86,5.94-5.73,8.95c-1.88,3.02-3.72,6.07-5.51,9.15
			c-1.8,3.08-3.56,6.19-5.27,9.31c-1.72,3.13-3.39,6.29-5.01,9.45c-1.65,3.22-3.25,6.46-4.81,9.74c-1.57,3.29-3.09,6.6-4.56,9.94
			c-1.48,3.35-2.91,6.72-4.29,10.1c-1.39,3.4-2.72,6.81-4,10.24c-1.3,3.49-2.56,7.01-3.76,10.56c-1.21,3.56-2.37,7.15-3.47,10.76
			c-1.11,3.62-2.16,7.27-3.16,10.93c-1,3.67-1.95,7.36-2.84,11.06c-0.89,3.71-1.73,7.45-2.5,11.21c-0.78,3.77-1.51,7.56-2.17,11.36
			c-0.67,3.82-1.27,7.65-1.82,11.48c-0.55,3.85-1.04,7.7-1.46,11.56c-0.42,3.81-0.78,7.65-1.08,11.5c-0.3,3.87-0.54,7.75-0.72,11.63
			c-0.18,3.91-0.3,7.82-0.35,11.73c-0.05,3.93-0.04,7.86,0.03,11.79c0.07,3.89,0.21,7.8,0.41,11.72c0.2,3.94,0.46,7.89,0.79,11.84
			c0.33,3.97,0.72,7.94,1.18,11.92c0.46,3.99,0.98,7.97,1.57,11.95c0.58,3.95,1.24,7.91,1.95,11.87c0.72,3.98,1.51,7.97,2.36,11.96
			c0.86,4.01,1.78,8.01,2.76,12.01c0.99,4.01,2.05,8.02,3.17,12.01c1.11,3.97,2.3,7.95,3.55,11.93c1.26,4,2.58,7.99,3.98,11.99
			c1.4,4.01,2.86,8.01,4.39,12c1.54,4.01,3.14,8,4.8,11.97c1.66,3.96,3.39,7.92,5.2,11.87c1.81,3.97,3.69,7.94,5.64,11.89
			c1.95,3.97,3.98,7.93,6.06,11.86c2.09,3.95,4.25,7.89,6.47,11.79c2.22,3.9,4.51,7.8,6.87,11.68c2.37,3.9,4.82,7.79,7.32,11.66
			c2.52,3.88,5.11,7.75,7.75,11.59c2.66,3.85,5.38,7.68,8.16,11.47c2.78,3.8,5.64,7.58,8.57,11.34c2.94,3.78,5.95,7.54,9.02,11.27
			c3.09,3.75,6.24,7.46,9.45,11.15c3.22,3.7,6.51,7.36,9.84,10.98c3.35,3.63,6.77,7.25,10.27,10.84c3.5,3.6,7.08,7.17,10.71,10.71
			c3.65,3.55,7.36,7.06,11.12,10.54c3.78,3.48,7.61,6.93,11.5,10.32c3.91,3.41,7.89,6.79,11.93,10.14
			c4.06,3.36,8.18,6.68,12.36,9.96c4.19,3.29,8.45,6.53,12.75,9.73c4.32,3.21,8.68,6.36,13.09,9.46c4.44,3.12,8.96,6.21,13.53,9.25
			c4.59,3.05,9.23,6.05,13.94,9.01c4.71,2.96,9.48,5.87,14.29,8.72c4.82,2.86,9.69,5.66,14.59,8.4c4.95,2.77,9.96,5.48,15.03,8.15
			c5.08,2.67,10.22,5.29,15.4,7.85c5.19,2.56,10.43,5.07,15.71,7.51c5.29,2.45,10.61,4.83,15.96,7.14
			c5.41,2.34,10.88,4.62,16.39,6.84c5.53,2.22,11.1,4.38,16.71,6.48c5.62,2.1,11.28,4.13,16.97,6.09c5.7,1.97,11.42,3.86,17.16,5.68
			c5.81,1.84,11.67,3.62,17.57,5.32c5.91,1.71,11.86,3.35,17.84,4.91c5.98,1.57,12,3.06,18.02,4.48c6.04,1.42,12.09,2.76,18.14,4.03
			c6.14,1.28,12.32,2.49,18.53,3.62c6.22,1.13,12.46,2.19,18.73,3.16c6.27,0.98,12.55,1.88,18.84,2.69
			c6.29,0.82,12.59,1.55,18.88,2.21c6.38,0.66,12.8,1.25,19.23,1.75c6.44,0.5,12.89,0.92,19.35,1.25
			c6.46,0.34,12.93,0.59,19.38,0.76C-128.27,615.27-121.82,615.35-115.39,615.35 M-115.29,616.49
			c-104.3,0-203.64-21.61-291.65-59.66c-85.11-36.81-157.23-87.99-212.53-148.04c-52.3-56.8-88.64-120.54-107.2-186.8
			c-17.35-61.96-19-125.61-4.04-187.86c13.96-58.05,41.19-109.83,77.45-154.19c34.32-41.99,77.19-77.92,125.54-106.82
			c46.51-27.79,98.84-49.52,154.77-64.16c54.78-14.34,114.04-22.14,176.25-22.14s122.83,7.8,180.12,22.14
			c58.49,14.64,114.63,36.37,166,64.16c53.41,28.89,102.58,64.83,144.25,106.82c44.03,44.37,80.33,96.14,104.45,154.19
			C424,96.38,433.5,160.02,427,221.99c-6.95,66.27-32.13,130.01-74.48,186.8c-44.78,60.05-107.93,111.23-186.6,148.04
			C84.57,594.89-10.99,616.49-115.29,616.49z"/>
	</g>
	<g id="Ellipse_12" transform="translate(0 526.933)">
		<path class="st4" d="M379.62-313.18c85.64,0,169.46,14.82,249.44,42.22c82.31,28.2,162.79,70.49,238.36,125.34
			c79.82,57.93,156.14,131.32,224.4,219.01c73.95,95.01,140.16,209.05,191.63,341.17c57.42,147.58,91.29,303.27,100.37,461.37
			c10.11,176.33-10.88,353.35-64.57,517.58c-59.08,180.73-156,340.85-288.06,459.67c-140.27,126.21-312.93,199.43-505.7,199.43
			S151.03,1979.39-4.8,1853.18c-146.71-118.82-263.38-278.94-344.74-459.67c-73.94-164.23-116.76-341.25-128.39-517.58
			c-10.44-158.22,4.34-314.42,43.47-461.37c35.18-132.12,87.33-246.16,149.56-341.17C-227.47-14.3-160.19-87.68-87.52-145.62
			c68.81-54.85,144.07-97.14,222.9-125.34C213.76-298.99,296.38-313.28,379.62-313.18z"/>
		<path class="st1" d="M525.25,2048.72c11.88,0,23.76-0.29,35.63-0.86c11.86-0.57,23.71-1.43,35.51-2.58
			c11.79-1.14,23.54-2.57,35.22-4.27c11.67-1.7,23.26-3.69,34.76-5.95c11.32-2.22,22.62-4.73,33.86-7.51
			c11.23-2.78,22.41-5.82,33.52-9.14c11.09-3.31,22.11-6.88,33.03-10.71c10.9-3.82,21.7-7.9,32.39-12.23
			c10.52-4.26,20.99-8.79,31.38-13.57c10.37-4.77,20.66-9.79,30.85-15.05c10.17-5.25,20.24-10.73,30.19-16.45
			c9.92-5.7,19.73-11.62,29.4-17.75c9.53-6.05,18.98-12.34,28.33-18.86c9.32-6.5,18.55-13.22,27.66-20.15
			c9.08-6.91,18.04-14.02,26.87-21.33c8.8-7.28,17.46-14.76,25.97-22.41c8.4-7.55,16.7-15.31,24.89-23.28
			c8.15-7.93,16.19-16.05,24.1-24.36c7.88-8.27,15.63-16.71,23.23-25.31c7.57-8.56,15-17.28,22.27-26.13
			c7.19-8.75,14.26-17.69,21.21-26.79c6.92-9.06,13.7-18.28,20.36-27.64c6.62-9.32,13.1-18.78,19.44-28.35
			c6.3-9.53,12.46-19.18,18.45-28.93c5.94-9.66,11.75-19.46,17.44-29.4c5.65-9.89,11.18-19.91,16.56-30.04
			c5.35-10.07,10.57-20.26,15.63-30.53c5.04-10.21,9.93-20.51,14.66-30.88c4.7-10.28,9.26-20.69,13.7-31.19
			c4.41-10.45,8.68-20.99,12.82-31.62c4.11-10.56,8.09-21.2,11.91-31.9c3.81-10.63,7.47-21.32,10.98-32.04
			c3.49-10.66,6.85-21.41,10.09-32.24c3.21-10.76,6.29-21.6,9.24-32.48c2.93-10.82,5.72-21.69,8.37-32.58
			c2.64-10.83,5.14-21.68,7.5-32.55c2.35-10.82,4.57-21.72,6.67-32.66c2.08-10.87,4.04-21.79,5.86-32.74
			c1.81-10.88,3.5-21.78,5.06-32.68c1.55-10.84,2.96-21.68,4.25-32.5c1.29-10.81,2.45-21.66,3.49-32.55
			c1.03-10.81,1.95-21.65,2.74-32.49c0.79-10.77,1.45-21.55,2-32.31c0.54-10.69,0.96-21.37,1.27-32.01
			c0.3-10.65,0.49-21.33,0.56-32.01c0.07-10.62,0.03-21.24-0.13-31.85c-0.15-10.54-0.42-21.07-0.8-31.57
			c-0.37-10.43-0.85-20.83-1.44-31.18c-0.59-10.38-1.29-20.77-2.1-31.16c-0.8-10.32-1.71-20.63-2.73-30.91
			c-1.01-10.22-2.12-20.41-3.32-30.56c-1.2-10.08-2.5-20.12-3.89-30.1c-1.4-10.03-2.9-20.05-4.51-30.06
			c-1.59-9.94-3.29-19.87-5.07-29.76c-1.78-9.82-3.64-19.61-5.6-29.35c-1.94-9.67-3.98-19.29-6.09-28.85
			c-2.13-9.61-4.36-19.22-6.68-28.8c-2.31-9.51-4.7-19-7.19-28.45c-2.47-9.38-5.02-18.72-7.65-28.01
			c-2.61-9.22-5.31-18.38-8.07-27.48c-2.79-9.16-5.67-18.31-8.64-27.43c-2.95-9.05-5.98-18.07-9.09-27.05
			c-3.09-8.91-6.25-17.78-9.49-26.58c-3.22-8.75-6.5-17.43-9.85-26.04c-3.33-8.55-6.73-17.07-10.21-25.53
			c-3.45-8.41-6.98-16.77-10.57-25.06c-3.56-8.24-7.19-16.41-10.87-24.51c-3.66-8.05-7.37-16.02-11.14-23.9
			c-3.69-7.72-7.44-15.4-11.26-23.03c-3.79-7.58-7.65-15.12-11.56-22.59c-3.88-7.43-7.82-14.79-11.81-22.09
			c-3.96-7.25-7.97-14.43-12.01-21.52c-3.97-6.96-8-13.89-12.09-20.76c-4.06-6.83-8.18-13.62-12.34-20.34
			c-4.14-6.69-8.33-13.32-12.55-19.87c-4.2-6.52-8.44-12.98-12.71-19.35c-4.2-6.27-8.45-12.5-12.76-18.68
			c-4.28-6.15-8.6-12.25-12.97-18.29c-4.34-6.01-8.72-11.96-13.13-17.85c-4.39-5.86-8.81-11.65-13.26-17.36
			c-4.38-5.63-8.81-11.23-13.28-16.77c-4.45-5.52-8.94-10.99-13.46-16.4c-4.5-5.39-9.04-10.72-13.6-15.98
			c-4.54-5.24-9.1-10.42-13.68-15.52c-4.53-5.05-9.1-10.05-13.71-15.01c-4.59-4.93-9.21-9.82-13.86-14.65
			c-4.63-4.81-9.29-9.56-13.96-14.25c-4.66-4.67-9.33-9.28-14.02-13.82c-4.65-4.5-9.33-8.96-14.05-13.36
			c-4.7-4.39-9.42-8.73-14.17-13.02c-4.73-4.27-9.48-8.48-14.25-12.64c-4.75-4.14-9.51-8.22-14.28-12.23
			c-4.74-3.99-9.52-7.93-14.32-11.82c-4.78-3.88-9.6-7.71-14.43-11.49c-4.81-3.76-9.64-7.47-14.48-11.12
			c-4.82-3.64-9.66-7.21-14.5-10.73c-4.82-3.5-9.67-6.96-14.55-10.37c-4.86-3.4-9.74-6.74-14.64-10.04
			c-4.88-3.28-9.78-6.51-14.68-9.68c-4.89-3.16-9.78-6.26-14.67-9.31c-4.89-3.04-9.81-6.03-14.74-8.98
			c-4.92-2.94-9.86-5.82-14.82-8.65c-4.94-2.82-9.89-5.6-14.84-8.31c-4.94-2.71-9.88-5.36-14.82-7.94
			c-4.95-2.59-9.93-5.14-14.92-7.64c-4.98-2.49-9.97-4.93-14.98-7.32c-4.99-2.38-9.99-4.71-14.99-6.98
			c-4.99-2.27-9.98-4.48-14.96-6.63c-5.01-2.16-10.04-4.28-15.08-6.34c-5.03-2.06-10.08-4.07-15.14-6.02
			c-5.04-1.95-10.09-3.85-15.14-5.69c-5.04-1.84-10.08-3.62-15.1-5.34c-5.07-1.74-10.15-3.42-15.25-5.06
			c-5.09-1.63-10.19-3.21-15.3-4.74c-5.1-1.52-10.2-3-15.3-4.41c-5.09-1.41-10.18-2.77-15.26-4.07c-5.13-1.31-10.27-2.57-15.43-3.78
			c-5.15-1.21-10.31-2.36-15.48-3.46c-5.16-1.1-10.32-2.14-15.48-3.13c-5.15-0.99-10.3-1.92-15.43-2.8
			c-5.2-0.89-10.41-1.72-15.63-2.5c-5.22-0.78-10.45-1.5-15.68-2.17c-5.23-0.67-10.46-1.28-15.68-1.84
			c-5.22-0.56-10.44-1.06-15.64-1.5c-5.27-0.45-10.57-0.85-15.87-1.19c-5.3-0.34-10.61-0.62-15.92-0.85
			c-5.31-0.23-10.62-0.4-15.93-0.51c-5.31-0.11-10.6-0.17-15.89-0.17c-5.28,0-10.58,0.06-15.87,0.17
			c-5.29,0.11-10.58,0.28-15.87,0.51c-5.28,0.23-10.56,0.51-15.82,0.85c-5.26,0.34-10.51,0.73-15.72,1.19
			c-5.15,0.44-10.3,0.95-15.45,1.5c-5.16,0.56-10.31,1.17-15.46,1.84c-5.15,0.67-10.29,1.39-15.41,2.17
			c-5.13,0.78-10.24,1.61-15.33,2.5c-5.03,0.88-10.06,1.81-15.09,2.8c-5.03,0.99-10.07,2.04-15.09,3.13
			c-5.03,1.1-10.05,2.26-15.05,3.46c-5.01,1.21-10,2.47-14.96,3.78c-4.92,1.3-9.84,2.66-14.75,4.07c-4.92,1.42-9.85,2.89-14.76,4.41
			c-4.92,1.53-9.83,3.11-14.71,4.74c-4.9,1.64-9.78,3.32-14.63,5.06c-4.82,1.72-9.63,3.51-14.45,5.34
			c-4.82,1.84-9.64,3.74-14.44,5.69c-4.81,1.95-9.61,3.96-14.39,6.02c-4.79,2.06-9.56,4.18-14.3,6.34
			c-4.72,2.15-9.44,4.36-14.15,6.63c-4.72,2.27-9.43,4.6-14.13,6.98c-4.71,2.39-9.4,4.83-14.08,7.32c-4.68,2.5-9.34,5.05-13.98,7.64
			c-4.62,2.59-9.24,5.24-13.84,7.94c-4.62,2.71-9.23,5.49-13.82,8.31c-4.6,2.83-9.19,5.72-13.75,8.65
			c-4.57,2.94-9.12,5.94-13.64,8.98c-4.52,3.04-9.03,6.14-13.52,9.31c-4.51,3.17-9.01,6.4-13.48,9.68
			c-4.49,3.29-8.96,6.64-13.4,10.04c-4.45,3.41-8.88,6.86-13.27,10.37c-4.4,3.51-8.8,7.09-13.17,10.73
			c-4.39,3.65-8.76,7.36-13.11,11.12c-4.36,3.78-8.7,7.61-13.01,11.49c-4.32,3.89-8.61,7.84-12.86,11.82
			c-4.28,4.01-8.54,8.09-12.78,12.23c-4.26,4.15-8.49,8.37-12.69,12.64c-4.22,4.29-8.41,8.63-12.57,13.02
			c-4.17,4.41-8.31,8.86-12.4,13.36c-4.13,4.54-8.24,9.15-12.32,13.82c-4.1,4.69-8.17,9.44-12.2,14.25
			c-4.05,4.83-8.07,9.72-12.05,14.65c-4,4.96-7.95,9.96-11.86,15.01c-3.95,5.1-7.88,10.28-11.77,15.52
			c-3.91,5.27-7.79,10.6-11.63,15.98c-3.86,5.41-7.67,10.88-11.44,16.4c-3.79,5.54-7.53,11.14-11.22,16.77
			c-3.74,5.71-7.45,11.5-11.11,17.36c-3.69,5.89-7.33,11.84-10.93,17.85c-3.62,6.04-7.19,12.14-10.71,18.29
			c-3.54,6.18-7.03,12.41-10.45,18.68c-3.48,6.37-6.93,12.83-10.32,19.35c-3.41,6.56-6.78,13.19-10.1,19.87
			c-3.33,6.73-6.61,13.51-9.84,20.34c-3.24,6.87-6.42,13.8-9.53,20.76c-3.17,7.09-6.29,14.27-9.36,21.52
			c-3.09,7.29-6.12,14.66-9.08,22.09c-2.99,7.47-5.91,15.01-8.77,22.59c-2.88,7.63-5.68,15.31-8.42,23.03
			c-2.79,7.88-5.52,15.85-8.19,23.9c-2.68,8.1-5.3,16.27-7.85,24.51c-2.56,8.29-5.06,16.65-7.48,25.06
			c-2.43,8.46-4.79,16.98-7.06,25.53c-2.29,8.61-4.5,17.29-6.64,26.04c-2.15,8.8-4.22,17.67-6.21,26.58
			c-2,8.97-3.92,17.99-5.75,27.05c-1.84,9.11-3.6,18.26-5.25,27.43c-1.65,9.09-3.21,18.26-4.68,27.48
			c-1.49,9.28-2.89,18.62-4.2,28.01c-1.32,9.45-2.55,18.93-3.68,28.45c-1.14,9.58-2.18,19.18-3.13,28.8
			c-0.94,9.55-1.79,19.18-2.54,28.85c-0.76,9.74-1.42,19.53-1.98,29.35c-0.57,9.89-1.04,19.81-1.4,29.76
			c-0.37,10.01-0.64,20.04-0.8,30.06c-0.16,9.98-0.22,20.02-0.18,30.1c0.04,10.15,0.19,20.34,0.45,30.56
			c0.25,10.29,0.62,20.6,1.09,30.91c0.47,10.39,1.05,20.78,1.74,31.16c0.69,10.35,1.49,20.75,2.4,31.18
			c0.92,10.5,1.95,21.03,3.1,31.57c1.15,10.61,2.42,21.24,3.8,31.85c1.39,10.69,2.89,21.37,4.51,32.01
			c1.62,10.64,3.36,21.32,5.22,32.01c1.87,10.76,3.87,21.54,5.98,32.31c2.13,10.84,4.38,21.68,6.74,32.49
			c2.38,10.88,4.88,21.74,7.5,32.55c2.62,10.83,5.38,21.67,8.26,32.5c2.9,10.91,5.93,21.81,9.09,32.68
			c3.17,10.95,6.48,21.86,9.9,32.74c3.44,10.94,7.01,21.83,10.7,32.66c3.7,10.86,7.54,21.72,11.51,32.55
			c4,10.9,8.13,21.76,12.39,32.58c4.29,10.88,8.7,21.72,13.24,32.48c4.57,10.83,9.26,21.58,14.06,32.24
			c4.83,10.72,9.81,21.41,14.93,32.04c5.15,10.7,10.43,21.34,15.85,31.9c5.45,10.63,11.02,21.17,16.72,31.62
			c5.73,10.51,11.58,20.91,17.54,31.19c6.01,10.36,12.17,20.66,18.47,30.88c6.33,10.27,12.8,20.45,19.39,30.53
			c6.63,10.13,13.39,20.15,20.26,30.04c6.91,9.94,13.93,19.75,21.06,29.4c7.2,9.75,14.54,19.4,22.02,28.93
			c7.52,9.58,15.17,19.04,22.93,28.35c7.81,9.36,15.73,18.58,23.77,27.64c8.07,9.1,16.24,18.04,24.51,26.79
			c8.36,8.85,16.86,17.57,25.49,26.13c8.66,8.6,17.45,17.04,26.35,25.31c8.93,8.3,17.98,16.43,27.11,24.36
			c9.17,7.96,18.43,15.73,27.76,23.28c9.45,7.65,19.04,15.12,28.73,22.41c9.73,7.31,19.57,14.42,29.5,21.33
			c9.96,6.93,20.02,13.65,30.14,20.15c10.16,6.52,20.38,12.81,30.66,18.86c10.42,6.13,20.96,12.06,31.59,17.75
			c10.66,5.71,21.4,11.2,32.22,16.45c10.84,5.26,21.75,10.28,32.71,15.05c10.98,4.78,22.01,9.3,33.06,13.57
			c11.22,4.33,22.52,8.4,33.89,12.23c11.39,3.83,22.85,7.4,34.35,10.71c11.52,3.31,23.08,6.36,34.65,9.14
			c11.59,2.78,23.19,5.28,34.79,7.51c11.78,2.26,23.62,4.24,35.5,5.95c11.89,1.71,23.81,3.13,35.74,4.27
			c11.94,1.14,23.89,2,35.82,2.58C501.45,2048.44,513.37,2048.72,525.25,2048.72 M525.49,2052.62
			c-192.77,0-374.46-73.22-530.29-199.43c-146.71-118.82-263.38-278.94-344.74-459.67c-73.94-164.23-116.76-341.25-128.39-517.58
			c-10.44-158.22,4.34-314.42,43.47-461.37c35.19-132.12,87.33-246.16,149.56-341.17C-227.47-14.3-160.2-87.68-87.52-145.62
			c68.81-54.85,144.07-97.14,222.91-125.34c76.6-27.4,158.59-42.22,244.23-42.22c85.64,0,169.46,14.82,249.44,42.22
			c82.31,28.2,162.79,70.49,238.36,125.34c79.82,57.94,156.14,131.32,224.4,219.01c73.95,95.01,140.16,209.05,191.64,341.17
			c57.26,146.95,91.3,303.15,100.37,461.37c10.11,176.33-10.88,353.35-64.57,517.58c-59.08,180.73-156.01,340.85-288.06,459.67
			C890.92,1979.39,718.26,2052.62,525.49,2052.62z"/>
	</g>
	<g id="Ellipse_10" transform="translate(38.372 99.148)">
		<path class="st5" d="M80.32-313.18c66.27,0,129.32,8.86,187.56,25.15c59.55,16.66,115.31,41.44,164.95,73.21
			c51.75,33.12,97.78,74.43,134.8,122.89C608.4-38.82,637.26,22.44,652.25,87.7c16.81,73.28,15.62,148.66-2.75,222.5
			c-19.78,79.47-59.26,156.39-116.64,225.35C471.84,608.87,391.84,671.7,297.09,717.1c-101.66,48.68-212.94,73.94-325.65,73.93
			c-116.27,0-222.03-26.82-311.07-73.93c-85.8-45.39-153.41-108.23-199.97-181.55c-43.78-68.95-68.1-145.88-72.2-225.35
			c-3.81-73.84,9.87-149.22,41.13-222.5c28.97-67.94,70.62-128.22,120.04-179.63c46.58-48.46,100.75-89.77,159.03-122.89
			C-178.2-279.16-50.07-313.05,80.32-313.18z"/>
		<path class="st1" d="M-28.43,789.62c7.17,0,14.36-0.1,21.56-0.31c7.2-0.21,14.42-0.52,21.62-0.94c7.21-0.42,14.41-0.94,21.59-1.56
			c7.18-0.62,14.34-1.34,21.47-2.17c7.02-0.81,14.05-1.73,21.08-2.74c7.02-1.01,14.04-2.13,21.05-3.34c7-1.21,13.97-2.52,20.92-3.93
			c6.94-1.4,13.85-2.9,20.71-4.49c6.76-1.57,13.52-3.23,20.27-4.99c6.73-1.76,13.45-3.61,20.14-5.56
			c6.68-1.94,13.32-3.97,19.92-6.09c6.59-2.11,13.14-4.31,19.63-6.59c6.41-2.25,12.8-4.6,19.16-7.03
			c6.35-2.43,12.67-4.94,18.94-7.54c6.26-2.59,12.48-5.26,18.65-8.01c6.15-2.74,12.25-5.56,18.29-8.45
			c5.96-2.86,11.9-5.8,17.79-8.82c5.88-3.01,11.72-6.1,17.51-9.27c5.77-3.16,11.49-6.38,17.15-9.67
			c5.64-3.28,11.22-6.63,16.73-10.04c5.45-3.37,10.87-6.82,16.23-10.34c5.35-3.51,10.65-7.09,15.88-10.73
			c5.22-3.63,10.38-7.32,15.48-11.07c5.08-3.73,10.09-7.52,15.02-11.36c4.89-3.8,9.73-7.67,14.52-11.61
			c4.77-3.92,9.48-7.9,14.12-11.92c4.63-4.02,9.19-8.08,13.68-12.19c4.47-4.09,8.87-8.23,13.19-12.4c4.29-4.15,8.53-8.35,12.7-12.61
			c4.16-4.24,8.25-8.53,12.27-12.86c4.01-4.31,7.95-8.67,11.81-13.06c3.85-4.37,7.62-8.77,11.3-13.2
			c3.67-4.41,7.28-8.87,10.82-13.36c3.53-4.48,6.99-9,10.38-13.55c3.37-4.53,6.67-9.1,9.9-13.68c3.21-4.57,6.34-9.15,9.39-13.76
			c3.04-4.59,6.02-9.23,8.92-13.89c2.89-4.65,5.72-9.32,8.46-14.02c2.74-4.68,5.4-9.38,7.98-14.09c2.57-4.69,5.07-9.4,7.48-14.1
			c2.41-4.71,4.76-9.45,7.03-14.22c2.26-4.74,4.45-9.51,6.57-14.29c2.11-4.76,4.14-9.53,6.09-14.3c1.95-4.75,3.81-9.51,5.6-14.27
			c1.79-4.77,3.52-9.56,5.17-14.36c1.64-4.78,3.22-9.58,4.71-14.38c1.49-4.78,2.91-9.57,4.25-14.35c1.34-4.76,2.6-9.52,3.78-14.27
			c1.19-4.77,2.31-9.56,3.36-14.35c1.04-4.77,2.01-9.55,2.91-14.33c0.89-4.76,1.72-9.51,2.47-14.26c0.75-4.72,1.42-9.44,2.02-14.14
			c0.6-4.73,1.14-9.47,1.6-14.21c0.46-4.72,0.85-9.44,1.18-14.15c0.32-4.69,0.57-9.38,0.75-14.05c0.18-4.65,0.29-9.28,0.34-13.89
			c0.04-4.65,0.02-9.3-0.08-13.96c-0.1-4.63-0.26-9.26-0.49-13.87c-0.23-4.59-0.53-9.18-0.89-13.74c-0.36-4.54-0.79-9.06-1.28-13.56
			c-0.49-4.54-1.06-9.08-1.69-13.62c-0.63-4.51-1.32-9.02-2.08-13.51c-0.75-4.47-1.57-8.92-2.45-13.36
			c-0.88-4.41-1.81-8.8-2.81-13.16c-0.99-4.34-2.05-8.67-3.17-12.98c-1.11-4.29-2.28-8.56-3.51-12.81
			c-1.22-4.23-2.51-8.43-3.84-12.59c-1.33-4.15-2.72-8.27-4.15-12.35c-1.41-4-2.88-7.99-4.4-11.96c-1.52-3.95-3.09-7.88-4.71-11.79
			c-1.62-3.89-3.28-7.75-5-11.59c-1.71-3.82-3.46-7.6-5.26-11.34c-1.77-3.68-3.59-7.35-5.47-10.99c-1.87-3.63-3.78-7.24-5.74-10.83
			c-1.95-3.57-3.95-7.11-6-10.62c-2.03-3.5-4.11-6.96-6.22-10.39c-2.08-3.38-4.21-6.74-6.39-10.07c-2.17-3.32-4.38-6.63-6.64-9.9
			c-2.25-3.26-4.53-6.5-6.86-9.7c-2.32-3.19-4.67-6.35-7.05-9.48c-2.35-3.08-4.75-6.15-7.2-9.19c-2.43-3.03-4.91-6.04-7.41-9.02
			c-2.5-2.97-5.04-5.91-7.61-8.82c-2.56-2.9-5.15-5.77-7.77-8.6c-2.59-2.8-5.22-5.59-7.89-8.35c-2.66-2.75-5.36-5.48-8.09-8.17
			c-2.72-2.69-5.48-5.35-8.26-7.98c-2.77-2.62-5.57-5.21-8.39-7.76c-2.8-2.53-5.64-5.04-8.51-7.53c-2.86-2.48-5.76-4.93-8.68-7.36
			c-2.92-2.42-5.86-4.81-8.83-7.16c-2.96-2.35-5.94-4.67-8.94-6.95c-2.98-2.27-6-4.52-9.05-6.74c-3.04-2.22-6.11-4.41-9.21-6.57
			c-3.09-2.16-6.2-4.28-9.33-6.38c-3.12-2.09-6.26-4.14-9.42-6.16c-3.15-2.02-6.33-4.01-9.53-5.97c-3.2-1.96-6.42-3.89-9.67-5.8
			c-3.24-1.9-6.5-3.77-9.78-5.61c-3.27-1.83-6.55-3.63-9.85-5.4c-3.3-1.77-6.62-3.51-9.97-5.22c-3.34-1.71-6.71-3.39-10.09-5.04
			c-3.38-1.65-6.77-3.27-10.18-4.85c-3.4-1.58-6.82-3.13-10.24-4.65c-3.43-1.52-6.89-3.01-10.37-4.48
			c-3.47-1.46-6.97-2.89-10.48-4.3c-3.5-1.4-7.02-2.77-10.55-4.11c-3.52-1.33-7.06-2.64-10.6-3.9c-3.56-1.27-7.14-2.52-10.74-3.74
			c-3.6-1.22-7.21-2.4-10.84-3.56c-3.62-1.15-7.26-2.28-10.91-3.37c-3.64-1.09-7.29-2.14-10.93-3.16c-3.68-1.03-7.38-2.03-11.1-3
			c-3.71-0.97-7.45-1.91-11.19-2.81c-3.74-0.91-7.49-1.78-11.24-2.62c-3.75-0.84-7.51-1.65-11.26-2.42
			c-3.79-0.78-7.61-1.53-11.44-2.25c-3.83-0.72-7.67-1.41-11.53-2.06c-3.85-0.66-7.71-1.28-11.58-1.87
			c-3.86-0.59-7.73-1.15-11.59-1.67c-3.91-0.53-7.84-1.03-11.79-1.49c-3.94-0.47-7.9-0.9-11.87-1.3c-3.97-0.4-7.94-0.77-11.92-1.1
			c-3.97-0.33-7.95-0.63-11.92-0.9c-4.03-0.27-8.08-0.51-12.14-0.71c-4.06-0.2-8.14-0.37-12.23-0.51
			c-4.08-0.14-8.18-0.24-12.27-0.31c-4.09-0.07-8.19-0.1-12.28-0.1c-4.09,0-8.19,0.03-12.3,0.1c-4.11,0.07-8.22,0.17-12.33,0.31
			c-4.11,0.14-8.22,0.31-12.33,0.51c-4.1,0.2-8.2,0.44-12.28,0.71c-4.03,0.27-8.06,0.57-12.1,0.9c-4.04,0.33-8.09,0.7-12.13,1.1
			c-4.05,0.4-8.09,0.83-12.13,1.3c-4.04,0.47-8.07,0.96-12.08,1.49c-3.97,0.52-7.94,1.08-11.92,1.67
			c-3.98,0.59-7.97,1.21-11.95,1.87c-3.98,0.66-7.96,1.34-11.94,2.06c-3.97,0.72-7.94,1.47-11.89,2.25
			c-3.91,0.77-7.82,1.58-11.74,2.42c-3.92,0.84-7.84,1.72-11.76,2.62c-3.92,0.91-7.84,1.85-11.74,2.81c-3.91,0.97-7.81,1.97-11.69,3
			c-3.85,1.02-7.7,2.08-11.56,3.16c-3.86,1.09-7.72,2.21-11.57,3.37c-3.86,1.16-7.71,2.34-11.54,3.56
			c-3.84,1.22-7.67,2.46-11.48,3.74c-3.79,1.27-7.58,2.57-11.37,3.9c-3.79,1.34-7.58,2.71-11.36,4.11c-3.79,1.4-7.57,2.84-11.33,4.3
			c-3.77,1.46-7.52,2.96-11.25,4.48c-3.72,1.51-7.44,3.06-11.15,4.65c-3.72,1.59-7.44,3.2-11.14,4.85
			c-3.71,1.65-7.41,3.33-11.09,5.04c-3.69,1.71-7.36,3.45-11,5.22c-3.64,1.77-7.28,3.57-10.91,5.4c-3.64,1.84-7.27,3.71-10.88,5.61
			c-3.62,1.9-7.23,3.84-10.81,5.8c-3.59,1.96-7.17,3.96-10.71,5.97c-3.55,2.02-7.1,4.08-10.64,6.16c-3.54,2.09-7.07,4.22-10.59,6.38
			c-3.52,2.16-7.02,4.35-10.5,6.57c-3.49,2.22-6.95,4.47-10.38,6.74c-3.45,2.28-6.89,4.6-10.31,6.95
			c-3.43,2.36-6.85,4.75-10.24,7.16c-3.4,2.43-6.78,4.88-10.13,7.36c-3.36,2.49-6.7,5-9.99,7.53c-3.33,2.55-6.64,5.14-9.92,7.76
			c-3.3,2.63-6.58,5.29-9.83,7.98c-3.26,2.7-6.5,5.42-9.7,8.17c-3.21,2.76-6.4,5.54-9.54,8.35c-3.18,2.83-6.33,5.7-9.47,8.6
			c-3.14,2.91-6.26,5.85-9.35,8.82c-3.1,2.98-6.16,5.99-9.19,9.02c-3.04,3.04-6.05,6.11-9.01,9.19c-3,3.12-5.98,6.28-8.92,9.48
			c-2.96,3.2-5.88,6.44-8.77,9.7c-2.9,3.28-5.77,6.58-8.59,9.9c-2.84,3.34-5.63,6.7-8.38,10.07c-2.79,3.43-5.55,6.89-8.27,10.39
			c-2.73,3.51-5.43,7.05-8.09,10.62c-2.67,3.58-5.3,7.19-7.88,10.83c-2.59,3.65-5.14,7.31-7.64,10.99
			c-2.54,3.75-5.04,7.53-7.5,11.34c-2.47,3.83-4.9,7.7-7.28,11.59c-2.39,3.91-4.74,7.84-7.04,11.79c-2.31,3.97-4.56,7.96-6.76,11.96
			c-2.24,4.08-4.44,8.2-6.59,12.35c-2.16,4.17-4.27,8.37-6.33,12.59c-2.07,4.25-4.08,8.52-6.04,12.81
			c-1.97,4.31-3.88,8.64-5.73,12.98c-1.86,4.36-3.66,8.75-5.41,13.16c-1.75,4.43-3.45,8.89-5.09,13.36c-1.64,4.49-3.23,9-4.74,13.51
			c-1.52,4.53-2.98,9.08-4.37,13.62c-1.38,4.5-2.69,9.02-3.95,13.56c-1.26,4.56-2.46,9.15-3.6,13.74
			c-1.14,4.62-2.22,9.24-3.22,13.87c-1.01,4.65-1.96,9.31-2.83,13.96c-0.87,4.61-1.67,9.24-2.4,13.89
			c-0.74,4.67-1.41,9.35-2.02,14.05c-0.61,4.71-1.15,9.43-1.62,14.15c-0.47,4.74-0.87,9.48-1.2,14.21
			c-0.33,4.7-0.58,9.41-0.77,14.14c-0.19,4.75-0.3,9.5-0.35,14.26c-0.04,4.78-0.02,9.56,0.09,14.33c0.1,4.79,0.28,9.58,0.53,14.35
			c0.25,4.75,0.57,9.51,0.97,14.27c0.4,4.78,0.87,9.57,1.42,14.35c0.55,4.8,1.18,9.6,1.88,14.38c0.7,4.8,1.48,9.6,2.34,14.36
			c0.85,4.75,1.78,9.51,2.79,14.27c1.01,4.78,2.1,9.55,3.27,14.3c1.17,4.78,2.42,9.54,3.75,14.29c1.33,4.76,2.74,9.51,4.23,14.22
			c1.48,4.71,3.05,9.41,4.7,14.1c1.65,4.71,3.39,9.41,5.2,14.09c1.82,4.7,3.72,9.37,5.7,14.02c1.99,4.67,4.05,9.3,6.18,13.89
			c2.14,4.6,4.37,9.19,6.67,13.76c2.32,4.59,4.72,9.15,7.2,13.68c2.49,4.55,5.06,9.07,7.7,13.55c2.65,4.5,5.39,8.96,8.19,13.36
			c2.81,4.43,5.71,8.83,8.7,13.2c3,4.39,6.07,8.74,9.23,13.06c3.17,4.33,6.42,8.62,9.74,12.86c3.33,4.26,6.74,8.46,10.21,12.61
			c3.49,4.17,7.08,8.31,10.74,12.4c3.68,4.11,7.44,8.17,11.28,12.19c3.85,4.03,7.78,8.01,11.77,11.92
			c4.01,3.93,8.09,7.8,12.23,11.61c4.17,3.83,8.44,7.62,12.78,11.36c4.35,3.75,8.79,7.44,13.3,11.07
			c4.52,3.64,9.11,7.22,13.77,10.73c4.67,3.52,9.4,6.97,14.19,10.34c4.84,3.41,9.76,6.76,14.75,10.04
			c5.01,3.29,10.09,6.52,15.24,9.67c5.16,3.16,10.39,6.25,15.68,9.27c5.3,3.02,10.65,5.96,16.05,8.82
			c5.46,2.89,11.01,5.71,16.62,8.45c5.62,2.75,11.32,5.42,17.07,8.01c5.76,2.6,11.59,5.11,17.45,7.54
			c5.88,2.43,11.81,4.78,17.77,7.03c6.04,2.28,12.15,4.48,18.33,6.59c6.18,2.12,12.43,4.15,18.72,6.09
			c6.3,1.94,12.65,3.8,19.04,5.56c6.4,1.76,12.83,3.43,19.28,4.99c6.55,1.59,13.16,3.09,19.82,4.49c6.67,1.4,13.39,2.71,20.15,3.93
			c6.76,1.21,13.56,2.33,20.39,3.34c6.83,1.02,13.68,1.93,20.54,2.74c6.97,0.82,13.99,1.55,21.05,2.17
			c7.06,0.62,14.16,1.14,21.29,1.56c7.13,0.42,14.28,0.73,21.44,0.94C-42.76,789.51-35.59,789.62-28.43,789.62 M-28.57,791.03
			c-116.27,0-222.03-26.82-311.07-73.93c-85.8-45.39-153.41-108.23-199.97-181.55c-43.78-68.95-68.1-145.88-72.2-225.34
			c-3.81-73.84,9.87-149.22,41.13-222.5c28.98-67.94,70.63-128.22,120.05-179.63c46.58-48.46,100.75-89.77,159.03-122.89
			c55.91-31.77,116.55-56.55,179.39-73.21c61.46-16.3,126.25-25.15,192.52-25.15s129.32,8.86,187.56,25.15
			c59.55,16.66,115.31,41.44,164.95,73.21c51.75,33.12,97.78,74.43,134.8,122.89c39.28,51.41,69.04,111.69,84.62,179.63
			c16.81,73.28,15.62,148.66-2.75,222.5c-19.77,79.47-59.26,156.39-116.64,225.34c-61.02,73.33-141.02,136.16-235.77,181.55
			C198.75,764.21,87.71,791.03-28.57,791.03z"/>
	</g>
</g>
</svg>
