<?xml version="1.0" encoding="utf-8"?>
<!-- Generator: Adobe Illustrator 25.2.1, SVG Export Plug-In . SVG Version: 6.00 Build 0)  -->
<svg version="1.1" id="Calque_1" xmlns="http://www.w3.org/2000/svg" xmlns:xlink="http://www.w3.org/1999/xlink" x="0px" y="0px"
	 viewBox="0 0 1194 834" style="enable-background:new 0 0 1194 834;" xml:space="preserve">
<style type="text/css">
	.st0{fill:#FF8F8F;}
	.st1{fill:#707070;}
	.st2{fill:#FF6B6B;}
	.st3{fill:#21D6CD;}
	.st4{fill:#71D2CD;}
	.st5{fill:#1BA19A;}
</style>
<g id="Groupe_55">
	<g id="Ellipse_14" transform="translate(678.305 750.546)">
		<path class="st0" d="M-19.96-459.82c61.25,5.07,120.89,22.2,175.48,50.41c50.75,26.08,97.48,61.37,138.76,103.62
			c40.61,41.56,77.04,90.95,107.64,146.68c30.93,56.32,56.79,120.72,75.55,192.5c19.54,74.78,30.05,152.5,31.89,230.78
			c1.9,85.31-6.08,170.56-23.78,254.04c-19.49,92.14-51.21,184.13-95.72,269.76c-49.29,94.82-114.67,182.62-196.36,253.06
			c-91.17,78.62-191.96,126.62-295.46,141.06c-112.31,15.66-223.1-8.8-321.95-72.43c-102.43-65.92-186.43-170.23-241.94-304.74
			c-54.27-131.49-78.11-284.13-66.88-445.6c10.37-149.17,49.44-285.79,106.81-402.25c51.84-105.24,117.91-192.5,190.96-259.26
			C-369-362.46-297.3-406.07-224.06-432.16C-157.22-455.98-88.42-465.46-19.96-459.82z"/>
		<path class="st1" d="M193.29,1039.41c5.3-4.56,10.55-9.22,15.75-13.97c5.17-4.71,10.28-9.52,15.34-14.4
			c5.02-4.85,9.99-9.77,14.89-14.76c4.86-4.95,9.66-9.97,14.39-15.05c4.62-4.97,9.21-10.02,13.74-15.15
			c4.5-5.09,8.95-10.26,13.34-15.48c4.36-5.19,8.67-10.44,12.91-15.75c4.21-5.27,8.36-10.59,12.44-15.95
			c4-5.26,7.95-10.58,11.86-15.97c3.88-5.35,7.71-10.76,11.48-16.22c3.75-5.42,7.44-10.9,11.07-16.41
			c3.61-5.47,7.16-10.99,10.64-16.53c3.42-5.44,6.8-10.94,10.12-16.5c3.31-5.51,6.56-11.08,9.77-16.68
			c3.18-5.56,6.31-11.17,9.38-16.79c3.05-5.59,6.05-11.21,8.98-16.85c2.89-5.55,5.73-11.15,8.53-16.78
			c2.78-5.6,5.51-11.24,8.19-16.91c2.66-5.63,5.28-11.29,7.84-16.97c2.54-5.64,5.03-11.3,7.46-16.97c2.4-5.59,4.76-11.22,7.07-16.89
			c2.3-5.63,4.55-11.28,6.75-16.96c2.19-5.64,4.33-11.3,6.42-16.97c2.08-5.64,4.1-11.28,6.07-16.93c1.95-5.59,3.86-11.2,5.72-16.84
			c1.85-5.61,3.66-11.24,5.43-16.88c1.75-5.61,3.46-11.23,5.12-16.85c1.65-5.59,3.25-11.18,4.8-16.77
			c1.54-5.54,3.04-11.11,4.49-16.69c1.45-5.55,2.85-11.12,4.21-16.69c1.35-5.54,2.66-11.09,3.93-16.64
			c1.26-5.51,2.47-11.03,3.63-16.53c1.16-5.47,2.28-10.96,3.36-16.46c1.07-5.47,2.1-10.95,3.09-16.43
			c0.98-5.45,1.93-10.91,2.83-16.35c0.9-5.42,1.75-10.83,2.56-16.22c0.81-5.38,1.58-10.77,2.31-16.17
			c0.73-5.37,1.41-10.75,2.06-16.12c0.64-5.35,1.25-10.69,1.81-16.02c0.56-5.3,1.08-10.6,1.56-15.87
			c0.48-5.27,0.92-10.55,1.33-15.84c0.4-5.26,0.77-10.52,1.09-15.77c0.33-5.23,0.61-10.45,0.86-15.66
			c0.25-5.18,0.46-10.35,0.63-15.49c0.17-5.16,0.31-10.32,0.41-15.49c0.1-5.14,0.16-10.28,0.19-15.41
			c0.03-5.11,0.02-10.2-0.03-15.28c-0.05-5.06-0.13-10.1-0.25-15.11c-0.12-5.04-0.27-10.08-0.46-15.12
			c-0.19-5.02-0.41-10.03-0.67-15.04c-0.26-4.98-0.55-9.95-0.88-14.9c-0.33-4.93-0.69-9.84-1.08-14.73
			c-0.4-4.92-0.83-9.84-1.3-14.76c-0.47-4.9-0.97-9.79-1.5-14.67c-0.53-4.86-1.1-9.71-1.7-14.53c-0.6-4.81-1.23-9.59-1.89-14.35
			c-0.67-4.8-1.37-9.61-2.11-14.4c-0.74-4.78-1.5-9.55-2.31-14.31c-0.8-4.74-1.63-9.47-2.5-14.17c-0.86-4.69-1.75-9.36-2.68-13.99
			c-0.93-4.69-1.9-9.38-2.9-14.06c-1-4.67-2.03-9.33-3.1-13.97c-1.06-4.63-2.16-9.24-3.29-13.83c-1.12-4.58-2.28-9.13-3.46-13.66
			c-1.18-4.51-2.39-9.02-3.63-13.5c-1.24-4.47-2.51-8.93-3.81-13.36c-1.3-4.42-2.62-8.82-3.97-13.19
			c-1.35-4.36-2.72-8.68-4.12-12.97c-1.38-4.22-2.79-8.42-4.22-12.61c-1.44-4.18-2.9-8.34-4.39-12.48
			c-1.49-4.13-3.01-8.24-4.55-12.32c-1.54-4.07-3.1-8.11-4.69-12.12c-1.56-3.95-3.15-7.88-4.77-11.8
			c-1.62-3.91-3.26-7.81-4.94-11.68c-1.67-3.87-3.36-7.71-5.08-11.53c-1.72-3.81-3.45-7.59-5.21-11.34c-1.74-3.7-3.5-7.39-5.3-11.06
			c-1.79-3.67-3.61-7.31-5.45-10.94c-1.84-3.62-3.71-7.22-5.59-10.79c-1.88-3.57-3.79-7.1-5.71-10.61c-1.9-3.47-3.84-6.92-5.8-10.36
			c-1.96-3.43-3.94-6.85-5.95-10.24c-2.01-3.39-4.03-6.76-6.08-10.09c-2.05-3.33-4.11-6.64-6.2-9.91c-2.07-3.25-4.16-6.48-6.28-9.69
			c-2.12-3.21-4.27-6.4-6.43-9.57c-2.17-3.17-4.35-6.31-6.56-9.42c-2.21-3.11-4.43-6.19-6.67-9.24c-2.23-3.03-4.48-6.05-6.76-9.04
			c-2.28-3-4.58-5.97-6.91-8.92c-2.32-2.95-4.67-5.87-7.03-8.76c-2.36-2.89-4.74-5.75-7.13-8.58c-2.39-2.82-4.8-5.62-7.24-8.4
			c-2.44-2.78-4.9-5.54-7.38-8.27c-2.48-2.73-4.99-5.44-7.5-8.11c-2.52-2.67-5.06-5.32-7.6-7.92c-2.55-2.61-5.12-5.2-7.72-7.76
			c-2.6-2.56-5.22-5.1-7.86-7.61c-2.64-2.51-5.31-5-7.98-7.45c-2.68-2.45-5.37-4.87-8.08-7.25c-2.71-2.39-5.45-4.76-8.21-7.1
			c-2.76-2.34-5.55-4.66-8.35-6.94c-2.81-2.29-5.63-4.54-8.47-6.76c-2.84-2.22-5.7-4.41-8.56-6.56c-2.88-2.16-5.79-4.3-8.72-6.41
			c-2.93-2.11-5.89-4.19-8.86-6.24c-2.98-2.05-5.97-4.07-8.98-6.05c-3.01-1.98-6.04-3.93-9.07-5.84c-3.06-1.92-6.14-3.82-9.25-5.68
			c-3.11-1.87-6.25-3.7-9.39-5.49c-3.16-1.8-6.33-3.56-9.51-5.29c-3.19-1.73-6.39-3.42-9.6-5.07c-3.25-1.67-6.52-3.3-9.81-4.9
			c-3.3-1.6-6.62-3.17-9.95-4.69c-3.34-1.53-6.7-3.02-10.07-4.47c-3.38-1.45-6.77-2.86-10.16-4.23c-3.44-1.39-6.91-2.73-10.4-4.04
			c-3.5-1.31-7.02-2.59-10.55-3.82c-3.55-1.23-7.11-2.43-10.68-3.57c-3.58-1.15-7.18-2.26-10.77-3.32
			c-3.66-1.08-7.34-2.11-11.04-3.1c-3.72-0.99-7.45-1.94-11.2-2.85c-3.77-0.91-7.55-1.77-11.33-2.58c-3.8-0.82-7.62-1.58-11.43-2.3
			c-3.89-0.73-7.8-1.41-11.74-2.05c-3.95-0.64-7.92-1.22-11.91-1.76c-4.01-0.54-8.03-1.03-12.05-1.46
			c-4.05-0.44-8.1-0.82-12.16-1.16c-4.08-0.33-8.17-0.61-12.28-0.84c-4.13-0.23-8.27-0.4-12.42-0.52c-4.17-0.12-8.34-0.19-12.52-0.2
			c-4.19-0.01-8.39,0.04-12.58,0.14c-4.15,0.1-8.31,0.26-12.49,0.47c-4.2,0.21-8.41,0.49-12.62,0.81
			c-4.24,0.33-8.48,0.72-12.72,1.16c-4.26,0.45-8.52,0.95-12.77,1.51c-4.22,0.56-8.45,1.17-12.69,1.85
			c-4.27,0.68-8.54,1.42-12.82,2.22c-4.3,0.8-8.61,1.67-12.91,2.59c-4.32,0.93-8.64,1.91-12.95,2.96c-4.28,1.04-8.58,2.14-12.88,3.3
			c-4.33,1.17-8.66,2.4-13,3.7c-4.36,1.3-8.72,2.67-13.07,4.09c-4.38,1.43-8.74,2.93-13.1,4.48c-4.34,1.55-8.69,3.16-13.04,4.85
			c-4.38,1.69-8.76,3.45-13.13,5.27c-4.4,1.83-8.8,3.73-13.19,5.69c-4.41,1.97-8.82,4.01-13.2,6.1c-4.38,2.09-8.76,4.26-13.14,6.49
			c-4.41,2.25-8.82,4.56-13.22,6.95c-4.43,2.4-8.84,4.86-13.25,7.39c-4.43,2.54-8.84,5.15-13.23,7.82
			c-4.39,2.67-8.79,5.42-13.18,8.25c-4.42,2.84-8.83,5.75-13.22,8.73c-4.42,3-8.83,6.07-13.22,9.2c-4.41,3.15-8.81,6.37-13.17,9.66
			c-4.38,3.29-8.75,6.67-13.11,10.12c-4.39,3.47-8.76,7.02-13.12,10.64c-4.38,3.64-8.74,7.35-13.08,11.13
			c-4.36,3.8-8.69,7.67-12.99,11.6c-4.32,3.95-8.63,7.99-12.92,12.11c-4.32,4.14-8.61,8.36-12.88,12.66
			c-4.29,4.32-8.56,8.71-12.79,13.17c-4.26,4.49-8.48,9.04-12.65,13.65c-4.21,4.65-8.4,9.39-12.56,14.21
			c-4.19,4.85-8.34,9.78-12.46,14.79c-4.15,5.04-8.25,10.14-12.31,15.32c-4.09,5.21-8.13,10.48-12.12,15.81
			c-4.03,5.39-8.03,10.87-11.99,16.42c-3.98,5.59-7.93,11.27-11.83,17.01c-3.92,5.78-7.79,11.64-11.61,17.55
			c-3.84,5.95-7.63,11.97-11.34,18.04c-3.77,6.15-7.49,12.39-11.17,18.71c-3.7,6.36-7.34,12.8-10.92,19.3
			c-3.61,6.55-7.15,13.17-10.63,19.84c-3.5,6.72-6.93,13.49-10.29,20.31c-3.41,6.93-6.76,13.94-10.04,21.03
			c-3.3,7.14-6.54,14.35-9.71,21.62c-3.19,7.32-6.3,14.71-9.33,22.14c-3.05,7.48-6.02,15.01-8.9,22.58
			c-2.93,7.7-5.79,15.49-8.56,23.34c-2.79,7.9-5.51,15.88-8.13,23.91c-2.64,8.08-5.2,16.22-7.66,24.39
			c-2.48,8.23-4.86,16.49-7.14,24.78c-2.32,8.45-4.56,16.98-6.69,25.57c-2.15,8.64-4.2,17.34-6.15,26.09
			c-1.96,8.8-3.82,17.64-5.58,26.51c-1.76,8.92-3.42,17.87-4.96,26.83c-1.57,9.14-3.04,18.35-4.39,27.6
			c-1.36,9.31-2.61,18.66-3.74,28.05c-1.14,9.44-2.16,18.9-3.06,28.38c-0.9,9.53-1.69,19.07-2.35,28.6
			c-0.66,9.58-1.2,19.19-1.62,28.82c-0.42,9.67-0.71,19.36-0.87,29.03c-0.16,9.72-0.2,19.44-0.11,29.13
			c0.09,9.73,0.32,19.43,0.67,29.09c0.35,9.55,0.83,19.11,1.44,28.67c0.61,9.59,1.36,19.17,2.23,28.72
			c0.88,9.59,1.89,19.14,3.03,28.64c1.14,9.54,2.42,19.02,3.82,28.44c1.39,9.32,2.91,18.63,4.57,27.9
			c1.66,9.3,3.45,18.56,5.37,27.77c1.93,9.24,3.98,18.42,6.17,27.52c2.19,9.13,4.5,18.18,6.94,27.14
			c2.42,8.88,4.97,17.72,7.65,26.49c2.69,8.8,5.5,17.53,8.44,26.19c2.95,8.67,6.01,17.27,9.2,25.76c3.19,8.51,6.51,16.92,9.93,25.21
			c3.4,8.23,6.93,16.39,10.58,24.47c3.66,8.09,7.43,16.09,11.33,23.99c3.9,7.91,7.91,15.71,12.03,23.4
			c4.12,7.69,8.35,15.26,12.68,22.7c4.3,7.39,8.72,14.68,13.25,21.87c4.53,7.19,9.18,14.27,13.93,21.24
			c4.75,6.96,9.6,13.8,14.54,20.51c4.94,6.7,9.98,13.27,15.09,19.68c5.09,6.38,10.29,12.65,15.58,18.79
			c5.29,6.14,10.68,12.15,16.16,18.03c5.47,5.87,11.03,11.6,16.67,17.18c5.63,5.58,11.33,11,17.09,16.27
			c5.74,5.25,11.58,10.36,17.5,15.34c5.91,4.97,11.9,9.8,17.96,14.47c6.05,4.67,12.17,9.19,18.34,13.56
			c6.16,4.35,12.38,8.55,18.63,12.58c6.24,4.02,12.56,7.9,18.95,11.63c6.37,3.72,12.8,7.29,19.29,10.71
			c6.47,3.41,12.98,6.66,19.53,9.75c6.53,3.08,13.1,6,19.69,8.76c6.59,2.75,13.23,5.36,19.92,7.81c6.67,2.44,13.38,4.73,20.13,6.86
			c6.72,2.12,13.47,4.09,20.24,5.9c6.74,1.8,13.5,3.44,20.27,4.92c6.77,1.48,13.58,2.81,20.42,3.98c6.81,1.17,13.65,2.19,20.5,3.05
			c6.82,0.86,13.66,1.56,20.49,2.11c6.8,0.55,13.61,0.95,20.39,1.19c6.81,0.24,13.64,0.34,20.48,0.28
			c6.81-0.06,13.63-0.27,20.44-0.62c6.78-0.35,13.56-0.85,20.32-1.5c6.73-0.64,13.44-1.43,20.12-2.35
			c6.71-0.93,13.42-2.01,20.14-3.23c6.68-1.21,13.35-2.57,20-4.07c6.62-1.49,13.22-3.11,19.79-4.87c6.53-1.75,13.03-3.62,19.49-5.63
			c6.49-2.02,12.99-4.17,19.46-6.46c6.44-2.28,12.85-4.69,19.24-7.23c6.35-2.52,12.67-5.17,18.95-7.94
			c6.24-2.75,12.44-5.62,18.59-8.6c6.19-3,12.36-6.13,18.51-9.39c6.11-3.24,12.18-6.59,18.22-10.06c6-3.45,11.96-7.01,17.87-10.68
			c5.87-3.64,11.7-7.39,17.46-11.23c5.81-3.87,11.6-7.87,17.35-11.97c5.71-4.08,11.39-8.27,17.01-12.56
			c5.59-4.26,11.13-8.62,16.62-13.07C182.56,1048.51,187.96,1044,193.29,1039.41 M193.52,1041.04
			c-91.17,78.62-191.96,126.62-295.46,141.06c-112.31,15.66-223.1-8.8-321.95-72.43c-102.43-65.93-186.43-170.24-241.94-304.75
			c-54.27-131.49-78.11-284.13-66.88-445.6c10.37-149.17,49.44-285.79,106.81-402.25c51.84-105.24,117.91-192.5,190.96-259.26
			C-369-362.45-297.3-406.06-224.06-432.16c66.84-23.82,135.64-33.3,204.1-27.66c63.58,5.23,122.47,23.17,175.48,50.41
			c50.75,26.08,97.47,61.37,138.76,103.63c40.61,41.56,77.04,90.95,107.64,146.68c30.93,56.32,56.79,120.72,75.55,192.5
			c19.54,74.78,30.05,152.5,31.89,230.78c1.97,83.53-5.89,169.47-23.78,254.04c-19.49,92.14-51.21,184.13-95.72,269.76
			C340.59,882.8,275.21,970.6,193.52,1041.04z"/>
	</g>
	<g id="Ellipse_13" transform="translate(888.828 26.964)">
		<path class="st2" d="M-286.58-316.35c51.81,20.64,100.88,47.59,146.08,80.25c42.45,30.58,81.5,65.6,116.51,104.47
			C9.83-94.21,39.5-53.25,64.51-9.45C89.25,34.12,109,80.71,121.94,129.03c13.37,49.94,18.48,98.06,15.9,142.99
			c-2.72,47.33-14.03,91.87-33.67,131.41c-21.2,43.03-52.83,80.06-92.02,107.72c-43.5,30.69-98.28,51.45-163.55,57.5
			c-70.69,6.56-145.7-4.79-220.2-32.45c-78.86-29.27-154.74-75.91-221.48-136.2c-68.36-61.75-124.57-135.5-162.77-215.45
			c-37.63-78.72-56.28-160.32-52.42-238.48c3.66-74,27.11-135.74,64.3-183.61c34.57-44.51,80.58-76.48,133.23-95.79
			c48.77-17.89,103.17-24.89,160-21.22C-397.82-351.12-342.43-338.41-286.58-316.35z"/>
		<path class="st1" d="M-151.55,567.78c4.18-0.39,8.33-0.83,12.45-1.34c4.1-0.51,8.18-1.08,12.22-1.71c4.02-0.63,8-1.31,11.94-2.05
			c3.92-0.74,7.8-1.53,11.63-2.38c3.76-0.83,7.49-1.73,11.19-2.67c3.68-0.94,7.33-1.94,10.95-2.99c3.6-1.05,7.16-2.14,10.68-3.29
			c3.5-1.14,6.96-2.34,10.37-3.58c3.35-1.22,6.67-2.49,9.96-3.81c3.27-1.31,6.52-2.68,9.72-4.09c3.19-1.4,6.34-2.85,9.45-4.35
			c3.09-1.49,6.15-3.02,9.15-4.59c2.96-1.54,5.89-3.14,8.78-4.78c2.88-1.63,5.73-3.3,8.54-5.02c2.8-1.71,5.56-3.45,8.28-5.24
			c2.71-1.78,5.37-3.59,7.99-5.43c2.58-1.82,5.14-3.68,7.66-5.59c2.51-1.89,4.98-3.83,7.42-5.8c2.43-1.96,4.82-3.95,7.16-5.98
			c2.34-2.02,4.63-4.06,6.89-6.14c2.23-2.05,4.42-4.14,6.59-6.27c2.15-2.12,4.27-4.26,6.35-6.45c2.07-2.17,4.11-4.37,6.11-6.6
			c1.99-2.22,3.94-4.46,5.84-6.72c1.89-2.24,3.74-4.52,5.57-6.83c1.82-2.3,3.6-4.63,5.34-6.98c1.74-2.34,3.44-4.71,5.1-7.11
			c1.66-2.38,3.27-4.78,4.85-7.2c1.57-2.4,3.1-4.84,4.6-7.3c1.5-2.45,2.96-4.93,4.38-7.43c1.42-2.49,2.81-5,4.15-7.52
			c1.34-2.52,2.65-5.05,3.91-7.6c1.26-2.54,2.49-5.1,3.69-7.68c1.19-2.58,2.35-5.17,3.47-7.79c1.12-2.61,2.2-5.23,3.25-7.87
			c1.04-2.63,2.05-5.27,3.02-7.91c0.97-2.65,1.91-5.31,2.81-8c0.9-2.68,1.77-5.38,2.61-8.09c0.83-2.7,1.63-5.42,2.39-8.15
			c0.76-2.72,1.49-5.44,2.18-8.18c0.69-2.74,1.35-5.49,1.98-8.27c0.63-2.76,1.22-5.54,1.78-8.34c0.56-2.78,1.08-5.58,1.58-8.38
			c0.49-2.79,0.95-5.59,1.37-8.39c0.42-2.81,0.82-5.64,1.18-8.49c0.36-2.83,0.69-5.68,0.98-8.54c0.29-2.85,0.56-5.71,0.79-8.57
			c0.23-2.85,0.43-5.71,0.59-8.57c0.17-2.88,0.3-5.77,0.4-8.67c0.1-2.9,0.17-5.8,0.21-8.72c0.04-2.91,0.05-5.82,0.02-8.73
			c-0.02-2.91-0.08-5.82-0.16-8.72c-0.09-2.93-0.2-5.88-0.35-8.83c-0.15-2.95-0.33-5.91-0.54-8.87c-0.21-2.96-0.45-5.92-0.72-8.88
			c-0.27-2.95-0.57-5.91-0.9-8.86c-0.33-2.98-0.7-5.98-1.09-8.98c-0.39-3-0.82-6-1.28-9.01c-0.45-3-0.94-6.01-1.45-9.01
			c-0.51-3-1.05-6-1.63-8.99c-0.58-3.03-1.19-6.07-1.83-9.12c-0.64-3.04-1.31-6.09-2.01-9.15c-0.7-3.05-1.43-6.1-2.19-9.14
			c-0.76-3.04-1.54-6.08-2.35-9.11c-0.81-3.03-1.65-6.06-2.52-9.09c-0.87-3.03-1.76-6.06-2.69-9.08c-0.92-3.02-1.87-6.04-2.85-9.05
			c-0.97-3-1.97-6-2.99-8.98c-1.01-2.93-2.04-5.87-3.11-8.81c-1.06-2.94-2.15-5.87-3.27-8.8c-1.11-2.93-2.25-5.85-3.41-8.77
			c-1.16-2.91-2.35-5.81-3.55-8.7c-1.19-2.85-2.41-5.7-3.65-8.55c-1.24-2.85-2.51-5.7-3.8-8.54c-1.29-2.84-2.61-5.67-3.94-8.5
			c-1.34-2.82-2.69-5.64-4.07-8.44c-1.36-2.77-2.75-5.53-4.16-8.3c-1.41-2.76-2.85-5.53-4.31-8.29c-1.46-2.76-2.94-5.5-4.44-8.24
			c-1.5-2.74-3.02-5.46-4.56-8.18c-1.52-2.69-3.08-5.37-4.65-8.06c-1.57-2.68-3.17-5.36-4.79-8.04c-1.62-2.67-3.26-5.34-4.92-7.99
			c-1.66-2.65-3.34-5.3-5.03-7.92c-1.68-2.61-3.39-5.22-5.12-7.82c-1.73-2.6-3.48-5.2-5.26-7.79c-1.77-2.59-3.57-5.17-5.38-7.74
			c-1.81-2.57-3.64-5.13-5.48-7.67c-1.83-2.53-3.69-5.06-5.57-7.58c-1.88-2.52-3.78-5.04-5.71-7.54c-1.92-2.51-3.86-5-5.82-7.49
			c-1.96-2.48-3.93-4.96-5.92-7.41c-1.98-2.45-3.99-4.89-6.02-7.33c-2.03-2.44-4.08-4.87-6.14-7.29c-2.07-2.42-4.15-4.83-6.25-7.23
			c-2.1-2.4-4.22-4.78-6.35-7.14c-2.13-2.36-4.28-4.72-6.45-7.07c-2.17-2.35-4.37-4.69-6.58-7.02c-2.21-2.33-4.44-4.65-6.69-6.95
			c-2.24-2.3-4.5-4.59-6.77-6.86c-2.28-2.27-4.57-4.54-6.89-6.8c-2.32-2.26-4.66-4.51-7.01-6.74c-2.36-2.24-4.73-4.46-7.12-6.66
			c-2.39-2.21-4.79-4.39-7.19-6.56c-2.42-2.18-4.87-4.35-7.33-6.5c-2.47-2.16-4.95-4.3-7.45-6.43c-2.5-2.13-5.02-4.25-7.55-6.34
			c-2.53-2.1-5.08-4.18-7.62-6.23c-2.57-2.07-5.17-4.14-7.78-6.18c-2.62-2.05-5.25-4.09-7.9-6.1c-2.65-2.02-5.32-4.02-7.99-6
			c-2.68-1.98-5.37-3.95-8.06-5.88c-2.72-1.96-5.47-3.9-8.23-5.83c-2.77-1.93-5.55-3.85-8.35-5.74c-2.8-1.9-5.62-3.77-8.45-5.63
			c-2.83-1.86-5.67-3.69-8.51-5.5c-2.88-1.83-5.79-3.65-8.71-5.44c-2.93-1.8-5.87-3.58-8.83-5.33c-2.96-1.76-5.94-3.5-8.92-5.21
			c-2.99-1.72-5.99-3.41-8.99-5.07c-3.05-1.69-6.11-3.36-9.2-5c-3.09-1.65-6.2-3.28-9.32-4.88c-3.13-1.61-6.27-3.19-9.42-4.75
			c-3.16-1.56-6.32-3.09-9.48-4.59c-3.22-1.53-6.46-3.03-9.72-4.51c-3.27-1.48-6.55-2.94-9.84-4.37c-3.3-1.44-6.62-2.84-9.94-4.22
			c-3.33-1.38-6.67-2.73-10.01-4.05c-3.35-1.32-6.71-2.62-10.08-3.88c-3.38-1.27-6.78-2.51-10.17-3.71
			c-3.41-1.21-6.82-2.39-10.23-3.53c-3.42-1.15-6.84-2.26-10.25-3.33c-3.37-1.06-6.76-2.1-10.16-3.1
			c-3.41-1.01-6.82-1.98-10.24-2.92c-3.43-0.94-6.86-1.85-10.29-2.73c-3.44-0.88-6.87-1.72-10.3-2.52c-3.39-0.8-6.8-1.56-10.21-2.29
			c-3.42-0.73-6.85-1.43-10.28-2.09c-3.44-0.66-6.88-1.29-10.31-1.89c-3.45-0.59-6.89-1.15-10.32-1.67
			c-3.4-0.51-6.81-0.99-10.23-1.44c-3.43-0.44-6.86-0.85-10.28-1.22c-3.44-0.37-6.88-0.71-10.3-1.01c-3.44-0.3-6.87-0.56-10.29-0.78
			c-3.4-0.22-6.8-0.4-10.21-0.54c-3.42-0.14-6.83-0.25-10.24-0.31c-3.42-0.07-6.84-0.09-10.25-0.08c-3.42,0.01-6.83,0.07-10.21,0.16
			c-3.38,0.09-6.76,0.23-10.13,0.41c-3.39,0.18-6.77,0.4-10.15,0.65c-3.39,0.26-6.77,0.56-10.13,0.91
			c-3.38,0.34-6.73,0.73-10.07,1.16c-3.33,0.43-6.66,0.9-9.98,1.41c-3.34,0.52-6.66,1.08-9.97,1.68c-3.33,0.61-6.64,1.26-9.93,1.95
			c-3.3,0.7-6.59,1.43-9.84,2.21c-3.26,0.78-6.51,1.61-9.75,2.48c-3.25,0.88-6.49,1.8-9.71,2.77c-3.23,0.97-6.44,1.99-9.63,3.05
			c-3.2,1.07-6.37,2.18-9.51,3.33c-3.15,1.16-6.29,2.37-9.41,3.62c-3.13,1.26-6.25,2.57-9.33,3.93c-3.1,1.36-6.18,2.77-9.22,4.23
			c-3.06,1.46-6.08,2.97-9.07,4.52c-3.01,1.56-5.99,3.17-8.95,4.83c-2.97,1.67-5.92,3.39-8.83,5.16c-2.93,1.78-5.82,3.6-8.67,5.47
			c-2.87,1.88-5.69,3.8-8.48,5.76c-2.81,1.98-5.59,4.02-8.34,6.11c-2.76,2.1-5.48,4.25-8.17,6.45c-2.7,2.21-5.35,4.47-7.97,6.77
			c-2.62,2.31-5.2,4.67-7.73,7.07c-2.56,2.43-5.08,4.91-7.55,7.45c-2.49,2.55-4.94,5.15-7.33,7.8c-2.41,2.66-4.77,5.37-7.08,8.12
			c-2.32,2.77-4.59,5.58-6.8,8.42c-2.24,2.89-4.43,5.84-6.58,8.83c-2.15,3.01-4.26,6.08-6.3,9.19c-2.06,3.13-4.06,6.3-6,9.52
			c-1.95,3.23-3.84,6.5-5.67,9.82c-1.85,3.36-3.65,6.78-5.39,10.26c-1.75,3.49-3.44,7.03-5.06,10.61c-1.63,3.6-3.2,7.25-4.7,10.94
			c-1.51,3.7-2.95,7.45-4.32,11.22c-1.39,3.84-2.72,7.74-3.98,11.69c-1.27,3.97-2.46,7.98-3.59,12.04
			c-1.13,4.08-2.19,8.19-3.18,12.35c-0.99,4.17-1.9,8.38-2.74,12.61c-0.85,4.31-1.63,8.68-2.33,13.1c-0.7,4.43-1.33,8.92-1.88,13.44
			c-0.55,4.54-1.02,9.12-1.41,13.73c-0.39,4.63-0.7,9.28-0.93,13.96c-0.23,4.69-0.38,9.43-0.44,14.2c-0.07,4.79-0.05,9.6,0.05,14.45
			c0.1,4.86,0.28,9.74,0.55,14.63c0.27,4.91,0.62,9.83,1.06,14.76c0.43,4.87,0.95,9.78,1.55,14.71c0.6,4.94,1.29,9.91,2.06,14.89
			c0.77,4.99,1.63,10,2.57,15.02c0.94,5.03,1.96,10.05,3.07,15.08C-795.6,69-794.42,74-793.15,79c1.27,5.02,2.62,10.05,4.05,15.09
			c1.43,5.05,2.95,10.1,4.54,15.14c1.6,5.05,3.27,10.1,5.03,15.13c1.74,4.98,3.56,9.98,5.46,14.98c1.91,5.01,3.89,10.02,5.96,15.02
			c2.07,5.01,4.21,10.02,6.43,15.01c2.22,4.99,4.52,9.97,6.89,14.92c2.35,4.91,4.78,9.82,7.28,14.73c2.51,4.91,5.09,9.81,7.75,14.69
			c2.66,4.89,5.39,9.76,8.19,14.6c2.8,4.85,5.67,9.66,8.6,14.44c2.91,4.75,5.9,9.49,8.96,14.21c3.06,4.72,6.19,9.43,9.38,14.1
			c3.2,4.68,6.46,9.32,9.77,13.94c3.32,4.61,6.7,9.18,10.12,13.71c3.41,4.5,6.89,8.99,10.44,13.44c3.54,4.45,7.15,8.88,10.82,13.26
			c3.66,4.38,7.38,8.73,11.15,13.03c3.77,4.3,7.58,8.55,11.43,12.74c3.84,4.18,7.75,8.33,11.71,12.44
			c3.96,4.11,7.97,8.18,12.03,12.2c4.05,4.02,8.15,7.99,12.29,11.91c4.13,3.91,8.3,7.77,12.5,11.56c4.19,3.79,8.44,7.54,12.74,11.24
			c4.29,3.7,8.62,7.35,12.99,10.94c4.36,3.59,8.76,7.12,13.18,10.6c4.42,3.47,8.86,6.87,13.32,10.21c4.46,3.34,8.97,6.63,13.51,9.87
			c4.53,3.23,9.1,6.41,13.7,9.53c4.58,3.11,9.19,6.16,13.82,9.14c4.61,2.98,9.24,5.89,13.88,8.73c4.65,2.85,9.33,5.64,14.04,8.37
			c4.7,2.72,9.41,5.39,14.15,7.99c4.72,2.59,9.46,5.12,14.2,7.58c4.73,2.45,9.46,4.84,14.19,7.15c4.75,2.32,9.53,4.58,14.32,6.78
			c4.78,2.19,9.57,4.32,14.36,6.37c4.78,2.05,9.56,4.04,14.35,5.95c4.76,1.91,9.53,3.75,14.27,5.51c4.78,1.77,9.57,3.49,14.36,5.13
			c4.78,1.64,9.56,3.21,14.34,4.71c4.76,1.5,9.52,2.93,14.27,4.29c4.73,1.35,9.44,2.64,14.14,3.85c4.73,1.22,9.46,2.37,14.2,3.46
			c4.71,1.08,9.42,2.1,14.12,3.04c4.68,0.94,9.35,1.82,13.99,2.62c4.63,0.8,9.23,1.54,13.81,2.2c4.62,0.67,9.23,1.27,13.84,1.8
			c4.59,0.53,9.16,1,13.72,1.39c4.54,0.4,9.05,0.72,13.55,0.99c4.47,0.26,8.91,0.46,13.32,0.58c4.45,0.13,8.9,0.19,13.33,0.19
			c4.41,0,8.8-0.07,13.16-0.21c4.34-0.13,8.66-0.33,12.95-0.6C-159.98,568.49-155.74,568.17-151.55,567.78 M-151.41,568.65
			c-70.69,6.56-145.7-4.79-220.2-32.45c-78.85-29.27-154.74-75.91-221.48-136.2c-68.36-61.75-124.57-135.5-162.77-215.45
			c-37.62-78.73-56.28-160.32-52.42-238.48c3.66-74,27.11-135.74,64.3-183.61c34.57-44.51,80.58-76.48,133.23-95.79
			c48.77-17.89,103.17-24.89,160-21.22c52.94,3.42,108.33,16.14,164.17,38.2c52.65,20.8,101.75,48.36,146.08,80.25
			c42.8,30.78,82.08,66.23,116.52,104.47C9.99-93.91,39.99-52.66,64.52-9.45c24.74,43.58,44.49,90.17,57.42,138.48
			c13.37,49.94,18.48,98.06,15.9,142.99c-2.72,47.32-14.03,91.87-33.67,131.41c-21,42.28-51.75,79.31-92.02,107.72
			C-31.36,541.84-86.14,562.6-151.41,568.65z"/>
	</g>
	<g id="Ellipse_11" transform="translate(853.973 31.505)">
		<path class="st3" d="M-263.39-315.02c52.64,20.66,102.51,47.77,148.47,80.72c43.03,30.77,82.62,66.08,118.08,105.33
			C37.38-91.21,67.38-49.82,92.62-5.54c24.97,44.07,44.86,91.25,57.83,140.24c13.41,50.66,18.44,99.57,15.66,145.32
			c-2.93,48.22-14.59,93.73-34.72,134.26c-21.79,44.2-54.15,82.33-94.21,111.03c-44.53,31.9-100.6,53.81-167.41,60.81
			c-72.43,7.59-149.29-3.12-225.61-30.57c-80.85-29.09-158.61-76.08-226.88-137.2c-69.96-62.64-127.31-137.75-166.02-219.37
			c-38.12-80.36-56.61-163.76-51.9-243.76c4.46-75.66,29.2-138.85,67.91-187.89c35.95-45.54,83.51-78.31,137.73-98.2
			c50.16-18.4,105.96-25.74,164.11-22.24C-376.78-349.84-320.26-337.17-263.39-315.02z"/>
		<path class="st1" d="M-130.37,585.22c4.28-0.45,8.53-0.96,12.75-1.53c4.2-0.57,8.38-1.2,12.51-1.9c4.11-0.69,8.19-1.44,12.23-2.25
			c4.01-0.8,7.99-1.67,11.91-2.58c3.85-0.9,7.67-1.86,11.45-2.87c3.77-1.01,7.51-2.08,11.21-3.2c3.68-1.11,7.33-2.28,10.93-3.5
			c3.58-1.21,7.12-2.47,10.61-3.79c3.43-1.29,6.83-2.63,10.2-4.02c3.35-1.38,6.67-2.82,9.95-4.3c3.26-1.47,6.49-3,9.67-4.56
			c3.17-1.56,6.29-3.16,9.37-4.8c3.03-1.61,6.02-3.28,8.99-4.99c2.95-1.7,5.87-3.45,8.74-5.23c2.86-1.78,5.69-3.6,8.47-5.45
			c2.77-1.85,5.5-3.73,8.18-5.65c2.64-1.89,5.26-3.83,7.84-5.8c2.57-1.97,5.1-3.97,7.59-6.01c2.48-2.03,4.93-4.1,7.33-6.19
			c2.39-2.09,4.74-4.21,7.05-6.35c2.28-2.12,4.53-4.28,6.74-6.48c2.2-2.19,4.37-4.41,6.5-6.66c2.12-2.24,4.21-4.51,6.25-6.81
			c2.03-2.29,4.03-4.6,5.98-6.93c1.93-2.31,3.83-4.66,5.7-7.04c1.86-2.37,3.68-4.76,5.47-7.19c1.78-2.41,3.52-4.85,5.23-7.31
			c1.7-2.45,3.35-4.92,4.97-7.41c1.6-2.47,3.18-4.97,4.71-7.5c1.53-2.52,3.03-5.06,4.49-7.62c1.46-2.55,2.88-5.13,4.26-7.72
			c1.38-2.58,2.71-5.18,4.01-7.79c1.29-2.6,2.55-5.23,3.78-7.88c1.22-2.64,2.41-5.3,3.56-7.98c1.15-2.67,2.26-5.36,3.34-8.06
			c1.07-2.69,2.11-5.39,3.11-8.1c1-2.71,1.96-5.44,2.89-8.19c0.93-2.74,1.82-5.5,2.68-8.27c0.86-2.76,1.68-5.54,2.46-8.33
			c0.78-2.78,1.53-5.56,2.24-8.35c0.71-2.79,1.39-5.61,2.04-8.44c0.65-2.82,1.26-5.66,1.84-8.51c0.58-2.84,1.12-5.69,1.63-8.55
			c0.51-2.85,0.98-5.7,1.42-8.56c0.44-2.87,0.85-5.75,1.23-8.65c0.38-2.89,0.72-5.8,1.03-8.71c0.31-2.9,0.59-5.82,0.83-8.73
			c0.24-2.91,0.45-5.82,0.63-8.73c0.18-2.93,0.33-5.87,0.44-8.83c0.11-2.95,0.2-5.91,0.25-8.88c0.05-2.96,0.07-5.92,0.06-8.89
			c-0.01-2.96-0.06-5.92-0.13-8.88c-0.08-2.98-0.19-5.98-0.33-8.99c-0.14-3-0.31-6.01-0.52-9.02c-0.2-3.01-0.44-6.02-0.7-9.03
			c-0.26-3-0.56-6.01-0.88-9c-0.33-3.03-0.69-6.07-1.08-9.13c-0.39-3.04-0.81-6.1-1.27-9.15c-0.45-3.05-0.93-6.1-1.45-9.15
			c-0.51-3.04-1.05-6.09-1.62-9.12c-0.58-3.07-1.18-6.16-1.83-9.26c-0.64-3.09-1.31-6.18-2.01-9.28c-0.7-3.09-1.43-6.19-2.19-9.28
			c-0.76-3.09-1.54-6.17-2.36-9.24c-0.81-3.07-1.65-6.15-2.53-9.22c-0.87-3.07-1.77-6.14-2.7-9.21c-0.93-3.06-1.88-6.12-2.86-9.17
			c-0.98-3.04-1.98-6.08-3.01-9.1c-1.01-2.97-2.05-5.95-3.12-8.93c-1.07-2.97-2.16-5.95-3.29-8.92c-1.12-2.97-2.27-5.93-3.44-8.88
			c-1.17-2.95-2.36-5.89-3.58-8.81c-1.2-2.88-2.42-5.77-3.68-8.66c-1.25-2.88-2.53-5.77-3.83-8.64c-1.3-2.87-2.63-5.74-3.98-8.6
			c-1.35-2.86-2.72-5.7-4.11-8.54c-1.37-2.8-2.77-5.6-4.2-8.4c-1.42-2.8-2.88-5.59-4.35-8.38c-1.47-2.79-2.97-5.57-4.48-8.34
			c-1.52-2.77-3.05-5.53-4.6-8.27c-1.54-2.72-3.1-5.43-4.7-8.15c-1.59-2.71-3.2-5.42-4.84-8.13c-1.64-2.7-3.29-5.4-4.97-8.08
			c-1.68-2.68-3.37-5.35-5.08-8.01c-1.7-2.64-3.42-5.27-5.17-7.9c-1.75-2.63-3.52-5.26-5.31-7.87c-1.79-2.62-3.6-5.23-5.43-7.82
			c-1.83-2.6-3.68-5.18-5.54-7.75c-1.85-2.55-3.73-5.11-5.63-7.65c-1.9-2.55-3.82-5.09-5.77-7.62c-1.94-2.53-3.91-5.05-5.89-7.56
			c-1.98-2.51-3.98-5-5.98-7.48c-2-2.47-4.03-4.94-6.09-7.4c-2.05-2.46-4.13-4.92-6.22-7.36c-2.09-2.44-4.2-4.88-6.33-7.29
			c-2.13-2.42-4.27-4.82-6.42-7.21c-2.15-2.39-4.33-4.77-6.53-7.14c-2.2-2.37-4.42-4.74-6.66-7.09c-2.24-2.35-4.5-4.69-6.77-7.01
			c-2.27-2.32-4.56-4.63-6.86-6.92c-2.3-2.29-4.63-4.58-6.98-6.86c-2.35-2.28-4.72-4.54-7.1-6.8c-2.39-2.25-4.79-4.49-7.21-6.71
			c-2.42-2.22-4.85-4.43-7.29-6.61c-2.46-2.2-4.93-4.38-7.43-6.56c-2.5-2.18-5.02-4.34-7.55-6.49c-2.54-2.15-5.09-4.28-7.65-6.4
			c-2.57-2.12-5.15-4.21-7.73-6.28c-2.61-2.09-5.24-4.17-7.89-6.23c-2.65-2.07-5.32-4.12-8.01-6.15c-2.69-2.04-5.39-4.05-8.11-6.05
			c-2.72-2-5.45-3.98-8.18-5.93c-2.76-1.97-5.55-3.93-8.35-5.87c-2.81-1.95-5.64-3.87-8.48-5.78c-2.85-1.91-5.71-3.8-8.57-5.67
			c-2.88-1.87-5.76-3.72-8.65-5.53c-2.93-1.84-5.88-3.67-8.84-5.48c-2.97-1.81-5.96-3.6-8.96-5.37c-3.01-1.77-6.03-3.52-9.06-5.24
			c-3.04-1.73-6.08-3.43-9.13-5.1c-3.1-1.7-6.21-3.38-9.35-5.03c-3.14-1.66-6.3-3.3-9.48-4.91c-3.18-1.62-6.37-3.21-9.57-4.77
			c-3.21-1.57-6.43-3.11-9.64-4.61c-3.27-1.53-6.57-3.05-9.88-4.53c-3.32-1.49-6.66-2.96-10.02-4.39
			c-3.36-1.44-6.74-2.85-10.12-4.24c-3.39-1.39-6.79-2.74-10.19-4.07c-3.41-1.33-6.83-2.63-10.27-3.89
			c-3.45-1.27-6.9-2.52-10.36-3.72c-3.47-1.21-6.95-2.39-10.42-3.54c-3.49-1.15-6.97-2.26-10.45-3.34c-3.44-1.06-6.89-2.1-10.35-3.1
			c-3.47-1.01-6.95-1.98-10.44-2.92c-3.5-0.94-6.99-1.85-10.49-2.72c-3.51-0.88-7.01-1.71-10.51-2.51
			c-3.46-0.79-6.94-1.55-10.42-2.28c-3.49-0.73-6.99-1.42-10.49-2.08c-3.51-0.66-7.02-1.28-10.53-1.87
			c-3.52-0.59-7.03-1.14-10.54-1.65c-3.48-0.51-6.96-0.98-10.45-1.42c-3.5-0.44-7.01-0.84-10.51-1.2
			c-3.52-0.36-7.03-0.69-10.53-0.98c-3.52-0.29-7.03-0.54-10.52-0.75c-3.48-0.21-6.96-0.38-10.44-0.51
			c-3.5-0.13-6.99-0.22-10.48-0.27c-3.51-0.05-7-0.06-10.49-0.04c-3.5,0.03-6.99,0.1-10.46,0.21c-3.46,0.11-6.92,0.26-10.38,0.45
			c-3.47,0.19-6.94,0.43-10.4,0.71c-3.47,0.28-6.93,0.6-10.38,0.96c-3.46,0.36-6.9,0.77-10.33,1.22c-3.42,0.45-6.84,0.94-10.24,1.48
			c-3.42,0.54-6.84,1.12-10.23,1.75c-3.41,0.63-6.81,1.3-10.19,2.02c-3.39,0.72-6.76,1.48-10.11,2.29
			c-3.35,0.81-6.69,1.67-10.02,2.57c-3.34,0.91-6.67,1.86-9.98,2.86c-3.32,1-6.63,2.05-9.9,3.15c-3.29,1.1-6.56,2.24-9.79,3.43
			c-3.25,1.19-6.48,2.44-9.69,3.73c-3.23,1.3-6.43,2.65-9.61,4.04c-3.2,1.4-6.36,2.85-9.5,4.34c-3.15,1.5-6.27,3.05-9.35,4.64
			c-3.1,1.6-6.18,3.26-9.23,4.96c-3.07,1.71-6.11,3.48-9.11,5.29c-3.02,1.82-6.01,3.69-8.95,5.61c-2.96,1.92-5.88,3.89-8.76,5.91
			c-2.9,2.03-5.78,4.12-8.62,6.26c-2.85,2.15-5.67,4.35-8.45,6.61c-2.79,2.26-5.54,4.58-8.25,6.93c-2.72,2.37-5.39,4.78-8.01,7.24
			c-2.65,2.49-5.26,5.03-7.83,7.63c-2.58,2.61-5.12,5.27-7.61,7.98c-2.5,2.72-4.96,5.5-7.36,8.32c-2.41,2.83-4.77,5.71-7.07,8.62
			c-2.33,2.96-4.62,5.97-6.85,9.04c-2.24,3.08-4.44,6.22-6.57,9.41c-2.15,3.2-4.24,6.45-6.26,9.74c-2.04,3.31-4.01,6.66-5.92,10.05
			c-1.94,3.44-3.82,6.94-5.65,10.5c-1.83,3.57-3.6,7.19-5.31,10.86c-1.71,3.69-3.36,7.42-4.94,11.19
			c-1.59,3.79-3.11,7.62-4.55,11.48c-1.47,3.93-2.87,7.92-4.21,11.96c-1.34,4.06-2.61,8.17-3.81,12.32
			c-1.2,4.17-2.33,8.38-3.39,12.64c-1.06,4.27-2.04,8.57-2.94,12.91c-0.92,4.41-1.76,8.89-2.53,13.41
			c-0.77,4.54-1.46,9.12-2.06,13.75c-0.61,4.64-1.14,9.33-1.59,14.04c-0.45,4.73-0.81,9.5-1.09,14.28
			c-0.28,4.8-0.48,9.65-0.59,14.53c-0.11,4.9-0.14,9.82-0.08,14.78c0.06,4.97,0.2,9.96,0.43,14.97c0.23,5.02,0.55,10.06,0.96,15.1
			c0.4,4.98,0.89,10,1.46,15.04c0.58,5.05,1.24,10.13,1.99,15.23c0.75,5.11,1.59,10.23,2.51,15.35c0.92,5.14,1.93,10.28,3.03,15.41
			c1.08,5.08,2.25,10.18,3.51,15.3c1.26,5.13,2.61,10.27,4.04,15.42c1.43,5.16,2.95,10.32,4.55,15.47
			c1.6,5.16,3.29,10.32,5.05,15.46c1.75,5.09,3.58,10.2,5.5,15.3c1.92,5.12,3.93,10.23,6.01,15.35c2.09,5.12,4.26,10.23,6.51,15.32
			c2.25,5.1,4.57,10.18,6.97,15.23c2.38,5.01,4.84,10.03,7.38,15.03c2.55,5.01,5.17,10.01,7.87,14.99c2.7,4.99,5.48,9.95,8.32,14.89
			c2.85,4.94,5.76,9.86,8.74,14.73c2.96,4.84,6,9.67,9.11,14.49c3.11,4.81,6.3,9.61,9.56,14.37c3.26,4.77,6.58,9.5,9.96,14.2
			c3.38,4.7,6.83,9.35,10.33,13.96c3.48,4.59,7.03,9.15,10.65,13.68c3.62,4.53,7.3,9.03,11.04,13.5c3.74,4.46,7.54,8.88,11.39,13.25
			c3.85,4.37,7.74,8.69,11.68,12.95c3.93,4.25,7.92,8.47,11.97,12.65c4.04,4.17,8.15,8.31,12.3,12.39
			c4.14,4.08,8.34,8.11,12.57,12.09c4.23,3.97,8.49,7.88,12.79,11.73c4.29,3.84,8.64,7.65,13.03,11.4
			c4.39,3.75,8.82,7.44,13.29,11.09c4.46,3.64,8.96,7.21,13.49,10.73c4.52,3.51,9.07,6.96,13.64,10.33
			c4.57,3.38,9.19,6.71,13.84,9.98c4.64,3.27,9.32,6.47,14.03,9.62c4.69,3.14,9.42,6.22,14.15,9.23c4.73,3,9.47,5.94,14.22,8.8
			c4.76,2.87,9.56,5.68,14.38,8.43c4.81,2.74,9.65,5.42,14.5,8.03c4.84,2.61,9.69,5.15,14.55,7.61c4.85,2.46,9.7,4.85,14.55,7.17
			c4.87,2.32,9.76,4.59,14.67,6.78c4.89,2.19,9.8,4.31,14.72,6.37c4.9,2.05,9.8,4.03,14.7,5.93c4.88,1.9,9.76,3.73,14.63,5.48
			c4.89,1.76,9.8,3.46,14.72,5.09c4.9,1.62,9.8,3.18,14.7,4.66c4.88,1.48,9.76,2.89,14.62,4.22c4.85,1.33,9.68,2.59,14.49,3.78
			c4.85,1.19,9.7,2.32,14.55,3.38c4.83,1.05,9.66,2.04,14.47,2.95c4.79,0.91,9.58,1.75,14.34,2.52c4.74,0.77,9.46,1.46,14.15,2.08
			c4.73,0.63,9.46,1.19,14.18,1.68c4.7,0.49,9.39,0.91,14.05,1.26c4.65,0.35,9.28,0.63,13.88,0.84c4.58,0.21,9.13,0.36,13.65,0.43
			c4.56,0.08,9.11,0.09,13.65,0.03c4.51-0.06,9.01-0.18,13.48-0.38c4.45-0.19,8.87-0.45,13.27-0.77
			C-139.01,586.06-134.67,585.67-130.37,585.22 M-130.24,586.12c-72.44,7.59-149.29-3.12-225.61-30.58
			c-80.85-29.09-158.61-76.08-226.88-137.2c-69.96-62.64-127.31-137.74-166.02-219.36c-38.12-80.36-56.61-163.76-51.9-243.75
			c4.46-75.66,29.2-138.84,67.91-187.89c35.95-45.54,83.51-78.31,137.73-98.2c50.16-18.4,105.96-25.74,164.11-22.24
			c54.12,3.26,110.64,15.93,167.51,38.08c53.58,20.87,103.48,48.6,148.47,80.72C-71.5-203.31-31.7-167.56,3.16-128.97
			C37.54-90.9,67.86-49.24,92.62-5.54c24.97,44.07,44.86,91.25,57.83,140.24c13.41,50.66,18.44,99.57,15.65,145.32
			c-2.93,48.22-14.59,93.73-34.72,134.26c-21.54,43.37-53.02,81.53-94.21,111.03C-7.37,557.21-63.44,579.12-130.24,586.12z"/>
	</g>
	<g id="Ellipse_12" transform="translate(613.548 709.6)">
		<path class="st4" d="M20.48-448.72c62.15,6.09,122.55,24.09,177.89,53.02c51.32,26.71,98.46,62.47,140.01,105.03
			c40.86,41.86,77.4,91.39,107.96,147.1c30.88,56.3,56.55,120.51,74.92,191.92c19.09,74.92,29.24,151.83,30.23,229.13
			c1.13,84.54-7.79,168.92-26.56,251.36c-20.68,91.02-53.8,181.72-99.87,265.92c-51.03,93.27-118.38,179.35-202.18,247.97
			c-93.57,76.61-196.66,122.71-302.2,135.43c-114.57,13.81-227.22-12.22-327.32-76.98c-103.74-67.11-188.3-172.08-243.49-306.59
			c-53.95-131.47-76.64-283.44-63.47-443.55C-701.46,203.18-660.19,68.3-600.5-46.23c53.91-103.45,122.11-188.8,197.18-253.68
			c67.75-58.55,141.17-100.49,215.94-125.04C-119.14-447.35-49.08-455.51,20.48-448.72z"/>
		<path class="st1" d="M222.65,1041.12c5.43-4.44,10.82-8.98,16.16-13.61c5.3-4.6,10.56-9.28,15.75-14.05
			c5.16-4.73,10.26-9.54,15.29-14.41c5-4.84,9.93-9.75,14.78-14.71c4.75-4.86,9.46-9.8,14.12-14.82c4.63-4.98,9.2-10.04,13.72-15.15
			c4.49-5.08,8.92-10.23,13.28-15.42c4.34-5.16,8.61-10.37,12.81-15.63c4.12-5.15,8.19-10.37,12.22-15.66
			c4-5.25,7.94-10.55,11.83-15.91c3.86-5.32,7.67-10.69,11.42-16.1c3.72-5.37,7.38-10.78,10.98-16.22
			c3.53-5.34,7.02-10.75,10.45-16.2c3.41-5.42,6.78-10.88,10.09-16.39c3.29-5.47,6.53-10.97,9.7-16.51
			c3.16-5.5,6.26-11.02,9.29-16.57c2.99-5.46,5.93-10.96,8.83-16.51c2.88-5.51,5.71-11.06,8.49-16.64
			c2.76-5.54,5.47-11.11,8.13-16.7c2.64-5.55,5.22-11.13,7.75-16.71c2.49-5.51,4.94-11.05,7.34-16.63
			c2.39-5.54,4.73-11.12,7.02-16.71c2.28-5.56,4.51-11.14,6.69-16.73c2.16-5.56,4.28-11.12,6.33-16.69
			c2.04-5.51,4.03-11.05,5.98-16.61c1.94-5.53,3.83-11.08,5.68-16.65c1.83-5.53,3.62-11.08,5.36-16.62
			c1.73-5.52,3.41-11.04,5.04-16.55c1.62-5.47,3.19-10.96,4.72-16.47c1.52-5.48,3-10.98,4.44-16.48c1.43-5.47,2.81-10.95,4.15-16.43
			c1.33-5.45,2.61-10.89,3.85-16.32c1.23-5.4,2.42-10.83,3.57-16.26c1.14-5.4,2.24-10.82,3.3-16.24c1.05-5.39,2.06-10.78,3.03-16.16
			c0.96-5.35,1.88-10.7,2.75-16.03c0.87-5.32,1.7-10.65,2.5-15.99c0.79-5.31,1.54-10.63,2.24-15.94c0.7-5.29,1.37-10.57,1.99-15.84
			c0.62-5.25,1.2-10.48,1.74-15.7c0.54-5.22,1.04-10.44,1.5-15.67c0.46-5.21,0.88-10.41,1.26-15.61c0.38-5.18,0.72-10.35,1.02-15.5
			c0.3-5.13,0.56-10.25,0.79-15.34c0.22-5.11,0.41-10.22,0.56-15.34c0.15-5.09,0.26-10.18,0.33-15.26
			c0.07-5.06,0.11-10.11,0.11-15.14c0-5.01-0.03-10.01-0.11-14.98c-0.07-5-0.18-9.99-0.33-14.99c-0.15-4.98-0.33-9.95-0.54-14.91
			c-0.22-4.94-0.47-9.87-0.75-14.78c-0.29-4.89-0.61-9.76-0.96-14.61c-0.36-4.88-0.75-9.77-1.18-14.64
			c-0.43-4.86-0.89-9.71-1.39-14.55c-0.5-4.82-1.03-9.63-1.59-14.42c-0.56-4.77-1.16-9.52-1.78-14.25c-0.63-4.77-1.3-9.54-2.01-14.3
			c-0.7-4.75-1.44-9.49-2.21-14.21c-0.77-4.71-1.57-9.41-2.4-14.08c-0.83-4.66-1.69-9.3-2.59-13.91c-0.9-4.66-1.84-9.32-2.82-13.98
			c-0.97-4.64-1.98-9.27-3.02-13.89c-1.04-4.6-2.11-9.19-3.21-13.76c-1.1-4.55-2.23-9.08-3.38-13.59
			c-1.15-4.49-2.34-8.97-3.56-13.43c-1.22-4.45-2.47-8.89-3.74-13.3c-1.28-4.4-2.58-8.78-3.91-13.13
			c-1.33-4.34-2.69-8.64-4.07-12.91c-1.36-4.2-2.75-8.39-4.17-12.56c-1.42-4.16-2.87-8.31-4.34-12.44
			c-1.47-4.12-2.97-8.21-4.5-12.28c-1.52-4.06-3.07-8.09-4.64-12.08c-1.55-3.94-3.13-7.86-4.74-11.77c-1.61-3.9-3.24-7.79-4.9-11.65
			c-1.66-3.86-3.34-7.69-5.05-11.5c-1.71-3.8-3.44-7.58-5.19-11.32c-1.73-3.69-3.49-7.38-5.28-11.04c-1.79-3.66-3.6-7.31-5.44-10.93
			c-1.84-3.62-3.7-7.21-5.58-10.78c-1.88-3.56-3.78-7.1-5.7-10.6c-1.9-3.47-3.83-6.92-5.79-10.36c-1.96-3.43-3.94-6.85-5.95-10.24
			c-2.01-3.39-4.03-6.76-6.08-10.1c-2.05-3.34-4.12-6.65-6.2-9.92c-2.07-3.25-4.17-6.49-6.29-9.7c-2.12-3.22-4.27-6.41-6.44-9.59
			c-2.17-3.17-4.36-6.32-6.57-9.44c-2.21-3.12-4.44-6.21-6.69-9.26c-2.23-3.04-4.5-6.07-6.78-9.07c-2.29-3-4.6-5.99-6.93-8.95
			c-2.33-2.96-4.69-5.89-7.06-8.8c-2.37-2.91-4.76-5.78-7.17-8.62c-2.4-2.83-4.83-5.65-7.28-8.44c-2.45-2.8-4.93-5.57-7.42-8.31
			c-2.5-2.75-5.01-5.47-7.55-8.16c-2.53-2.69-5.09-5.35-7.65-7.98c-2.57-2.63-5.16-5.23-7.77-7.81c-2.62-2.58-5.26-5.14-7.92-7.67
			c-2.66-2.53-5.34-5.04-8.04-7.51c-2.7-2.48-5.41-4.92-8.14-7.32c-2.73-2.41-5.49-4.81-8.28-7.17c-2.79-2.37-5.6-4.71-8.42-7.02
			c-2.83-2.31-5.68-4.6-8.54-6.84c-2.87-2.25-5.75-4.47-8.64-6.65c-2.91-2.19-5.84-4.36-8.8-6.5c-2.96-2.14-5.95-4.25-8.95-6.33
			c-3.01-2.08-6.03-4.13-9.06-6.15c-3.04-2.02-6.1-4-9.16-5.94c-3.09-1.96-6.21-3.89-9.34-5.79c-3.14-1.9-6.31-3.77-9.49-5.6
			c-3.19-1.84-6.4-3.64-9.61-5.4c-3.23-1.77-6.46-3.5-9.71-5.18c-3.28-1.71-6.59-3.38-9.92-5.02c-3.34-1.64-6.7-3.25-10.07-4.82
			c-3.38-1.57-6.78-3.11-10.2-4.6c-3.42-1.5-6.85-2.96-10.29-4.37c-3.49-1.43-7-2.83-10.53-4.19c-3.54-1.36-7.11-2.68-10.69-3.96
			c-3.59-1.28-7.2-2.53-10.82-3.73c-3.63-1.2-7.27-2.36-10.92-3.47c-3.71-1.13-7.44-2.22-11.19-3.27
			c-3.77-1.05-7.56-2.06-11.36-3.02c-3.82-0.96-7.65-1.88-11.5-2.76c-3.86-0.88-7.73-1.7-11.6-2.48c-3.94-0.79-7.92-1.54-11.91-2.24
			c-4.01-0.7-8.04-1.35-12.09-1.96c-4.07-0.61-8.15-1.16-12.24-1.66c-4.11-0.51-8.23-0.96-12.35-1.36c-4.14-0.4-8.3-0.75-12.48-1.05
			c-4.2-0.3-8.4-0.55-12.62-0.74c-4.24-0.19-8.48-0.33-12.73-0.42c-4.27-0.08-8.53-0.11-12.79-0.09c-4.22,0.03-8.46,0.11-12.71,0.25
			c-4.27,0.14-8.56,0.33-12.85,0.58c-4.31,0.25-8.63,0.56-12.95,0.92c-4.34,0.37-8.68,0.79-13,1.27c-4.29,0.48-8.61,1.01-12.93,1.61
			c-4.35,0.6-8.7,1.25-13.06,1.97c-4.38,0.72-8.77,1.5-13.15,2.33c-4.41,0.84-8.81,1.74-13.2,2.7c-4.37,0.95-8.75,1.97-13.14,3.04
			c-4.41,1.08-8.83,2.23-13.26,3.43c-4.45,1.21-8.89,2.49-13.34,3.82c-4.47,1.34-8.93,2.74-13.37,4.21
			c-4.43,1.46-8.87,2.98-13.31,4.57c-4.47,1.6-8.94,3.26-13.42,4.99c-4.5,1.74-8.99,3.54-13.48,5.4c-4.51,1.87-9.01,3.81-13.49,5.81
			c-4.48,1.99-8.96,4.06-13.44,6.2c-4.51,2.15-9.02,4.37-13.52,6.65c-4.53,2.3-9.05,4.66-13.56,7.09
			c-4.53,2.44-9.05,4.95-13.54,7.52c-4.5,2.57-9,5.22-13.5,7.94c-4.52,2.74-9.04,5.54-13.55,8.42c-4.53,2.89-9.05,5.86-13.55,8.89
			c-4.53,3.05-9.03,6.16-13.5,9.33c-4.49,3.19-8.98,6.45-13.45,9.79c-4.5,3.36-8.99,6.8-13.46,10.31c-4.5,3.53-8.98,7.13-13.43,10.8
			c-4.48,3.69-8.93,7.45-13.34,11.27c-4.44,3.84-8.87,7.77-13.28,11.77c-4.44,4.03-8.85,8.14-13.24,12.32
			c-4.42,4.21-8.81,8.48-13.16,12.83c-4.38,4.37-8.72,8.81-13.02,13.31c-4.34,4.54-8.65,9.16-12.94,13.87
			c-4.31,4.73-8.6,9.55-12.84,14.44c-4.27,4.92-8.51,9.91-12.7,14.97c-4.22,5.09-8.39,10.24-12.5,15.46
			c-4.16,5.27-8.29,10.63-12.38,16.07c-4.12,5.47-8.19,11.03-12.22,16.66c-4.05,5.66-8.06,11.4-12.01,17.2
			c-3.98,5.84-7.89,11.73-11.74,17.69c-3.9,6.03-7.76,12.15-11.57,18.36c-3.83,6.24-7.61,12.56-11.33,18.95
			c-3.74,6.43-7.43,12.93-11.04,19.49c-3.64,6.6-7.21,13.26-10.7,19.97c-3.55,6.81-7.03,13.71-10.45,20.69
			c-3.44,7.02-6.82,14.12-10.12,21.28c-3.32,7.21-6.57,14.48-9.74,21.8c-3.19,7.37-6.29,14.79-9.31,22.25
			c-3.07,7.59-6.06,15.26-8.97,23.01c-2.93,7.79-5.78,15.66-8.54,23.58c-2.78,7.97-5.47,16-8.06,24.07
			c-2.61,8.12-5.12,16.28-7.54,24.47c-2.46,8.34-4.82,16.77-7.09,25.25c-2.28,8.53-4.47,17.13-6.55,25.78
			c-2.09,8.69-4.08,17.44-5.97,26.21c-1.89,8.82-3.67,17.67-5.34,26.54c-1.7,9.04-3.29,18.15-4.77,27.32
			c-1.49,9.21-2.86,18.48-4.11,27.77c-1.26,9.35-2.4,18.72-3.42,28.12c-1.02,9.44-1.92,18.9-2.7,28.35
			c-0.78,9.5-1.43,19.03-1.95,28.58c-0.53,9.59-0.93,19.2-1.2,28.81c-0.27,9.65-0.41,19.29-0.42,28.91
			c-0.01,9.66,0.12,19.3,0.38,28.89c0.26,9.49,0.65,18.99,1.17,28.49c0.52,9.53,1.18,19.06,1.97,28.55
			c0.79,9.53,1.72,19.04,2.78,28.49c1.06,9.49,2.26,18.93,3.59,28.3c1.32,9.28,2.77,18.54,4.36,27.78
			c1.59,9.26,3.32,18.49,5.18,27.67c1.87,9.2,3.87,18.35,6,27.43c2.13,9.1,4.4,18.13,6.79,27.07c2.37,8.86,4.88,17.68,7.52,26.44
			c2.65,8.78,5.42,17.5,8.33,26.15c2.91,8.66,5.95,17.25,9.11,25.74c3.17,8.5,6.45,16.91,9.86,25.2
			c3.38,8.23,6.89,16.39,10.53,24.47c3.64,8.09,7.41,16.1,11.3,24.01c3.89,7.92,7.9,15.74,12.02,23.44
			c4.12,7.71,8.35,15.3,12.69,22.75c4.31,7.41,8.74,14.72,13.28,21.94c4.55,7.22,9.21,14.33,13.98,21.32
			c4.77,6.99,9.64,13.86,14.61,20.6c4.97,6.74,10.03,13.34,15.18,19.79c5.12,6.42,10.36,12.73,15.69,18.92
			c5.33,6.18,10.77,12.24,16.29,18.16c5.52,5.92,11.13,11.7,16.81,17.34c5.68,5.63,11.44,11.11,17.26,16.43
			c5.8,5.3,11.7,10.48,17.68,15.51c5.97,5.03,12.03,9.92,18.16,14.66c6.12,4.74,12.31,9.32,18.56,13.76
			c6.24,4.42,12.53,8.69,18.86,12.79c6.32,4.09,12.73,8.05,19.2,11.85c6.45,3.8,12.98,7.45,19.55,10.94
			c6.56,3.49,13.16,6.82,19.81,9.99c6.63,3.16,13.29,6.17,19.98,9.01c6.68,2.84,13.43,5.53,20.22,8.07
			c6.77,2.53,13.59,4.91,20.44,7.13c6.83,2.21,13.69,4.27,20.57,6.17c6.85,1.89,13.73,3.63,20.6,5.21c6.88,1.58,13.81,3,20.77,4.28
			c6.93,1.27,13.89,2.38,20.86,3.35c6.94,0.96,13.9,1.77,20.86,2.42c6.93,0.65,13.85,1.15,20.77,1.5
			c6.93,0.35,13.89,0.55,20.86,0.59c6.94,0.05,13.88-0.05,20.83-0.3c6.91-0.25,13.82-0.64,20.71-1.17
			c6.86-0.53,13.7-1.21,20.51-2.02c6.84-0.82,13.69-1.78,20.54-2.89c6.81-1.1,13.62-2.35,20.41-3.73c6.75-1.37,13.49-2.88,20.2-4.53
			c6.67-1.63,13.31-3.4,19.91-5.29c6.63-1.9,13.26-3.94,19.88-6.12c6.58-2.16,13.13-4.46,19.66-6.88
			c6.49-2.41,12.95-4.94,19.37-7.59c6.38-2.63,12.72-5.38,19.01-8.25c6.33-2.88,12.65-5.9,18.93-9.03
			c6.25-3.12,12.47-6.35,18.65-9.71c6.14-3.33,12.25-6.77,18.3-10.32c6.01-3.52,11.98-7.15,17.88-10.88
			c5.95-3.75,11.88-7.63,17.77-11.61c5.85-3.96,11.67-8.03,17.44-12.2c5.73-4.14,11.42-8.38,17.05-12.72
			C211.64,1049.98,217.18,1045.59,222.65,1041.12 M222.87,1042.74c-93.56,76.62-196.65,122.71-302.2,135.43
			c-114.57,13.81-227.22-12.22-327.32-76.98c-103.74-67.11-188.3-172.08-243.49-306.59c-53.95-131.47-76.64-283.44-63.47-443.55
			C-701.47,203.19-660.2,68.3-600.51-46.22c53.92-103.45,122.11-188.81,197.18-253.68c67.75-58.55,141.17-100.49,215.94-125.04
			c68.24-22.4,138.31-30.57,207.86-23.77c64.59,6.31,124.28,25.11,177.89,53.02c51.32,26.71,98.46,62.47,140.01,105.03
			c40.86,41.86,77.39,91.39,107.96,147.1c30.88,56.3,56.55,120.51,74.92,191.92c19.14,74.39,29.08,151.55,30.22,229.14
			c1.21,82.79-7.58,167.83-26.56,251.36c-20.68,91.02-53.8,181.72-99.87,265.92C374.02,888.04,306.67,974.12,222.87,1042.74z"/>
	</g>
	<g id="Ellipse_10">
		<path class="st5" d="M337.5-268.37c68.83,22.98,134.49,54.52,195.43,93.9c53.7,34.7,103.05,75.7,147,122.13
			c41.62,44.16,77.36,92.79,105.49,144.21c28.42,51.94,49.86,108.16,62.04,167.43c12.66,61.65,14.44,122.35,6.1,180.44
			c-9.01,62.52-29.79,122.76-61.26,177.53c-34.58,60.32-83.04,116.17-145.07,162.86c-68.37,51.45-153.75,92.16-254.89,114.72
			c-112.21,25.04-230.76,24.99-347.66,0.3c-126.21-26.66-245.51-80.93-346.85-158.63c-104.76-80.32-184.97-181.53-230.82-294.84
			c-44.89-110.93-54.35-227.39-24.49-339.4c27.73-104,85.85-190.34,162.31-256.73c69.49-60.34,153.18-103.33,242.77-129.27
			c81.28-23.54,167.45-33.05,253.61-29.15C181.66-309.07,261.19-294.1,337.5-268.37z"/>
		<path class="st1" d="M392.28,893.61c6.54-1.45,13.04-2.99,19.51-4.61c6.42-1.61,12.8-3.3,19.12-5.07
			c6.28-1.75,12.51-3.58,18.67-5.48c6.12-1.89,12.18-3.85,18.16-5.87c5.86-1.98,11.68-4.04,17.46-6.17
			c5.74-2.11,11.43-4.3,17.07-6.55c5.6-2.23,11.15-4.53,16.63-6.89c5.45-2.34,10.83-4.75,16.14-7.2c5.21-2.41,10.38-4.89,15.5-7.42
			c5.09-2.52,10.13-5.1,15.12-7.74c4.96-2.62,9.86-5.29,14.69-8.02c4.81-2.71,9.55-5.46,14.22-8.26c4.59-2.75,9.15-5.56,13.65-8.42
			c4.48-2.84,8.91-5.74,13.28-8.68c4.35-2.92,8.64-5.89,12.87-8.9c4.21-2.99,8.35-6.02,12.43-9.09c4.02-3.02,7.99-6.09,11.91-9.2
			c3.9-3.1,7.76-6.24,11.56-9.41c3.78-3.16,7.5-6.36,11.17-9.59c3.64-3.21,7.23-6.45,10.75-9.72c3.47-3.23,6.91-6.5,10.29-9.8
			c3.36-3.29,6.68-6.62,9.95-9.97c3.25-3.34,6.44-6.71,9.58-10.1c3.12-3.38,6.18-6.78,9.18-10.2c2.97-3.38,5.9-6.81,8.78-10.26
			c2.86-3.44,5.68-6.9,8.45-10.39c2.75-3.47,5.45-6.97,8.1-10.49c2.63-3.5,5.21-7.01,7.73-10.54c2.5-3.5,4.96-7.04,7.37-10.6
			c2.4-3.54,4.75-7.11,7.05-10.7c2.29-3.57,4.53-7.16,6.72-10.76c2.18-3.58,4.3-7.18,6.37-10.79c2.06-3.59,4.08-7.2,6.05-10.84
			c1.96-3.62,3.88-7.26,5.74-10.92c1.86-3.64,3.67-7.29,5.43-10.95c1.75-3.64,3.45-7.3,5.1-10.96c1.65-3.65,3.25-7.32,4.81-11.01
			c1.55-3.67,3.06-7.36,4.52-11.07c1.45-3.68,2.86-7.38,4.22-11.08c1.35-3.68,2.66-7.37,3.92-11.06c1.26-3.69,2.47-7.4,3.64-11.13
			c1.17-3.71,2.29-7.43,3.37-11.16c1.07-3.71,2.1-7.44,3.09-11.16c0.98-3.71,1.91-7.42,2.8-11.13c0.89-3.72,1.74-7.45,2.54-11.2
			c0.8-3.73,1.56-7.47,2.27-11.22c0.71-3.73,1.38-7.47,2.01-11.21c0.62-3.72,1.2-7.45,1.74-11.16c0.54-3.74,1.03-7.49,1.49-11.25
			c0.45-3.75,0.86-7.5,1.23-11.26c0.37-3.74,0.69-7.49,0.97-11.24c0.28-3.73,0.52-7.46,0.72-11.18c0.2-3.75,0.36-7.51,0.47-11.28
			c0.12-3.76,0.19-7.52,0.22-11.28c0.03-3.75,0.03-7.51-0.02-11.25c-0.05-3.74-0.14-7.47-0.27-11.19c-0.13-3.76-0.3-7.53-0.52-11.31
			c-0.21-3.76-0.47-7.54-0.76-11.31c-0.29-3.76-0.63-7.52-1-11.27c-0.37-3.74-0.78-7.48-1.23-11.2c-0.45-3.77-0.95-7.55-1.49-11.34
			c-0.54-3.78-1.11-7.56-1.73-11.33c-0.61-3.77-1.27-7.54-1.96-11.3c-0.69-3.75-1.42-7.5-2.19-11.23
			c-0.76-3.72-1.57-7.45-2.41-11.18c-0.84-3.72-1.72-7.43-2.64-11.13c-0.91-3.7-1.86-7.39-2.85-11.06c-0.98-3.67-2-7.32-3.05-10.95
			c-1.03-3.57-2.11-7.15-3.22-10.72c-1.11-3.57-2.25-7.13-3.43-10.69c-1.18-3.55-2.39-7.09-3.63-10.62
			c-1.24-3.52-2.52-7.03-3.82-10.52c-1.29-3.44-2.61-6.88-3.97-10.32c-1.36-3.43-2.75-6.86-4.17-10.28
			c-1.42-3.42-2.88-6.82-4.37-10.22c-1.48-3.39-3-6.76-4.54-10.12c-1.52-3.31-3.08-6.63-4.68-9.94c-1.59-3.31-3.22-6.61-4.88-9.91
			c-1.66-3.29-3.34-6.57-5.06-9.84c-1.71-3.27-3.46-6.52-5.22-9.75c-1.75-3.2-3.54-6.4-5.35-9.59c-1.82-3.19-3.67-6.38-5.55-9.55
			c-1.88-3.17-3.79-6.34-5.72-9.49c-1.93-3.15-3.89-6.28-5.88-9.39c-1.97-3.09-3.97-6.18-6.01-9.26c-2.04-3.08-4.1-6.15-6.2-9.22
			c-2.09-3.06-4.22-6.11-6.37-9.15c-2.15-3.03-4.32-6.05-6.52-9.05c-2.18-2.98-4.4-5.96-6.65-8.93c-2.25-2.97-4.53-5.94-6.84-8.89
			c-2.31-2.95-4.64-5.89-7-8.81c-2.36-2.92-4.74-5.83-7.14-8.71c-2.4-2.88-4.83-5.75-7.29-8.61c-2.46-2.86-4.95-5.72-7.47-8.56
			c-2.52-2.84-5.06-5.67-7.63-8.48c-2.57-2.81-5.16-5.6-7.77-8.37c-2.61-2.77-5.26-5.53-7.93-8.29c-2.68-2.75-5.38-5.5-8.11-8.22
			c-2.73-2.73-5.49-5.44-8.27-8.14c-2.78-2.7-5.58-5.37-8.4-8.02c-2.83-2.66-5.69-5.31-8.58-7.95c-2.89-2.64-5.82-5.27-8.76-7.88
			c-2.95-2.61-5.93-5.21-8.92-7.78c-3-2.58-6.02-5.13-9.05-7.66c-3.05-2.55-6.14-5.08-9.25-7.6c-3.12-2.52-6.27-5.03-9.44-7.52
			c-3.18-2.49-6.38-4.96-9.59-7.41c-3.22-2.45-6.47-4.88-9.72-7.28c-3.29-2.42-6.6-4.83-9.95-7.22c-3.35-2.4-6.74-4.77-10.14-7.13
			c-3.41-2.36-6.85-4.7-10.3-7.01c-3.46-2.32-6.94-4.61-10.43-6.87c-3.53-2.29-7.09-4.56-10.68-6.81c-3.6-2.26-7.23-4.49-10.88-6.7
			c-3.66-2.22-7.34-4.41-11.04-6.58c-3.71-2.17-7.44-4.31-11.17-6.42c-3.79-2.14-7.61-4.26-11.47-6.36
			c-3.86-2.1-7.76-4.18-11.67-6.24c-3.93-2.06-7.87-4.09-11.84-6.09c-3.98-2.01-7.97-3.99-11.97-5.93
			c-4.07-1.98-8.17-3.93-12.31-5.85c-4.15-1.93-8.32-3.84-12.52-5.72c-4.21-1.88-8.45-3.74-12.7-5.56
			c-4.27-1.83-8.55-3.62-12.84-5.38c-4.37-1.79-8.78-3.55-13.22-5.28c-4.46-1.74-8.94-3.45-13.45-5.13
			c-4.53-1.68-9.08-3.33-13.64-4.95c-4.59-1.62-9.19-3.21-13.8-4.75c-4.63-1.55-9.29-3.07-13.97-4.55
			c-4.7-1.49-9.42-2.94-14.16-4.36c-4.76-1.42-9.53-2.8-14.31-4.14c-4.8-1.35-9.6-2.65-14.41-3.91c-4.76-1.25-9.54-2.46-14.34-3.63
			c-4.83-1.18-9.67-2.32-14.53-3.42c-4.88-1.11-9.77-2.17-14.67-3.19c-4.92-1.03-9.85-2.01-14.77-2.95
			c-4.88-0.93-9.79-1.82-14.71-2.67c-4.95-0.85-9.92-1.66-14.89-2.43c-5-0.77-10.01-1.5-15.02-2.19
			c-5.04-0.69-10.08-1.33-15.11-1.93c-5-0.59-10.03-1.14-15.07-1.64c-5.07-0.51-10.15-0.97-15.23-1.39
			c-5.11-0.42-10.24-0.79-15.35-1.12c-5.15-0.33-10.29-0.61-15.42-0.84c-5.11-0.23-10.25-0.41-15.39-0.55
			c-5.17-0.14-10.35-0.22-15.54-0.26c-5.21-0.04-10.43-0.03-15.64,0.03c-5.24,0.06-10.47,0.17-15.69,0.33
			c-5.21,0.16-10.43,0.37-15.66,0.64c-5.26,0.26-10.52,0.58-15.79,0.95c-5.29,0.37-10.58,0.79-15.86,1.27
			c-5.31,0.48-10.61,1.01-15.88,1.59c-5.28,0.58-10.57,1.22-15.86,1.92c-5.32,0.7-10.64,1.45-15.95,2.26
			c-5.34,0.81-10.68,1.68-15.99,2.61c-5.35,0.93-10.68,1.91-15.98,2.95c-5.32,1.04-10.64,2.15-15.95,3.31
			c-5.35,1.17-10.69,2.4-16.01,3.68c-5.36,1.29-10.69,2.65-16.01,4.06c-5.34,1.42-10.66,2.9-15.94,4.43
			c-5.31,1.54-10.62,3.15-15.91,4.82c-5.32,1.68-10.63,3.42-15.92,5.23c-5.32,1.82-10.61,3.69-15.86,5.63
			c-5.29,1.95-10.54,3.96-15.75,6.02c-5.25,2.08-10.48,4.24-15.69,6.46c-5.24,2.23-10.46,4.54-15.64,6.9
			c-5.21,2.38-10.39,4.82-15.52,7.33c-5.16,2.52-10.28,5.1-15.34,7.74c-5.11,2.67-10.2,5.41-15.25,8.23
			c-5.08,2.83-10.12,5.73-15.12,8.7c-5.03,2.99-10.01,6.04-14.93,9.15c-4.95,3.13-9.85,6.33-14.67,9.58
			c-4.89,3.3-9.74,6.67-14.54,10.12c-4.83,3.47-9.6,7.01-14.32,10.62c-4.74,3.63-9.43,7.33-14.04,11.09
			c-4.64,3.78-9.21,7.63-13.7,11.53c-4.56,3.96-9.06,8-13.49,12.12c-4.46,4.14-8.86,8.36-13.18,12.64
			c-4.35,4.31-8.62,8.69-12.8,13.12c-4.21,4.46-8.33,8.99-12.36,13.57c-4.1,4.66-8.12,9.4-12.06,14.21
			c-3.96,4.84-7.85,9.76-11.64,14.74c-3.81,5.01-7.53,10.09-11.15,15.22c-3.64,5.16-7.18,10.39-10.61,15.66
			c-3.49,5.37-6.89,10.82-10.2,16.35c-3.32,5.56-6.54,11.18-9.65,16.88c-3.13,5.72-6.15,11.51-9.05,17.35
			c-2.92,5.87-5.72,11.79-8.4,17.75c-2.73,6.08-5.35,12.24-7.85,18.48c-2.51,6.26-4.91,12.59-7.18,18.98
			c-2.28,6.42-4.44,12.9-6.46,19.42c-2.03,6.56-3.94,13.16-5.7,19.79c-1.77,6.66-3.41,13.39-4.92,20.16
			c-1.51,6.8-2.89,13.65-4.12,20.53c-1.24,6.91-2.34,13.86-3.29,20.82c-0.96,6.99-1.77,14.01-2.43,21.03
			c-0.66,6.94-1.17,13.94-1.54,20.96c-0.37,7.05-0.6,14.13-0.68,21.23c-0.08,7.13-0.02,14.27,0.19,21.42
			c0.21,7.17,0.57,14.35,1.08,21.51c0.5,7.09,1.15,14.21,1.95,21.35c0.8,7.16,1.75,14.33,2.85,21.51c1.1,7.2,2.35,14.39,3.74,21.58
			c1.4,7.2,2.94,14.39,4.62,21.54c1.67,7.09,3.49,14.2,5.46,21.3c1.97,7.12,4.09,14.23,6.36,21.33c2.27,7.11,4.68,14.2,7.23,21.27
			c2.56,7.07,5.25,14.11,8.08,21.11c2.81,6.94,5.77,13.87,8.87,20.78c3.1,6.92,6.35,13.82,9.74,20.68
			c3.39,6.87,6.91,13.7,10.56,20.49c3.66,6.79,7.44,13.53,11.35,20.2c3.88,6.63,7.91,13.23,12.06,19.8
			c4.16,6.57,8.45,13.1,12.87,19.57c4.42,6.48,8.96,12.9,13.62,19.26c4.66,6.36,9.43,12.64,14.31,18.85
			c4.85,6.18,9.84,12.31,14.95,18.39c5.11,6.07,10.33,12.09,15.67,18.04c5.33,5.94,10.77,11.82,16.32,17.61
			c5.54,5.79,11.17,11.5,16.89,17.11c5.7,5.59,11.52,11.13,17.44,16.59c5.92,5.46,11.94,10.84,18.05,16.14
			c6.1,5.29,12.3,10.51,18.57,15.62c6.26,5.11,12.6,10.13,19.01,15.04c6.39,4.91,12.89,9.74,19.47,14.48
			c6.57,4.74,13.23,9.39,19.96,13.95c6.71,4.55,13.5,9.01,20.35,13.36c6.83,4.35,13.71,8.59,20.64,12.72
			c6.93,4.13,13.94,8.18,21.02,12.14c7.06,3.94,14.19,7.79,21.37,11.55c7.16,3.74,14.37,7.38,21.62,10.91
			c7.22,3.52,14.49,6.94,21.77,10.24c7.3,3.31,14.66,6.52,22.07,9.64c7.38,3.1,14.81,6.11,22.28,9.01
			c7.44,2.89,14.91,5.68,22.4,8.36c7.46,2.67,14.93,5.23,22.41,7.68c7.5,2.45,15.05,4.81,22.63,7.07
			c7.55,2.24,15.13,4.39,22.72,6.42c7.56,2.03,15.13,3.95,22.71,5.77c7.54,1.81,15.08,3.51,22.6,5.1c7.56,1.6,15.15,3.1,22.75,4.5
			c7.57,1.39,15.14,2.68,22.72,3.86c7.54,1.18,15.08,2.25,22.6,3.23c7.48,0.97,14.95,1.83,22.39,2.59
			c7.48,0.76,14.98,1.43,22.47,1.99c7.45,0.56,14.91,1.02,22.34,1.38c7.4,0.36,14.78,0.62,22.13,0.78
			c7.31,0.16,14.59,0.22,21.83,0.19c7.29-0.04,14.58-0.17,21.86-0.4c7.23-0.23,14.45-0.56,21.64-0.98
			c7.15-0.42,14.27-0.93,21.35-1.53c7.04-0.6,14.04-1.29,20.98-2.07c7-0.79,14-1.67,20.96-2.64c6.92-0.97,13.82-2.03,20.69-3.17
			c6.82-1.14,13.6-2.36,20.33-3.67C379.06,896.45,385.7,895.07,392.28,893.61 M392.34,894.85c-112.21,25.04-230.76,24.99-347.66,0.3
			c-126.21-26.65-245.51-80.93-346.85-158.63c-104.75-80.32-184.97-181.53-230.82-294.84c-44.89-110.93-54.35-227.39-24.49-339.4
			c27.73-104,85.85-190.34,162.31-256.73c69.49-60.33,153.18-103.32,242.77-129.27c81.28-23.54,167.44-33.05,253.61-29.15
			c78.95,3.58,158.63,18.44,236.3,44.49c72.32,24.26,137.81,56.53,195.43,93.9c55.25,35.83,104.71,77.25,147,122.13
			c41.62,44.16,77.36,92.79,105.49,144.21c28.42,51.94,49.86,108.16,62.03,167.43c12.66,61.65,14.44,122.35,6.1,180.44
			c-8.88,61.84-29.41,121.97-61.26,177.53c-34.58,60.32-83.04,116.17-145.07,162.86C578.86,831.58,493.48,872.28,392.34,894.85z"/>
	</g>
</g>
</svg>
