<?xml version="1.0" encoding="utf-8"?>
<!-- Generator: Adobe Illustrator 25.2.1, SVG Export Plug-In . SVG Version: 6.00 Build 0)  -->
<svg version="1.1" id="Calque_1" xmlns="http://www.w3.org/2000/svg" xmlns:xlink="http://www.w3.org/1999/xlink" x="0px" y="0px"
	 viewBox="0 0 1194 834" style="enable-background:new 0 0 1194 834;" xml:space="preserve">
<style type="text/css">
	.st0{fill:#061716;}
	.st1{fill:none;stroke:#707070;stroke-width:1.0001;stroke-miterlimit:4.0005;}
	.st2{fill:#155451;}
	.st3{fill:#16706B;}
	.st4{fill:none;stroke:#707070;stroke-width:0.9997;stroke-miterlimit:3.9989;}
	.st5{fill:#1B948D;}
	.st6{fill:none;stroke:#707070;}
	.st7{fill:#1BA19A;}
	.st8{fill:#21DCD2;}
	.st9{fill:none;stroke:#707070;stroke-width:0.9996;stroke-miterlimit:3.9985;}
	.st10{fill:#48F8EF;}
	.st11{fill:#BBFFFB;}
	.st12{fill:none;stroke:#707070;stroke-width:1.0005;stroke-miterlimit:4.0021;}
	.st13{fill:#F2FFFE;}
	.st14{fill:none;stroke:#707070;stroke-width:1.0003;stroke-miterlimit:4.001;}
</style>
<g id="Groupe_68" transform="translate(297.114 230.203)">
	<g id="Rectangle_58" transform="matrix(0.966, 0.259, -0.259, 0.966, -237.585, 633.85)">
		
			<rect x="49.67" y="-562.51" transform="matrix(2.537267e-06 1 -1 2.537267e-06 120.1605 -209.174)" class="st0" width="230" height="1036"/>
		
			<rect x="50.17" y="-562.01" transform="matrix(2.537267e-06 1 -1 2.537267e-06 120.1605 -209.174)" class="st1" width="229" height="1035"/>
	</g>
	<g id="Rectangle_57" transform="matrix(0.966, 0.259, -0.259, 0.966, -81.585, 476.85)">
		
			<rect x="234.67" y="-747.51" transform="matrix(2.537267e-06 1 -1 2.537267e-06 305.16 -394.174)" class="st2" width="230" height="1406"/>
		
			<rect x="235.17" y="-747.01" transform="matrix(2.537267e-06 1 -1 2.537267e-06 305.16 -394.174)" class="st1" width="229" height="1405"/>
	</g>
	<g id="Rectangle_56" transform="matrix(0.97, 0.242, -0.242, 0.97, 9.181, 363.583)">
		
			<rect x="188.37" y="-704.72" transform="matrix(2.543382e-06 1 -1 2.543382e-06 252.6544 -354.0865)" class="st3" width="230" height="1308"/>
		
			<rect x="188.87" y="-704.22" transform="matrix(2.543382e-06 1 -1 2.543382e-06 252.6544 -354.0865)" class="st4" width="229" height="1307"/>
	</g>
	<g id="Rectangle_55" transform="translate(-42.024 316.491) rotate(9)">
		
			<rect x="204.27" y="-734.64" transform="matrix(2.136111e-06 1 -1 2.136111e-06 238.625 -399.9081)" class="st5" width="230" height="1308"/>
		
			<rect x="204.77" y="-734.14" transform="matrix(2.136111e-06 1 -1 2.136111e-06 238.625 -399.9081)" class="st6" width="229" height="1307"/>
	</g>
	<g id="Rectangle_54" transform="translate(-47.451 212.043) rotate(4)">
		
			<rect x="222.59" y="-763.07" transform="matrix(2.071105e-06 1 -1 2.071105e-06 228.5206 -446.6624)" class="st7" width="230" height="1308"/>
		
			<rect x="223.09" y="-762.57" transform="matrix(2.071105e-06 1 -1 2.071105e-06 228.5206 -446.6624)" class="st6" width="229" height="1307"/>
	</g>
	<g id="Rectangle_53" transform="matrix(0.999, -0.035, 0.035, 0.999, -60.681, 160.278)">
		
			<rect x="-291.34" y="-256.05" transform="matrix(-1 2.534880e-06 -2.534880e-06 -1 725.3264 -282.0996)" class="st8" width="1308" height="230"/>
		
			<rect x="-290.84" y="-255.55" transform="matrix(-1 2.534880e-06 -2.534880e-06 -1 725.3264 -282.0996)" class="st9" width="1307" height="229"/>
	</g>
	<g id="Rectangle_52" transform="translate(-74.495 75.285) rotate(-4)">
		
			<rect x="-282.14" y="-265.93" transform="matrix(-1 2.999258e-06 -2.999258e-06 -1 743.7109 -301.8528)" class="st10" width="1308" height="230"/>
		
			<rect x="-281.64" y="-265.43" transform="matrix(-1 2.999258e-06 -2.999258e-06 -1 743.7109 -301.8528)" class="st6" width="1307" height="229"/>
	</g>
	<g id="Rectangle_51" transform="matrix(0.995, -0.105, 0.105, 0.995, -73.504, 24.375)">
		
			<rect x="-272.43" y="-275.58" transform="matrix(-1 2.531423e-06 -2.531423e-06 -1 763.133 -321.1607)" class="st11" width="1308" height="230"/>
		
			<rect x="-271.93" y="-275.08" transform="matrix(-1 2.531423e-06 -2.531423e-06 -1 763.133 -321.1607)" class="st12" width="1307" height="229"/>
	</g>
	<g id="Rectangle_50" transform="matrix(0.985, -0.174, 0.174, 0.985, -48.1, -50.303)">
		
			<rect x="-252.65" y="-293.97" transform="matrix(-1 2.527765e-06 -2.527765e-06 -1 530.7064 -357.9337)" class="st13" width="1036" height="230"/>
		
			<rect x="-252.15" y="-293.47" transform="matrix(-1 2.527765e-06 -2.527765e-06 -1 530.7064 -357.9337)" class="st14" width="1035" height="229"/>
	</g>
</g>
</svg>
