<?xml version="1.0" encoding="utf-8"?>
<!-- Generator: Adobe Illustrator 25.2.1, SVG Export Plug-In . SVG Version: 6.00 Build 0)  -->
<svg version="1.1" id="Calque_1" xmlns="http://www.w3.org/2000/svg" xmlns:xlink="http://www.w3.org/1999/xlink" x="0px" y="0px"
	 viewBox="0 0 1194 834" style="enable-background:new 0 0 1194 834;" xml:space="preserve">
<style type="text/css">
	.st0{fill:#061716;}
	.st1{fill:#707070;}
	.st2{fill:#155451;}
	.st3{fill:#16706B;}
	.st4{fill:#1B948D;}
	.st5{fill:#1BA19A;}
	.st6{fill:#21DCD2;}
	.st7{fill:#48F8EF;}
	.st8{fill:#BBFFFB;}
	.st9{fill:#F2FFFE;}
</style>
<g id="Groupe_68">
	<g id="Rectangle_58" transform="translate(0 1438.391)">
		<path class="st0" d="M-400.69-491.23L1199.5-648.94l-28.55,203.2L-789.56,331.02L-400.69-491.23z"/>
		<path class="st1" d="M1170.6-446.47l28.34-201.58l-1595.7,159.33l-383.45,812.63L1170.6-446.47 M1170.95-445.74L-789.56,331.02
			l388.87-822.25L1199.5-648.94L1170.95-445.74z"/>
	</g>
	<g id="Rectangle_57" transform="translate(566.546 1101.982)">
		<path class="st2" d="M-542.14-648.94L805.59-446.86l-15.13,142.74L-789.56-70.75L-542.14-648.94z"/>
		<path class="st1" d="M790.28-304.72l15.01-141.57L-539.56-646.2L-783.8-74.27L790.28-304.72 M790.46-304.11L-789.56-70.75
			l247.42-578.19L805.59-446.86L790.46-304.11z"/>
	</g>
	<g id="Rectangle_56" transform="translate(672.027 816.692)">
		<path class="st3" d="M-578.44-648.94l1278.99,392.4l-14.08,139.6l-1476.04-15.51L-578.44-648.94z"/>
		<path class="st1" d="M686.28-117.58l13.97-138.45l-1276.23-389.9l-208.45,511.02L686.28-117.58 M686.47-116.95l-1476.04-15.5
			l211.13-516.49l1278.99,392.4L686.47-116.95z"/>
	</g>
	<g id="Rectangle_55" transform="translate(578.073 715.66)">
		<path class="st4" d="M-634.26-648.94l1421.68,400.4l-9.29,139.44L-789.56-94.3L-634.26-648.94z"/>
		<path class="st1" d="M777.91-109.72l9.22-138.3L-630.95-645.61L-784.24-96.94L777.91-109.72 M778.13-109.1L-789.56-94.3
			l155.3-554.64l1421.68,400.4L778.13-109.1z"/>
	</g>
	<g id="Rectangle_54" transform="translate(697.891 504.112)">
		<path class="st5" d="M-725.34-648.94L669.48-167l-4.06,137.19l-1454.98-83.4L-725.34-648.94z"/>
		<path class="st1" d="M665.18-30.42l4.03-136.07L-721.75-645.36l-63.4,529.99L665.18-30.42 M665.42-29.81l-1454.98-83.4
			l64.23-535.73L669.48-167L665.42-29.81z"/>
	</g>
	<g id="Rectangle_53" transform="translate(618.698 361.074)">
		<path class="st6" d="M-789.56-648.94l1535.5,511.4l2.03,138.05L-754.18-67.65L-789.56-648.94z"/>
		<path class="st1" d="M747.71-0.1l-2.02-136.93L-784.93-644.88l34.92,574.95L747.71-0.1 M747.97,0.51L-754.18-67.65l-35.38-581.29
			l1535.5,511.4L747.97,0.51z"/>
	</g>
	<g id="Rectangle_52" transform="translate(565.375 133.964)">
		<path class="st7" d="M-789.56-648.94L795.11,8.88l4.11,139.93L-716.41-43.54L-789.56-648.94z"/>
		<path class="st1" d="M798.95,148.18L794.87,9.39l-1579.4-653.65l72.2,598.75L798.95,148.18 M799.22,148.81L-716.41-43.54
			l-73.16-605.4L795.11,8.88L799.22,148.81z"/>
	</g>
	<g id="Rectangle_51" transform="translate(533.832 0)">
		<path class="st8" d="M-789.56-648.94L825.88,84.02l6.16,141.08L-678.62-23.62L-789.56-648.94z"/>
		<path class="st1" d="M831.76,224.45l-6.11-139.92L-784.22-643.88l109.49,618.41L831.76,224.45 M832.03,225.09L-678.62-23.62
			l-110.95-625.33L825.88,84.02L832.03,225.09z"/>
	</g>
	<g id="Rectangle_50" transform="translate(1106.608 122.419)">
		<path class="st9" d="M-789.56-648.94l966.02,474.28L190.01-8.14l-883.16-175.78L-789.56-648.94z"/>
		<path class="st1" d="M189.63-8.91l-13.46-165.17l-962.75-471.46l95.27,460.18L189.63-8.91 M190.01-8.14l-883.16-175.78
			l-96.42-465.02l966.01,474.28L190.01-8.14z"/>
	</g>
</g>
</svg>
